%TF.GenerationSoftware,KiCad,Pcbnew,8.0.5*%
%TF.CreationDate,2025-03-09T15:17:30+08:00*%
%TF.ProjectId,hardware,68617264-7761-4726-952e-6b696361645f,rev?*%
%TF.SameCoordinates,Original*%
%TF.FileFunction,Paste,Top*%
%TF.FilePolarity,Positive*%
%FSLAX46Y46*%
G04 Gerber Fmt 4.6, Leading zero omitted, Abs format (unit mm)*
G04 Created by KiCad (PCBNEW 8.0.5) date 2025-03-09 15:17:30*
%MOMM*%
%LPD*%
G01*
G04 APERTURE LIST*
G04 Aperture macros list*
%AMRoundRect*
0 Rectangle with rounded corners*
0 $1 Rounding radius*
0 $2 $3 $4 $5 $6 $7 $8 $9 X,Y pos of 4 corners*
0 Add a 4 corners polygon primitive as box body*
4,1,4,$2,$3,$4,$5,$6,$7,$8,$9,$2,$3,0*
0 Add four circle primitives for the rounded corners*
1,1,$1+$1,$2,$3*
1,1,$1+$1,$4,$5*
1,1,$1+$1,$6,$7*
1,1,$1+$1,$8,$9*
0 Add four rect primitives between the rounded corners*
20,1,$1+$1,$2,$3,$4,$5,0*
20,1,$1+$1,$4,$5,$6,$7,0*
20,1,$1+$1,$6,$7,$8,$9,0*
20,1,$1+$1,$8,$9,$2,$3,0*%
G04 Aperture macros list end*
%ADD10RoundRect,0.150000X0.150000X-0.825000X0.150000X0.825000X-0.150000X0.825000X-0.150000X-0.825000X0*%
%ADD11RoundRect,0.140000X-0.170000X0.140000X-0.170000X-0.140000X0.170000X-0.140000X0.170000X0.140000X0*%
%ADD12RoundRect,0.150000X-0.150000X0.825000X-0.150000X-0.825000X0.150000X-0.825000X0.150000X0.825000X0*%
%ADD13RoundRect,0.250000X-0.262500X-0.450000X0.262500X-0.450000X0.262500X0.450000X-0.262500X0.450000X0*%
%ADD14R,1.300000X2.000000*%
%ADD15R,2.000000X1.700000*%
%ADD16RoundRect,0.250000X0.262500X0.450000X-0.262500X0.450000X-0.262500X-0.450000X0.262500X-0.450000X0*%
%ADD17RoundRect,0.140000X-0.140000X-0.170000X0.140000X-0.170000X0.140000X0.170000X-0.140000X0.170000X0*%
G04 APERTURE END LIST*
D10*
%TO.C,U8*%
X177755000Y-105733332D03*
X179025000Y-105733332D03*
X180295000Y-105733332D03*
X181565000Y-105733332D03*
X182835000Y-105733332D03*
X184105000Y-105733332D03*
X185375000Y-105733332D03*
X186645000Y-105733332D03*
X186645000Y-100783332D03*
X185375000Y-100783332D03*
X184105000Y-100783332D03*
X182835000Y-100783332D03*
X181565000Y-100783332D03*
X180295000Y-100783332D03*
X179025000Y-100783332D03*
X177755000Y-100783332D03*
%TD*%
D11*
%TO.C,C14*%
X248900000Y-120820000D03*
X248900000Y-121780000D03*
%TD*%
D12*
%TO.C,U14*%
X259200000Y-92224999D03*
X257930000Y-92224999D03*
X256660000Y-92224999D03*
X255390000Y-92224999D03*
X254120000Y-92224999D03*
X252850000Y-92224999D03*
X251580000Y-92224999D03*
X250310000Y-92224999D03*
X250310000Y-97174999D03*
X251580000Y-97174999D03*
X252850000Y-97174999D03*
X254120000Y-97174999D03*
X255390000Y-97174999D03*
X256660000Y-97174999D03*
X257930000Y-97174999D03*
X259200000Y-97174999D03*
%TD*%
D13*
%TO.C,R12*%
X224287500Y-130700000D03*
X226112500Y-130700000D03*
%TD*%
D14*
%TO.C,M14*%
X278200000Y-118500000D03*
X267600001Y-118500001D03*
D15*
X266000002Y-123800000D03*
D14*
X274000001Y-118500000D03*
X276500001Y-118500000D03*
%TD*%
D13*
%TO.C,R13*%
X230337500Y-130700000D03*
X232162500Y-130700000D03*
%TD*%
D14*
%TO.C,M6*%
X161000001Y-116442853D03*
X171600000Y-116442852D03*
D15*
X173199999Y-111142853D03*
D14*
X165200000Y-116442853D03*
X162700000Y-116442853D03*
%TD*%
D12*
%TO.C,U17*%
X259200000Y-118350000D03*
X257930000Y-118350000D03*
X256660000Y-118350000D03*
X255390000Y-118350000D03*
X254120000Y-118350000D03*
X252850000Y-118350000D03*
X251580000Y-118350000D03*
X250310000Y-118350000D03*
X250310000Y-123300000D03*
X251580000Y-123300000D03*
X252850000Y-123300000D03*
X254120000Y-123300000D03*
X255390000Y-123300000D03*
X256660000Y-123300000D03*
X257930000Y-123300000D03*
X259200000Y-123300000D03*
%TD*%
D13*
%TO.C,R5*%
X179875000Y-130700000D03*
X181700000Y-130700000D03*
%TD*%
D11*
%TO.C,C9*%
X248900000Y-81120000D03*
X248900000Y-82080000D03*
%TD*%
D13*
%TO.C,R19*%
X268187500Y-130700000D03*
X270012500Y-130700000D03*
%TD*%
%TO.C,R7*%
X192575000Y-130700000D03*
X194400000Y-130700000D03*
%TD*%
D14*
%TO.C,M16*%
X278200000Y-55700000D03*
X267600001Y-55700001D03*
D15*
X266000002Y-61000000D03*
D14*
X274000001Y-55700000D03*
X276500001Y-55700000D03*
%TD*%
D10*
%TO.C,U7*%
X177755000Y-97049999D03*
X179025000Y-97049999D03*
X180295000Y-97049999D03*
X181565000Y-97049999D03*
X182835000Y-97049999D03*
X184105000Y-97049999D03*
X185375000Y-97049999D03*
X186645000Y-97049999D03*
X186645000Y-92099999D03*
X185375000Y-92099999D03*
X184105000Y-92099999D03*
X182835000Y-92099999D03*
X181565000Y-92099999D03*
X180295000Y-92099999D03*
X179025000Y-92099999D03*
X177755000Y-92099999D03*
%TD*%
D11*
%TO.C,C16*%
X248800000Y-63720000D03*
X248800000Y-64680000D03*
%TD*%
D10*
%TO.C,U5*%
X177755000Y-79683333D03*
X179025000Y-79683333D03*
X180295000Y-79683333D03*
X181565000Y-79683333D03*
X182835000Y-79683333D03*
X184105000Y-79683333D03*
X185375000Y-79683333D03*
X186645000Y-79683333D03*
X186645000Y-74733333D03*
X185375000Y-74733333D03*
X184105000Y-74733333D03*
X182835000Y-74733333D03*
X181565000Y-74733333D03*
X180295000Y-74733333D03*
X179025000Y-74733333D03*
X177755000Y-74733333D03*
%TD*%
D14*
%TO.C,M15*%
X161000001Y-63300001D03*
X171600000Y-63300000D03*
D15*
X173199999Y-58000001D03*
D14*
X165200000Y-63300001D03*
X162700000Y-63300001D03*
%TD*%
D10*
%TO.C,U9*%
X177755000Y-114416665D03*
X179025000Y-114416665D03*
X180295000Y-114416665D03*
X181565000Y-114416665D03*
X182835000Y-114416665D03*
X184105000Y-114416665D03*
X185375000Y-114416665D03*
X186645000Y-114416665D03*
X186645000Y-109466665D03*
X185375000Y-109466665D03*
X184105000Y-109466665D03*
X182835000Y-109466665D03*
X181565000Y-109466665D03*
X180295000Y-109466665D03*
X179025000Y-109466665D03*
X177755000Y-109466665D03*
%TD*%
D11*
%TO.C,C2*%
X188200000Y-68020000D03*
X188200000Y-68980000D03*
%TD*%
%TO.C,C1*%
X188200000Y-58640000D03*
X188200000Y-59600000D03*
%TD*%
D14*
%TO.C,M4*%
X161000001Y-98728569D03*
X171600000Y-98728568D03*
D15*
X173199999Y-93428569D03*
D14*
X165200000Y-98728569D03*
X162700000Y-98728569D03*
%TD*%
D10*
%TO.C,U3*%
X224255000Y-119275000D03*
X225525000Y-119275000D03*
X226795000Y-119275000D03*
X228065000Y-119275000D03*
X229335000Y-119275000D03*
X230605000Y-119275000D03*
X231875000Y-119275000D03*
X233145000Y-119275000D03*
X233145000Y-114325000D03*
X231875000Y-114325000D03*
X230605000Y-114325000D03*
X229335000Y-114325000D03*
X228065000Y-114325000D03*
X226795000Y-114325000D03*
X225525000Y-114325000D03*
X224255000Y-114325000D03*
%TD*%
D11*
%TO.C,C13*%
X248900000Y-116100000D03*
X248900000Y-117060000D03*
%TD*%
D14*
%TO.C,M3*%
X161000001Y-89871427D03*
X171600000Y-89871426D03*
D15*
X173199999Y-84571427D03*
D14*
X165200000Y-89871427D03*
X162700000Y-89871427D03*
%TD*%
D13*
%TO.C,R14*%
X236387500Y-130700000D03*
X238212500Y-130700000D03*
%TD*%
%TO.C,R16*%
X248887500Y-130700000D03*
X250712500Y-130700000D03*
%TD*%
%TO.C,R10*%
X211437500Y-130700000D03*
X213262500Y-130700000D03*
%TD*%
D14*
%TO.C,M5*%
X161000001Y-107585711D03*
X171600000Y-107585710D03*
D15*
X173199999Y-102285711D03*
D14*
X165200000Y-107585711D03*
X162700000Y-107585711D03*
%TD*%
D13*
%TO.C,R9*%
X205087500Y-130700000D03*
X206912500Y-130700000D03*
%TD*%
D16*
%TO.C,R1*%
X234415000Y-65700000D03*
X232590000Y-65700000D03*
%TD*%
D12*
%TO.C,U16*%
X259200000Y-109641665D03*
X257930000Y-109641665D03*
X256660000Y-109641665D03*
X255390000Y-109641665D03*
X254120000Y-109641665D03*
X252850000Y-109641665D03*
X251580000Y-109641665D03*
X250310000Y-109641665D03*
X250310000Y-114591665D03*
X251580000Y-114591665D03*
X252850000Y-114591665D03*
X254120000Y-114591665D03*
X255390000Y-114591665D03*
X256660000Y-114591665D03*
X257930000Y-114591665D03*
X259200000Y-114591665D03*
%TD*%
D14*
%TO.C,M1*%
X161000001Y-72157143D03*
X171600000Y-72157142D03*
D15*
X173199999Y-66857143D03*
D14*
X165200000Y-72157143D03*
X162700000Y-72157143D03*
%TD*%
D10*
%TO.C,U6*%
X177755000Y-88366666D03*
X179025000Y-88366666D03*
X180295000Y-88366666D03*
X181565000Y-88366666D03*
X182835000Y-88366666D03*
X184105000Y-88366666D03*
X185375000Y-88366666D03*
X186645000Y-88366666D03*
X186645000Y-83416666D03*
X185375000Y-83416666D03*
X184105000Y-83416666D03*
X182835000Y-83416666D03*
X181565000Y-83416666D03*
X180295000Y-83416666D03*
X179025000Y-83416666D03*
X177755000Y-83416666D03*
%TD*%
D11*
%TO.C,C10*%
X248900000Y-90100000D03*
X248900000Y-91060000D03*
%TD*%
%TO.C,C8*%
X248900000Y-72520000D03*
X248900000Y-73480000D03*
%TD*%
D13*
%TO.C,R15*%
X242737500Y-130700000D03*
X244562500Y-130700000D03*
%TD*%
D14*
%TO.C,M9*%
X278200000Y-73836500D03*
X267600001Y-73836501D03*
D15*
X266000002Y-79136500D03*
D14*
X274000001Y-73836500D03*
X276500001Y-73836500D03*
%TD*%
D12*
%TO.C,U15*%
X259200000Y-100933332D03*
X257930000Y-100933332D03*
X256660000Y-100933332D03*
X255390000Y-100933332D03*
X254120000Y-100933332D03*
X252850000Y-100933332D03*
X251580000Y-100933332D03*
X250310000Y-100933332D03*
X250310000Y-105883332D03*
X251580000Y-105883332D03*
X252850000Y-105883332D03*
X254120000Y-105883332D03*
X255390000Y-105883332D03*
X256660000Y-105883332D03*
X257930000Y-105883332D03*
X259200000Y-105883332D03*
%TD*%
D13*
%TO.C,R18*%
X261637500Y-130700000D03*
X263462500Y-130700000D03*
%TD*%
%TO.C,R17*%
X255087500Y-130700000D03*
X256912500Y-130700000D03*
%TD*%
D10*
%TO.C,U4*%
X177755000Y-71000000D03*
X179025000Y-71000000D03*
X180295000Y-71000000D03*
X181565000Y-71000000D03*
X182835000Y-71000000D03*
X184105000Y-71000000D03*
X185375000Y-71000000D03*
X186645000Y-71000000D03*
X186645000Y-66050000D03*
X185375000Y-66050000D03*
X184105000Y-66050000D03*
X182835000Y-66050000D03*
X181565000Y-66050000D03*
X180295000Y-66050000D03*
X179025000Y-66050000D03*
X177755000Y-66050000D03*
%TD*%
%TO.C,U2*%
X202200000Y-119275000D03*
X203470000Y-119275000D03*
X204740000Y-119275000D03*
X206010000Y-119275000D03*
X207280000Y-119275000D03*
X208550000Y-119275000D03*
X209820000Y-119275000D03*
X211090000Y-119275000D03*
X211090000Y-114325000D03*
X209820000Y-114325000D03*
X208550000Y-114325000D03*
X207280000Y-114325000D03*
X206010000Y-114325000D03*
X204740000Y-114325000D03*
X203470000Y-114325000D03*
X202200000Y-114325000D03*
%TD*%
D13*
%TO.C,R11*%
X217937500Y-130700000D03*
X219762500Y-130700000D03*
%TD*%
D11*
%TO.C,C3*%
X188200000Y-76820000D03*
X188200000Y-77780000D03*
%TD*%
%TO.C,C7*%
X188400000Y-111220000D03*
X188400000Y-112180000D03*
%TD*%
D10*
%TO.C,U18*%
X177780000Y-61750000D03*
X179050000Y-61750000D03*
X180320000Y-61750000D03*
X181590000Y-61750000D03*
X182860000Y-61750000D03*
X184130000Y-61750000D03*
X185400000Y-61750000D03*
X186670000Y-61750000D03*
X186670000Y-56800000D03*
X185400000Y-56800000D03*
X184130000Y-56800000D03*
X182860000Y-56800000D03*
X181590000Y-56800000D03*
X180320000Y-56800000D03*
X179050000Y-56800000D03*
X177780000Y-56800000D03*
%TD*%
D13*
%TO.C,R6*%
X186425000Y-130700000D03*
X188250000Y-130700000D03*
%TD*%
D12*
%TO.C,U13*%
X259200000Y-83516666D03*
X257930000Y-83516666D03*
X256660000Y-83516666D03*
X255390000Y-83516666D03*
X254120000Y-83516666D03*
X252850000Y-83516666D03*
X251580000Y-83516666D03*
X250310000Y-83516666D03*
X250310000Y-88466666D03*
X251580000Y-88466666D03*
X252850000Y-88466666D03*
X254120000Y-88466666D03*
X255390000Y-88466666D03*
X256660000Y-88466666D03*
X257930000Y-88466666D03*
X259200000Y-88466666D03*
%TD*%
D14*
%TO.C,M2*%
X161000001Y-81014285D03*
X171600000Y-81014284D03*
D15*
X173199999Y-75714285D03*
D14*
X165200000Y-81014285D03*
X162700000Y-81014285D03*
%TD*%
%TO.C,M8*%
X278200000Y-64636500D03*
X267600001Y-64636501D03*
D15*
X266000002Y-69936500D03*
D14*
X274000001Y-64636500D03*
X276500001Y-64636500D03*
%TD*%
D10*
%TO.C,U10*%
X177755000Y-123100000D03*
X179025000Y-123100000D03*
X180295000Y-123100000D03*
X181565000Y-123100000D03*
X182835000Y-123100000D03*
X184105000Y-123100000D03*
X185375000Y-123100000D03*
X186645000Y-123100000D03*
X186645000Y-118150000D03*
X185375000Y-118150000D03*
X184105000Y-118150000D03*
X182835000Y-118150000D03*
X181565000Y-118150000D03*
X180295000Y-118150000D03*
X179025000Y-118150000D03*
X177755000Y-118150000D03*
%TD*%
D11*
%TO.C,C5*%
X188300000Y-94220000D03*
X188300000Y-95180000D03*
%TD*%
D14*
%TO.C,M11*%
X278200000Y-91900000D03*
X267600001Y-91900001D03*
D15*
X266000002Y-97200000D03*
D14*
X274000001Y-91900000D03*
X276500001Y-91900000D03*
%TD*%
D11*
%TO.C,C11*%
X248900000Y-98520000D03*
X248900000Y-99480000D03*
%TD*%
D14*
%TO.C,M12*%
X278200000Y-100800000D03*
X267600001Y-100800001D03*
D15*
X266000002Y-106100000D03*
D14*
X274000001Y-100800000D03*
X276500001Y-100800000D03*
%TD*%
D17*
%TO.C,C15*%
X188020000Y-54800000D03*
X188980000Y-54800000D03*
%TD*%
D11*
%TO.C,C4*%
X188300000Y-85400000D03*
X188300000Y-86360000D03*
%TD*%
D16*
%TO.C,R3*%
X203412500Y-53000000D03*
X201587500Y-53000000D03*
%TD*%
D13*
%TO.C,R8*%
X198875000Y-130700000D03*
X200700000Y-130700000D03*
%TD*%
D14*
%TO.C,M10*%
X278200000Y-82900000D03*
X267600001Y-82900001D03*
D15*
X266000002Y-88200000D03*
D14*
X274000001Y-82900000D03*
X276500001Y-82900000D03*
%TD*%
%TO.C,M7*%
X161000001Y-125300000D03*
X171600000Y-125299999D03*
D15*
X173199999Y-120000000D03*
D14*
X165200000Y-125300000D03*
X162700000Y-125300000D03*
%TD*%
D12*
%TO.C,U12*%
X259200000Y-74808333D03*
X257930000Y-74808333D03*
X256660000Y-74808333D03*
X255390000Y-74808333D03*
X254120000Y-74808333D03*
X252850000Y-74808333D03*
X251580000Y-74808333D03*
X250310000Y-74808333D03*
X250310000Y-79758333D03*
X251580000Y-79758333D03*
X252850000Y-79758333D03*
X254120000Y-79758333D03*
X255390000Y-79758333D03*
X256660000Y-79758333D03*
X257930000Y-79758333D03*
X259200000Y-79758333D03*
%TD*%
D16*
%TO.C,R2*%
X234370000Y-55500000D03*
X232545000Y-55500000D03*
%TD*%
D11*
%TO.C,C12*%
X248900000Y-107220000D03*
X248900000Y-108180000D03*
%TD*%
D14*
%TO.C,M13*%
X278200000Y-109700000D03*
X267600001Y-109700001D03*
D15*
X266000002Y-115000000D03*
D14*
X274000001Y-109700000D03*
X276500001Y-109700000D03*
%TD*%
D12*
%TO.C,U11*%
X259200000Y-66100000D03*
X257930000Y-66100000D03*
X256660000Y-66100000D03*
X255390000Y-66100000D03*
X254120000Y-66100000D03*
X252850000Y-66100000D03*
X251580000Y-66100000D03*
X250310000Y-66100000D03*
X250310000Y-71050000D03*
X251580000Y-71050000D03*
X252850000Y-71050000D03*
X254120000Y-71050000D03*
X255390000Y-71050000D03*
X256660000Y-71050000D03*
X257930000Y-71050000D03*
X259200000Y-71050000D03*
%TD*%
D11*
%TO.C,C6*%
X188300000Y-103020000D03*
X188300000Y-103980000D03*
%TD*%
D12*
%TO.C,U19*%
X259100000Y-57225000D03*
X257830000Y-57225000D03*
X256560000Y-57225000D03*
X255290000Y-57225000D03*
X254020000Y-57225000D03*
X252750000Y-57225000D03*
X251480000Y-57225000D03*
X250210000Y-57225000D03*
X250210000Y-62175000D03*
X251480000Y-62175000D03*
X252750000Y-62175000D03*
X254020000Y-62175000D03*
X255290000Y-62175000D03*
X256560000Y-62175000D03*
X257830000Y-62175000D03*
X259100000Y-62175000D03*
%TD*%
D13*
%TO.C,R4*%
X173687500Y-130700000D03*
X175512500Y-130700000D03*
%TD*%
M02*
