G04 #@! TF.GenerationSoftware,KiCad,Pcbnew,8.0.5*
G04 #@! TF.CreationDate,2025-03-13T16:15:27+08:00*
G04 #@! TF.ProjectId,hardware,68617264-7761-4726-952e-6b696361645f,rev?*
G04 #@! TF.SameCoordinates,Original*
G04 #@! TF.FileFunction,Legend,Top*
G04 #@! TF.FilePolarity,Positive*
%FSLAX46Y46*%
G04 Gerber Fmt 4.6, Leading zero omitted, Abs format (unit mm)*
G04 Created by KiCad (PCBNEW 8.0.5) date 2025-03-13 16:15:27*
%MOMM*%
%LPD*%
G01*
G04 APERTURE LIST*
G04 Aperture macros list*
%AMRoundRect*
0 Rectangle with rounded corners*
0 $1 Rounding radius*
0 $2 $3 $4 $5 $6 $7 $8 $9 X,Y pos of 4 corners*
0 Add a 4 corners polygon primitive as box body*
4,1,4,$2,$3,$4,$5,$6,$7,$8,$9,$2,$3,0*
0 Add four circle primitives for the rounded corners*
1,1,$1+$1,$2,$3*
1,1,$1+$1,$4,$5*
1,1,$1+$1,$6,$7*
1,1,$1+$1,$8,$9*
0 Add four rect primitives between the rounded corners*
20,1,$1+$1,$2,$3,$4,$5,0*
20,1,$1+$1,$4,$5,$6,$7,0*
20,1,$1+$1,$6,$7,$8,$9,0*
20,1,$1+$1,$8,$9,$2,$3,0*%
G04 Aperture macros list end*
%ADD10C,0.150000*%
%ADD11C,0.254000*%
%ADD12C,0.120000*%
%ADD13R,1.300000X2.000000*%
%ADD14R,2.000000X1.700000*%
%ADD15RoundRect,0.150000X0.150000X-0.825000X0.150000X0.825000X-0.150000X0.825000X-0.150000X-0.825000X0*%
%ADD16RoundRect,0.140000X-0.170000X0.140000X-0.170000X-0.140000X0.170000X-0.140000X0.170000X0.140000X0*%
%ADD17RoundRect,0.150000X-0.150000X0.825000X-0.150000X-0.825000X0.150000X-0.825000X0.150000X0.825000X0*%
%ADD18RoundRect,0.250000X-0.262500X-0.450000X0.262500X-0.450000X0.262500X0.450000X-0.262500X0.450000X0*%
%ADD19C,1.600000*%
%ADD20R,2.000000X4.000000*%
%ADD21O,2.000000X3.300000*%
%ADD22O,3.500000X2.000000*%
%ADD23R,2.000000X2.000000*%
%ADD24O,2.000000X1.600000*%
%ADD25RoundRect,0.250000X0.262500X0.450000X-0.262500X0.450000X-0.262500X-0.450000X0.262500X-0.450000X0*%
%ADD26RoundRect,0.140000X-0.140000X-0.170000X0.140000X-0.170000X0.140000X0.170000X-0.140000X0.170000X0*%
%ADD27O,4.404000X2.004000*%
G04 APERTURE END LIST*
D10*
X284581820Y-60049213D02*
X283581820Y-60049213D01*
X283581820Y-60049213D02*
X284296105Y-59715880D01*
X284296105Y-59715880D02*
X283581820Y-59382547D01*
X283581820Y-59382547D02*
X284581820Y-59382547D01*
X284581820Y-58382547D02*
X284581820Y-58953975D01*
X284581820Y-58668261D02*
X283581820Y-58668261D01*
X283581820Y-58668261D02*
X283724677Y-58763499D01*
X283724677Y-58763499D02*
X283819915Y-58858737D01*
X283819915Y-58858737D02*
X283867534Y-58953975D01*
X283581820Y-57525404D02*
X283581820Y-57715880D01*
X283581820Y-57715880D02*
X283629439Y-57811118D01*
X283629439Y-57811118D02*
X283677058Y-57858737D01*
X283677058Y-57858737D02*
X283819915Y-57953975D01*
X283819915Y-57953975D02*
X284010391Y-58001594D01*
X284010391Y-58001594D02*
X284391343Y-58001594D01*
X284391343Y-58001594D02*
X284486581Y-57953975D01*
X284486581Y-57953975D02*
X284534201Y-57906356D01*
X284534201Y-57906356D02*
X284581820Y-57811118D01*
X284581820Y-57811118D02*
X284581820Y-57620642D01*
X284581820Y-57620642D02*
X284534201Y-57525404D01*
X284534201Y-57525404D02*
X284486581Y-57477785D01*
X284486581Y-57477785D02*
X284391343Y-57430166D01*
X284391343Y-57430166D02*
X284153248Y-57430166D01*
X284153248Y-57430166D02*
X284058010Y-57477785D01*
X284058010Y-57477785D02*
X284010391Y-57525404D01*
X284010391Y-57525404D02*
X283962772Y-57620642D01*
X283962772Y-57620642D02*
X283962772Y-57811118D01*
X283962772Y-57811118D02*
X284010391Y-57906356D01*
X284010391Y-57906356D02*
X284058010Y-57953975D01*
X284058010Y-57953975D02*
X284153248Y-58001594D01*
X284581820Y-68509523D02*
X283581820Y-68509523D01*
X283581820Y-68509523D02*
X284296105Y-68176190D01*
X284296105Y-68176190D02*
X283581820Y-67842857D01*
X283581820Y-67842857D02*
X284581820Y-67842857D01*
X284010391Y-67223809D02*
X283962772Y-67319047D01*
X283962772Y-67319047D02*
X283915153Y-67366666D01*
X283915153Y-67366666D02*
X283819915Y-67414285D01*
X283819915Y-67414285D02*
X283772296Y-67414285D01*
X283772296Y-67414285D02*
X283677058Y-67366666D01*
X283677058Y-67366666D02*
X283629439Y-67319047D01*
X283629439Y-67319047D02*
X283581820Y-67223809D01*
X283581820Y-67223809D02*
X283581820Y-67033333D01*
X283581820Y-67033333D02*
X283629439Y-66938095D01*
X283629439Y-66938095D02*
X283677058Y-66890476D01*
X283677058Y-66890476D02*
X283772296Y-66842857D01*
X283772296Y-66842857D02*
X283819915Y-66842857D01*
X283819915Y-66842857D02*
X283915153Y-66890476D01*
X283915153Y-66890476D02*
X283962772Y-66938095D01*
X283962772Y-66938095D02*
X284010391Y-67033333D01*
X284010391Y-67033333D02*
X284010391Y-67223809D01*
X284010391Y-67223809D02*
X284058010Y-67319047D01*
X284058010Y-67319047D02*
X284105629Y-67366666D01*
X284105629Y-67366666D02*
X284200867Y-67414285D01*
X284200867Y-67414285D02*
X284391343Y-67414285D01*
X284391343Y-67414285D02*
X284486581Y-67366666D01*
X284486581Y-67366666D02*
X284534201Y-67319047D01*
X284534201Y-67319047D02*
X284581820Y-67223809D01*
X284581820Y-67223809D02*
X284581820Y-67033333D01*
X284581820Y-67033333D02*
X284534201Y-66938095D01*
X284534201Y-66938095D02*
X284486581Y-66890476D01*
X284486581Y-66890476D02*
X284391343Y-66842857D01*
X284391343Y-66842857D02*
X284200867Y-66842857D01*
X284200867Y-66842857D02*
X284105629Y-66890476D01*
X284105629Y-66890476D02*
X284058010Y-66938095D01*
X284058010Y-66938095D02*
X284010391Y-67033333D01*
X284581820Y-77709523D02*
X283581820Y-77709523D01*
X283581820Y-77709523D02*
X284296105Y-77376190D01*
X284296105Y-77376190D02*
X283581820Y-77042857D01*
X283581820Y-77042857D02*
X284581820Y-77042857D01*
X284581820Y-76519047D02*
X284581820Y-76328571D01*
X284581820Y-76328571D02*
X284534201Y-76233333D01*
X284534201Y-76233333D02*
X284486581Y-76185714D01*
X284486581Y-76185714D02*
X284343724Y-76090476D01*
X284343724Y-76090476D02*
X284153248Y-76042857D01*
X284153248Y-76042857D02*
X283772296Y-76042857D01*
X283772296Y-76042857D02*
X283677058Y-76090476D01*
X283677058Y-76090476D02*
X283629439Y-76138095D01*
X283629439Y-76138095D02*
X283581820Y-76233333D01*
X283581820Y-76233333D02*
X283581820Y-76423809D01*
X283581820Y-76423809D02*
X283629439Y-76519047D01*
X283629439Y-76519047D02*
X283677058Y-76566666D01*
X283677058Y-76566666D02*
X283772296Y-76614285D01*
X283772296Y-76614285D02*
X284010391Y-76614285D01*
X284010391Y-76614285D02*
X284105629Y-76566666D01*
X284105629Y-76566666D02*
X284153248Y-76519047D01*
X284153248Y-76519047D02*
X284200867Y-76423809D01*
X284200867Y-76423809D02*
X284200867Y-76233333D01*
X284200867Y-76233333D02*
X284153248Y-76138095D01*
X284153248Y-76138095D02*
X284105629Y-76090476D01*
X284105629Y-76090476D02*
X284010391Y-76042857D01*
X284581820Y-87249213D02*
X283581820Y-87249213D01*
X283581820Y-87249213D02*
X284296105Y-86915880D01*
X284296105Y-86915880D02*
X283581820Y-86582547D01*
X283581820Y-86582547D02*
X284581820Y-86582547D01*
X284581820Y-85582547D02*
X284581820Y-86153975D01*
X284581820Y-85868261D02*
X283581820Y-85868261D01*
X283581820Y-85868261D02*
X283724677Y-85963499D01*
X283724677Y-85963499D02*
X283819915Y-86058737D01*
X283819915Y-86058737D02*
X283867534Y-86153975D01*
X283581820Y-84963499D02*
X283581820Y-84868261D01*
X283581820Y-84868261D02*
X283629439Y-84773023D01*
X283629439Y-84773023D02*
X283677058Y-84725404D01*
X283677058Y-84725404D02*
X283772296Y-84677785D01*
X283772296Y-84677785D02*
X283962772Y-84630166D01*
X283962772Y-84630166D02*
X284200867Y-84630166D01*
X284200867Y-84630166D02*
X284391343Y-84677785D01*
X284391343Y-84677785D02*
X284486581Y-84725404D01*
X284486581Y-84725404D02*
X284534201Y-84773023D01*
X284534201Y-84773023D02*
X284581820Y-84868261D01*
X284581820Y-84868261D02*
X284581820Y-84963499D01*
X284581820Y-84963499D02*
X284534201Y-85058737D01*
X284534201Y-85058737D02*
X284486581Y-85106356D01*
X284486581Y-85106356D02*
X284391343Y-85153975D01*
X284391343Y-85153975D02*
X284200867Y-85201594D01*
X284200867Y-85201594D02*
X283962772Y-85201594D01*
X283962772Y-85201594D02*
X283772296Y-85153975D01*
X283772296Y-85153975D02*
X283677058Y-85106356D01*
X283677058Y-85106356D02*
X283629439Y-85058737D01*
X283629439Y-85058737D02*
X283581820Y-84963499D01*
X284581820Y-96249213D02*
X283581820Y-96249213D01*
X283581820Y-96249213D02*
X284296105Y-95915880D01*
X284296105Y-95915880D02*
X283581820Y-95582547D01*
X283581820Y-95582547D02*
X284581820Y-95582547D01*
X284581820Y-94582547D02*
X284581820Y-95153975D01*
X284581820Y-94868261D02*
X283581820Y-94868261D01*
X283581820Y-94868261D02*
X283724677Y-94963499D01*
X283724677Y-94963499D02*
X283819915Y-95058737D01*
X283819915Y-95058737D02*
X283867534Y-95153975D01*
X284581820Y-93630166D02*
X284581820Y-94201594D01*
X284581820Y-93915880D02*
X283581820Y-93915880D01*
X283581820Y-93915880D02*
X283724677Y-94011118D01*
X283724677Y-94011118D02*
X283819915Y-94106356D01*
X283819915Y-94106356D02*
X283867534Y-94201594D01*
X284581820Y-105149213D02*
X283581820Y-105149213D01*
X283581820Y-105149213D02*
X284296105Y-104815880D01*
X284296105Y-104815880D02*
X283581820Y-104482547D01*
X283581820Y-104482547D02*
X284581820Y-104482547D01*
X284581820Y-103482547D02*
X284581820Y-104053975D01*
X284581820Y-103768261D02*
X283581820Y-103768261D01*
X283581820Y-103768261D02*
X283724677Y-103863499D01*
X283724677Y-103863499D02*
X283819915Y-103958737D01*
X283819915Y-103958737D02*
X283867534Y-104053975D01*
X283677058Y-103101594D02*
X283629439Y-103053975D01*
X283629439Y-103053975D02*
X283581820Y-102958737D01*
X283581820Y-102958737D02*
X283581820Y-102720642D01*
X283581820Y-102720642D02*
X283629439Y-102625404D01*
X283629439Y-102625404D02*
X283677058Y-102577785D01*
X283677058Y-102577785D02*
X283772296Y-102530166D01*
X283772296Y-102530166D02*
X283867534Y-102530166D01*
X283867534Y-102530166D02*
X284010391Y-102577785D01*
X284010391Y-102577785D02*
X284581820Y-103149213D01*
X284581820Y-103149213D02*
X284581820Y-102530166D01*
X284581820Y-114049213D02*
X283581820Y-114049213D01*
X283581820Y-114049213D02*
X284296105Y-113715880D01*
X284296105Y-113715880D02*
X283581820Y-113382547D01*
X283581820Y-113382547D02*
X284581820Y-113382547D01*
X284581820Y-112382547D02*
X284581820Y-112953975D01*
X284581820Y-112668261D02*
X283581820Y-112668261D01*
X283581820Y-112668261D02*
X283724677Y-112763499D01*
X283724677Y-112763499D02*
X283819915Y-112858737D01*
X283819915Y-112858737D02*
X283867534Y-112953975D01*
X283581820Y-112049213D02*
X283581820Y-111430166D01*
X283581820Y-111430166D02*
X283962772Y-111763499D01*
X283962772Y-111763499D02*
X283962772Y-111620642D01*
X283962772Y-111620642D02*
X284010391Y-111525404D01*
X284010391Y-111525404D02*
X284058010Y-111477785D01*
X284058010Y-111477785D02*
X284153248Y-111430166D01*
X284153248Y-111430166D02*
X284391343Y-111430166D01*
X284391343Y-111430166D02*
X284486581Y-111477785D01*
X284486581Y-111477785D02*
X284534201Y-111525404D01*
X284534201Y-111525404D02*
X284581820Y-111620642D01*
X284581820Y-111620642D02*
X284581820Y-111906356D01*
X284581820Y-111906356D02*
X284534201Y-112001594D01*
X284534201Y-112001594D02*
X284486581Y-112049213D01*
X284581820Y-122849213D02*
X283581820Y-122849213D01*
X283581820Y-122849213D02*
X284296105Y-122515880D01*
X284296105Y-122515880D02*
X283581820Y-122182547D01*
X283581820Y-122182547D02*
X284581820Y-122182547D01*
X284581820Y-121182547D02*
X284581820Y-121753975D01*
X284581820Y-121468261D02*
X283581820Y-121468261D01*
X283581820Y-121468261D02*
X283724677Y-121563499D01*
X283724677Y-121563499D02*
X283819915Y-121658737D01*
X283819915Y-121658737D02*
X283867534Y-121753975D01*
X283915153Y-120325404D02*
X284581820Y-120325404D01*
X283534201Y-120563499D02*
X284248486Y-120801594D01*
X284248486Y-120801594D02*
X284248486Y-120182547D01*
X155491320Y-123046023D02*
X154491320Y-123046023D01*
X154491320Y-123046023D02*
X155205605Y-122712690D01*
X155205605Y-122712690D02*
X154491320Y-122379357D01*
X154491320Y-122379357D02*
X155491320Y-122379357D01*
X154491320Y-121998404D02*
X154491320Y-121331738D01*
X154491320Y-121331738D02*
X155491320Y-121760309D01*
X155527819Y-114188876D02*
X154527819Y-114188876D01*
X154527819Y-114188876D02*
X155242104Y-113855543D01*
X155242104Y-113855543D02*
X154527819Y-113522210D01*
X154527819Y-113522210D02*
X155527819Y-113522210D01*
X154527819Y-112617448D02*
X154527819Y-112807924D01*
X154527819Y-112807924D02*
X154575438Y-112903162D01*
X154575438Y-112903162D02*
X154623057Y-112950781D01*
X154623057Y-112950781D02*
X154765914Y-113046019D01*
X154765914Y-113046019D02*
X154956390Y-113093638D01*
X154956390Y-113093638D02*
X155337342Y-113093638D01*
X155337342Y-113093638D02*
X155432580Y-113046019D01*
X155432580Y-113046019D02*
X155480200Y-112998400D01*
X155480200Y-112998400D02*
X155527819Y-112903162D01*
X155527819Y-112903162D02*
X155527819Y-112712686D01*
X155527819Y-112712686D02*
X155480200Y-112617448D01*
X155480200Y-112617448D02*
X155432580Y-112569829D01*
X155432580Y-112569829D02*
X155337342Y-112522210D01*
X155337342Y-112522210D02*
X155099247Y-112522210D01*
X155099247Y-112522210D02*
X155004009Y-112569829D01*
X155004009Y-112569829D02*
X154956390Y-112617448D01*
X154956390Y-112617448D02*
X154908771Y-112712686D01*
X154908771Y-112712686D02*
X154908771Y-112903162D01*
X154908771Y-112903162D02*
X154956390Y-112998400D01*
X154956390Y-112998400D02*
X155004009Y-113046019D01*
X155004009Y-113046019D02*
X155099247Y-113093638D01*
X155491320Y-105331734D02*
X154491320Y-105331734D01*
X154491320Y-105331734D02*
X155205605Y-104998401D01*
X155205605Y-104998401D02*
X154491320Y-104665068D01*
X154491320Y-104665068D02*
X155491320Y-104665068D01*
X154491320Y-103712687D02*
X154491320Y-104188877D01*
X154491320Y-104188877D02*
X154967510Y-104236496D01*
X154967510Y-104236496D02*
X154919891Y-104188877D01*
X154919891Y-104188877D02*
X154872272Y-104093639D01*
X154872272Y-104093639D02*
X154872272Y-103855544D01*
X154872272Y-103855544D02*
X154919891Y-103760306D01*
X154919891Y-103760306D02*
X154967510Y-103712687D01*
X154967510Y-103712687D02*
X155062748Y-103665068D01*
X155062748Y-103665068D02*
X155300843Y-103665068D01*
X155300843Y-103665068D02*
X155396081Y-103712687D01*
X155396081Y-103712687D02*
X155443701Y-103760306D01*
X155443701Y-103760306D02*
X155491320Y-103855544D01*
X155491320Y-103855544D02*
X155491320Y-104093639D01*
X155491320Y-104093639D02*
X155443701Y-104188877D01*
X155443701Y-104188877D02*
X155396081Y-104236496D01*
X155491320Y-96474592D02*
X154491320Y-96474592D01*
X154491320Y-96474592D02*
X155205605Y-96141259D01*
X155205605Y-96141259D02*
X154491320Y-95807926D01*
X154491320Y-95807926D02*
X155491320Y-95807926D01*
X154824653Y-94903164D02*
X155491320Y-94903164D01*
X154443701Y-95141259D02*
X155157986Y-95379354D01*
X155157986Y-95379354D02*
X155157986Y-94760307D01*
X155491320Y-87617450D02*
X154491320Y-87617450D01*
X154491320Y-87617450D02*
X155205605Y-87284117D01*
X155205605Y-87284117D02*
X154491320Y-86950784D01*
X154491320Y-86950784D02*
X155491320Y-86950784D01*
X154491320Y-86569831D02*
X154491320Y-85950784D01*
X154491320Y-85950784D02*
X154872272Y-86284117D01*
X154872272Y-86284117D02*
X154872272Y-86141260D01*
X154872272Y-86141260D02*
X154919891Y-86046022D01*
X154919891Y-86046022D02*
X154967510Y-85998403D01*
X154967510Y-85998403D02*
X155062748Y-85950784D01*
X155062748Y-85950784D02*
X155300843Y-85950784D01*
X155300843Y-85950784D02*
X155396081Y-85998403D01*
X155396081Y-85998403D02*
X155443701Y-86046022D01*
X155443701Y-86046022D02*
X155491320Y-86141260D01*
X155491320Y-86141260D02*
X155491320Y-86426974D01*
X155491320Y-86426974D02*
X155443701Y-86522212D01*
X155443701Y-86522212D02*
X155396081Y-86569831D01*
X155491320Y-78760308D02*
X154491320Y-78760308D01*
X154491320Y-78760308D02*
X155205605Y-78426975D01*
X155205605Y-78426975D02*
X154491320Y-78093642D01*
X154491320Y-78093642D02*
X155491320Y-78093642D01*
X154586558Y-77665070D02*
X154538939Y-77617451D01*
X154538939Y-77617451D02*
X154491320Y-77522213D01*
X154491320Y-77522213D02*
X154491320Y-77284118D01*
X154491320Y-77284118D02*
X154538939Y-77188880D01*
X154538939Y-77188880D02*
X154586558Y-77141261D01*
X154586558Y-77141261D02*
X154681796Y-77093642D01*
X154681796Y-77093642D02*
X154777034Y-77093642D01*
X154777034Y-77093642D02*
X154919891Y-77141261D01*
X154919891Y-77141261D02*
X155491320Y-77712689D01*
X155491320Y-77712689D02*
X155491320Y-77093642D01*
X155491320Y-69903166D02*
X154491320Y-69903166D01*
X154491320Y-69903166D02*
X155205605Y-69569833D01*
X155205605Y-69569833D02*
X154491320Y-69236500D01*
X154491320Y-69236500D02*
X155491320Y-69236500D01*
X155491320Y-68236500D02*
X155491320Y-68807928D01*
X155491320Y-68522214D02*
X154491320Y-68522214D01*
X154491320Y-68522214D02*
X154634177Y-68617452D01*
X154634177Y-68617452D02*
X154729415Y-68712690D01*
X154729415Y-68712690D02*
X154777034Y-68807928D01*
X155527818Y-61522214D02*
X154527818Y-61522214D01*
X154527818Y-61522214D02*
X155242103Y-61188881D01*
X155242103Y-61188881D02*
X154527818Y-60855548D01*
X154527818Y-60855548D02*
X155527818Y-60855548D01*
X155527818Y-59855548D02*
X155527818Y-60426976D01*
X155527818Y-60141262D02*
X154527818Y-60141262D01*
X154527818Y-60141262D02*
X154670675Y-60236500D01*
X154670675Y-60236500D02*
X154765913Y-60331738D01*
X154765913Y-60331738D02*
X154813532Y-60426976D01*
X154527818Y-58950786D02*
X154527818Y-59426976D01*
X154527818Y-59426976D02*
X155004008Y-59474595D01*
X155004008Y-59474595D02*
X154956389Y-59426976D01*
X154956389Y-59426976D02*
X154908770Y-59331738D01*
X154908770Y-59331738D02*
X154908770Y-59093643D01*
X154908770Y-59093643D02*
X154956389Y-58998405D01*
X154956389Y-58998405D02*
X155004008Y-58950786D01*
X155004008Y-58950786D02*
X155099246Y-58903167D01*
X155099246Y-58903167D02*
X155337341Y-58903167D01*
X155337341Y-58903167D02*
X155432579Y-58950786D01*
X155432579Y-58950786D02*
X155480199Y-58998405D01*
X155480199Y-58998405D02*
X155527818Y-59093643D01*
X155527818Y-59093643D02*
X155527818Y-59331738D01*
X155527818Y-59331738D02*
X155480199Y-59426976D01*
X155480199Y-59426976D02*
X155432579Y-59474595D01*
X175754819Y-104020236D02*
X176564342Y-104020236D01*
X176564342Y-104020236D02*
X176659580Y-103972617D01*
X176659580Y-103972617D02*
X176707200Y-103924998D01*
X176707200Y-103924998D02*
X176754819Y-103829760D01*
X176754819Y-103829760D02*
X176754819Y-103639284D01*
X176754819Y-103639284D02*
X176707200Y-103544046D01*
X176707200Y-103544046D02*
X176659580Y-103496427D01*
X176659580Y-103496427D02*
X176564342Y-103448808D01*
X176564342Y-103448808D02*
X175754819Y-103448808D01*
X176183390Y-102829760D02*
X176135771Y-102924998D01*
X176135771Y-102924998D02*
X176088152Y-102972617D01*
X176088152Y-102972617D02*
X175992914Y-103020236D01*
X175992914Y-103020236D02*
X175945295Y-103020236D01*
X175945295Y-103020236D02*
X175850057Y-102972617D01*
X175850057Y-102972617D02*
X175802438Y-102924998D01*
X175802438Y-102924998D02*
X175754819Y-102829760D01*
X175754819Y-102829760D02*
X175754819Y-102639284D01*
X175754819Y-102639284D02*
X175802438Y-102544046D01*
X175802438Y-102544046D02*
X175850057Y-102496427D01*
X175850057Y-102496427D02*
X175945295Y-102448808D01*
X175945295Y-102448808D02*
X175992914Y-102448808D01*
X175992914Y-102448808D02*
X176088152Y-102496427D01*
X176088152Y-102496427D02*
X176135771Y-102544046D01*
X176135771Y-102544046D02*
X176183390Y-102639284D01*
X176183390Y-102639284D02*
X176183390Y-102829760D01*
X176183390Y-102829760D02*
X176231009Y-102924998D01*
X176231009Y-102924998D02*
X176278628Y-102972617D01*
X176278628Y-102972617D02*
X176373866Y-103020236D01*
X176373866Y-103020236D02*
X176564342Y-103020236D01*
X176564342Y-103020236D02*
X176659580Y-102972617D01*
X176659580Y-102972617D02*
X176707200Y-102924998D01*
X176707200Y-102924998D02*
X176754819Y-102829760D01*
X176754819Y-102829760D02*
X176754819Y-102639284D01*
X176754819Y-102639284D02*
X176707200Y-102544046D01*
X176707200Y-102544046D02*
X176659580Y-102496427D01*
X176659580Y-102496427D02*
X176564342Y-102448808D01*
X176564342Y-102448808D02*
X176373866Y-102448808D01*
X176373866Y-102448808D02*
X176278628Y-102496427D01*
X176278628Y-102496427D02*
X176231009Y-102544046D01*
X176231009Y-102544046D02*
X176183390Y-102639284D01*
X250459580Y-122062857D02*
X250507200Y-122110476D01*
X250507200Y-122110476D02*
X250554819Y-122253333D01*
X250554819Y-122253333D02*
X250554819Y-122348571D01*
X250554819Y-122348571D02*
X250507200Y-122491428D01*
X250507200Y-122491428D02*
X250411961Y-122586666D01*
X250411961Y-122586666D02*
X250316723Y-122634285D01*
X250316723Y-122634285D02*
X250126247Y-122681904D01*
X250126247Y-122681904D02*
X249983390Y-122681904D01*
X249983390Y-122681904D02*
X249792914Y-122634285D01*
X249792914Y-122634285D02*
X249697676Y-122586666D01*
X249697676Y-122586666D02*
X249602438Y-122491428D01*
X249602438Y-122491428D02*
X249554819Y-122348571D01*
X249554819Y-122348571D02*
X249554819Y-122253333D01*
X249554819Y-122253333D02*
X249602438Y-122110476D01*
X249602438Y-122110476D02*
X249650057Y-122062857D01*
X250554819Y-121110476D02*
X250554819Y-121681904D01*
X250554819Y-121396190D02*
X249554819Y-121396190D01*
X249554819Y-121396190D02*
X249697676Y-121491428D01*
X249697676Y-121491428D02*
X249792914Y-121586666D01*
X249792914Y-121586666D02*
X249840533Y-121681904D01*
X249888152Y-120253333D02*
X250554819Y-120253333D01*
X249507200Y-120491428D02*
X250221485Y-120729523D01*
X250221485Y-120729523D02*
X250221485Y-120110476D01*
X260109819Y-95938093D02*
X260919342Y-95938093D01*
X260919342Y-95938093D02*
X261014580Y-95890474D01*
X261014580Y-95890474D02*
X261062200Y-95842855D01*
X261062200Y-95842855D02*
X261109819Y-95747617D01*
X261109819Y-95747617D02*
X261109819Y-95557141D01*
X261109819Y-95557141D02*
X261062200Y-95461903D01*
X261062200Y-95461903D02*
X261014580Y-95414284D01*
X261014580Y-95414284D02*
X260919342Y-95366665D01*
X260919342Y-95366665D02*
X260109819Y-95366665D01*
X261109819Y-94366665D02*
X261109819Y-94938093D01*
X261109819Y-94652379D02*
X260109819Y-94652379D01*
X260109819Y-94652379D02*
X260252676Y-94747617D01*
X260252676Y-94747617D02*
X260347914Y-94842855D01*
X260347914Y-94842855D02*
X260395533Y-94938093D01*
X260443152Y-93509522D02*
X261109819Y-93509522D01*
X260062200Y-93747617D02*
X260776485Y-93985712D01*
X260776485Y-93985712D02*
X260776485Y-93366665D01*
X224557142Y-129504819D02*
X224223809Y-129028628D01*
X223985714Y-129504819D02*
X223985714Y-128504819D01*
X223985714Y-128504819D02*
X224366666Y-128504819D01*
X224366666Y-128504819D02*
X224461904Y-128552438D01*
X224461904Y-128552438D02*
X224509523Y-128600057D01*
X224509523Y-128600057D02*
X224557142Y-128695295D01*
X224557142Y-128695295D02*
X224557142Y-128838152D01*
X224557142Y-128838152D02*
X224509523Y-128933390D01*
X224509523Y-128933390D02*
X224461904Y-128981009D01*
X224461904Y-128981009D02*
X224366666Y-129028628D01*
X224366666Y-129028628D02*
X223985714Y-129028628D01*
X225509523Y-129504819D02*
X224938095Y-129504819D01*
X225223809Y-129504819D02*
X225223809Y-128504819D01*
X225223809Y-128504819D02*
X225128571Y-128647676D01*
X225128571Y-128647676D02*
X225033333Y-128742914D01*
X225033333Y-128742914D02*
X224938095Y-128790533D01*
X225890476Y-128600057D02*
X225938095Y-128552438D01*
X225938095Y-128552438D02*
X226033333Y-128504819D01*
X226033333Y-128504819D02*
X226271428Y-128504819D01*
X226271428Y-128504819D02*
X226366666Y-128552438D01*
X226366666Y-128552438D02*
X226414285Y-128600057D01*
X226414285Y-128600057D02*
X226461904Y-128695295D01*
X226461904Y-128695295D02*
X226461904Y-128790533D01*
X226461904Y-128790533D02*
X226414285Y-128933390D01*
X226414285Y-128933390D02*
X225842857Y-129504819D01*
X225842857Y-129504819D02*
X226461904Y-129504819D01*
X230607142Y-129504819D02*
X230273809Y-129028628D01*
X230035714Y-129504819D02*
X230035714Y-128504819D01*
X230035714Y-128504819D02*
X230416666Y-128504819D01*
X230416666Y-128504819D02*
X230511904Y-128552438D01*
X230511904Y-128552438D02*
X230559523Y-128600057D01*
X230559523Y-128600057D02*
X230607142Y-128695295D01*
X230607142Y-128695295D02*
X230607142Y-128838152D01*
X230607142Y-128838152D02*
X230559523Y-128933390D01*
X230559523Y-128933390D02*
X230511904Y-128981009D01*
X230511904Y-128981009D02*
X230416666Y-129028628D01*
X230416666Y-129028628D02*
X230035714Y-129028628D01*
X231559523Y-129504819D02*
X230988095Y-129504819D01*
X231273809Y-129504819D02*
X231273809Y-128504819D01*
X231273809Y-128504819D02*
X231178571Y-128647676D01*
X231178571Y-128647676D02*
X231083333Y-128742914D01*
X231083333Y-128742914D02*
X230988095Y-128790533D01*
X231892857Y-128504819D02*
X232511904Y-128504819D01*
X232511904Y-128504819D02*
X232178571Y-128885771D01*
X232178571Y-128885771D02*
X232321428Y-128885771D01*
X232321428Y-128885771D02*
X232416666Y-128933390D01*
X232416666Y-128933390D02*
X232464285Y-128981009D01*
X232464285Y-128981009D02*
X232511904Y-129076247D01*
X232511904Y-129076247D02*
X232511904Y-129314342D01*
X232511904Y-129314342D02*
X232464285Y-129409580D01*
X232464285Y-129409580D02*
X232416666Y-129457200D01*
X232416666Y-129457200D02*
X232321428Y-129504819D01*
X232321428Y-129504819D02*
X232035714Y-129504819D01*
X232035714Y-129504819D02*
X231940476Y-129457200D01*
X231940476Y-129457200D02*
X231892857Y-129409580D01*
X260109819Y-122063094D02*
X260919342Y-122063094D01*
X260919342Y-122063094D02*
X261014580Y-122015475D01*
X261014580Y-122015475D02*
X261062200Y-121967856D01*
X261062200Y-121967856D02*
X261109819Y-121872618D01*
X261109819Y-121872618D02*
X261109819Y-121682142D01*
X261109819Y-121682142D02*
X261062200Y-121586904D01*
X261062200Y-121586904D02*
X261014580Y-121539285D01*
X261014580Y-121539285D02*
X260919342Y-121491666D01*
X260919342Y-121491666D02*
X260109819Y-121491666D01*
X261109819Y-120491666D02*
X261109819Y-121063094D01*
X261109819Y-120777380D02*
X260109819Y-120777380D01*
X260109819Y-120777380D02*
X260252676Y-120872618D01*
X260252676Y-120872618D02*
X260347914Y-120967856D01*
X260347914Y-120967856D02*
X260395533Y-121063094D01*
X260109819Y-120158332D02*
X260109819Y-119491666D01*
X260109819Y-119491666D02*
X261109819Y-119920237D01*
X180620833Y-129504819D02*
X180287500Y-129028628D01*
X180049405Y-129504819D02*
X180049405Y-128504819D01*
X180049405Y-128504819D02*
X180430357Y-128504819D01*
X180430357Y-128504819D02*
X180525595Y-128552438D01*
X180525595Y-128552438D02*
X180573214Y-128600057D01*
X180573214Y-128600057D02*
X180620833Y-128695295D01*
X180620833Y-128695295D02*
X180620833Y-128838152D01*
X180620833Y-128838152D02*
X180573214Y-128933390D01*
X180573214Y-128933390D02*
X180525595Y-128981009D01*
X180525595Y-128981009D02*
X180430357Y-129028628D01*
X180430357Y-129028628D02*
X180049405Y-129028628D01*
X181525595Y-128504819D02*
X181049405Y-128504819D01*
X181049405Y-128504819D02*
X181001786Y-128981009D01*
X181001786Y-128981009D02*
X181049405Y-128933390D01*
X181049405Y-128933390D02*
X181144643Y-128885771D01*
X181144643Y-128885771D02*
X181382738Y-128885771D01*
X181382738Y-128885771D02*
X181477976Y-128933390D01*
X181477976Y-128933390D02*
X181525595Y-128981009D01*
X181525595Y-128981009D02*
X181573214Y-129076247D01*
X181573214Y-129076247D02*
X181573214Y-129314342D01*
X181573214Y-129314342D02*
X181525595Y-129409580D01*
X181525595Y-129409580D02*
X181477976Y-129457200D01*
X181477976Y-129457200D02*
X181382738Y-129504819D01*
X181382738Y-129504819D02*
X181144643Y-129504819D01*
X181144643Y-129504819D02*
X181049405Y-129457200D01*
X181049405Y-129457200D02*
X181001786Y-129409580D01*
X250419580Y-81766666D02*
X250467200Y-81814285D01*
X250467200Y-81814285D02*
X250514819Y-81957142D01*
X250514819Y-81957142D02*
X250514819Y-82052380D01*
X250514819Y-82052380D02*
X250467200Y-82195237D01*
X250467200Y-82195237D02*
X250371961Y-82290475D01*
X250371961Y-82290475D02*
X250276723Y-82338094D01*
X250276723Y-82338094D02*
X250086247Y-82385713D01*
X250086247Y-82385713D02*
X249943390Y-82385713D01*
X249943390Y-82385713D02*
X249752914Y-82338094D01*
X249752914Y-82338094D02*
X249657676Y-82290475D01*
X249657676Y-82290475D02*
X249562438Y-82195237D01*
X249562438Y-82195237D02*
X249514819Y-82052380D01*
X249514819Y-82052380D02*
X249514819Y-81957142D01*
X249514819Y-81957142D02*
X249562438Y-81814285D01*
X249562438Y-81814285D02*
X249610057Y-81766666D01*
X250514819Y-81290475D02*
X250514819Y-81099999D01*
X250514819Y-81099999D02*
X250467200Y-81004761D01*
X250467200Y-81004761D02*
X250419580Y-80957142D01*
X250419580Y-80957142D02*
X250276723Y-80861904D01*
X250276723Y-80861904D02*
X250086247Y-80814285D01*
X250086247Y-80814285D02*
X249705295Y-80814285D01*
X249705295Y-80814285D02*
X249610057Y-80861904D01*
X249610057Y-80861904D02*
X249562438Y-80909523D01*
X249562438Y-80909523D02*
X249514819Y-81004761D01*
X249514819Y-81004761D02*
X249514819Y-81195237D01*
X249514819Y-81195237D02*
X249562438Y-81290475D01*
X249562438Y-81290475D02*
X249610057Y-81338094D01*
X249610057Y-81338094D02*
X249705295Y-81385713D01*
X249705295Y-81385713D02*
X249943390Y-81385713D01*
X249943390Y-81385713D02*
X250038628Y-81338094D01*
X250038628Y-81338094D02*
X250086247Y-81290475D01*
X250086247Y-81290475D02*
X250133866Y-81195237D01*
X250133866Y-81195237D02*
X250133866Y-81004761D01*
X250133866Y-81004761D02*
X250086247Y-80909523D01*
X250086247Y-80909523D02*
X250038628Y-80861904D01*
X250038628Y-80861904D02*
X249943390Y-80814285D01*
X268457142Y-129504819D02*
X268123809Y-129028628D01*
X267885714Y-129504819D02*
X267885714Y-128504819D01*
X267885714Y-128504819D02*
X268266666Y-128504819D01*
X268266666Y-128504819D02*
X268361904Y-128552438D01*
X268361904Y-128552438D02*
X268409523Y-128600057D01*
X268409523Y-128600057D02*
X268457142Y-128695295D01*
X268457142Y-128695295D02*
X268457142Y-128838152D01*
X268457142Y-128838152D02*
X268409523Y-128933390D01*
X268409523Y-128933390D02*
X268361904Y-128981009D01*
X268361904Y-128981009D02*
X268266666Y-129028628D01*
X268266666Y-129028628D02*
X267885714Y-129028628D01*
X269409523Y-129504819D02*
X268838095Y-129504819D01*
X269123809Y-129504819D02*
X269123809Y-128504819D01*
X269123809Y-128504819D02*
X269028571Y-128647676D01*
X269028571Y-128647676D02*
X268933333Y-128742914D01*
X268933333Y-128742914D02*
X268838095Y-128790533D01*
X269885714Y-129504819D02*
X270076190Y-129504819D01*
X270076190Y-129504819D02*
X270171428Y-129457200D01*
X270171428Y-129457200D02*
X270219047Y-129409580D01*
X270219047Y-129409580D02*
X270314285Y-129266723D01*
X270314285Y-129266723D02*
X270361904Y-129076247D01*
X270361904Y-129076247D02*
X270361904Y-128695295D01*
X270361904Y-128695295D02*
X270314285Y-128600057D01*
X270314285Y-128600057D02*
X270266666Y-128552438D01*
X270266666Y-128552438D02*
X270171428Y-128504819D01*
X270171428Y-128504819D02*
X269980952Y-128504819D01*
X269980952Y-128504819D02*
X269885714Y-128552438D01*
X269885714Y-128552438D02*
X269838095Y-128600057D01*
X269838095Y-128600057D02*
X269790476Y-128695295D01*
X269790476Y-128695295D02*
X269790476Y-128933390D01*
X269790476Y-128933390D02*
X269838095Y-129028628D01*
X269838095Y-129028628D02*
X269885714Y-129076247D01*
X269885714Y-129076247D02*
X269980952Y-129123866D01*
X269980952Y-129123866D02*
X270171428Y-129123866D01*
X270171428Y-129123866D02*
X270266666Y-129076247D01*
X270266666Y-129076247D02*
X270314285Y-129028628D01*
X270314285Y-129028628D02*
X270361904Y-128933390D01*
X193320833Y-129504819D02*
X192987500Y-129028628D01*
X192749405Y-129504819D02*
X192749405Y-128504819D01*
X192749405Y-128504819D02*
X193130357Y-128504819D01*
X193130357Y-128504819D02*
X193225595Y-128552438D01*
X193225595Y-128552438D02*
X193273214Y-128600057D01*
X193273214Y-128600057D02*
X193320833Y-128695295D01*
X193320833Y-128695295D02*
X193320833Y-128838152D01*
X193320833Y-128838152D02*
X193273214Y-128933390D01*
X193273214Y-128933390D02*
X193225595Y-128981009D01*
X193225595Y-128981009D02*
X193130357Y-129028628D01*
X193130357Y-129028628D02*
X192749405Y-129028628D01*
X193654167Y-128504819D02*
X194320833Y-128504819D01*
X194320833Y-128504819D02*
X193892262Y-129504819D01*
X175754819Y-95336903D02*
X176564342Y-95336903D01*
X176564342Y-95336903D02*
X176659580Y-95289284D01*
X176659580Y-95289284D02*
X176707200Y-95241665D01*
X176707200Y-95241665D02*
X176754819Y-95146427D01*
X176754819Y-95146427D02*
X176754819Y-94955951D01*
X176754819Y-94955951D02*
X176707200Y-94860713D01*
X176707200Y-94860713D02*
X176659580Y-94813094D01*
X176659580Y-94813094D02*
X176564342Y-94765475D01*
X176564342Y-94765475D02*
X175754819Y-94765475D01*
X175754819Y-94384522D02*
X175754819Y-93717856D01*
X175754819Y-93717856D02*
X176754819Y-94146427D01*
X250319580Y-64842857D02*
X250367200Y-64890476D01*
X250367200Y-64890476D02*
X250414819Y-65033333D01*
X250414819Y-65033333D02*
X250414819Y-65128571D01*
X250414819Y-65128571D02*
X250367200Y-65271428D01*
X250367200Y-65271428D02*
X250271961Y-65366666D01*
X250271961Y-65366666D02*
X250176723Y-65414285D01*
X250176723Y-65414285D02*
X249986247Y-65461904D01*
X249986247Y-65461904D02*
X249843390Y-65461904D01*
X249843390Y-65461904D02*
X249652914Y-65414285D01*
X249652914Y-65414285D02*
X249557676Y-65366666D01*
X249557676Y-65366666D02*
X249462438Y-65271428D01*
X249462438Y-65271428D02*
X249414819Y-65128571D01*
X249414819Y-65128571D02*
X249414819Y-65033333D01*
X249414819Y-65033333D02*
X249462438Y-64890476D01*
X249462438Y-64890476D02*
X249510057Y-64842857D01*
X250414819Y-63890476D02*
X250414819Y-64461904D01*
X250414819Y-64176190D02*
X249414819Y-64176190D01*
X249414819Y-64176190D02*
X249557676Y-64271428D01*
X249557676Y-64271428D02*
X249652914Y-64366666D01*
X249652914Y-64366666D02*
X249700533Y-64461904D01*
X249414819Y-63033333D02*
X249414819Y-63223809D01*
X249414819Y-63223809D02*
X249462438Y-63319047D01*
X249462438Y-63319047D02*
X249510057Y-63366666D01*
X249510057Y-63366666D02*
X249652914Y-63461904D01*
X249652914Y-63461904D02*
X249843390Y-63509523D01*
X249843390Y-63509523D02*
X250224342Y-63509523D01*
X250224342Y-63509523D02*
X250319580Y-63461904D01*
X250319580Y-63461904D02*
X250367200Y-63414285D01*
X250367200Y-63414285D02*
X250414819Y-63319047D01*
X250414819Y-63319047D02*
X250414819Y-63128571D01*
X250414819Y-63128571D02*
X250367200Y-63033333D01*
X250367200Y-63033333D02*
X250319580Y-62985714D01*
X250319580Y-62985714D02*
X250224342Y-62938095D01*
X250224342Y-62938095D02*
X249986247Y-62938095D01*
X249986247Y-62938095D02*
X249891009Y-62985714D01*
X249891009Y-62985714D02*
X249843390Y-63033333D01*
X249843390Y-63033333D02*
X249795771Y-63128571D01*
X249795771Y-63128571D02*
X249795771Y-63319047D01*
X249795771Y-63319047D02*
X249843390Y-63414285D01*
X249843390Y-63414285D02*
X249891009Y-63461904D01*
X249891009Y-63461904D02*
X249986247Y-63509523D01*
X234154818Y-50133333D02*
X234869103Y-50133333D01*
X234869103Y-50133333D02*
X235011960Y-50180952D01*
X235011960Y-50180952D02*
X235107199Y-50276190D01*
X235107199Y-50276190D02*
X235154818Y-50419047D01*
X235154818Y-50419047D02*
X235154818Y-50514285D01*
X234250056Y-49704761D02*
X234202437Y-49657142D01*
X234202437Y-49657142D02*
X234154818Y-49561904D01*
X234154818Y-49561904D02*
X234154818Y-49323809D01*
X234154818Y-49323809D02*
X234202437Y-49228571D01*
X234202437Y-49228571D02*
X234250056Y-49180952D01*
X234250056Y-49180952D02*
X234345294Y-49133333D01*
X234345294Y-49133333D02*
X234440532Y-49133333D01*
X234440532Y-49133333D02*
X234583389Y-49180952D01*
X234583389Y-49180952D02*
X235154818Y-49752380D01*
X235154818Y-49752380D02*
X235154818Y-49133333D01*
X175754819Y-77970237D02*
X176564342Y-77970237D01*
X176564342Y-77970237D02*
X176659580Y-77922618D01*
X176659580Y-77922618D02*
X176707200Y-77874999D01*
X176707200Y-77874999D02*
X176754819Y-77779761D01*
X176754819Y-77779761D02*
X176754819Y-77589285D01*
X176754819Y-77589285D02*
X176707200Y-77494047D01*
X176707200Y-77494047D02*
X176659580Y-77446428D01*
X176659580Y-77446428D02*
X176564342Y-77398809D01*
X176564342Y-77398809D02*
X175754819Y-77398809D01*
X175754819Y-76446428D02*
X175754819Y-76922618D01*
X175754819Y-76922618D02*
X176231009Y-76970237D01*
X176231009Y-76970237D02*
X176183390Y-76922618D01*
X176183390Y-76922618D02*
X176135771Y-76827380D01*
X176135771Y-76827380D02*
X176135771Y-76589285D01*
X176135771Y-76589285D02*
X176183390Y-76494047D01*
X176183390Y-76494047D02*
X176231009Y-76446428D01*
X176231009Y-76446428D02*
X176326247Y-76398809D01*
X176326247Y-76398809D02*
X176564342Y-76398809D01*
X176564342Y-76398809D02*
X176659580Y-76446428D01*
X176659580Y-76446428D02*
X176707200Y-76494047D01*
X176707200Y-76494047D02*
X176754819Y-76589285D01*
X176754819Y-76589285D02*
X176754819Y-76827380D01*
X176754819Y-76827380D02*
X176707200Y-76922618D01*
X176707200Y-76922618D02*
X176659580Y-76970237D01*
X175754819Y-112703569D02*
X176564342Y-112703569D01*
X176564342Y-112703569D02*
X176659580Y-112655950D01*
X176659580Y-112655950D02*
X176707200Y-112608331D01*
X176707200Y-112608331D02*
X176754819Y-112513093D01*
X176754819Y-112513093D02*
X176754819Y-112322617D01*
X176754819Y-112322617D02*
X176707200Y-112227379D01*
X176707200Y-112227379D02*
X176659580Y-112179760D01*
X176659580Y-112179760D02*
X176564342Y-112132141D01*
X176564342Y-112132141D02*
X175754819Y-112132141D01*
X176754819Y-111608331D02*
X176754819Y-111417855D01*
X176754819Y-111417855D02*
X176707200Y-111322617D01*
X176707200Y-111322617D02*
X176659580Y-111274998D01*
X176659580Y-111274998D02*
X176516723Y-111179760D01*
X176516723Y-111179760D02*
X176326247Y-111132141D01*
X176326247Y-111132141D02*
X175945295Y-111132141D01*
X175945295Y-111132141D02*
X175850057Y-111179760D01*
X175850057Y-111179760D02*
X175802438Y-111227379D01*
X175802438Y-111227379D02*
X175754819Y-111322617D01*
X175754819Y-111322617D02*
X175754819Y-111513093D01*
X175754819Y-111513093D02*
X175802438Y-111608331D01*
X175802438Y-111608331D02*
X175850057Y-111655950D01*
X175850057Y-111655950D02*
X175945295Y-111703569D01*
X175945295Y-111703569D02*
X176183390Y-111703569D01*
X176183390Y-111703569D02*
X176278628Y-111655950D01*
X176278628Y-111655950D02*
X176326247Y-111608331D01*
X176326247Y-111608331D02*
X176373866Y-111513093D01*
X176373866Y-111513093D02*
X176373866Y-111322617D01*
X176373866Y-111322617D02*
X176326247Y-111227379D01*
X176326247Y-111227379D02*
X176278628Y-111179760D01*
X176278628Y-111179760D02*
X176183390Y-111132141D01*
X189719580Y-68666666D02*
X189767200Y-68714285D01*
X189767200Y-68714285D02*
X189814819Y-68857142D01*
X189814819Y-68857142D02*
X189814819Y-68952380D01*
X189814819Y-68952380D02*
X189767200Y-69095237D01*
X189767200Y-69095237D02*
X189671961Y-69190475D01*
X189671961Y-69190475D02*
X189576723Y-69238094D01*
X189576723Y-69238094D02*
X189386247Y-69285713D01*
X189386247Y-69285713D02*
X189243390Y-69285713D01*
X189243390Y-69285713D02*
X189052914Y-69238094D01*
X189052914Y-69238094D02*
X188957676Y-69190475D01*
X188957676Y-69190475D02*
X188862438Y-69095237D01*
X188862438Y-69095237D02*
X188814819Y-68952380D01*
X188814819Y-68952380D02*
X188814819Y-68857142D01*
X188814819Y-68857142D02*
X188862438Y-68714285D01*
X188862438Y-68714285D02*
X188910057Y-68666666D01*
X188910057Y-68285713D02*
X188862438Y-68238094D01*
X188862438Y-68238094D02*
X188814819Y-68142856D01*
X188814819Y-68142856D02*
X188814819Y-67904761D01*
X188814819Y-67904761D02*
X188862438Y-67809523D01*
X188862438Y-67809523D02*
X188910057Y-67761904D01*
X188910057Y-67761904D02*
X189005295Y-67714285D01*
X189005295Y-67714285D02*
X189100533Y-67714285D01*
X189100533Y-67714285D02*
X189243390Y-67761904D01*
X189243390Y-67761904D02*
X189814819Y-68333332D01*
X189814819Y-68333332D02*
X189814819Y-67714285D01*
X189719580Y-59286666D02*
X189767200Y-59334285D01*
X189767200Y-59334285D02*
X189814819Y-59477142D01*
X189814819Y-59477142D02*
X189814819Y-59572380D01*
X189814819Y-59572380D02*
X189767200Y-59715237D01*
X189767200Y-59715237D02*
X189671961Y-59810475D01*
X189671961Y-59810475D02*
X189576723Y-59858094D01*
X189576723Y-59858094D02*
X189386247Y-59905713D01*
X189386247Y-59905713D02*
X189243390Y-59905713D01*
X189243390Y-59905713D02*
X189052914Y-59858094D01*
X189052914Y-59858094D02*
X188957676Y-59810475D01*
X188957676Y-59810475D02*
X188862438Y-59715237D01*
X188862438Y-59715237D02*
X188814819Y-59572380D01*
X188814819Y-59572380D02*
X188814819Y-59477142D01*
X188814819Y-59477142D02*
X188862438Y-59334285D01*
X188862438Y-59334285D02*
X188910057Y-59286666D01*
X189814819Y-58334285D02*
X189814819Y-58905713D01*
X189814819Y-58619999D02*
X188814819Y-58619999D01*
X188814819Y-58619999D02*
X188957676Y-58715237D01*
X188957676Y-58715237D02*
X189052914Y-58810475D01*
X189052914Y-58810475D02*
X189100533Y-58905713D01*
X222254819Y-117561904D02*
X223064342Y-117561904D01*
X223064342Y-117561904D02*
X223159580Y-117514285D01*
X223159580Y-117514285D02*
X223207200Y-117466666D01*
X223207200Y-117466666D02*
X223254819Y-117371428D01*
X223254819Y-117371428D02*
X223254819Y-117180952D01*
X223254819Y-117180952D02*
X223207200Y-117085714D01*
X223207200Y-117085714D02*
X223159580Y-117038095D01*
X223159580Y-117038095D02*
X223064342Y-116990476D01*
X223064342Y-116990476D02*
X222254819Y-116990476D01*
X222254819Y-116609523D02*
X222254819Y-115990476D01*
X222254819Y-115990476D02*
X222635771Y-116323809D01*
X222635771Y-116323809D02*
X222635771Y-116180952D01*
X222635771Y-116180952D02*
X222683390Y-116085714D01*
X222683390Y-116085714D02*
X222731009Y-116038095D01*
X222731009Y-116038095D02*
X222826247Y-115990476D01*
X222826247Y-115990476D02*
X223064342Y-115990476D01*
X223064342Y-115990476D02*
X223159580Y-116038095D01*
X223159580Y-116038095D02*
X223207200Y-116085714D01*
X223207200Y-116085714D02*
X223254819Y-116180952D01*
X223254819Y-116180952D02*
X223254819Y-116466666D01*
X223254819Y-116466666D02*
X223207200Y-116561904D01*
X223207200Y-116561904D02*
X223159580Y-116609523D01*
X250419580Y-117222857D02*
X250467200Y-117270476D01*
X250467200Y-117270476D02*
X250514819Y-117413333D01*
X250514819Y-117413333D02*
X250514819Y-117508571D01*
X250514819Y-117508571D02*
X250467200Y-117651428D01*
X250467200Y-117651428D02*
X250371961Y-117746666D01*
X250371961Y-117746666D02*
X250276723Y-117794285D01*
X250276723Y-117794285D02*
X250086247Y-117841904D01*
X250086247Y-117841904D02*
X249943390Y-117841904D01*
X249943390Y-117841904D02*
X249752914Y-117794285D01*
X249752914Y-117794285D02*
X249657676Y-117746666D01*
X249657676Y-117746666D02*
X249562438Y-117651428D01*
X249562438Y-117651428D02*
X249514819Y-117508571D01*
X249514819Y-117508571D02*
X249514819Y-117413333D01*
X249514819Y-117413333D02*
X249562438Y-117270476D01*
X249562438Y-117270476D02*
X249610057Y-117222857D01*
X250514819Y-116270476D02*
X250514819Y-116841904D01*
X250514819Y-116556190D02*
X249514819Y-116556190D01*
X249514819Y-116556190D02*
X249657676Y-116651428D01*
X249657676Y-116651428D02*
X249752914Y-116746666D01*
X249752914Y-116746666D02*
X249800533Y-116841904D01*
X249514819Y-115937142D02*
X249514819Y-115318095D01*
X249514819Y-115318095D02*
X249895771Y-115651428D01*
X249895771Y-115651428D02*
X249895771Y-115508571D01*
X249895771Y-115508571D02*
X249943390Y-115413333D01*
X249943390Y-115413333D02*
X249991009Y-115365714D01*
X249991009Y-115365714D02*
X250086247Y-115318095D01*
X250086247Y-115318095D02*
X250324342Y-115318095D01*
X250324342Y-115318095D02*
X250419580Y-115365714D01*
X250419580Y-115365714D02*
X250467200Y-115413333D01*
X250467200Y-115413333D02*
X250514819Y-115508571D01*
X250514819Y-115508571D02*
X250514819Y-115794285D01*
X250514819Y-115794285D02*
X250467200Y-115889523D01*
X250467200Y-115889523D02*
X250419580Y-115937142D01*
X236657142Y-129504819D02*
X236323809Y-129028628D01*
X236085714Y-129504819D02*
X236085714Y-128504819D01*
X236085714Y-128504819D02*
X236466666Y-128504819D01*
X236466666Y-128504819D02*
X236561904Y-128552438D01*
X236561904Y-128552438D02*
X236609523Y-128600057D01*
X236609523Y-128600057D02*
X236657142Y-128695295D01*
X236657142Y-128695295D02*
X236657142Y-128838152D01*
X236657142Y-128838152D02*
X236609523Y-128933390D01*
X236609523Y-128933390D02*
X236561904Y-128981009D01*
X236561904Y-128981009D02*
X236466666Y-129028628D01*
X236466666Y-129028628D02*
X236085714Y-129028628D01*
X237609523Y-129504819D02*
X237038095Y-129504819D01*
X237323809Y-129504819D02*
X237323809Y-128504819D01*
X237323809Y-128504819D02*
X237228571Y-128647676D01*
X237228571Y-128647676D02*
X237133333Y-128742914D01*
X237133333Y-128742914D02*
X237038095Y-128790533D01*
X238466666Y-128838152D02*
X238466666Y-129504819D01*
X238228571Y-128457200D02*
X237990476Y-129171485D01*
X237990476Y-129171485D02*
X238609523Y-129171485D01*
X249157142Y-129504819D02*
X248823809Y-129028628D01*
X248585714Y-129504819D02*
X248585714Y-128504819D01*
X248585714Y-128504819D02*
X248966666Y-128504819D01*
X248966666Y-128504819D02*
X249061904Y-128552438D01*
X249061904Y-128552438D02*
X249109523Y-128600057D01*
X249109523Y-128600057D02*
X249157142Y-128695295D01*
X249157142Y-128695295D02*
X249157142Y-128838152D01*
X249157142Y-128838152D02*
X249109523Y-128933390D01*
X249109523Y-128933390D02*
X249061904Y-128981009D01*
X249061904Y-128981009D02*
X248966666Y-129028628D01*
X248966666Y-129028628D02*
X248585714Y-129028628D01*
X250109523Y-129504819D02*
X249538095Y-129504819D01*
X249823809Y-129504819D02*
X249823809Y-128504819D01*
X249823809Y-128504819D02*
X249728571Y-128647676D01*
X249728571Y-128647676D02*
X249633333Y-128742914D01*
X249633333Y-128742914D02*
X249538095Y-128790533D01*
X250966666Y-128504819D02*
X250776190Y-128504819D01*
X250776190Y-128504819D02*
X250680952Y-128552438D01*
X250680952Y-128552438D02*
X250633333Y-128600057D01*
X250633333Y-128600057D02*
X250538095Y-128742914D01*
X250538095Y-128742914D02*
X250490476Y-128933390D01*
X250490476Y-128933390D02*
X250490476Y-129314342D01*
X250490476Y-129314342D02*
X250538095Y-129409580D01*
X250538095Y-129409580D02*
X250585714Y-129457200D01*
X250585714Y-129457200D02*
X250680952Y-129504819D01*
X250680952Y-129504819D02*
X250871428Y-129504819D01*
X250871428Y-129504819D02*
X250966666Y-129457200D01*
X250966666Y-129457200D02*
X251014285Y-129409580D01*
X251014285Y-129409580D02*
X251061904Y-129314342D01*
X251061904Y-129314342D02*
X251061904Y-129076247D01*
X251061904Y-129076247D02*
X251014285Y-128981009D01*
X251014285Y-128981009D02*
X250966666Y-128933390D01*
X250966666Y-128933390D02*
X250871428Y-128885771D01*
X250871428Y-128885771D02*
X250680952Y-128885771D01*
X250680952Y-128885771D02*
X250585714Y-128933390D01*
X250585714Y-128933390D02*
X250538095Y-128981009D01*
X250538095Y-128981009D02*
X250490476Y-129076247D01*
X211707142Y-129504819D02*
X211373809Y-129028628D01*
X211135714Y-129504819D02*
X211135714Y-128504819D01*
X211135714Y-128504819D02*
X211516666Y-128504819D01*
X211516666Y-128504819D02*
X211611904Y-128552438D01*
X211611904Y-128552438D02*
X211659523Y-128600057D01*
X211659523Y-128600057D02*
X211707142Y-128695295D01*
X211707142Y-128695295D02*
X211707142Y-128838152D01*
X211707142Y-128838152D02*
X211659523Y-128933390D01*
X211659523Y-128933390D02*
X211611904Y-128981009D01*
X211611904Y-128981009D02*
X211516666Y-129028628D01*
X211516666Y-129028628D02*
X211135714Y-129028628D01*
X212659523Y-129504819D02*
X212088095Y-129504819D01*
X212373809Y-129504819D02*
X212373809Y-128504819D01*
X212373809Y-128504819D02*
X212278571Y-128647676D01*
X212278571Y-128647676D02*
X212183333Y-128742914D01*
X212183333Y-128742914D02*
X212088095Y-128790533D01*
X213278571Y-128504819D02*
X213373809Y-128504819D01*
X213373809Y-128504819D02*
X213469047Y-128552438D01*
X213469047Y-128552438D02*
X213516666Y-128600057D01*
X213516666Y-128600057D02*
X213564285Y-128695295D01*
X213564285Y-128695295D02*
X213611904Y-128885771D01*
X213611904Y-128885771D02*
X213611904Y-129123866D01*
X213611904Y-129123866D02*
X213564285Y-129314342D01*
X213564285Y-129314342D02*
X213516666Y-129409580D01*
X213516666Y-129409580D02*
X213469047Y-129457200D01*
X213469047Y-129457200D02*
X213373809Y-129504819D01*
X213373809Y-129504819D02*
X213278571Y-129504819D01*
X213278571Y-129504819D02*
X213183333Y-129457200D01*
X213183333Y-129457200D02*
X213135714Y-129409580D01*
X213135714Y-129409580D02*
X213088095Y-129314342D01*
X213088095Y-129314342D02*
X213040476Y-129123866D01*
X213040476Y-129123866D02*
X213040476Y-128885771D01*
X213040476Y-128885771D02*
X213088095Y-128695295D01*
X213088095Y-128695295D02*
X213135714Y-128600057D01*
X213135714Y-128600057D02*
X213183333Y-128552438D01*
X213183333Y-128552438D02*
X213278571Y-128504819D01*
X205833333Y-129504819D02*
X205500000Y-129028628D01*
X205261905Y-129504819D02*
X205261905Y-128504819D01*
X205261905Y-128504819D02*
X205642857Y-128504819D01*
X205642857Y-128504819D02*
X205738095Y-128552438D01*
X205738095Y-128552438D02*
X205785714Y-128600057D01*
X205785714Y-128600057D02*
X205833333Y-128695295D01*
X205833333Y-128695295D02*
X205833333Y-128838152D01*
X205833333Y-128838152D02*
X205785714Y-128933390D01*
X205785714Y-128933390D02*
X205738095Y-128981009D01*
X205738095Y-128981009D02*
X205642857Y-129028628D01*
X205642857Y-129028628D02*
X205261905Y-129028628D01*
X206309524Y-129504819D02*
X206500000Y-129504819D01*
X206500000Y-129504819D02*
X206595238Y-129457200D01*
X206595238Y-129457200D02*
X206642857Y-129409580D01*
X206642857Y-129409580D02*
X206738095Y-129266723D01*
X206738095Y-129266723D02*
X206785714Y-129076247D01*
X206785714Y-129076247D02*
X206785714Y-128695295D01*
X206785714Y-128695295D02*
X206738095Y-128600057D01*
X206738095Y-128600057D02*
X206690476Y-128552438D01*
X206690476Y-128552438D02*
X206595238Y-128504819D01*
X206595238Y-128504819D02*
X206404762Y-128504819D01*
X206404762Y-128504819D02*
X206309524Y-128552438D01*
X206309524Y-128552438D02*
X206261905Y-128600057D01*
X206261905Y-128600057D02*
X206214286Y-128695295D01*
X206214286Y-128695295D02*
X206214286Y-128933390D01*
X206214286Y-128933390D02*
X206261905Y-129028628D01*
X206261905Y-129028628D02*
X206309524Y-129076247D01*
X206309524Y-129076247D02*
X206404762Y-129123866D01*
X206404762Y-129123866D02*
X206595238Y-129123866D01*
X206595238Y-129123866D02*
X206690476Y-129076247D01*
X206690476Y-129076247D02*
X206738095Y-129028628D01*
X206738095Y-129028628D02*
X206785714Y-128933390D01*
X236133333Y-66154819D02*
X235800000Y-65678628D01*
X235561905Y-66154819D02*
X235561905Y-65154819D01*
X235561905Y-65154819D02*
X235942857Y-65154819D01*
X235942857Y-65154819D02*
X236038095Y-65202438D01*
X236038095Y-65202438D02*
X236085714Y-65250057D01*
X236085714Y-65250057D02*
X236133333Y-65345295D01*
X236133333Y-65345295D02*
X236133333Y-65488152D01*
X236133333Y-65488152D02*
X236085714Y-65583390D01*
X236085714Y-65583390D02*
X236038095Y-65631009D01*
X236038095Y-65631009D02*
X235942857Y-65678628D01*
X235942857Y-65678628D02*
X235561905Y-65678628D01*
X237085714Y-66154819D02*
X236514286Y-66154819D01*
X236800000Y-66154819D02*
X236800000Y-65154819D01*
X236800000Y-65154819D02*
X236704762Y-65297676D01*
X236704762Y-65297676D02*
X236609524Y-65392914D01*
X236609524Y-65392914D02*
X236514286Y-65440533D01*
X260109819Y-113354759D02*
X260919342Y-113354759D01*
X260919342Y-113354759D02*
X261014580Y-113307140D01*
X261014580Y-113307140D02*
X261062200Y-113259521D01*
X261062200Y-113259521D02*
X261109819Y-113164283D01*
X261109819Y-113164283D02*
X261109819Y-112973807D01*
X261109819Y-112973807D02*
X261062200Y-112878569D01*
X261062200Y-112878569D02*
X261014580Y-112830950D01*
X261014580Y-112830950D02*
X260919342Y-112783331D01*
X260919342Y-112783331D02*
X260109819Y-112783331D01*
X261109819Y-111783331D02*
X261109819Y-112354759D01*
X261109819Y-112069045D02*
X260109819Y-112069045D01*
X260109819Y-112069045D02*
X260252676Y-112164283D01*
X260252676Y-112164283D02*
X260347914Y-112259521D01*
X260347914Y-112259521D02*
X260395533Y-112354759D01*
X260109819Y-110926188D02*
X260109819Y-111116664D01*
X260109819Y-111116664D02*
X260157438Y-111211902D01*
X260157438Y-111211902D02*
X260205057Y-111259521D01*
X260205057Y-111259521D02*
X260347914Y-111354759D01*
X260347914Y-111354759D02*
X260538390Y-111402378D01*
X260538390Y-111402378D02*
X260919342Y-111402378D01*
X260919342Y-111402378D02*
X261014580Y-111354759D01*
X261014580Y-111354759D02*
X261062200Y-111307140D01*
X261062200Y-111307140D02*
X261109819Y-111211902D01*
X261109819Y-111211902D02*
X261109819Y-111021426D01*
X261109819Y-111021426D02*
X261062200Y-110926188D01*
X261062200Y-110926188D02*
X261014580Y-110878569D01*
X261014580Y-110878569D02*
X260919342Y-110830950D01*
X260919342Y-110830950D02*
X260681247Y-110830950D01*
X260681247Y-110830950D02*
X260586009Y-110878569D01*
X260586009Y-110878569D02*
X260538390Y-110926188D01*
X260538390Y-110926188D02*
X260490771Y-111021426D01*
X260490771Y-111021426D02*
X260490771Y-111211902D01*
X260490771Y-111211902D02*
X260538390Y-111307140D01*
X260538390Y-111307140D02*
X260586009Y-111354759D01*
X260586009Y-111354759D02*
X260681247Y-111402378D01*
X175754819Y-86653570D02*
X176564342Y-86653570D01*
X176564342Y-86653570D02*
X176659580Y-86605951D01*
X176659580Y-86605951D02*
X176707200Y-86558332D01*
X176707200Y-86558332D02*
X176754819Y-86463094D01*
X176754819Y-86463094D02*
X176754819Y-86272618D01*
X176754819Y-86272618D02*
X176707200Y-86177380D01*
X176707200Y-86177380D02*
X176659580Y-86129761D01*
X176659580Y-86129761D02*
X176564342Y-86082142D01*
X176564342Y-86082142D02*
X175754819Y-86082142D01*
X175754819Y-85177380D02*
X175754819Y-85367856D01*
X175754819Y-85367856D02*
X175802438Y-85463094D01*
X175802438Y-85463094D02*
X175850057Y-85510713D01*
X175850057Y-85510713D02*
X175992914Y-85605951D01*
X175992914Y-85605951D02*
X176183390Y-85653570D01*
X176183390Y-85653570D02*
X176564342Y-85653570D01*
X176564342Y-85653570D02*
X176659580Y-85605951D01*
X176659580Y-85605951D02*
X176707200Y-85558332D01*
X176707200Y-85558332D02*
X176754819Y-85463094D01*
X176754819Y-85463094D02*
X176754819Y-85272618D01*
X176754819Y-85272618D02*
X176707200Y-85177380D01*
X176707200Y-85177380D02*
X176659580Y-85129761D01*
X176659580Y-85129761D02*
X176564342Y-85082142D01*
X176564342Y-85082142D02*
X176326247Y-85082142D01*
X176326247Y-85082142D02*
X176231009Y-85129761D01*
X176231009Y-85129761D02*
X176183390Y-85177380D01*
X176183390Y-85177380D02*
X176135771Y-85272618D01*
X176135771Y-85272618D02*
X176135771Y-85463094D01*
X176135771Y-85463094D02*
X176183390Y-85558332D01*
X176183390Y-85558332D02*
X176231009Y-85605951D01*
X176231009Y-85605951D02*
X176326247Y-85653570D01*
X250419580Y-91222857D02*
X250467200Y-91270476D01*
X250467200Y-91270476D02*
X250514819Y-91413333D01*
X250514819Y-91413333D02*
X250514819Y-91508571D01*
X250514819Y-91508571D02*
X250467200Y-91651428D01*
X250467200Y-91651428D02*
X250371961Y-91746666D01*
X250371961Y-91746666D02*
X250276723Y-91794285D01*
X250276723Y-91794285D02*
X250086247Y-91841904D01*
X250086247Y-91841904D02*
X249943390Y-91841904D01*
X249943390Y-91841904D02*
X249752914Y-91794285D01*
X249752914Y-91794285D02*
X249657676Y-91746666D01*
X249657676Y-91746666D02*
X249562438Y-91651428D01*
X249562438Y-91651428D02*
X249514819Y-91508571D01*
X249514819Y-91508571D02*
X249514819Y-91413333D01*
X249514819Y-91413333D02*
X249562438Y-91270476D01*
X249562438Y-91270476D02*
X249610057Y-91222857D01*
X250514819Y-90270476D02*
X250514819Y-90841904D01*
X250514819Y-90556190D02*
X249514819Y-90556190D01*
X249514819Y-90556190D02*
X249657676Y-90651428D01*
X249657676Y-90651428D02*
X249752914Y-90746666D01*
X249752914Y-90746666D02*
X249800533Y-90841904D01*
X249514819Y-89651428D02*
X249514819Y-89556190D01*
X249514819Y-89556190D02*
X249562438Y-89460952D01*
X249562438Y-89460952D02*
X249610057Y-89413333D01*
X249610057Y-89413333D02*
X249705295Y-89365714D01*
X249705295Y-89365714D02*
X249895771Y-89318095D01*
X249895771Y-89318095D02*
X250133866Y-89318095D01*
X250133866Y-89318095D02*
X250324342Y-89365714D01*
X250324342Y-89365714D02*
X250419580Y-89413333D01*
X250419580Y-89413333D02*
X250467200Y-89460952D01*
X250467200Y-89460952D02*
X250514819Y-89556190D01*
X250514819Y-89556190D02*
X250514819Y-89651428D01*
X250514819Y-89651428D02*
X250467200Y-89746666D01*
X250467200Y-89746666D02*
X250419580Y-89794285D01*
X250419580Y-89794285D02*
X250324342Y-89841904D01*
X250324342Y-89841904D02*
X250133866Y-89889523D01*
X250133866Y-89889523D02*
X249895771Y-89889523D01*
X249895771Y-89889523D02*
X249705295Y-89841904D01*
X249705295Y-89841904D02*
X249610057Y-89794285D01*
X249610057Y-89794285D02*
X249562438Y-89746666D01*
X249562438Y-89746666D02*
X249514819Y-89651428D01*
X250559580Y-73266666D02*
X250607200Y-73314285D01*
X250607200Y-73314285D02*
X250654819Y-73457142D01*
X250654819Y-73457142D02*
X250654819Y-73552380D01*
X250654819Y-73552380D02*
X250607200Y-73695237D01*
X250607200Y-73695237D02*
X250511961Y-73790475D01*
X250511961Y-73790475D02*
X250416723Y-73838094D01*
X250416723Y-73838094D02*
X250226247Y-73885713D01*
X250226247Y-73885713D02*
X250083390Y-73885713D01*
X250083390Y-73885713D02*
X249892914Y-73838094D01*
X249892914Y-73838094D02*
X249797676Y-73790475D01*
X249797676Y-73790475D02*
X249702438Y-73695237D01*
X249702438Y-73695237D02*
X249654819Y-73552380D01*
X249654819Y-73552380D02*
X249654819Y-73457142D01*
X249654819Y-73457142D02*
X249702438Y-73314285D01*
X249702438Y-73314285D02*
X249750057Y-73266666D01*
X250083390Y-72695237D02*
X250035771Y-72790475D01*
X250035771Y-72790475D02*
X249988152Y-72838094D01*
X249988152Y-72838094D02*
X249892914Y-72885713D01*
X249892914Y-72885713D02*
X249845295Y-72885713D01*
X249845295Y-72885713D02*
X249750057Y-72838094D01*
X249750057Y-72838094D02*
X249702438Y-72790475D01*
X249702438Y-72790475D02*
X249654819Y-72695237D01*
X249654819Y-72695237D02*
X249654819Y-72504761D01*
X249654819Y-72504761D02*
X249702438Y-72409523D01*
X249702438Y-72409523D02*
X249750057Y-72361904D01*
X249750057Y-72361904D02*
X249845295Y-72314285D01*
X249845295Y-72314285D02*
X249892914Y-72314285D01*
X249892914Y-72314285D02*
X249988152Y-72361904D01*
X249988152Y-72361904D02*
X250035771Y-72409523D01*
X250035771Y-72409523D02*
X250083390Y-72504761D01*
X250083390Y-72504761D02*
X250083390Y-72695237D01*
X250083390Y-72695237D02*
X250131009Y-72790475D01*
X250131009Y-72790475D02*
X250178628Y-72838094D01*
X250178628Y-72838094D02*
X250273866Y-72885713D01*
X250273866Y-72885713D02*
X250464342Y-72885713D01*
X250464342Y-72885713D02*
X250559580Y-72838094D01*
X250559580Y-72838094D02*
X250607200Y-72790475D01*
X250607200Y-72790475D02*
X250654819Y-72695237D01*
X250654819Y-72695237D02*
X250654819Y-72504761D01*
X250654819Y-72504761D02*
X250607200Y-72409523D01*
X250607200Y-72409523D02*
X250559580Y-72361904D01*
X250559580Y-72361904D02*
X250464342Y-72314285D01*
X250464342Y-72314285D02*
X250273866Y-72314285D01*
X250273866Y-72314285D02*
X250178628Y-72361904D01*
X250178628Y-72361904D02*
X250131009Y-72409523D01*
X250131009Y-72409523D02*
X250083390Y-72504761D01*
X243007142Y-129504819D02*
X242673809Y-129028628D01*
X242435714Y-129504819D02*
X242435714Y-128504819D01*
X242435714Y-128504819D02*
X242816666Y-128504819D01*
X242816666Y-128504819D02*
X242911904Y-128552438D01*
X242911904Y-128552438D02*
X242959523Y-128600057D01*
X242959523Y-128600057D02*
X243007142Y-128695295D01*
X243007142Y-128695295D02*
X243007142Y-128838152D01*
X243007142Y-128838152D02*
X242959523Y-128933390D01*
X242959523Y-128933390D02*
X242911904Y-128981009D01*
X242911904Y-128981009D02*
X242816666Y-129028628D01*
X242816666Y-129028628D02*
X242435714Y-129028628D01*
X243959523Y-129504819D02*
X243388095Y-129504819D01*
X243673809Y-129504819D02*
X243673809Y-128504819D01*
X243673809Y-128504819D02*
X243578571Y-128647676D01*
X243578571Y-128647676D02*
X243483333Y-128742914D01*
X243483333Y-128742914D02*
X243388095Y-128790533D01*
X244864285Y-128504819D02*
X244388095Y-128504819D01*
X244388095Y-128504819D02*
X244340476Y-128981009D01*
X244340476Y-128981009D02*
X244388095Y-128933390D01*
X244388095Y-128933390D02*
X244483333Y-128885771D01*
X244483333Y-128885771D02*
X244721428Y-128885771D01*
X244721428Y-128885771D02*
X244816666Y-128933390D01*
X244816666Y-128933390D02*
X244864285Y-128981009D01*
X244864285Y-128981009D02*
X244911904Y-129076247D01*
X244911904Y-129076247D02*
X244911904Y-129314342D01*
X244911904Y-129314342D02*
X244864285Y-129409580D01*
X244864285Y-129409580D02*
X244816666Y-129457200D01*
X244816666Y-129457200D02*
X244721428Y-129504819D01*
X244721428Y-129504819D02*
X244483333Y-129504819D01*
X244483333Y-129504819D02*
X244388095Y-129457200D01*
X244388095Y-129457200D02*
X244340476Y-129409580D01*
X260109819Y-104646426D02*
X260919342Y-104646426D01*
X260919342Y-104646426D02*
X261014580Y-104598807D01*
X261014580Y-104598807D02*
X261062200Y-104551188D01*
X261062200Y-104551188D02*
X261109819Y-104455950D01*
X261109819Y-104455950D02*
X261109819Y-104265474D01*
X261109819Y-104265474D02*
X261062200Y-104170236D01*
X261062200Y-104170236D02*
X261014580Y-104122617D01*
X261014580Y-104122617D02*
X260919342Y-104074998D01*
X260919342Y-104074998D02*
X260109819Y-104074998D01*
X261109819Y-103074998D02*
X261109819Y-103646426D01*
X261109819Y-103360712D02*
X260109819Y-103360712D01*
X260109819Y-103360712D02*
X260252676Y-103455950D01*
X260252676Y-103455950D02*
X260347914Y-103551188D01*
X260347914Y-103551188D02*
X260395533Y-103646426D01*
X260109819Y-102170236D02*
X260109819Y-102646426D01*
X260109819Y-102646426D02*
X260586009Y-102694045D01*
X260586009Y-102694045D02*
X260538390Y-102646426D01*
X260538390Y-102646426D02*
X260490771Y-102551188D01*
X260490771Y-102551188D02*
X260490771Y-102313093D01*
X260490771Y-102313093D02*
X260538390Y-102217855D01*
X260538390Y-102217855D02*
X260586009Y-102170236D01*
X260586009Y-102170236D02*
X260681247Y-102122617D01*
X260681247Y-102122617D02*
X260919342Y-102122617D01*
X260919342Y-102122617D02*
X261014580Y-102170236D01*
X261014580Y-102170236D02*
X261062200Y-102217855D01*
X261062200Y-102217855D02*
X261109819Y-102313093D01*
X261109819Y-102313093D02*
X261109819Y-102551188D01*
X261109819Y-102551188D02*
X261062200Y-102646426D01*
X261062200Y-102646426D02*
X261014580Y-102694045D01*
X261907142Y-129504819D02*
X261573809Y-129028628D01*
X261335714Y-129504819D02*
X261335714Y-128504819D01*
X261335714Y-128504819D02*
X261716666Y-128504819D01*
X261716666Y-128504819D02*
X261811904Y-128552438D01*
X261811904Y-128552438D02*
X261859523Y-128600057D01*
X261859523Y-128600057D02*
X261907142Y-128695295D01*
X261907142Y-128695295D02*
X261907142Y-128838152D01*
X261907142Y-128838152D02*
X261859523Y-128933390D01*
X261859523Y-128933390D02*
X261811904Y-128981009D01*
X261811904Y-128981009D02*
X261716666Y-129028628D01*
X261716666Y-129028628D02*
X261335714Y-129028628D01*
X262859523Y-129504819D02*
X262288095Y-129504819D01*
X262573809Y-129504819D02*
X262573809Y-128504819D01*
X262573809Y-128504819D02*
X262478571Y-128647676D01*
X262478571Y-128647676D02*
X262383333Y-128742914D01*
X262383333Y-128742914D02*
X262288095Y-128790533D01*
X263430952Y-128933390D02*
X263335714Y-128885771D01*
X263335714Y-128885771D02*
X263288095Y-128838152D01*
X263288095Y-128838152D02*
X263240476Y-128742914D01*
X263240476Y-128742914D02*
X263240476Y-128695295D01*
X263240476Y-128695295D02*
X263288095Y-128600057D01*
X263288095Y-128600057D02*
X263335714Y-128552438D01*
X263335714Y-128552438D02*
X263430952Y-128504819D01*
X263430952Y-128504819D02*
X263621428Y-128504819D01*
X263621428Y-128504819D02*
X263716666Y-128552438D01*
X263716666Y-128552438D02*
X263764285Y-128600057D01*
X263764285Y-128600057D02*
X263811904Y-128695295D01*
X263811904Y-128695295D02*
X263811904Y-128742914D01*
X263811904Y-128742914D02*
X263764285Y-128838152D01*
X263764285Y-128838152D02*
X263716666Y-128885771D01*
X263716666Y-128885771D02*
X263621428Y-128933390D01*
X263621428Y-128933390D02*
X263430952Y-128933390D01*
X263430952Y-128933390D02*
X263335714Y-128981009D01*
X263335714Y-128981009D02*
X263288095Y-129028628D01*
X263288095Y-129028628D02*
X263240476Y-129123866D01*
X263240476Y-129123866D02*
X263240476Y-129314342D01*
X263240476Y-129314342D02*
X263288095Y-129409580D01*
X263288095Y-129409580D02*
X263335714Y-129457200D01*
X263335714Y-129457200D02*
X263430952Y-129504819D01*
X263430952Y-129504819D02*
X263621428Y-129504819D01*
X263621428Y-129504819D02*
X263716666Y-129457200D01*
X263716666Y-129457200D02*
X263764285Y-129409580D01*
X263764285Y-129409580D02*
X263811904Y-129314342D01*
X263811904Y-129314342D02*
X263811904Y-129123866D01*
X263811904Y-129123866D02*
X263764285Y-129028628D01*
X263764285Y-129028628D02*
X263716666Y-128981009D01*
X263716666Y-128981009D02*
X263621428Y-128933390D01*
X255357142Y-129504819D02*
X255023809Y-129028628D01*
X254785714Y-129504819D02*
X254785714Y-128504819D01*
X254785714Y-128504819D02*
X255166666Y-128504819D01*
X255166666Y-128504819D02*
X255261904Y-128552438D01*
X255261904Y-128552438D02*
X255309523Y-128600057D01*
X255309523Y-128600057D02*
X255357142Y-128695295D01*
X255357142Y-128695295D02*
X255357142Y-128838152D01*
X255357142Y-128838152D02*
X255309523Y-128933390D01*
X255309523Y-128933390D02*
X255261904Y-128981009D01*
X255261904Y-128981009D02*
X255166666Y-129028628D01*
X255166666Y-129028628D02*
X254785714Y-129028628D01*
X256309523Y-129504819D02*
X255738095Y-129504819D01*
X256023809Y-129504819D02*
X256023809Y-128504819D01*
X256023809Y-128504819D02*
X255928571Y-128647676D01*
X255928571Y-128647676D02*
X255833333Y-128742914D01*
X255833333Y-128742914D02*
X255738095Y-128790533D01*
X256642857Y-128504819D02*
X257309523Y-128504819D01*
X257309523Y-128504819D02*
X256880952Y-129504819D01*
X175754819Y-69286904D02*
X176564342Y-69286904D01*
X176564342Y-69286904D02*
X176659580Y-69239285D01*
X176659580Y-69239285D02*
X176707200Y-69191666D01*
X176707200Y-69191666D02*
X176754819Y-69096428D01*
X176754819Y-69096428D02*
X176754819Y-68905952D01*
X176754819Y-68905952D02*
X176707200Y-68810714D01*
X176707200Y-68810714D02*
X176659580Y-68763095D01*
X176659580Y-68763095D02*
X176564342Y-68715476D01*
X176564342Y-68715476D02*
X175754819Y-68715476D01*
X176088152Y-67810714D02*
X176754819Y-67810714D01*
X175707200Y-68048809D02*
X176421485Y-68286904D01*
X176421485Y-68286904D02*
X176421485Y-67667857D01*
X200199819Y-117561904D02*
X201009342Y-117561904D01*
X201009342Y-117561904D02*
X201104580Y-117514285D01*
X201104580Y-117514285D02*
X201152200Y-117466666D01*
X201152200Y-117466666D02*
X201199819Y-117371428D01*
X201199819Y-117371428D02*
X201199819Y-117180952D01*
X201199819Y-117180952D02*
X201152200Y-117085714D01*
X201152200Y-117085714D02*
X201104580Y-117038095D01*
X201104580Y-117038095D02*
X201009342Y-116990476D01*
X201009342Y-116990476D02*
X200199819Y-116990476D01*
X200295057Y-116561904D02*
X200247438Y-116514285D01*
X200247438Y-116514285D02*
X200199819Y-116419047D01*
X200199819Y-116419047D02*
X200199819Y-116180952D01*
X200199819Y-116180952D02*
X200247438Y-116085714D01*
X200247438Y-116085714D02*
X200295057Y-116038095D01*
X200295057Y-116038095D02*
X200390295Y-115990476D01*
X200390295Y-115990476D02*
X200485533Y-115990476D01*
X200485533Y-115990476D02*
X200628390Y-116038095D01*
X200628390Y-116038095D02*
X201199819Y-116609523D01*
X201199819Y-116609523D02*
X201199819Y-115990476D01*
X218207142Y-129504819D02*
X217873809Y-129028628D01*
X217635714Y-129504819D02*
X217635714Y-128504819D01*
X217635714Y-128504819D02*
X218016666Y-128504819D01*
X218016666Y-128504819D02*
X218111904Y-128552438D01*
X218111904Y-128552438D02*
X218159523Y-128600057D01*
X218159523Y-128600057D02*
X218207142Y-128695295D01*
X218207142Y-128695295D02*
X218207142Y-128838152D01*
X218207142Y-128838152D02*
X218159523Y-128933390D01*
X218159523Y-128933390D02*
X218111904Y-128981009D01*
X218111904Y-128981009D02*
X218016666Y-129028628D01*
X218016666Y-129028628D02*
X217635714Y-129028628D01*
X219159523Y-129504819D02*
X218588095Y-129504819D01*
X218873809Y-129504819D02*
X218873809Y-128504819D01*
X218873809Y-128504819D02*
X218778571Y-128647676D01*
X218778571Y-128647676D02*
X218683333Y-128742914D01*
X218683333Y-128742914D02*
X218588095Y-128790533D01*
X220111904Y-129504819D02*
X219540476Y-129504819D01*
X219826190Y-129504819D02*
X219826190Y-128504819D01*
X219826190Y-128504819D02*
X219730952Y-128647676D01*
X219730952Y-128647676D02*
X219635714Y-128742914D01*
X219635714Y-128742914D02*
X219540476Y-128790533D01*
X189719580Y-77466666D02*
X189767200Y-77514285D01*
X189767200Y-77514285D02*
X189814819Y-77657142D01*
X189814819Y-77657142D02*
X189814819Y-77752380D01*
X189814819Y-77752380D02*
X189767200Y-77895237D01*
X189767200Y-77895237D02*
X189671961Y-77990475D01*
X189671961Y-77990475D02*
X189576723Y-78038094D01*
X189576723Y-78038094D02*
X189386247Y-78085713D01*
X189386247Y-78085713D02*
X189243390Y-78085713D01*
X189243390Y-78085713D02*
X189052914Y-78038094D01*
X189052914Y-78038094D02*
X188957676Y-77990475D01*
X188957676Y-77990475D02*
X188862438Y-77895237D01*
X188862438Y-77895237D02*
X188814819Y-77752380D01*
X188814819Y-77752380D02*
X188814819Y-77657142D01*
X188814819Y-77657142D02*
X188862438Y-77514285D01*
X188862438Y-77514285D02*
X188910057Y-77466666D01*
X188814819Y-77133332D02*
X188814819Y-76514285D01*
X188814819Y-76514285D02*
X189195771Y-76847618D01*
X189195771Y-76847618D02*
X189195771Y-76704761D01*
X189195771Y-76704761D02*
X189243390Y-76609523D01*
X189243390Y-76609523D02*
X189291009Y-76561904D01*
X189291009Y-76561904D02*
X189386247Y-76514285D01*
X189386247Y-76514285D02*
X189624342Y-76514285D01*
X189624342Y-76514285D02*
X189719580Y-76561904D01*
X189719580Y-76561904D02*
X189767200Y-76609523D01*
X189767200Y-76609523D02*
X189814819Y-76704761D01*
X189814819Y-76704761D02*
X189814819Y-76990475D01*
X189814819Y-76990475D02*
X189767200Y-77085713D01*
X189767200Y-77085713D02*
X189719580Y-77133332D01*
X189919580Y-111866666D02*
X189967200Y-111914285D01*
X189967200Y-111914285D02*
X190014819Y-112057142D01*
X190014819Y-112057142D02*
X190014819Y-112152380D01*
X190014819Y-112152380D02*
X189967200Y-112295237D01*
X189967200Y-112295237D02*
X189871961Y-112390475D01*
X189871961Y-112390475D02*
X189776723Y-112438094D01*
X189776723Y-112438094D02*
X189586247Y-112485713D01*
X189586247Y-112485713D02*
X189443390Y-112485713D01*
X189443390Y-112485713D02*
X189252914Y-112438094D01*
X189252914Y-112438094D02*
X189157676Y-112390475D01*
X189157676Y-112390475D02*
X189062438Y-112295237D01*
X189062438Y-112295237D02*
X189014819Y-112152380D01*
X189014819Y-112152380D02*
X189014819Y-112057142D01*
X189014819Y-112057142D02*
X189062438Y-111914285D01*
X189062438Y-111914285D02*
X189110057Y-111866666D01*
X189014819Y-111533332D02*
X189014819Y-110866666D01*
X189014819Y-110866666D02*
X190014819Y-111295237D01*
X175779819Y-60513094D02*
X176589342Y-60513094D01*
X176589342Y-60513094D02*
X176684580Y-60465475D01*
X176684580Y-60465475D02*
X176732200Y-60417856D01*
X176732200Y-60417856D02*
X176779819Y-60322618D01*
X176779819Y-60322618D02*
X176779819Y-60132142D01*
X176779819Y-60132142D02*
X176732200Y-60036904D01*
X176732200Y-60036904D02*
X176684580Y-59989285D01*
X176684580Y-59989285D02*
X176589342Y-59941666D01*
X176589342Y-59941666D02*
X175779819Y-59941666D01*
X176779819Y-58941666D02*
X176779819Y-59513094D01*
X176779819Y-59227380D02*
X175779819Y-59227380D01*
X175779819Y-59227380D02*
X175922676Y-59322618D01*
X175922676Y-59322618D02*
X176017914Y-59417856D01*
X176017914Y-59417856D02*
X176065533Y-59513094D01*
X176208390Y-58370237D02*
X176160771Y-58465475D01*
X176160771Y-58465475D02*
X176113152Y-58513094D01*
X176113152Y-58513094D02*
X176017914Y-58560713D01*
X176017914Y-58560713D02*
X175970295Y-58560713D01*
X175970295Y-58560713D02*
X175875057Y-58513094D01*
X175875057Y-58513094D02*
X175827438Y-58465475D01*
X175827438Y-58465475D02*
X175779819Y-58370237D01*
X175779819Y-58370237D02*
X175779819Y-58179761D01*
X175779819Y-58179761D02*
X175827438Y-58084523D01*
X175827438Y-58084523D02*
X175875057Y-58036904D01*
X175875057Y-58036904D02*
X175970295Y-57989285D01*
X175970295Y-57989285D02*
X176017914Y-57989285D01*
X176017914Y-57989285D02*
X176113152Y-58036904D01*
X176113152Y-58036904D02*
X176160771Y-58084523D01*
X176160771Y-58084523D02*
X176208390Y-58179761D01*
X176208390Y-58179761D02*
X176208390Y-58370237D01*
X176208390Y-58370237D02*
X176256009Y-58465475D01*
X176256009Y-58465475D02*
X176303628Y-58513094D01*
X176303628Y-58513094D02*
X176398866Y-58560713D01*
X176398866Y-58560713D02*
X176589342Y-58560713D01*
X176589342Y-58560713D02*
X176684580Y-58513094D01*
X176684580Y-58513094D02*
X176732200Y-58465475D01*
X176732200Y-58465475D02*
X176779819Y-58370237D01*
X176779819Y-58370237D02*
X176779819Y-58179761D01*
X176779819Y-58179761D02*
X176732200Y-58084523D01*
X176732200Y-58084523D02*
X176684580Y-58036904D01*
X176684580Y-58036904D02*
X176589342Y-57989285D01*
X176589342Y-57989285D02*
X176398866Y-57989285D01*
X176398866Y-57989285D02*
X176303628Y-58036904D01*
X176303628Y-58036904D02*
X176256009Y-58084523D01*
X176256009Y-58084523D02*
X176208390Y-58179761D01*
X187170833Y-129504819D02*
X186837500Y-129028628D01*
X186599405Y-129504819D02*
X186599405Y-128504819D01*
X186599405Y-128504819D02*
X186980357Y-128504819D01*
X186980357Y-128504819D02*
X187075595Y-128552438D01*
X187075595Y-128552438D02*
X187123214Y-128600057D01*
X187123214Y-128600057D02*
X187170833Y-128695295D01*
X187170833Y-128695295D02*
X187170833Y-128838152D01*
X187170833Y-128838152D02*
X187123214Y-128933390D01*
X187123214Y-128933390D02*
X187075595Y-128981009D01*
X187075595Y-128981009D02*
X186980357Y-129028628D01*
X186980357Y-129028628D02*
X186599405Y-129028628D01*
X188027976Y-128504819D02*
X187837500Y-128504819D01*
X187837500Y-128504819D02*
X187742262Y-128552438D01*
X187742262Y-128552438D02*
X187694643Y-128600057D01*
X187694643Y-128600057D02*
X187599405Y-128742914D01*
X187599405Y-128742914D02*
X187551786Y-128933390D01*
X187551786Y-128933390D02*
X187551786Y-129314342D01*
X187551786Y-129314342D02*
X187599405Y-129409580D01*
X187599405Y-129409580D02*
X187647024Y-129457200D01*
X187647024Y-129457200D02*
X187742262Y-129504819D01*
X187742262Y-129504819D02*
X187932738Y-129504819D01*
X187932738Y-129504819D02*
X188027976Y-129457200D01*
X188027976Y-129457200D02*
X188075595Y-129409580D01*
X188075595Y-129409580D02*
X188123214Y-129314342D01*
X188123214Y-129314342D02*
X188123214Y-129076247D01*
X188123214Y-129076247D02*
X188075595Y-128981009D01*
X188075595Y-128981009D02*
X188027976Y-128933390D01*
X188027976Y-128933390D02*
X187932738Y-128885771D01*
X187932738Y-128885771D02*
X187742262Y-128885771D01*
X187742262Y-128885771D02*
X187647024Y-128933390D01*
X187647024Y-128933390D02*
X187599405Y-128981009D01*
X187599405Y-128981009D02*
X187551786Y-129076247D01*
X260109819Y-87229760D02*
X260919342Y-87229760D01*
X260919342Y-87229760D02*
X261014580Y-87182141D01*
X261014580Y-87182141D02*
X261062200Y-87134522D01*
X261062200Y-87134522D02*
X261109819Y-87039284D01*
X261109819Y-87039284D02*
X261109819Y-86848808D01*
X261109819Y-86848808D02*
X261062200Y-86753570D01*
X261062200Y-86753570D02*
X261014580Y-86705951D01*
X261014580Y-86705951D02*
X260919342Y-86658332D01*
X260919342Y-86658332D02*
X260109819Y-86658332D01*
X261109819Y-85658332D02*
X261109819Y-86229760D01*
X261109819Y-85944046D02*
X260109819Y-85944046D01*
X260109819Y-85944046D02*
X260252676Y-86039284D01*
X260252676Y-86039284D02*
X260347914Y-86134522D01*
X260347914Y-86134522D02*
X260395533Y-86229760D01*
X260109819Y-85324998D02*
X260109819Y-84705951D01*
X260109819Y-84705951D02*
X260490771Y-85039284D01*
X260490771Y-85039284D02*
X260490771Y-84896427D01*
X260490771Y-84896427D02*
X260538390Y-84801189D01*
X260538390Y-84801189D02*
X260586009Y-84753570D01*
X260586009Y-84753570D02*
X260681247Y-84705951D01*
X260681247Y-84705951D02*
X260919342Y-84705951D01*
X260919342Y-84705951D02*
X261014580Y-84753570D01*
X261014580Y-84753570D02*
X261062200Y-84801189D01*
X261062200Y-84801189D02*
X261109819Y-84896427D01*
X261109819Y-84896427D02*
X261109819Y-85182141D01*
X261109819Y-85182141D02*
X261062200Y-85277379D01*
X261062200Y-85277379D02*
X261014580Y-85324998D01*
X175754819Y-121863094D02*
X176564342Y-121863094D01*
X176564342Y-121863094D02*
X176659580Y-121815475D01*
X176659580Y-121815475D02*
X176707200Y-121767856D01*
X176707200Y-121767856D02*
X176754819Y-121672618D01*
X176754819Y-121672618D02*
X176754819Y-121482142D01*
X176754819Y-121482142D02*
X176707200Y-121386904D01*
X176707200Y-121386904D02*
X176659580Y-121339285D01*
X176659580Y-121339285D02*
X176564342Y-121291666D01*
X176564342Y-121291666D02*
X175754819Y-121291666D01*
X176754819Y-120291666D02*
X176754819Y-120863094D01*
X176754819Y-120577380D02*
X175754819Y-120577380D01*
X175754819Y-120577380D02*
X175897676Y-120672618D01*
X175897676Y-120672618D02*
X175992914Y-120767856D01*
X175992914Y-120767856D02*
X176040533Y-120863094D01*
X175754819Y-119672618D02*
X175754819Y-119577380D01*
X175754819Y-119577380D02*
X175802438Y-119482142D01*
X175802438Y-119482142D02*
X175850057Y-119434523D01*
X175850057Y-119434523D02*
X175945295Y-119386904D01*
X175945295Y-119386904D02*
X176135771Y-119339285D01*
X176135771Y-119339285D02*
X176373866Y-119339285D01*
X176373866Y-119339285D02*
X176564342Y-119386904D01*
X176564342Y-119386904D02*
X176659580Y-119434523D01*
X176659580Y-119434523D02*
X176707200Y-119482142D01*
X176707200Y-119482142D02*
X176754819Y-119577380D01*
X176754819Y-119577380D02*
X176754819Y-119672618D01*
X176754819Y-119672618D02*
X176707200Y-119767856D01*
X176707200Y-119767856D02*
X176659580Y-119815475D01*
X176659580Y-119815475D02*
X176564342Y-119863094D01*
X176564342Y-119863094D02*
X176373866Y-119910713D01*
X176373866Y-119910713D02*
X176135771Y-119910713D01*
X176135771Y-119910713D02*
X175945295Y-119863094D01*
X175945295Y-119863094D02*
X175850057Y-119815475D01*
X175850057Y-119815475D02*
X175802438Y-119767856D01*
X175802438Y-119767856D02*
X175754819Y-119672618D01*
X189819580Y-94866666D02*
X189867200Y-94914285D01*
X189867200Y-94914285D02*
X189914819Y-95057142D01*
X189914819Y-95057142D02*
X189914819Y-95152380D01*
X189914819Y-95152380D02*
X189867200Y-95295237D01*
X189867200Y-95295237D02*
X189771961Y-95390475D01*
X189771961Y-95390475D02*
X189676723Y-95438094D01*
X189676723Y-95438094D02*
X189486247Y-95485713D01*
X189486247Y-95485713D02*
X189343390Y-95485713D01*
X189343390Y-95485713D02*
X189152914Y-95438094D01*
X189152914Y-95438094D02*
X189057676Y-95390475D01*
X189057676Y-95390475D02*
X188962438Y-95295237D01*
X188962438Y-95295237D02*
X188914819Y-95152380D01*
X188914819Y-95152380D02*
X188914819Y-95057142D01*
X188914819Y-95057142D02*
X188962438Y-94914285D01*
X188962438Y-94914285D02*
X189010057Y-94866666D01*
X188914819Y-93961904D02*
X188914819Y-94438094D01*
X188914819Y-94438094D02*
X189391009Y-94485713D01*
X189391009Y-94485713D02*
X189343390Y-94438094D01*
X189343390Y-94438094D02*
X189295771Y-94342856D01*
X189295771Y-94342856D02*
X189295771Y-94104761D01*
X189295771Y-94104761D02*
X189343390Y-94009523D01*
X189343390Y-94009523D02*
X189391009Y-93961904D01*
X189391009Y-93961904D02*
X189486247Y-93914285D01*
X189486247Y-93914285D02*
X189724342Y-93914285D01*
X189724342Y-93914285D02*
X189819580Y-93961904D01*
X189819580Y-93961904D02*
X189867200Y-94009523D01*
X189867200Y-94009523D02*
X189914819Y-94104761D01*
X189914819Y-94104761D02*
X189914819Y-94342856D01*
X189914819Y-94342856D02*
X189867200Y-94438094D01*
X189867200Y-94438094D02*
X189819580Y-94485713D01*
X250419580Y-99642857D02*
X250467200Y-99690476D01*
X250467200Y-99690476D02*
X250514819Y-99833333D01*
X250514819Y-99833333D02*
X250514819Y-99928571D01*
X250514819Y-99928571D02*
X250467200Y-100071428D01*
X250467200Y-100071428D02*
X250371961Y-100166666D01*
X250371961Y-100166666D02*
X250276723Y-100214285D01*
X250276723Y-100214285D02*
X250086247Y-100261904D01*
X250086247Y-100261904D02*
X249943390Y-100261904D01*
X249943390Y-100261904D02*
X249752914Y-100214285D01*
X249752914Y-100214285D02*
X249657676Y-100166666D01*
X249657676Y-100166666D02*
X249562438Y-100071428D01*
X249562438Y-100071428D02*
X249514819Y-99928571D01*
X249514819Y-99928571D02*
X249514819Y-99833333D01*
X249514819Y-99833333D02*
X249562438Y-99690476D01*
X249562438Y-99690476D02*
X249610057Y-99642857D01*
X250514819Y-98690476D02*
X250514819Y-99261904D01*
X250514819Y-98976190D02*
X249514819Y-98976190D01*
X249514819Y-98976190D02*
X249657676Y-99071428D01*
X249657676Y-99071428D02*
X249752914Y-99166666D01*
X249752914Y-99166666D02*
X249800533Y-99261904D01*
X250514819Y-97738095D02*
X250514819Y-98309523D01*
X250514819Y-98023809D02*
X249514819Y-98023809D01*
X249514819Y-98023809D02*
X249657676Y-98119047D01*
X249657676Y-98119047D02*
X249752914Y-98214285D01*
X249752914Y-98214285D02*
X249800533Y-98309523D01*
X187857142Y-53999580D02*
X187809523Y-54047200D01*
X187809523Y-54047200D02*
X187666666Y-54094819D01*
X187666666Y-54094819D02*
X187571428Y-54094819D01*
X187571428Y-54094819D02*
X187428571Y-54047200D01*
X187428571Y-54047200D02*
X187333333Y-53951961D01*
X187333333Y-53951961D02*
X187285714Y-53856723D01*
X187285714Y-53856723D02*
X187238095Y-53666247D01*
X187238095Y-53666247D02*
X187238095Y-53523390D01*
X187238095Y-53523390D02*
X187285714Y-53332914D01*
X187285714Y-53332914D02*
X187333333Y-53237676D01*
X187333333Y-53237676D02*
X187428571Y-53142438D01*
X187428571Y-53142438D02*
X187571428Y-53094819D01*
X187571428Y-53094819D02*
X187666666Y-53094819D01*
X187666666Y-53094819D02*
X187809523Y-53142438D01*
X187809523Y-53142438D02*
X187857142Y-53190057D01*
X188809523Y-54094819D02*
X188238095Y-54094819D01*
X188523809Y-54094819D02*
X188523809Y-53094819D01*
X188523809Y-53094819D02*
X188428571Y-53237676D01*
X188428571Y-53237676D02*
X188333333Y-53332914D01*
X188333333Y-53332914D02*
X188238095Y-53380533D01*
X189714285Y-53094819D02*
X189238095Y-53094819D01*
X189238095Y-53094819D02*
X189190476Y-53571009D01*
X189190476Y-53571009D02*
X189238095Y-53523390D01*
X189238095Y-53523390D02*
X189333333Y-53475771D01*
X189333333Y-53475771D02*
X189571428Y-53475771D01*
X189571428Y-53475771D02*
X189666666Y-53523390D01*
X189666666Y-53523390D02*
X189714285Y-53571009D01*
X189714285Y-53571009D02*
X189761904Y-53666247D01*
X189761904Y-53666247D02*
X189761904Y-53904342D01*
X189761904Y-53904342D02*
X189714285Y-53999580D01*
X189714285Y-53999580D02*
X189666666Y-54047200D01*
X189666666Y-54047200D02*
X189571428Y-54094819D01*
X189571428Y-54094819D02*
X189333333Y-54094819D01*
X189333333Y-54094819D02*
X189238095Y-54047200D01*
X189238095Y-54047200D02*
X189190476Y-53999580D01*
X189819580Y-86046666D02*
X189867200Y-86094285D01*
X189867200Y-86094285D02*
X189914819Y-86237142D01*
X189914819Y-86237142D02*
X189914819Y-86332380D01*
X189914819Y-86332380D02*
X189867200Y-86475237D01*
X189867200Y-86475237D02*
X189771961Y-86570475D01*
X189771961Y-86570475D02*
X189676723Y-86618094D01*
X189676723Y-86618094D02*
X189486247Y-86665713D01*
X189486247Y-86665713D02*
X189343390Y-86665713D01*
X189343390Y-86665713D02*
X189152914Y-86618094D01*
X189152914Y-86618094D02*
X189057676Y-86570475D01*
X189057676Y-86570475D02*
X188962438Y-86475237D01*
X188962438Y-86475237D02*
X188914819Y-86332380D01*
X188914819Y-86332380D02*
X188914819Y-86237142D01*
X188914819Y-86237142D02*
X188962438Y-86094285D01*
X188962438Y-86094285D02*
X189010057Y-86046666D01*
X189248152Y-85189523D02*
X189914819Y-85189523D01*
X188867200Y-85427618D02*
X189581485Y-85665713D01*
X189581485Y-85665713D02*
X189581485Y-85046666D01*
X202433333Y-51804819D02*
X202100000Y-51328628D01*
X201861905Y-51804819D02*
X201861905Y-50804819D01*
X201861905Y-50804819D02*
X202242857Y-50804819D01*
X202242857Y-50804819D02*
X202338095Y-50852438D01*
X202338095Y-50852438D02*
X202385714Y-50900057D01*
X202385714Y-50900057D02*
X202433333Y-50995295D01*
X202433333Y-50995295D02*
X202433333Y-51138152D01*
X202433333Y-51138152D02*
X202385714Y-51233390D01*
X202385714Y-51233390D02*
X202338095Y-51281009D01*
X202338095Y-51281009D02*
X202242857Y-51328628D01*
X202242857Y-51328628D02*
X201861905Y-51328628D01*
X202766667Y-50804819D02*
X203385714Y-50804819D01*
X203385714Y-50804819D02*
X203052381Y-51185771D01*
X203052381Y-51185771D02*
X203195238Y-51185771D01*
X203195238Y-51185771D02*
X203290476Y-51233390D01*
X203290476Y-51233390D02*
X203338095Y-51281009D01*
X203338095Y-51281009D02*
X203385714Y-51376247D01*
X203385714Y-51376247D02*
X203385714Y-51614342D01*
X203385714Y-51614342D02*
X203338095Y-51709580D01*
X203338095Y-51709580D02*
X203290476Y-51757200D01*
X203290476Y-51757200D02*
X203195238Y-51804819D01*
X203195238Y-51804819D02*
X202909524Y-51804819D01*
X202909524Y-51804819D02*
X202814286Y-51757200D01*
X202814286Y-51757200D02*
X202766667Y-51709580D01*
X199620833Y-129504819D02*
X199287500Y-129028628D01*
X199049405Y-129504819D02*
X199049405Y-128504819D01*
X199049405Y-128504819D02*
X199430357Y-128504819D01*
X199430357Y-128504819D02*
X199525595Y-128552438D01*
X199525595Y-128552438D02*
X199573214Y-128600057D01*
X199573214Y-128600057D02*
X199620833Y-128695295D01*
X199620833Y-128695295D02*
X199620833Y-128838152D01*
X199620833Y-128838152D02*
X199573214Y-128933390D01*
X199573214Y-128933390D02*
X199525595Y-128981009D01*
X199525595Y-128981009D02*
X199430357Y-129028628D01*
X199430357Y-129028628D02*
X199049405Y-129028628D01*
X200192262Y-128933390D02*
X200097024Y-128885771D01*
X200097024Y-128885771D02*
X200049405Y-128838152D01*
X200049405Y-128838152D02*
X200001786Y-128742914D01*
X200001786Y-128742914D02*
X200001786Y-128695295D01*
X200001786Y-128695295D02*
X200049405Y-128600057D01*
X200049405Y-128600057D02*
X200097024Y-128552438D01*
X200097024Y-128552438D02*
X200192262Y-128504819D01*
X200192262Y-128504819D02*
X200382738Y-128504819D01*
X200382738Y-128504819D02*
X200477976Y-128552438D01*
X200477976Y-128552438D02*
X200525595Y-128600057D01*
X200525595Y-128600057D02*
X200573214Y-128695295D01*
X200573214Y-128695295D02*
X200573214Y-128742914D01*
X200573214Y-128742914D02*
X200525595Y-128838152D01*
X200525595Y-128838152D02*
X200477976Y-128885771D01*
X200477976Y-128885771D02*
X200382738Y-128933390D01*
X200382738Y-128933390D02*
X200192262Y-128933390D01*
X200192262Y-128933390D02*
X200097024Y-128981009D01*
X200097024Y-128981009D02*
X200049405Y-129028628D01*
X200049405Y-129028628D02*
X200001786Y-129123866D01*
X200001786Y-129123866D02*
X200001786Y-129314342D01*
X200001786Y-129314342D02*
X200049405Y-129409580D01*
X200049405Y-129409580D02*
X200097024Y-129457200D01*
X200097024Y-129457200D02*
X200192262Y-129504819D01*
X200192262Y-129504819D02*
X200382738Y-129504819D01*
X200382738Y-129504819D02*
X200477976Y-129457200D01*
X200477976Y-129457200D02*
X200525595Y-129409580D01*
X200525595Y-129409580D02*
X200573214Y-129314342D01*
X200573214Y-129314342D02*
X200573214Y-129123866D01*
X200573214Y-129123866D02*
X200525595Y-129028628D01*
X200525595Y-129028628D02*
X200477976Y-128981009D01*
X200477976Y-128981009D02*
X200382738Y-128933390D01*
X260109819Y-78521427D02*
X260919342Y-78521427D01*
X260919342Y-78521427D02*
X261014580Y-78473808D01*
X261014580Y-78473808D02*
X261062200Y-78426189D01*
X261062200Y-78426189D02*
X261109819Y-78330951D01*
X261109819Y-78330951D02*
X261109819Y-78140475D01*
X261109819Y-78140475D02*
X261062200Y-78045237D01*
X261062200Y-78045237D02*
X261014580Y-77997618D01*
X261014580Y-77997618D02*
X260919342Y-77949999D01*
X260919342Y-77949999D02*
X260109819Y-77949999D01*
X261109819Y-76949999D02*
X261109819Y-77521427D01*
X261109819Y-77235713D02*
X260109819Y-77235713D01*
X260109819Y-77235713D02*
X260252676Y-77330951D01*
X260252676Y-77330951D02*
X260347914Y-77426189D01*
X260347914Y-77426189D02*
X260395533Y-77521427D01*
X260205057Y-76569046D02*
X260157438Y-76521427D01*
X260157438Y-76521427D02*
X260109819Y-76426189D01*
X260109819Y-76426189D02*
X260109819Y-76188094D01*
X260109819Y-76188094D02*
X260157438Y-76092856D01*
X260157438Y-76092856D02*
X260205057Y-76045237D01*
X260205057Y-76045237D02*
X260300295Y-75997618D01*
X260300295Y-75997618D02*
X260395533Y-75997618D01*
X260395533Y-75997618D02*
X260538390Y-76045237D01*
X260538390Y-76045237D02*
X261109819Y-76616665D01*
X261109819Y-76616665D02*
X261109819Y-75997618D01*
X236233333Y-56354819D02*
X235900000Y-55878628D01*
X235661905Y-56354819D02*
X235661905Y-55354819D01*
X235661905Y-55354819D02*
X236042857Y-55354819D01*
X236042857Y-55354819D02*
X236138095Y-55402438D01*
X236138095Y-55402438D02*
X236185714Y-55450057D01*
X236185714Y-55450057D02*
X236233333Y-55545295D01*
X236233333Y-55545295D02*
X236233333Y-55688152D01*
X236233333Y-55688152D02*
X236185714Y-55783390D01*
X236185714Y-55783390D02*
X236138095Y-55831009D01*
X236138095Y-55831009D02*
X236042857Y-55878628D01*
X236042857Y-55878628D02*
X235661905Y-55878628D01*
X236614286Y-55450057D02*
X236661905Y-55402438D01*
X236661905Y-55402438D02*
X236757143Y-55354819D01*
X236757143Y-55354819D02*
X236995238Y-55354819D01*
X236995238Y-55354819D02*
X237090476Y-55402438D01*
X237090476Y-55402438D02*
X237138095Y-55450057D01*
X237138095Y-55450057D02*
X237185714Y-55545295D01*
X237185714Y-55545295D02*
X237185714Y-55640533D01*
X237185714Y-55640533D02*
X237138095Y-55783390D01*
X237138095Y-55783390D02*
X236566667Y-56354819D01*
X236566667Y-56354819D02*
X237185714Y-56354819D01*
X250419580Y-108342857D02*
X250467200Y-108390476D01*
X250467200Y-108390476D02*
X250514819Y-108533333D01*
X250514819Y-108533333D02*
X250514819Y-108628571D01*
X250514819Y-108628571D02*
X250467200Y-108771428D01*
X250467200Y-108771428D02*
X250371961Y-108866666D01*
X250371961Y-108866666D02*
X250276723Y-108914285D01*
X250276723Y-108914285D02*
X250086247Y-108961904D01*
X250086247Y-108961904D02*
X249943390Y-108961904D01*
X249943390Y-108961904D02*
X249752914Y-108914285D01*
X249752914Y-108914285D02*
X249657676Y-108866666D01*
X249657676Y-108866666D02*
X249562438Y-108771428D01*
X249562438Y-108771428D02*
X249514819Y-108628571D01*
X249514819Y-108628571D02*
X249514819Y-108533333D01*
X249514819Y-108533333D02*
X249562438Y-108390476D01*
X249562438Y-108390476D02*
X249610057Y-108342857D01*
X250514819Y-107390476D02*
X250514819Y-107961904D01*
X250514819Y-107676190D02*
X249514819Y-107676190D01*
X249514819Y-107676190D02*
X249657676Y-107771428D01*
X249657676Y-107771428D02*
X249752914Y-107866666D01*
X249752914Y-107866666D02*
X249800533Y-107961904D01*
X249610057Y-107009523D02*
X249562438Y-106961904D01*
X249562438Y-106961904D02*
X249514819Y-106866666D01*
X249514819Y-106866666D02*
X249514819Y-106628571D01*
X249514819Y-106628571D02*
X249562438Y-106533333D01*
X249562438Y-106533333D02*
X249610057Y-106485714D01*
X249610057Y-106485714D02*
X249705295Y-106438095D01*
X249705295Y-106438095D02*
X249800533Y-106438095D01*
X249800533Y-106438095D02*
X249943390Y-106485714D01*
X249943390Y-106485714D02*
X250514819Y-107057142D01*
X250514819Y-107057142D02*
X250514819Y-106438095D01*
X260109819Y-69813094D02*
X260919342Y-69813094D01*
X260919342Y-69813094D02*
X261014580Y-69765475D01*
X261014580Y-69765475D02*
X261062200Y-69717856D01*
X261062200Y-69717856D02*
X261109819Y-69622618D01*
X261109819Y-69622618D02*
X261109819Y-69432142D01*
X261109819Y-69432142D02*
X261062200Y-69336904D01*
X261062200Y-69336904D02*
X261014580Y-69289285D01*
X261014580Y-69289285D02*
X260919342Y-69241666D01*
X260919342Y-69241666D02*
X260109819Y-69241666D01*
X261109819Y-68241666D02*
X261109819Y-68813094D01*
X261109819Y-68527380D02*
X260109819Y-68527380D01*
X260109819Y-68527380D02*
X260252676Y-68622618D01*
X260252676Y-68622618D02*
X260347914Y-68717856D01*
X260347914Y-68717856D02*
X260395533Y-68813094D01*
X261109819Y-67289285D02*
X261109819Y-67860713D01*
X261109819Y-67574999D02*
X260109819Y-67574999D01*
X260109819Y-67574999D02*
X260252676Y-67670237D01*
X260252676Y-67670237D02*
X260347914Y-67765475D01*
X260347914Y-67765475D02*
X260395533Y-67860713D01*
X189819580Y-103666666D02*
X189867200Y-103714285D01*
X189867200Y-103714285D02*
X189914819Y-103857142D01*
X189914819Y-103857142D02*
X189914819Y-103952380D01*
X189914819Y-103952380D02*
X189867200Y-104095237D01*
X189867200Y-104095237D02*
X189771961Y-104190475D01*
X189771961Y-104190475D02*
X189676723Y-104238094D01*
X189676723Y-104238094D02*
X189486247Y-104285713D01*
X189486247Y-104285713D02*
X189343390Y-104285713D01*
X189343390Y-104285713D02*
X189152914Y-104238094D01*
X189152914Y-104238094D02*
X189057676Y-104190475D01*
X189057676Y-104190475D02*
X188962438Y-104095237D01*
X188962438Y-104095237D02*
X188914819Y-103952380D01*
X188914819Y-103952380D02*
X188914819Y-103857142D01*
X188914819Y-103857142D02*
X188962438Y-103714285D01*
X188962438Y-103714285D02*
X189010057Y-103666666D01*
X188914819Y-102809523D02*
X188914819Y-102999999D01*
X188914819Y-102999999D02*
X188962438Y-103095237D01*
X188962438Y-103095237D02*
X189010057Y-103142856D01*
X189010057Y-103142856D02*
X189152914Y-103238094D01*
X189152914Y-103238094D02*
X189343390Y-103285713D01*
X189343390Y-103285713D02*
X189724342Y-103285713D01*
X189724342Y-103285713D02*
X189819580Y-103238094D01*
X189819580Y-103238094D02*
X189867200Y-103190475D01*
X189867200Y-103190475D02*
X189914819Y-103095237D01*
X189914819Y-103095237D02*
X189914819Y-102904761D01*
X189914819Y-102904761D02*
X189867200Y-102809523D01*
X189867200Y-102809523D02*
X189819580Y-102761904D01*
X189819580Y-102761904D02*
X189724342Y-102714285D01*
X189724342Y-102714285D02*
X189486247Y-102714285D01*
X189486247Y-102714285D02*
X189391009Y-102761904D01*
X189391009Y-102761904D02*
X189343390Y-102809523D01*
X189343390Y-102809523D02*
X189295771Y-102904761D01*
X189295771Y-102904761D02*
X189295771Y-103095237D01*
X189295771Y-103095237D02*
X189343390Y-103190475D01*
X189343390Y-103190475D02*
X189391009Y-103238094D01*
X189391009Y-103238094D02*
X189486247Y-103285713D01*
X260009819Y-60938094D02*
X260819342Y-60938094D01*
X260819342Y-60938094D02*
X260914580Y-60890475D01*
X260914580Y-60890475D02*
X260962200Y-60842856D01*
X260962200Y-60842856D02*
X261009819Y-60747618D01*
X261009819Y-60747618D02*
X261009819Y-60557142D01*
X261009819Y-60557142D02*
X260962200Y-60461904D01*
X260962200Y-60461904D02*
X260914580Y-60414285D01*
X260914580Y-60414285D02*
X260819342Y-60366666D01*
X260819342Y-60366666D02*
X260009819Y-60366666D01*
X261009819Y-59366666D02*
X261009819Y-59938094D01*
X261009819Y-59652380D02*
X260009819Y-59652380D01*
X260009819Y-59652380D02*
X260152676Y-59747618D01*
X260152676Y-59747618D02*
X260247914Y-59842856D01*
X260247914Y-59842856D02*
X260295533Y-59938094D01*
X261009819Y-58890475D02*
X261009819Y-58699999D01*
X261009819Y-58699999D02*
X260962200Y-58604761D01*
X260962200Y-58604761D02*
X260914580Y-58557142D01*
X260914580Y-58557142D02*
X260771723Y-58461904D01*
X260771723Y-58461904D02*
X260581247Y-58414285D01*
X260581247Y-58414285D02*
X260200295Y-58414285D01*
X260200295Y-58414285D02*
X260105057Y-58461904D01*
X260105057Y-58461904D02*
X260057438Y-58509523D01*
X260057438Y-58509523D02*
X260009819Y-58604761D01*
X260009819Y-58604761D02*
X260009819Y-58795237D01*
X260009819Y-58795237D02*
X260057438Y-58890475D01*
X260057438Y-58890475D02*
X260105057Y-58938094D01*
X260105057Y-58938094D02*
X260200295Y-58985713D01*
X260200295Y-58985713D02*
X260438390Y-58985713D01*
X260438390Y-58985713D02*
X260533628Y-58938094D01*
X260533628Y-58938094D02*
X260581247Y-58890475D01*
X260581247Y-58890475D02*
X260628866Y-58795237D01*
X260628866Y-58795237D02*
X260628866Y-58604761D01*
X260628866Y-58604761D02*
X260581247Y-58509523D01*
X260581247Y-58509523D02*
X260533628Y-58461904D01*
X260533628Y-58461904D02*
X260438390Y-58414285D01*
X174433333Y-129504819D02*
X174100000Y-129028628D01*
X173861905Y-129504819D02*
X173861905Y-128504819D01*
X173861905Y-128504819D02*
X174242857Y-128504819D01*
X174242857Y-128504819D02*
X174338095Y-128552438D01*
X174338095Y-128552438D02*
X174385714Y-128600057D01*
X174385714Y-128600057D02*
X174433333Y-128695295D01*
X174433333Y-128695295D02*
X174433333Y-128838152D01*
X174433333Y-128838152D02*
X174385714Y-128933390D01*
X174385714Y-128933390D02*
X174338095Y-128981009D01*
X174338095Y-128981009D02*
X174242857Y-129028628D01*
X174242857Y-129028628D02*
X173861905Y-129028628D01*
X175290476Y-128838152D02*
X175290476Y-129504819D01*
X175052381Y-128457200D02*
X174814286Y-129171485D01*
X174814286Y-129171485D02*
X175433333Y-129171485D01*
D11*
G04 #@! TO.C,M16*
X283300001Y-61400000D02*
X283300001Y-57800000D01*
X283300001Y-61400000D02*
X281403001Y-61400000D01*
X283300001Y-57800000D02*
X281300001Y-57800000D01*
X281403001Y-61400000D02*
X281300001Y-61503000D01*
X281300002Y-62700000D02*
X281300001Y-60831000D01*
X281300001Y-58369000D02*
X281300001Y-60831000D01*
X281300001Y-58369000D02*
X281300001Y-56552000D01*
X281181001Y-56500000D02*
X281300002Y-56500000D01*
X276981001Y-56499999D02*
X277719001Y-56500000D01*
X270581001Y-56500000D02*
X275219001Y-56500000D01*
X270519000Y-62700000D02*
X281300002Y-62700000D01*
X270519000Y-62700000D02*
X269362001Y-62700000D01*
X269362001Y-62700000D02*
X268981001Y-62700000D01*
X268981001Y-62700000D02*
X268981001Y-62081000D01*
X268981001Y-59919000D02*
X268981001Y-56920500D01*
G04 #@! TO.C,M8*
X283300001Y-70336500D02*
X283300001Y-66736500D01*
X283300001Y-70336500D02*
X281403001Y-70336500D01*
X283300001Y-66736500D02*
X281300001Y-66736500D01*
X281403001Y-70336500D02*
X281300001Y-70439500D01*
X281300002Y-71636500D02*
X281300001Y-69767500D01*
X281300001Y-67305500D02*
X281300001Y-69767500D01*
X281300001Y-67305500D02*
X281300001Y-65488500D01*
X281181001Y-65436500D02*
X281300002Y-65436500D01*
X276981001Y-65436499D02*
X277719001Y-65436500D01*
X270581001Y-65436500D02*
X275219001Y-65436500D01*
X270519000Y-71636500D02*
X281300002Y-71636500D01*
X270519000Y-71636500D02*
X269362001Y-71636500D01*
X269362001Y-71636500D02*
X268981001Y-71636500D01*
X268981001Y-71636500D02*
X268981001Y-71017500D01*
X268981001Y-68855500D02*
X268981001Y-65857000D01*
G04 #@! TO.C,M9*
X268981001Y-78055500D02*
X268981001Y-75057000D01*
X268981001Y-80836500D02*
X268981001Y-80217500D01*
X269362001Y-80836500D02*
X268981001Y-80836500D01*
X270519000Y-80836500D02*
X269362001Y-80836500D01*
X270519000Y-80836500D02*
X281300002Y-80836500D01*
X270581001Y-74636500D02*
X275219001Y-74636500D01*
X276981001Y-74636499D02*
X277719001Y-74636500D01*
X281181001Y-74636500D02*
X281300002Y-74636500D01*
X281300001Y-76505500D02*
X281300001Y-74688500D01*
X281300001Y-76505500D02*
X281300001Y-78967500D01*
X281300002Y-80836500D02*
X281300001Y-78967500D01*
X281403001Y-79536500D02*
X281300001Y-79639500D01*
X283300001Y-75936500D02*
X281300001Y-75936500D01*
X283300001Y-79536500D02*
X281403001Y-79536500D01*
X283300001Y-79536500D02*
X283300001Y-75936500D01*
G04 #@! TO.C,M10*
X268981001Y-87119000D02*
X268981001Y-84120500D01*
X268981001Y-89900000D02*
X268981001Y-89281000D01*
X269362001Y-89900000D02*
X268981001Y-89900000D01*
X270519000Y-89900000D02*
X269362001Y-89900000D01*
X270519000Y-89900000D02*
X281300002Y-89900000D01*
X270581001Y-83700000D02*
X275219001Y-83700000D01*
X276981001Y-83699999D02*
X277719001Y-83700000D01*
X281181001Y-83700000D02*
X281300002Y-83700000D01*
X281300001Y-85569000D02*
X281300001Y-83752000D01*
X281300001Y-85569000D02*
X281300001Y-88031000D01*
X281300002Y-89900000D02*
X281300001Y-88031000D01*
X281403001Y-88600000D02*
X281300001Y-88703000D01*
X283300001Y-85000000D02*
X281300001Y-85000000D01*
X283300001Y-88600000D02*
X281403001Y-88600000D01*
X283300001Y-88600000D02*
X283300001Y-85000000D01*
G04 #@! TO.C,M11*
X268981001Y-96119000D02*
X268981001Y-93120500D01*
X268981001Y-98900000D02*
X268981001Y-98281000D01*
X269362001Y-98900000D02*
X268981001Y-98900000D01*
X270519000Y-98900000D02*
X269362001Y-98900000D01*
X270519000Y-98900000D02*
X281300002Y-98900000D01*
X270581001Y-92700000D02*
X275219001Y-92700000D01*
X276981001Y-92699999D02*
X277719001Y-92700000D01*
X281181001Y-92700000D02*
X281300002Y-92700000D01*
X281300001Y-94569000D02*
X281300001Y-92752000D01*
X281300001Y-94569000D02*
X281300001Y-97031000D01*
X281300002Y-98900000D02*
X281300001Y-97031000D01*
X281403001Y-97600000D02*
X281300001Y-97703000D01*
X283300001Y-94000000D02*
X281300001Y-94000000D01*
X283300001Y-97600000D02*
X281403001Y-97600000D01*
X283300001Y-97600000D02*
X283300001Y-94000000D01*
G04 #@! TO.C,M12*
X268981001Y-105019000D02*
X268981001Y-102020500D01*
X268981001Y-107800000D02*
X268981001Y-107181000D01*
X269362001Y-107800000D02*
X268981001Y-107800000D01*
X270519000Y-107800000D02*
X269362001Y-107800000D01*
X270519000Y-107800000D02*
X281300002Y-107800000D01*
X270581001Y-101600000D02*
X275219001Y-101600000D01*
X276981001Y-101599999D02*
X277719001Y-101600000D01*
X281181001Y-101600000D02*
X281300002Y-101600000D01*
X281300001Y-103469000D02*
X281300001Y-101652000D01*
X281300001Y-103469000D02*
X281300001Y-105931000D01*
X281300002Y-107800000D02*
X281300001Y-105931000D01*
X281403001Y-106500000D02*
X281300001Y-106603000D01*
X283300001Y-102900000D02*
X281300001Y-102900000D01*
X283300001Y-106500000D02*
X281403001Y-106500000D01*
X283300001Y-106500000D02*
X283300001Y-102900000D01*
G04 #@! TO.C,M13*
X268981001Y-113919000D02*
X268981001Y-110920500D01*
X268981001Y-116700000D02*
X268981001Y-116081000D01*
X269362001Y-116700000D02*
X268981001Y-116700000D01*
X270519000Y-116700000D02*
X269362001Y-116700000D01*
X270519000Y-116700000D02*
X281300002Y-116700000D01*
X270581001Y-110500000D02*
X275219001Y-110500000D01*
X276981001Y-110499999D02*
X277719001Y-110500000D01*
X281181001Y-110500000D02*
X281300002Y-110500000D01*
X281300001Y-112369000D02*
X281300001Y-110552000D01*
X281300001Y-112369000D02*
X281300001Y-114831000D01*
X281300002Y-116700000D02*
X281300001Y-114831000D01*
X281403001Y-115400000D02*
X281300001Y-115503000D01*
X283300001Y-111800000D02*
X281300001Y-111800000D01*
X283300001Y-115400000D02*
X281403001Y-115400000D01*
X283300001Y-115400000D02*
X283300001Y-111800000D01*
G04 #@! TO.C,M14*
X268981001Y-122719000D02*
X268981001Y-119720500D01*
X268981001Y-125500000D02*
X268981001Y-124881000D01*
X269362001Y-125500000D02*
X268981001Y-125500000D01*
X270519000Y-125500000D02*
X269362001Y-125500000D01*
X270519000Y-125500000D02*
X281300002Y-125500000D01*
X270581001Y-119300000D02*
X275219001Y-119300000D01*
X276981001Y-119299999D02*
X277719001Y-119300000D01*
X281181001Y-119300000D02*
X281300002Y-119300000D01*
X281300001Y-121169000D02*
X281300001Y-119352000D01*
X281300001Y-121169000D02*
X281300001Y-123631000D01*
X281300002Y-125500000D02*
X281300001Y-123631000D01*
X281403001Y-124200000D02*
X281300001Y-124303000D01*
X283300001Y-120600000D02*
X281300001Y-120600000D01*
X283300001Y-124200000D02*
X281403001Y-124200000D01*
X283300001Y-124200000D02*
X283300001Y-120600000D01*
G04 #@! TO.C,M7*
X155863501Y-119600000D02*
X155863501Y-123200000D01*
X155863501Y-119600000D02*
X157760501Y-119600000D01*
X155863501Y-123200000D02*
X157863501Y-123200000D01*
X157760501Y-119600000D02*
X157863501Y-119497000D01*
X157863500Y-118300000D02*
X157863501Y-120169000D01*
X157863501Y-122631000D02*
X157863501Y-120169000D01*
X157863501Y-122631000D02*
X157863501Y-124448000D01*
X157982501Y-124500000D02*
X157863500Y-124500000D01*
X162182501Y-124500001D02*
X161444501Y-124500000D01*
X168582501Y-124500000D02*
X163944501Y-124500000D01*
X168644502Y-118300000D02*
X157863500Y-118300000D01*
X168644502Y-118300000D02*
X169801501Y-118300000D01*
X169801501Y-118300000D02*
X170182501Y-118300000D01*
X170182501Y-118300000D02*
X170182501Y-118919000D01*
X170182501Y-121081000D02*
X170182501Y-124079500D01*
G04 #@! TO.C,M6*
X155900000Y-110742853D02*
X155900000Y-114342853D01*
X155900000Y-110742853D02*
X157797000Y-110742853D01*
X155900000Y-114342853D02*
X157900000Y-114342853D01*
X157797000Y-110742853D02*
X157900000Y-110639853D01*
X157899999Y-109442853D02*
X157900000Y-111311853D01*
X157900000Y-113773853D02*
X157900000Y-111311853D01*
X157900000Y-113773853D02*
X157900000Y-115590853D01*
X158019000Y-115642853D02*
X157899999Y-115642853D01*
X162219000Y-115642854D02*
X161481000Y-115642853D01*
X168619000Y-115642853D02*
X163981000Y-115642853D01*
X168681001Y-109442853D02*
X157899999Y-109442853D01*
X168681001Y-109442853D02*
X169838000Y-109442853D01*
X169838000Y-109442853D02*
X170219000Y-109442853D01*
X170219000Y-109442853D02*
X170219000Y-110061853D01*
X170219000Y-112223853D02*
X170219000Y-115222353D01*
G04 #@! TO.C,M5*
X155863501Y-101885711D02*
X155863501Y-105485711D01*
X155863501Y-101885711D02*
X157760501Y-101885711D01*
X155863501Y-105485711D02*
X157863501Y-105485711D01*
X157760501Y-101885711D02*
X157863501Y-101782711D01*
X157863500Y-100585711D02*
X157863501Y-102454711D01*
X157863501Y-104916711D02*
X157863501Y-102454711D01*
X157863501Y-104916711D02*
X157863501Y-106733711D01*
X157982501Y-106785711D02*
X157863500Y-106785711D01*
X162182501Y-106785712D02*
X161444501Y-106785711D01*
X168582501Y-106785711D02*
X163944501Y-106785711D01*
X168644502Y-100585711D02*
X157863500Y-100585711D01*
X168644502Y-100585711D02*
X169801501Y-100585711D01*
X169801501Y-100585711D02*
X170182501Y-100585711D01*
X170182501Y-100585711D02*
X170182501Y-101204711D01*
X170182501Y-103366711D02*
X170182501Y-106365211D01*
G04 #@! TO.C,M4*
X155863501Y-93028569D02*
X155863501Y-96628569D01*
X155863501Y-93028569D02*
X157760501Y-93028569D01*
X155863501Y-96628569D02*
X157863501Y-96628569D01*
X157760501Y-93028569D02*
X157863501Y-92925569D01*
X157863500Y-91728569D02*
X157863501Y-93597569D01*
X157863501Y-96059569D02*
X157863501Y-93597569D01*
X157863501Y-96059569D02*
X157863501Y-97876569D01*
X157982501Y-97928569D02*
X157863500Y-97928569D01*
X162182501Y-97928570D02*
X161444501Y-97928569D01*
X168582501Y-97928569D02*
X163944501Y-97928569D01*
X168644502Y-91728569D02*
X157863500Y-91728569D01*
X168644502Y-91728569D02*
X169801501Y-91728569D01*
X169801501Y-91728569D02*
X170182501Y-91728569D01*
X170182501Y-91728569D02*
X170182501Y-92347569D01*
X170182501Y-94509569D02*
X170182501Y-97508069D01*
G04 #@! TO.C,M3*
X155863501Y-84171427D02*
X155863501Y-87771427D01*
X155863501Y-84171427D02*
X157760501Y-84171427D01*
X155863501Y-87771427D02*
X157863501Y-87771427D01*
X157760501Y-84171427D02*
X157863501Y-84068427D01*
X157863500Y-82871427D02*
X157863501Y-84740427D01*
X157863501Y-87202427D02*
X157863501Y-84740427D01*
X157863501Y-87202427D02*
X157863501Y-89019427D01*
X157982501Y-89071427D02*
X157863500Y-89071427D01*
X162182501Y-89071428D02*
X161444501Y-89071427D01*
X168582501Y-89071427D02*
X163944501Y-89071427D01*
X168644502Y-82871427D02*
X157863500Y-82871427D01*
X168644502Y-82871427D02*
X169801501Y-82871427D01*
X169801501Y-82871427D02*
X170182501Y-82871427D01*
X170182501Y-82871427D02*
X170182501Y-83490427D01*
X170182501Y-85652427D02*
X170182501Y-88650927D01*
G04 #@! TO.C,M2*
X155863501Y-75314285D02*
X155863501Y-78914285D01*
X155863501Y-75314285D02*
X157760501Y-75314285D01*
X155863501Y-78914285D02*
X157863501Y-78914285D01*
X157760501Y-75314285D02*
X157863501Y-75211285D01*
X157863500Y-74014285D02*
X157863501Y-75883285D01*
X157863501Y-78345285D02*
X157863501Y-75883285D01*
X157863501Y-78345285D02*
X157863501Y-80162285D01*
X157982501Y-80214285D02*
X157863500Y-80214285D01*
X162182501Y-80214286D02*
X161444501Y-80214285D01*
X168582501Y-80214285D02*
X163944501Y-80214285D01*
X168644502Y-74014285D02*
X157863500Y-74014285D01*
X168644502Y-74014285D02*
X169801501Y-74014285D01*
X169801501Y-74014285D02*
X170182501Y-74014285D01*
X170182501Y-74014285D02*
X170182501Y-74633285D01*
X170182501Y-76795285D02*
X170182501Y-79793785D01*
G04 #@! TO.C,M1*
X155863501Y-66457143D02*
X155863501Y-70057143D01*
X155863501Y-66457143D02*
X157760501Y-66457143D01*
X155863501Y-70057143D02*
X157863501Y-70057143D01*
X157760501Y-66457143D02*
X157863501Y-66354143D01*
X157863500Y-65157143D02*
X157863501Y-67026143D01*
X157863501Y-69488143D02*
X157863501Y-67026143D01*
X157863501Y-69488143D02*
X157863501Y-71305143D01*
X157982501Y-71357143D02*
X157863500Y-71357143D01*
X162182501Y-71357144D02*
X161444501Y-71357143D01*
X168582501Y-71357143D02*
X163944501Y-71357143D01*
X168644502Y-65157143D02*
X157863500Y-65157143D01*
X168644502Y-65157143D02*
X169801501Y-65157143D01*
X169801501Y-65157143D02*
X170182501Y-65157143D01*
X170182501Y-65157143D02*
X170182501Y-65776143D01*
X170182501Y-67938143D02*
X170182501Y-70936643D01*
G04 #@! TO.C,M15*
X155899999Y-57600001D02*
X155899999Y-61200001D01*
X155899999Y-57600001D02*
X157796999Y-57600001D01*
X155899999Y-61200001D02*
X157899999Y-61200001D01*
X157796999Y-57600001D02*
X157899999Y-57497001D01*
X157899998Y-56300001D02*
X157899999Y-58169001D01*
X157899999Y-60631001D02*
X157899999Y-58169001D01*
X157899999Y-60631001D02*
X157899999Y-62448001D01*
X158018999Y-62500001D02*
X157899998Y-62500001D01*
X162218999Y-62500002D02*
X161480999Y-62500001D01*
X168618999Y-62500001D02*
X163980999Y-62500001D01*
X168681000Y-56300001D02*
X157899998Y-56300001D01*
X168681000Y-56300001D02*
X169837999Y-56300001D01*
X169837999Y-56300001D02*
X170218999Y-56300001D01*
X170218999Y-56300001D02*
X170218999Y-56919001D01*
X170218999Y-59081001D02*
X170218999Y-62079501D01*
D12*
G04 #@! TO.C,U8*
X177140000Y-103258332D02*
X177140000Y-101308332D01*
X177140000Y-103258332D02*
X177140000Y-105208332D01*
X187260000Y-103258332D02*
X187260000Y-101308332D01*
X187260000Y-103258332D02*
X187260000Y-105208332D01*
X177195000Y-105958332D02*
X176865000Y-106198332D01*
X176865000Y-105718332D01*
X177195000Y-105958332D01*
G36*
X177195000Y-105958332D02*
G01*
X176865000Y-106198332D01*
X176865000Y-105718332D01*
X177195000Y-105958332D01*
G37*
G04 #@! TO.C,C14*
X248540000Y-121192164D02*
X248540000Y-121407836D01*
X249260000Y-121192164D02*
X249260000Y-121407836D01*
G04 #@! TO.C,U14*
X249695000Y-94699999D02*
X249695000Y-92749999D01*
X249695000Y-94699999D02*
X249695000Y-96649999D01*
X259815000Y-94699999D02*
X259815000Y-92749999D01*
X259815000Y-94699999D02*
X259815000Y-96649999D01*
X260090000Y-92239999D02*
X259760000Y-91999999D01*
X260090000Y-91759999D01*
X260090000Y-92239999D01*
G36*
X260090000Y-92239999D02*
G01*
X259760000Y-91999999D01*
X260090000Y-91759999D01*
X260090000Y-92239999D01*
G37*
G04 #@! TO.C,R12*
X224972936Y-129965000D02*
X225427064Y-129965000D01*
X224972936Y-131435000D02*
X225427064Y-131435000D01*
G04 #@! TO.C,R13*
X231022936Y-129965000D02*
X231477064Y-129965000D01*
X231022936Y-131435000D02*
X231477064Y-131435000D01*
G04 #@! TO.C,U17*
X249695000Y-120825000D02*
X249695000Y-118875000D01*
X249695000Y-120825000D02*
X249695000Y-122775000D01*
X259815000Y-120825000D02*
X259815000Y-118875000D01*
X259815000Y-120825000D02*
X259815000Y-122775000D01*
X260090000Y-118365000D02*
X259760000Y-118125000D01*
X260090000Y-117885000D01*
X260090000Y-118365000D01*
G36*
X260090000Y-118365000D02*
G01*
X259760000Y-118125000D01*
X260090000Y-117885000D01*
X260090000Y-118365000D01*
G37*
G04 #@! TO.C,R5*
X180560436Y-129965000D02*
X181014564Y-129965000D01*
X180560436Y-131435000D02*
X181014564Y-131435000D01*
G04 #@! TO.C,C9*
X248540000Y-81492164D02*
X248540000Y-81707836D01*
X249260000Y-81492164D02*
X249260000Y-81707836D01*
G04 #@! TO.C,R19*
X268872936Y-129965000D02*
X269327064Y-129965000D01*
X268872936Y-131435000D02*
X269327064Y-131435000D01*
G04 #@! TO.C,R7*
X193260436Y-129965000D02*
X193714564Y-129965000D01*
X193260436Y-131435000D02*
X193714564Y-131435000D01*
G04 #@! TO.C,U7*
X177140000Y-94574999D02*
X177140000Y-92624999D01*
X177140000Y-94574999D02*
X177140000Y-96524999D01*
X187260000Y-94574999D02*
X187260000Y-92624999D01*
X187260000Y-94574999D02*
X187260000Y-96524999D01*
X177195000Y-97274999D02*
X176865000Y-97514999D01*
X176865000Y-97034999D01*
X177195000Y-97274999D01*
G36*
X177195000Y-97274999D02*
G01*
X176865000Y-97514999D01*
X176865000Y-97034999D01*
X177195000Y-97274999D01*
G37*
G04 #@! TO.C,C16*
X248440000Y-64092164D02*
X248440000Y-64307836D01*
X249160000Y-64092164D02*
X249160000Y-64307836D01*
G04 #@! TO.C,J2*
X235700000Y-50800000D02*
X235700000Y-48800000D01*
X235890000Y-44690000D02*
X241950000Y-44690000D01*
X235890000Y-47500000D02*
X235890000Y-44690000D01*
X235890000Y-54910000D02*
X235890000Y-52100000D01*
X241950000Y-54910000D02*
X235890000Y-54910000D01*
X246050000Y-44690000D02*
X249110000Y-44690000D01*
X249110000Y-44690000D02*
X249110000Y-54910000D01*
X249110000Y-54910000D02*
X246050000Y-54910000D01*
G04 #@! TO.C,U5*
X177140000Y-77208333D02*
X177140000Y-75258333D01*
X177140000Y-77208333D02*
X177140000Y-79158333D01*
X187260000Y-77208333D02*
X187260000Y-75258333D01*
X187260000Y-77208333D02*
X187260000Y-79158333D01*
X177195000Y-79908333D02*
X176865000Y-80148333D01*
X176865000Y-79668333D01*
X177195000Y-79908333D01*
G36*
X177195000Y-79908333D02*
G01*
X176865000Y-80148333D01*
X176865000Y-79668333D01*
X177195000Y-79908333D01*
G37*
G04 #@! TO.C,U9*
X177140000Y-111941665D02*
X177140000Y-109991665D01*
X177140000Y-111941665D02*
X177140000Y-113891665D01*
X187260000Y-111941665D02*
X187260000Y-109991665D01*
X187260000Y-111941665D02*
X187260000Y-113891665D01*
X177195000Y-114641665D02*
X176865000Y-114881665D01*
X176865000Y-114401665D01*
X177195000Y-114641665D01*
G36*
X177195000Y-114641665D02*
G01*
X176865000Y-114881665D01*
X176865000Y-114401665D01*
X177195000Y-114641665D01*
G37*
G04 #@! TO.C,C2*
X187840000Y-68392164D02*
X187840000Y-68607836D01*
X188560000Y-68392164D02*
X188560000Y-68607836D01*
G04 #@! TO.C,C1*
X187840000Y-59012164D02*
X187840000Y-59227836D01*
X188560000Y-59012164D02*
X188560000Y-59227836D01*
G04 #@! TO.C,U3*
X223640000Y-116800000D02*
X223640000Y-114850000D01*
X223640000Y-116800000D02*
X223640000Y-118750000D01*
X233760000Y-116800000D02*
X233760000Y-114850000D01*
X233760000Y-116800000D02*
X233760000Y-118750000D01*
X223695000Y-119500000D02*
X223365000Y-119740000D01*
X223365000Y-119260000D01*
X223695000Y-119500000D01*
G36*
X223695000Y-119500000D02*
G01*
X223365000Y-119740000D01*
X223365000Y-119260000D01*
X223695000Y-119500000D01*
G37*
G04 #@! TO.C,C13*
X248540000Y-116472164D02*
X248540000Y-116687836D01*
X249260000Y-116472164D02*
X249260000Y-116687836D01*
G04 #@! TO.C,R14*
X237072936Y-129965000D02*
X237527064Y-129965000D01*
X237072936Y-131435000D02*
X237527064Y-131435000D01*
G04 #@! TO.C,R16*
X249572936Y-129965000D02*
X250027064Y-129965000D01*
X249572936Y-131435000D02*
X250027064Y-131435000D01*
G04 #@! TO.C,U1*
X204930000Y-44680000D02*
X204930000Y-77010000D01*
X207050000Y-79140000D02*
X228660000Y-79140000D01*
X228250000Y-44680000D02*
X204930000Y-44680000D01*
X228250000Y-51580000D02*
X228250000Y-44680000D01*
X230790000Y-51580000D02*
X228250000Y-51580000D01*
X230790000Y-51580000D02*
X230790000Y-77010000D01*
X207060000Y-79140000D02*
G75*
G02*
X204930000Y-77010000I0J2130000D01*
G01*
X230790000Y-77010000D02*
G75*
G02*
X228660000Y-79140000I-2130002J2D01*
G01*
D10*
X231830000Y-71435000D02*
X231195000Y-70800000D01*
X231830000Y-70165000D01*
X231830000Y-71435000D01*
G36*
X231830000Y-71435000D02*
G01*
X231195000Y-70800000D01*
X231830000Y-70165000D01*
X231830000Y-71435000D01*
G37*
D12*
G04 #@! TO.C,R10*
X212122936Y-129965000D02*
X212577064Y-129965000D01*
X212122936Y-131435000D02*
X212577064Y-131435000D01*
G04 #@! TO.C,R9*
X205772936Y-129965000D02*
X206227064Y-129965000D01*
X205772936Y-131435000D02*
X206227064Y-131435000D01*
G04 #@! TO.C,R1*
X233729564Y-64965000D02*
X233275436Y-64965000D01*
X233729564Y-66435000D02*
X233275436Y-66435000D01*
G04 #@! TO.C,U16*
X249695000Y-112116665D02*
X249695000Y-110166665D01*
X249695000Y-112116665D02*
X249695000Y-114066665D01*
X259815000Y-112116665D02*
X259815000Y-110166665D01*
X259815000Y-112116665D02*
X259815000Y-114066665D01*
X260090000Y-109656665D02*
X259760000Y-109416665D01*
X260090000Y-109176665D01*
X260090000Y-109656665D01*
G36*
X260090000Y-109656665D02*
G01*
X259760000Y-109416665D01*
X260090000Y-109176665D01*
X260090000Y-109656665D01*
G37*
G04 #@! TO.C,U6*
X177140000Y-85891666D02*
X177140000Y-83941666D01*
X177140000Y-85891666D02*
X177140000Y-87841666D01*
X187260000Y-85891666D02*
X187260000Y-83941666D01*
X187260000Y-85891666D02*
X187260000Y-87841666D01*
X177195000Y-88591666D02*
X176865000Y-88831666D01*
X176865000Y-88351666D01*
X177195000Y-88591666D01*
G36*
X177195000Y-88591666D02*
G01*
X176865000Y-88831666D01*
X176865000Y-88351666D01*
X177195000Y-88591666D01*
G37*
G04 #@! TO.C,C10*
X248540000Y-90472164D02*
X248540000Y-90687836D01*
X249260000Y-90472164D02*
X249260000Y-90687836D01*
G04 #@! TO.C,C8*
X248540000Y-72892164D02*
X248540000Y-73107836D01*
X249260000Y-72892164D02*
X249260000Y-73107836D01*
G04 #@! TO.C,R15*
X243422936Y-129965000D02*
X243877064Y-129965000D01*
X243422936Y-131435000D02*
X243877064Y-131435000D01*
G04 #@! TO.C,U15*
X249695000Y-103408332D02*
X249695000Y-101458332D01*
X249695000Y-103408332D02*
X249695000Y-105358332D01*
X259815000Y-103408332D02*
X259815000Y-101458332D01*
X259815000Y-103408332D02*
X259815000Y-105358332D01*
X260090000Y-100948332D02*
X259760000Y-100708332D01*
X260090000Y-100468332D01*
X260090000Y-100948332D01*
G36*
X260090000Y-100948332D02*
G01*
X259760000Y-100708332D01*
X260090000Y-100468332D01*
X260090000Y-100948332D01*
G37*
G04 #@! TO.C,R18*
X262322936Y-129965000D02*
X262777064Y-129965000D01*
X262322936Y-131435000D02*
X262777064Y-131435000D01*
G04 #@! TO.C,R17*
X255772936Y-129965000D02*
X256227064Y-129965000D01*
X255772936Y-131435000D02*
X256227064Y-131435000D01*
G04 #@! TO.C,U4*
X177140000Y-68525000D02*
X177140000Y-66575000D01*
X177140000Y-68525000D02*
X177140000Y-70475000D01*
X187260000Y-68525000D02*
X187260000Y-66575000D01*
X187260000Y-68525000D02*
X187260000Y-70475000D01*
X177195000Y-71225000D02*
X176865000Y-71465000D01*
X176865000Y-70985000D01*
X177195000Y-71225000D01*
G36*
X177195000Y-71225000D02*
G01*
X176865000Y-71465000D01*
X176865000Y-70985000D01*
X177195000Y-71225000D01*
G37*
G04 #@! TO.C,U2*
X201585000Y-116800000D02*
X201585000Y-114850000D01*
X201585000Y-116800000D02*
X201585000Y-118750000D01*
X211705000Y-116800000D02*
X211705000Y-114850000D01*
X211705000Y-116800000D02*
X211705000Y-118750000D01*
X201640000Y-119500000D02*
X201310000Y-119740000D01*
X201310000Y-119260000D01*
X201640000Y-119500000D01*
G36*
X201640000Y-119500000D02*
G01*
X201310000Y-119740000D01*
X201310000Y-119260000D01*
X201640000Y-119500000D01*
G37*
G04 #@! TO.C,R11*
X218622936Y-129965000D02*
X219077064Y-129965000D01*
X218622936Y-131435000D02*
X219077064Y-131435000D01*
G04 #@! TO.C,C3*
X187840000Y-77192164D02*
X187840000Y-77407836D01*
X188560000Y-77192164D02*
X188560000Y-77407836D01*
G04 #@! TO.C,C7*
X188040000Y-111592164D02*
X188040000Y-111807836D01*
X188760000Y-111592164D02*
X188760000Y-111807836D01*
G04 #@! TO.C,U18*
X177165000Y-59275000D02*
X177165000Y-57325000D01*
X177165000Y-59275000D02*
X177165000Y-61225000D01*
X187285000Y-59275000D02*
X187285000Y-57325000D01*
X187285000Y-59275000D02*
X187285000Y-61225000D01*
X177220000Y-61975000D02*
X176890000Y-62215000D01*
X176890000Y-61735000D01*
X177220000Y-61975000D01*
G36*
X177220000Y-61975000D02*
G01*
X176890000Y-62215000D01*
X176890000Y-61735000D01*
X177220000Y-61975000D01*
G37*
G04 #@! TO.C,R6*
X187110436Y-129965000D02*
X187564564Y-129965000D01*
X187110436Y-131435000D02*
X187564564Y-131435000D01*
G04 #@! TO.C,U13*
X249695000Y-85991666D02*
X249695000Y-84041666D01*
X249695000Y-85991666D02*
X249695000Y-87941666D01*
X259815000Y-85991666D02*
X259815000Y-84041666D01*
X259815000Y-85991666D02*
X259815000Y-87941666D01*
X260090000Y-83531666D02*
X259760000Y-83291666D01*
X260090000Y-83051666D01*
X260090000Y-83531666D01*
G36*
X260090000Y-83531666D02*
G01*
X259760000Y-83291666D01*
X260090000Y-83051666D01*
X260090000Y-83531666D01*
G37*
G04 #@! TO.C,U10*
X177140000Y-120625000D02*
X177140000Y-118675000D01*
X177140000Y-120625000D02*
X177140000Y-122575000D01*
X187260000Y-120625000D02*
X187260000Y-118675000D01*
X187260000Y-120625000D02*
X187260000Y-122575000D01*
X177195000Y-123325000D02*
X176865000Y-123565000D01*
X176865000Y-123085000D01*
X177195000Y-123325000D01*
G36*
X177195000Y-123325000D02*
G01*
X176865000Y-123565000D01*
X176865000Y-123085000D01*
X177195000Y-123325000D01*
G37*
G04 #@! TO.C,C5*
X187940000Y-94592164D02*
X187940000Y-94807836D01*
X188660000Y-94592164D02*
X188660000Y-94807836D01*
G04 #@! TO.C,C11*
X248540000Y-98892164D02*
X248540000Y-99107836D01*
X249260000Y-98892164D02*
X249260000Y-99107836D01*
G04 #@! TO.C,C15*
X188392164Y-54440000D02*
X188607836Y-54440000D01*
X188392164Y-55160000D02*
X188607836Y-55160000D01*
G04 #@! TO.C,C4*
X187940000Y-85772164D02*
X187940000Y-85987836D01*
X188660000Y-85772164D02*
X188660000Y-85987836D01*
G04 #@! TO.C,R3*
X202727064Y-52265000D02*
X202272936Y-52265000D01*
X202727064Y-53735000D02*
X202272936Y-53735000D01*
G04 #@! TO.C,R8*
X199560436Y-129965000D02*
X200014564Y-129965000D01*
X199560436Y-131435000D02*
X200014564Y-131435000D01*
G04 #@! TO.C,U12*
X249695000Y-77283333D02*
X249695000Y-75333333D01*
X249695000Y-77283333D02*
X249695000Y-79233333D01*
X259815000Y-77283333D02*
X259815000Y-75333333D01*
X259815000Y-77283333D02*
X259815000Y-79233333D01*
X260090000Y-74823333D02*
X259760000Y-74583333D01*
X260090000Y-74343333D01*
X260090000Y-74823333D01*
G36*
X260090000Y-74823333D02*
G01*
X259760000Y-74583333D01*
X260090000Y-74343333D01*
X260090000Y-74823333D01*
G37*
G04 #@! TO.C,R2*
X233684564Y-54765000D02*
X233230436Y-54765000D01*
X233684564Y-56235000D02*
X233230436Y-56235000D01*
G04 #@! TO.C,C12*
X248540000Y-107592164D02*
X248540000Y-107807836D01*
X249260000Y-107592164D02*
X249260000Y-107807836D01*
G04 #@! TO.C,U11*
X249695000Y-68575000D02*
X249695000Y-66625000D01*
X249695000Y-68575000D02*
X249695000Y-70525000D01*
X259815000Y-68575000D02*
X259815000Y-66625000D01*
X259815000Y-68575000D02*
X259815000Y-70525000D01*
X260090000Y-66115000D02*
X259760000Y-65875000D01*
X260090000Y-65635000D01*
X260090000Y-66115000D01*
G36*
X260090000Y-66115000D02*
G01*
X259760000Y-65875000D01*
X260090000Y-65635000D01*
X260090000Y-66115000D01*
G37*
G04 #@! TO.C,C6*
X187940000Y-103392164D02*
X187940000Y-103607836D01*
X188660000Y-103392164D02*
X188660000Y-103607836D01*
G04 #@! TO.C,U19*
X249595000Y-59700000D02*
X249595000Y-57750000D01*
X249595000Y-59700000D02*
X249595000Y-61650000D01*
X259715000Y-59700000D02*
X259715000Y-57750000D01*
X259715000Y-59700000D02*
X259715000Y-61650000D01*
X259990000Y-57240000D02*
X259660000Y-57000000D01*
X259990000Y-56760000D01*
X259990000Y-57240000D01*
G36*
X259990000Y-57240000D02*
G01*
X259660000Y-57000000D01*
X259990000Y-56760000D01*
X259990000Y-57240000D01*
G37*
G04 #@! TO.C,R4*
X174372936Y-129965000D02*
X174827064Y-129965000D01*
X174372936Y-131435000D02*
X174827064Y-131435000D01*
G04 #@! TD*
%LPC*%
D13*
G04 #@! TO.C,M16*
X278600001Y-55700000D03*
X276100001Y-55700000D03*
D14*
X268100002Y-61000000D03*
D13*
X269700001Y-55700001D03*
X280300000Y-55700000D03*
G04 #@! TD*
G04 #@! TO.C,M8*
X278600001Y-64636500D03*
X276100001Y-64636500D03*
D14*
X268100002Y-69936500D03*
D13*
X269700001Y-64636501D03*
X280300000Y-64636500D03*
G04 #@! TD*
G04 #@! TO.C,M9*
X280300000Y-73836500D03*
X269700001Y-73836501D03*
D14*
X268100002Y-79136500D03*
D13*
X276100001Y-73836500D03*
X278600001Y-73836500D03*
G04 #@! TD*
G04 #@! TO.C,M10*
X280300000Y-82900000D03*
X269700001Y-82900001D03*
D14*
X268100002Y-88200000D03*
D13*
X276100001Y-82900000D03*
X278600001Y-82900000D03*
G04 #@! TD*
G04 #@! TO.C,M11*
X280300000Y-91900000D03*
X269700001Y-91900001D03*
D14*
X268100002Y-97200000D03*
D13*
X276100001Y-91900000D03*
X278600001Y-91900000D03*
G04 #@! TD*
G04 #@! TO.C,M12*
X280300000Y-100800000D03*
X269700001Y-100800001D03*
D14*
X268100002Y-106100000D03*
D13*
X276100001Y-100800000D03*
X278600001Y-100800000D03*
G04 #@! TD*
G04 #@! TO.C,M13*
X280300000Y-109700000D03*
X269700001Y-109700001D03*
D14*
X268100002Y-115000000D03*
D13*
X276100001Y-109700000D03*
X278600001Y-109700000D03*
G04 #@! TD*
G04 #@! TO.C,M14*
X280300000Y-118500000D03*
X269700001Y-118500001D03*
D14*
X268100002Y-123800000D03*
D13*
X276100001Y-118500000D03*
X278600001Y-118500000D03*
G04 #@! TD*
G04 #@! TO.C,M7*
X158863502Y-125300000D03*
X169463501Y-125299999D03*
D14*
X171063500Y-120000000D03*
D13*
X163063501Y-125300000D03*
X160563501Y-125300000D03*
G04 #@! TD*
G04 #@! TO.C,M6*
X158900001Y-116442853D03*
X169500000Y-116442852D03*
D14*
X171099999Y-111142853D03*
D13*
X163100000Y-116442853D03*
X160600000Y-116442853D03*
G04 #@! TD*
G04 #@! TO.C,M5*
X158863502Y-107585711D03*
X169463501Y-107585710D03*
D14*
X171063500Y-102285711D03*
D13*
X163063501Y-107585711D03*
X160563501Y-107585711D03*
G04 #@! TD*
G04 #@! TO.C,M4*
X158863502Y-98728569D03*
X169463501Y-98728568D03*
D14*
X171063500Y-93428569D03*
D13*
X163063501Y-98728569D03*
X160563501Y-98728569D03*
G04 #@! TD*
G04 #@! TO.C,M3*
X158863502Y-89871427D03*
X169463501Y-89871426D03*
D14*
X171063500Y-84571427D03*
D13*
X163063501Y-89871427D03*
X160563501Y-89871427D03*
G04 #@! TD*
G04 #@! TO.C,M2*
X158863502Y-81014285D03*
X169463501Y-81014284D03*
D14*
X171063500Y-75714285D03*
D13*
X163063501Y-81014285D03*
X160563501Y-81014285D03*
G04 #@! TD*
G04 #@! TO.C,M1*
X158863502Y-72157143D03*
X169463501Y-72157142D03*
D14*
X171063500Y-66857143D03*
D13*
X163063501Y-72157143D03*
X160563501Y-72157143D03*
G04 #@! TD*
G04 #@! TO.C,M15*
X158900000Y-63300001D03*
X169499999Y-63300000D03*
D14*
X171099998Y-58000001D03*
D13*
X163099999Y-63300001D03*
X160599999Y-63300001D03*
G04 #@! TD*
D15*
G04 #@! TO.C,U8*
X177755000Y-105733332D03*
X179025000Y-105733332D03*
X180295000Y-105733332D03*
X181565000Y-105733332D03*
X182835000Y-105733332D03*
X184105000Y-105733332D03*
X185375000Y-105733332D03*
X186645000Y-105733332D03*
X186645000Y-100783332D03*
X185375000Y-100783332D03*
X184105000Y-100783332D03*
X182835000Y-100783332D03*
X181565000Y-100783332D03*
X180295000Y-100783332D03*
X179025000Y-100783332D03*
X177755000Y-100783332D03*
G04 #@! TD*
D16*
G04 #@! TO.C,C14*
X248900000Y-120820000D03*
X248900000Y-121780000D03*
G04 #@! TD*
D17*
G04 #@! TO.C,U14*
X259200000Y-92224999D03*
X257930000Y-92224999D03*
X256660000Y-92224999D03*
X255390000Y-92224999D03*
X254120000Y-92224999D03*
X252850000Y-92224999D03*
X251580000Y-92224999D03*
X250310000Y-92224999D03*
X250310000Y-97174999D03*
X251580000Y-97174999D03*
X252850000Y-97174999D03*
X254120000Y-97174999D03*
X255390000Y-97174999D03*
X256660000Y-97174999D03*
X257930000Y-97174999D03*
X259200000Y-97174999D03*
G04 #@! TD*
D18*
G04 #@! TO.C,R12*
X224287500Y-130700000D03*
X226112500Y-130700000D03*
G04 #@! TD*
G04 #@! TO.C,R13*
X230337500Y-130700000D03*
X232162500Y-130700000D03*
G04 #@! TD*
D17*
G04 #@! TO.C,U17*
X259200000Y-118350000D03*
X257930000Y-118350000D03*
X256660000Y-118350000D03*
X255390000Y-118350000D03*
X254120000Y-118350000D03*
X252850000Y-118350000D03*
X251580000Y-118350000D03*
X250310000Y-118350000D03*
X250310000Y-123300000D03*
X251580000Y-123300000D03*
X252850000Y-123300000D03*
X254120000Y-123300000D03*
X255390000Y-123300000D03*
X256660000Y-123300000D03*
X257930000Y-123300000D03*
X259200000Y-123300000D03*
G04 #@! TD*
D18*
G04 #@! TO.C,R5*
X179875000Y-130700000D03*
X181700000Y-130700000D03*
G04 #@! TD*
D16*
G04 #@! TO.C,C9*
X248900000Y-81120000D03*
X248900000Y-82080000D03*
G04 #@! TD*
D18*
G04 #@! TO.C,R19*
X268187500Y-130700000D03*
X270012500Y-130700000D03*
G04 #@! TD*
G04 #@! TO.C,R7*
X192575000Y-130700000D03*
X194400000Y-130700000D03*
G04 #@! TD*
D15*
G04 #@! TO.C,U7*
X177755000Y-97049999D03*
X179025000Y-97049999D03*
X180295000Y-97049999D03*
X181565000Y-97049999D03*
X182835000Y-97049999D03*
X184105000Y-97049999D03*
X185375000Y-97049999D03*
X186645000Y-97049999D03*
X186645000Y-92099999D03*
X185375000Y-92099999D03*
X184105000Y-92099999D03*
X182835000Y-92099999D03*
X181565000Y-92099999D03*
X180295000Y-92099999D03*
X179025000Y-92099999D03*
X177755000Y-92099999D03*
G04 #@! TD*
D16*
G04 #@! TO.C,C16*
X248800000Y-63720000D03*
X248800000Y-64680000D03*
G04 #@! TD*
D19*
G04 #@! TO.C,J2*
X246000000Y-49800000D03*
D20*
X237000000Y-49800000D03*
D21*
X243000000Y-49800000D03*
D22*
X244000000Y-54300000D03*
X244000000Y-45300000D03*
G04 #@! TD*
D15*
G04 #@! TO.C,U5*
X177755000Y-79683333D03*
X179025000Y-79683333D03*
X180295000Y-79683333D03*
X181565000Y-79683333D03*
X182835000Y-79683333D03*
X184105000Y-79683333D03*
X185375000Y-79683333D03*
X186645000Y-79683333D03*
X186645000Y-74733333D03*
X185375000Y-74733333D03*
X184105000Y-74733333D03*
X182835000Y-74733333D03*
X181565000Y-74733333D03*
X180295000Y-74733333D03*
X179025000Y-74733333D03*
X177755000Y-74733333D03*
G04 #@! TD*
G04 #@! TO.C,U9*
X177755000Y-114416665D03*
X179025000Y-114416665D03*
X180295000Y-114416665D03*
X181565000Y-114416665D03*
X182835000Y-114416665D03*
X184105000Y-114416665D03*
X185375000Y-114416665D03*
X186645000Y-114416665D03*
X186645000Y-109466665D03*
X185375000Y-109466665D03*
X184105000Y-109466665D03*
X182835000Y-109466665D03*
X181565000Y-109466665D03*
X180295000Y-109466665D03*
X179025000Y-109466665D03*
X177755000Y-109466665D03*
G04 #@! TD*
D16*
G04 #@! TO.C,C2*
X188200000Y-68020000D03*
X188200000Y-68980000D03*
G04 #@! TD*
G04 #@! TO.C,C1*
X188200000Y-58640000D03*
X188200000Y-59600000D03*
G04 #@! TD*
D15*
G04 #@! TO.C,U3*
X224255000Y-119275000D03*
X225525000Y-119275000D03*
X226795000Y-119275000D03*
X228065000Y-119275000D03*
X229335000Y-119275000D03*
X230605000Y-119275000D03*
X231875000Y-119275000D03*
X233145000Y-119275000D03*
X233145000Y-114325000D03*
X231875000Y-114325000D03*
X230605000Y-114325000D03*
X229335000Y-114325000D03*
X228065000Y-114325000D03*
X226795000Y-114325000D03*
X225525000Y-114325000D03*
X224255000Y-114325000D03*
G04 #@! TD*
D16*
G04 #@! TO.C,C13*
X248900000Y-116100000D03*
X248900000Y-117060000D03*
G04 #@! TD*
D18*
G04 #@! TO.C,R14*
X236387500Y-130700000D03*
X238212500Y-130700000D03*
G04 #@! TD*
G04 #@! TO.C,R16*
X248887500Y-130700000D03*
X250712500Y-130700000D03*
G04 #@! TD*
D23*
G04 #@! TO.C,U1*
X229290000Y-70800000D03*
D24*
X229290000Y-68260000D03*
X229290000Y-65720000D03*
X229290000Y-63180000D03*
X229290000Y-60640000D03*
X229290000Y-58100000D03*
X229290000Y-55560000D03*
X229290000Y-53020000D03*
X206430000Y-53020000D03*
X206430000Y-55560000D03*
X206430000Y-58100000D03*
X206430000Y-60640000D03*
X206430000Y-63180000D03*
X206430000Y-65720000D03*
X206430000Y-68260000D03*
X206430000Y-70800000D03*
G04 #@! TD*
D18*
G04 #@! TO.C,R10*
X211437500Y-130700000D03*
X213262500Y-130700000D03*
G04 #@! TD*
G04 #@! TO.C,R9*
X205087500Y-130700000D03*
X206912500Y-130700000D03*
G04 #@! TD*
D25*
G04 #@! TO.C,R1*
X234415000Y-65700000D03*
X232590000Y-65700000D03*
G04 #@! TD*
D17*
G04 #@! TO.C,U16*
X259200000Y-109641665D03*
X257930000Y-109641665D03*
X256660000Y-109641665D03*
X255390000Y-109641665D03*
X254120000Y-109641665D03*
X252850000Y-109641665D03*
X251580000Y-109641665D03*
X250310000Y-109641665D03*
X250310000Y-114591665D03*
X251580000Y-114591665D03*
X252850000Y-114591665D03*
X254120000Y-114591665D03*
X255390000Y-114591665D03*
X256660000Y-114591665D03*
X257930000Y-114591665D03*
X259200000Y-114591665D03*
G04 #@! TD*
D15*
G04 #@! TO.C,U6*
X177755000Y-88366666D03*
X179025000Y-88366666D03*
X180295000Y-88366666D03*
X181565000Y-88366666D03*
X182835000Y-88366666D03*
X184105000Y-88366666D03*
X185375000Y-88366666D03*
X186645000Y-88366666D03*
X186645000Y-83416666D03*
X185375000Y-83416666D03*
X184105000Y-83416666D03*
X182835000Y-83416666D03*
X181565000Y-83416666D03*
X180295000Y-83416666D03*
X179025000Y-83416666D03*
X177755000Y-83416666D03*
G04 #@! TD*
D16*
G04 #@! TO.C,C10*
X248900000Y-90100000D03*
X248900000Y-91060000D03*
G04 #@! TD*
G04 #@! TO.C,C8*
X248900000Y-72520000D03*
X248900000Y-73480000D03*
G04 #@! TD*
D18*
G04 #@! TO.C,R15*
X242737500Y-130700000D03*
X244562500Y-130700000D03*
G04 #@! TD*
D17*
G04 #@! TO.C,U15*
X259200000Y-100933332D03*
X257930000Y-100933332D03*
X256660000Y-100933332D03*
X255390000Y-100933332D03*
X254120000Y-100933332D03*
X252850000Y-100933332D03*
X251580000Y-100933332D03*
X250310000Y-100933332D03*
X250310000Y-105883332D03*
X251580000Y-105883332D03*
X252850000Y-105883332D03*
X254120000Y-105883332D03*
X255390000Y-105883332D03*
X256660000Y-105883332D03*
X257930000Y-105883332D03*
X259200000Y-105883332D03*
G04 #@! TD*
D18*
G04 #@! TO.C,R18*
X261637500Y-130700000D03*
X263462500Y-130700000D03*
G04 #@! TD*
G04 #@! TO.C,R17*
X255087500Y-130700000D03*
X256912500Y-130700000D03*
G04 #@! TD*
D15*
G04 #@! TO.C,U4*
X177755000Y-71000000D03*
X179025000Y-71000000D03*
X180295000Y-71000000D03*
X181565000Y-71000000D03*
X182835000Y-71000000D03*
X184105000Y-71000000D03*
X185375000Y-71000000D03*
X186645000Y-71000000D03*
X186645000Y-66050000D03*
X185375000Y-66050000D03*
X184105000Y-66050000D03*
X182835000Y-66050000D03*
X181565000Y-66050000D03*
X180295000Y-66050000D03*
X179025000Y-66050000D03*
X177755000Y-66050000D03*
G04 #@! TD*
G04 #@! TO.C,U2*
X202200000Y-119275000D03*
X203470000Y-119275000D03*
X204740000Y-119275000D03*
X206010000Y-119275000D03*
X207280000Y-119275000D03*
X208550000Y-119275000D03*
X209820000Y-119275000D03*
X211090000Y-119275000D03*
X211090000Y-114325000D03*
X209820000Y-114325000D03*
X208550000Y-114325000D03*
X207280000Y-114325000D03*
X206010000Y-114325000D03*
X204740000Y-114325000D03*
X203470000Y-114325000D03*
X202200000Y-114325000D03*
G04 #@! TD*
D18*
G04 #@! TO.C,R11*
X217937500Y-130700000D03*
X219762500Y-130700000D03*
G04 #@! TD*
D16*
G04 #@! TO.C,C3*
X188200000Y-76820000D03*
X188200000Y-77780000D03*
G04 #@! TD*
G04 #@! TO.C,C7*
X188400000Y-111220000D03*
X188400000Y-112180000D03*
G04 #@! TD*
D15*
G04 #@! TO.C,U18*
X177780000Y-61750000D03*
X179050000Y-61750000D03*
X180320000Y-61750000D03*
X181590000Y-61750000D03*
X182860000Y-61750000D03*
X184130000Y-61750000D03*
X185400000Y-61750000D03*
X186670000Y-61750000D03*
X186670000Y-56800000D03*
X185400000Y-56800000D03*
X184130000Y-56800000D03*
X182860000Y-56800000D03*
X181590000Y-56800000D03*
X180320000Y-56800000D03*
X179050000Y-56800000D03*
X177780000Y-56800000D03*
G04 #@! TD*
D18*
G04 #@! TO.C,R6*
X186425000Y-130700000D03*
X188250000Y-130700000D03*
G04 #@! TD*
D17*
G04 #@! TO.C,U13*
X259200000Y-83516666D03*
X257930000Y-83516666D03*
X256660000Y-83516666D03*
X255390000Y-83516666D03*
X254120000Y-83516666D03*
X252850000Y-83516666D03*
X251580000Y-83516666D03*
X250310000Y-83516666D03*
X250310000Y-88466666D03*
X251580000Y-88466666D03*
X252850000Y-88466666D03*
X254120000Y-88466666D03*
X255390000Y-88466666D03*
X256660000Y-88466666D03*
X257930000Y-88466666D03*
X259200000Y-88466666D03*
G04 #@! TD*
D15*
G04 #@! TO.C,U10*
X177755000Y-123100000D03*
X179025000Y-123100000D03*
X180295000Y-123100000D03*
X181565000Y-123100000D03*
X182835000Y-123100000D03*
X184105000Y-123100000D03*
X185375000Y-123100000D03*
X186645000Y-123100000D03*
X186645000Y-118150000D03*
X185375000Y-118150000D03*
X184105000Y-118150000D03*
X182835000Y-118150000D03*
X181565000Y-118150000D03*
X180295000Y-118150000D03*
X179025000Y-118150000D03*
X177755000Y-118150000D03*
G04 #@! TD*
D16*
G04 #@! TO.C,C5*
X188300000Y-94220000D03*
X188300000Y-95180000D03*
G04 #@! TD*
G04 #@! TO.C,C11*
X248900000Y-98520000D03*
X248900000Y-99480000D03*
G04 #@! TD*
D26*
G04 #@! TO.C,C15*
X188020000Y-54800000D03*
X188980000Y-54800000D03*
G04 #@! TD*
D16*
G04 #@! TO.C,C4*
X188300000Y-85400000D03*
X188300000Y-86360000D03*
G04 #@! TD*
D25*
G04 #@! TO.C,R3*
X203412500Y-53000000D03*
X201587500Y-53000000D03*
G04 #@! TD*
D18*
G04 #@! TO.C,R8*
X198875000Y-130700000D03*
X200700000Y-130700000D03*
G04 #@! TD*
D17*
G04 #@! TO.C,U12*
X259200000Y-74808333D03*
X257930000Y-74808333D03*
X256660000Y-74808333D03*
X255390000Y-74808333D03*
X254120000Y-74808333D03*
X252850000Y-74808333D03*
X251580000Y-74808333D03*
X250310000Y-74808333D03*
X250310000Y-79758333D03*
X251580000Y-79758333D03*
X252850000Y-79758333D03*
X254120000Y-79758333D03*
X255390000Y-79758333D03*
X256660000Y-79758333D03*
X257930000Y-79758333D03*
X259200000Y-79758333D03*
G04 #@! TD*
D25*
G04 #@! TO.C,R2*
X234370000Y-55500000D03*
X232545000Y-55500000D03*
G04 #@! TD*
D16*
G04 #@! TO.C,C12*
X248900000Y-107220000D03*
X248900000Y-108180000D03*
G04 #@! TD*
D17*
G04 #@! TO.C,U11*
X259200000Y-66100000D03*
X257930000Y-66100000D03*
X256660000Y-66100000D03*
X255390000Y-66100000D03*
X254120000Y-66100000D03*
X252850000Y-66100000D03*
X251580000Y-66100000D03*
X250310000Y-66100000D03*
X250310000Y-71050000D03*
X251580000Y-71050000D03*
X252850000Y-71050000D03*
X254120000Y-71050000D03*
X255390000Y-71050000D03*
X256660000Y-71050000D03*
X257930000Y-71050000D03*
X259200000Y-71050000D03*
G04 #@! TD*
D16*
G04 #@! TO.C,C6*
X188300000Y-103020000D03*
X188300000Y-103980000D03*
G04 #@! TD*
D17*
G04 #@! TO.C,U19*
X259100000Y-57225000D03*
X257830000Y-57225000D03*
X256560000Y-57225000D03*
X255290000Y-57225000D03*
X254020000Y-57225000D03*
X252750000Y-57225000D03*
X251480000Y-57225000D03*
X250210000Y-57225000D03*
X250210000Y-62175000D03*
X251480000Y-62175000D03*
X252750000Y-62175000D03*
X254020000Y-62175000D03*
X255290000Y-62175000D03*
X256560000Y-62175000D03*
X257830000Y-62175000D03*
X259100000Y-62175000D03*
G04 #@! TD*
D18*
G04 #@! TO.C,R4*
X173687500Y-130700000D03*
X175512500Y-130700000D03*
G04 #@! TD*
D27*
G04 #@! TO.C,SW6*
X203893340Y-150100000D03*
X203893340Y-134000000D03*
X203893340Y-141300000D03*
G04 #@! TD*
G04 #@! TO.C,SW11*
X235326670Y-150100000D03*
X235326670Y-134000000D03*
X235326670Y-141300000D03*
G04 #@! TD*
G04 #@! TO.C,SW12*
X241613336Y-150100000D03*
X241613336Y-134000000D03*
X241613336Y-141300000D03*
G04 #@! TD*
G04 #@! TO.C,SW14*
X254186668Y-150100000D03*
X254186668Y-134000000D03*
X254186668Y-141300000D03*
G04 #@! TD*
G04 #@! TO.C,SW7*
X210180006Y-150100000D03*
X210180006Y-134000000D03*
X210180006Y-141300000D03*
G04 #@! TD*
G04 #@! TO.C,SW4*
X191320008Y-150100000D03*
X191320008Y-134000000D03*
X191320008Y-141300000D03*
G04 #@! TD*
G04 #@! TO.C,SW15*
X260473334Y-150100000D03*
X260473334Y-134000000D03*
X260473334Y-141300000D03*
G04 #@! TD*
G04 #@! TO.C,SW10*
X229040004Y-150100000D03*
X229040004Y-134000000D03*
X229040004Y-141300000D03*
G04 #@! TD*
G04 #@! TO.C,SW8*
X216466672Y-150100000D03*
X216466672Y-134000000D03*
X216466672Y-141300000D03*
G04 #@! TD*
G04 #@! TO.C,SW9*
X222753338Y-150100000D03*
X222753338Y-134000000D03*
X222753338Y-141300000D03*
G04 #@! TD*
G04 #@! TO.C,SW16*
X266760000Y-150100000D03*
X266760000Y-134000000D03*
X266760000Y-141300000D03*
G04 #@! TD*
G04 #@! TO.C,SW2*
X178746676Y-150100000D03*
X178746676Y-134000000D03*
X178746676Y-141300000D03*
G04 #@! TD*
G04 #@! TO.C,SW5*
X197606674Y-150100000D03*
X197606674Y-134000000D03*
X197606674Y-141300000D03*
G04 #@! TD*
G04 #@! TO.C,SW13*
X247900002Y-150100000D03*
X247900002Y-134000000D03*
X247900002Y-141300000D03*
G04 #@! TD*
G04 #@! TO.C,SW1*
X172460010Y-150100000D03*
X172460010Y-134000000D03*
X172460010Y-141300000D03*
G04 #@! TD*
G04 #@! TO.C,SW3*
X185033342Y-150100000D03*
X185033342Y-134000000D03*
X185033342Y-141300000D03*
G04 #@! TD*
%LPD*%
M02*
