M48
; DRILL file {KiCad 8.0.5} date 2025-03-09T15:17:34+0800
; FORMAT={-:-/ absolute / inch / decimal}
; #@! TF.CreationDate,2025-03-09T15:17:34+08:00
; #@! TF.GenerationSoftware,Kicad,Pcbnew,8.0.5
; #@! TF.FileFunction,Plated,1,2,PTH
FMAT,2
INCH
; #@! TA.AperFunction,Plated,PTH,ViaDrill
T1C0.0118
; #@! TA.AperFunction,Plated,PTH,ComponentDrill
T2C0.0276
; #@! TA.AperFunction,Plated,PTH,ComponentDrill
T3C0.0394
%
G90
G05
T1
X6.6693Y-5.3898
X6.9134Y-5.0906
X6.9961Y-2.4921
X6.9961Y-2.7402
X6.9961Y-2.8465
X7.0Y-3.0787
X7.0Y-3.185
X7.0Y-3.4213
X7.0Y-3.5315
X7.0Y-3.7638
X7.0Y-3.874
X7.0Y-4.1024
X7.0Y-4.2165
X7.0Y-4.4528
X7.0Y-4.5591
X7.0Y-4.7953
X7.0Y-4.9055
X7.0472Y-2.4921
X7.0472Y-2.7402
X7.0472Y-2.8465
X7.0472Y-3.0787
X7.0472Y-3.185
X7.0472Y-3.4213
X7.0472Y-3.5315
X7.0472Y-3.7638
X7.0472Y-4.2165
X7.0472Y-4.4528
X7.0472Y-4.9055
X7.0512Y-3.874
X7.0512Y-4.1024
X7.0512Y-4.5591
X7.0512Y-4.7953
X7.0984Y-2.4921
X7.0984Y-2.7402
X7.0984Y-2.8465
X7.0984Y-3.0787
X7.0984Y-3.185
X7.0984Y-3.4213
X7.0984Y-3.5315
X7.0984Y-3.7638
X7.0984Y-3.874
X7.0984Y-4.1024
X7.0984Y-4.2165
X7.0984Y-4.4528
X7.0984Y-4.5591
X7.0984Y-4.7953
X7.0984Y-4.9055
X7.1457Y-3.874
X7.1457Y-4.1024
X7.1496Y-2.4921
X7.1496Y-2.7402
X7.1496Y-2.8465
X7.1496Y-3.0787
X7.1496Y-3.185
X7.1496Y-3.4213
X7.1496Y-3.5315
X7.1496Y-3.7638
X7.1496Y-4.2165
X7.1496Y-4.4528
X7.1496Y-4.5591
X7.1496Y-4.7953
X7.1496Y-4.9055
X7.1575Y-5.0906
X7.4094Y-2.252
X7.4094Y-2.5945
X7.4094Y-2.9213
X7.4094Y-3.2874
X7.4094Y-3.626
X7.4094Y-3.9646
X7.4094Y-4.3071
X7.4094Y-4.6457
X7.4134Y-5.0906
X7.6535Y-5.0906
X7.8858Y-2.437
X7.8976Y-5.0906
X7.9213Y-2.1378
X7.9331Y-4.7047
X8.0079Y-4.7913
X8.0079Y-4.8976
X8.0118Y-4.6339
X8.0591Y-4.6102
X8.1063Y-4.7913
X8.1063Y-4.8976
X8.1102Y-4.5748
X8.1457Y-5.0866
X8.1575Y-4.5748
X8.1575Y-4.7913
X8.2126Y-4.4291
X8.2598Y-4.4291
X8.311Y-4.4291
X8.311Y-4.5866
X8.3543Y-4.4291
X8.3937Y-3.2126
X8.4016Y-4.4291
X8.4724Y-4.3622
X8.8307Y-4.7717
X8.8307Y-5.0276
X8.878Y-4.7717
X8.878Y-4.9724
X8.8976Y-4.4488
X8.9016Y-5.0866
X8.9055Y-2.1535
X8.9724Y-4.5748
X8.9803Y-4.7717
X8.9843Y-4.9606
X9.0315Y-4.7677
X9.0315Y-5.0236
X9.0787Y-4.4252
X9.126Y-4.6378
X9.1299Y-4.4252
X9.1417Y-5.0866
X9.1535Y-2.248
X9.1732Y-4.3583
X9.1772Y-4.4252
X9.3819Y-5.0827
X9.626Y-4.6181
X9.6299Y-5.0827
X9.689Y-4.7835
X9.6969Y-4.9606
X9.7244Y-4.9055
X9.7638Y-2.5079
X9.7638Y-2.7992
X9.7638Y-3.1417
X9.7638Y-3.4803
X9.7638Y-3.8228
X9.7638Y-4.1614
X9.7677Y-2.3583
X9.8031Y-4.5157
X9.8031Y-4.685
X9.8504Y-2.3307
X10.0472Y-2.1457
X10.0512Y-2.3071
X10.0551Y-2.5276
X10.0551Y-2.6614
X10.0591Y-3.0079
X10.0591Y-3.3465
X10.0591Y-3.6811
X10.0591Y-4.0236
X10.0591Y-4.3661
X10.0591Y-4.7165
X10.0984Y-2.3031
X10.0984Y-2.5276
X10.1024Y-2.122
X10.1063Y-2.6614
X10.1063Y-3.0079
X10.1063Y-3.3465
X10.1063Y-3.6811
X10.1063Y-4.0236
X10.1063Y-4.3661
X10.1063Y-4.7165
X10.1496Y-2.1654
X10.1496Y-2.3031
X10.1496Y-2.5276
X10.1535Y-2.6614
X10.1535Y-3.0079
X10.1535Y-3.3465
X10.1535Y-3.6811
X10.1535Y-4.0236
X10.1535Y-4.3661
X10.1535Y-4.7165
X10.189Y-2.189
X10.2008Y-2.3031
X10.2008Y-2.5276
X10.2047Y-2.6614
X10.2047Y-3.0079
X10.2047Y-3.3465
X10.2047Y-3.6811
X10.2047Y-4.0236
X10.2047Y-4.3661
X10.2047Y-4.7165
T3
X8.1272Y-2.0874
X8.1272Y-2.1874
X8.1272Y-2.2874
X8.1272Y-2.3874
X8.1272Y-2.4874
X8.1272Y-2.5874
X8.1272Y-2.6874
X8.1272Y-2.7874
X9.0272Y-2.0874
X9.0272Y-2.1874
X9.0272Y-2.2874
X9.0272Y-2.3874
X9.0272Y-2.4874
X9.0272Y-2.5874
X9.0272Y-2.6874
X9.0272Y-2.7874
T2
G00X6.7366Y-5.2756
M15
G01X6.8429Y-5.2756
M16
G05
G00X6.7366Y-5.563
M15
G01X6.8429Y-5.563
M16
G05
G00X6.7366Y-5.9094
M15
G01X6.8429Y-5.9094
M16
G05
G00X6.9841Y-5.2756
M15
G01X7.0904Y-5.2756
M16
G05
G00X6.9841Y-5.563
M15
G01X7.0904Y-5.563
M16
G05
G00X6.9841Y-5.9094
M15
G01X7.0904Y-5.9094
M16
G05
G00X7.2316Y-5.2756
M15
G01X7.3379Y-5.2756
M16
G05
G00X7.2316Y-5.563
M15
G01X7.3379Y-5.563
M16
G05
G00X7.2316Y-5.9094
M15
G01X7.3379Y-5.9094
M16
G05
G00X7.4791Y-5.2756
M15
G01X7.5854Y-5.2756
M16
G05
G00X7.4791Y-5.563
M15
G01X7.5854Y-5.563
M16
G05
G00X7.4791Y-5.9094
M15
G01X7.5854Y-5.9094
M16
G05
G00X7.7266Y-5.2756
M15
G01X7.8329Y-5.2756
M16
G05
G00X7.7266Y-5.563
M15
G01X7.8329Y-5.563
M16
G05
G00X7.7266Y-5.9094
M15
G01X7.8329Y-5.9094
M16
G05
G00X7.9741Y-5.2756
M15
G01X8.0804Y-5.2756
M16
G05
G00X7.9741Y-5.563
M15
G01X8.0804Y-5.563
M16
G05
G00X7.9741Y-5.9094
M15
G01X8.0804Y-5.9094
M16
G05
G00X8.2217Y-5.2756
M15
G01X8.328Y-5.2756
M16
G05
G00X8.2217Y-5.563
M15
G01X8.328Y-5.563
M16
G05
G00X8.2217Y-5.9094
M15
G01X8.328Y-5.9094
M16
G05
G00X8.4692Y-5.2756
M15
G01X8.5755Y-5.2756
M16
G05
G00X8.4692Y-5.563
M15
G01X8.5755Y-5.563
M16
G05
G00X8.4692Y-5.9094
M15
G01X8.5755Y-5.9094
M16
G05
G00X8.7167Y-5.2756
M15
G01X8.823Y-5.2756
M16
G05
G00X8.7167Y-5.563
M15
G01X8.823Y-5.563
M16
G05
G00X8.7167Y-5.9094
M15
G01X8.823Y-5.9094
M16
G05
G00X8.9642Y-5.2756
M15
G01X9.0705Y-5.2756
M16
G05
G00X8.9642Y-5.563
M15
G01X9.0705Y-5.563
M16
G05
G00X8.9642Y-5.9094
M15
G01X9.0705Y-5.9094
M16
G05
G00X9.2117Y-5.2756
M15
G01X9.318Y-5.2756
M16
G05
G00X9.2117Y-5.563
M15
G01X9.318Y-5.563
M16
G05
G00X9.2117Y-5.9094
M15
G01X9.318Y-5.9094
M16
G05
G00X9.4592Y-5.2756
M15
G01X9.5655Y-5.2756
M16
G05
G00X9.4592Y-5.563
M15
G01X9.5655Y-5.563
M16
G05
G00X9.4592Y-5.9094
M15
G01X9.5655Y-5.9094
M16
G05
G00X9.7067Y-5.2756
M15
G01X9.813Y-5.2756
M16
G05
G00X9.7067Y-5.563
M15
G01X9.813Y-5.563
M16
G05
G00X9.7067Y-5.9094
M15
G01X9.813Y-5.9094
M16
G05
G00X9.9542Y-5.2756
M15
G01X10.0605Y-5.2756
M16
G05
G00X9.9542Y-5.563
M15
G01X10.0605Y-5.563
M16
G05
G00X9.9542Y-5.9094
M15
G01X10.0605Y-5.9094
M16
G05
G00X10.2017Y-5.2756
M15
G01X10.308Y-5.2756
M16
G05
G00X10.2017Y-5.563
M15
G01X10.308Y-5.563
M16
G05
G00X10.2017Y-5.9094
M15
G01X10.308Y-5.9094
M16
G05
G00X10.4492Y-5.2756
M15
G01X10.5555Y-5.2756
M16
G05
G00X10.4492Y-5.563
M15
G01X10.5555Y-5.563
M16
G05
G00X10.4492Y-5.9094
M15
G01X10.5555Y-5.9094
M16
G05
T3
G00X9.3307Y-2.0
M15
G01X9.3307Y-1.9213
M16
G05
G00X9.5669Y-1.9862
M15
G01X9.5669Y-1.935
M16
G05
G00X9.5768Y-1.7835
M15
G01X9.6358Y-1.7835
M16
G05
G00X9.5768Y-2.1378
M15
G01X9.6358Y-2.1378
M16
G05
M30
