%TF.GenerationSoftware,KiCad,Pcbnew,8.0.5*%
%TF.CreationDate,2025-03-09T15:17:30+08:00*%
%TF.ProjectId,hardware,68617264-7761-4726-952e-6b696361645f,rev?*%
%TF.SameCoordinates,Original*%
%TF.FileFunction,Soldermask,Bot*%
%TF.FilePolarity,Negative*%
%FSLAX46Y46*%
G04 Gerber Fmt 4.6, Leading zero omitted, Abs format (unit mm)*
G04 Created by KiCad (PCBNEW 8.0.5) date 2025-03-09 15:17:30*
%MOMM*%
%LPD*%
G01*
G04 APERTURE LIST*
%ADD10C,1.600000*%
%ADD11R,2.000000X4.000000*%
%ADD12O,2.000000X3.300000*%
%ADD13O,3.500000X2.000000*%
%ADD14R,2.000000X2.000000*%
%ADD15O,2.000000X1.600000*%
%ADD16O,4.404000X2.004000*%
G04 APERTURE END LIST*
D10*
%TO.C,J2*%
X246000000Y-49800000D03*
D11*
X237000000Y-49800000D03*
D12*
X243000000Y-49800000D03*
D13*
X244000000Y-54300000D03*
X244000000Y-45300000D03*
%TD*%
D14*
%TO.C,U1*%
X229290000Y-70800000D03*
D15*
X229290000Y-68260000D03*
X229290000Y-65720000D03*
X229290000Y-63180000D03*
X229290000Y-60640000D03*
X229290000Y-58100000D03*
X229290000Y-55560000D03*
X229290000Y-53020000D03*
X206430000Y-53020000D03*
X206430000Y-55560000D03*
X206430000Y-58100000D03*
X206430000Y-60640000D03*
X206430000Y-63180000D03*
X206430000Y-65720000D03*
X206430000Y-68260000D03*
X206430000Y-70800000D03*
%TD*%
D16*
%TO.C,SW6*%
X203893340Y-150100000D03*
X203893340Y-134000000D03*
X203893340Y-141300000D03*
%TD*%
%TO.C,SW11*%
X235326670Y-150100000D03*
X235326670Y-134000000D03*
X235326670Y-141300000D03*
%TD*%
%TO.C,SW12*%
X241613336Y-150100000D03*
X241613336Y-134000000D03*
X241613336Y-141300000D03*
%TD*%
%TO.C,SW14*%
X254186668Y-150100000D03*
X254186668Y-134000000D03*
X254186668Y-141300000D03*
%TD*%
%TO.C,SW7*%
X210180006Y-150100000D03*
X210180006Y-134000000D03*
X210180006Y-141300000D03*
%TD*%
%TO.C,SW4*%
X191320008Y-150100000D03*
X191320008Y-134000000D03*
X191320008Y-141300000D03*
%TD*%
%TO.C,SW15*%
X260473334Y-150100000D03*
X260473334Y-134000000D03*
X260473334Y-141300000D03*
%TD*%
%TO.C,SW10*%
X229040004Y-150100000D03*
X229040004Y-134000000D03*
X229040004Y-141300000D03*
%TD*%
%TO.C,SW8*%
X216466672Y-150100000D03*
X216466672Y-134000000D03*
X216466672Y-141300000D03*
%TD*%
%TO.C,SW9*%
X222753338Y-150100000D03*
X222753338Y-134000000D03*
X222753338Y-141300000D03*
%TD*%
%TO.C,SW16*%
X266760000Y-150100000D03*
X266760000Y-134000000D03*
X266760000Y-141300000D03*
%TD*%
%TO.C,SW2*%
X178746676Y-150100000D03*
X178746676Y-134000000D03*
X178746676Y-141300000D03*
%TD*%
%TO.C,SW5*%
X197606674Y-150100000D03*
X197606674Y-134000000D03*
X197606674Y-141300000D03*
%TD*%
%TO.C,SW13*%
X247900002Y-150100000D03*
X247900002Y-134000000D03*
X247900002Y-141300000D03*
%TD*%
%TO.C,SW1*%
X172460010Y-150100000D03*
X172460010Y-134000000D03*
X172460010Y-141300000D03*
%TD*%
%TO.C,SW3*%
X185033342Y-150100000D03*
X185033342Y-134000000D03*
X185033342Y-141300000D03*
%TD*%
M02*
