M48
; DRILL file {KiCad 8.0.5} date 2025-03-13T16:15:27+0800
; FORMAT={-:-/ absolute / metric / decimal}
; #@! TF.CreationDate,2025-03-13T16:15:27+08:00
; #@! TF.GenerationSoftware,Kicad,Pcbnew,8.0.5
; #@! TF.FileFunction,Plated,1,2,PTH
FMAT,2
METRIC
; #@! TA.AperFunction,Plated,PTH,ViaDrill
T1C0.300
; #@! TA.AperFunction,Plated,PTH,ComponentDrill
T2C0.700
; #@! TA.AperFunction,Plated,PTH,ComponentDrill
T3C1.000
%
G90
G05
T1
X169.4Y-136.9
X175.6Y-129.3
X177.7Y-63.3
X177.7Y-69.6
X177.7Y-72.3
X177.8Y-78.2
X177.8Y-80.9
X177.8Y-86.9
X177.8Y-89.7
X177.8Y-95.6
X177.8Y-98.4
X177.8Y-104.2
X177.8Y-107.1
X177.8Y-113.1
X177.8Y-115.8
X177.8Y-121.8
X177.8Y-124.6
X179.0Y-63.3
X179.0Y-69.6
X179.0Y-72.3
X179.0Y-78.2
X179.0Y-80.9
X179.0Y-86.9
X179.0Y-89.7
X179.0Y-95.6
X179.0Y-107.1
X179.0Y-113.1
X179.0Y-124.6
X179.1Y-98.4
X179.1Y-104.2
X179.1Y-115.8
X179.1Y-121.8
X180.3Y-63.3
X180.3Y-69.6
X180.3Y-72.3
X180.3Y-78.2
X180.3Y-80.9
X180.3Y-86.9
X180.3Y-89.7
X180.3Y-95.6
X180.3Y-98.4
X180.3Y-104.2
X180.3Y-107.1
X180.3Y-113.1
X180.3Y-115.8
X180.3Y-121.8
X180.3Y-124.6
X181.5Y-98.4
X181.5Y-104.2
X181.6Y-63.3
X181.6Y-69.6
X181.6Y-72.3
X181.6Y-78.2
X181.6Y-80.9
X181.6Y-86.9
X181.6Y-89.7
X181.6Y-95.6
X181.6Y-107.1
X181.6Y-113.1
X181.6Y-115.8
X181.6Y-121.8
X181.6Y-124.6
X181.8Y-129.3
X188.2Y-57.2
X188.2Y-65.9
X188.2Y-74.2
X188.2Y-83.5
X188.2Y-92.1
X188.2Y-100.7
X188.2Y-109.4
X188.2Y-118.0
X188.3Y-129.3
X194.4Y-129.3
X200.3Y-61.9
X200.6Y-129.3
X201.2Y-54.3
X201.5Y-119.5
X203.4Y-121.7
X203.4Y-124.4
X203.5Y-117.7
X204.7Y-117.1
X205.9Y-121.7
X205.9Y-124.4
X206.0Y-116.2
X206.9Y-129.2
X207.2Y-116.2
X207.2Y-121.7
X208.6Y-112.5
X209.8Y-112.5
X211.1Y-112.5
X211.1Y-116.5
X212.2Y-112.5
X213.2Y-81.6
X213.4Y-112.5
X215.2Y-110.8
X224.3Y-121.2
X224.3Y-127.7
X225.5Y-121.2
X225.5Y-126.3
X226.0Y-113.0
X226.1Y-129.2
X226.2Y-54.7
X227.9Y-116.2
X228.1Y-121.2
X228.2Y-126.0
X229.4Y-121.1
X229.4Y-127.6
X230.6Y-112.4
X231.8Y-117.8
X231.9Y-112.4
X232.2Y-129.2
X232.5Y-57.1
X233.0Y-110.7
X233.1Y-112.4
X238.3Y-129.1
X244.5Y-117.3
X244.6Y-129.1
X246.1Y-121.5
X246.3Y-126.0
X247.0Y-124.6
X248.0Y-63.7
X248.0Y-71.1
X248.0Y-79.8
X248.0Y-88.4
X248.0Y-97.1
X248.0Y-105.7
X248.1Y-59.9
X249.0Y-114.7
X249.0Y-119.0
X250.2Y-59.2
X255.2Y-54.5
X255.3Y-58.6
X255.4Y-64.2
X255.4Y-67.6
X255.5Y-76.4
X255.5Y-85.0
X255.5Y-93.5
X255.5Y-102.2
X255.5Y-110.9
X255.5Y-119.8
X256.5Y-58.5
X256.5Y-64.2
X256.6Y-53.9
X256.7Y-67.6
X256.7Y-76.4
X256.7Y-85.0
X256.7Y-93.5
X256.7Y-102.2
X256.7Y-110.9
X256.7Y-119.8
X257.8Y-55.0
X257.8Y-58.5
X257.8Y-64.2
X257.9Y-67.6
X257.9Y-76.4
X257.9Y-85.0
X257.9Y-93.5
X257.9Y-102.2
X257.9Y-110.9
X257.9Y-119.8
X258.8Y-55.6
X259.1Y-58.5
X259.1Y-64.2
X259.2Y-67.6
X259.2Y-76.4
X259.2Y-85.0
X259.2Y-93.5
X259.2Y-102.2
X259.2Y-110.9
X259.2Y-119.8
T3
X206.43Y-53.02
X206.43Y-55.56
X206.43Y-58.1
X206.43Y-60.64
X206.43Y-63.18
X206.43Y-65.72
X206.43Y-68.26
X206.43Y-70.8
X229.29Y-53.02
X229.29Y-55.56
X229.29Y-58.1
X229.29Y-60.64
X229.29Y-63.18
X229.29Y-65.72
X229.29Y-68.26
X229.29Y-70.8
T2
G00X171.11Y-134.0
M15
G01X173.81Y-134.0
M16
G05
G00X171.11Y-141.3
M15
G01X173.81Y-141.3
M16
G05
G00X171.11Y-150.1
M15
G01X173.81Y-150.1
M16
G05
G00X177.397Y-134.0
M15
G01X180.097Y-134.0
M16
G05
G00X177.397Y-141.3
M15
G01X180.097Y-141.3
M16
G05
G00X177.397Y-150.1
M15
G01X180.097Y-150.1
M16
G05
G00X183.683Y-134.0
M15
G01X186.383Y-134.0
M16
G05
G00X183.683Y-141.3
M15
G01X186.383Y-141.3
M16
G05
G00X183.683Y-150.1
M15
G01X186.383Y-150.1
M16
G05
G00X189.97Y-134.0
M15
G01X192.67Y-134.0
M16
G05
G00X189.97Y-141.3
M15
G01X192.67Y-141.3
M16
G05
G00X189.97Y-150.1
M15
G01X192.67Y-150.1
M16
G05
G00X196.257Y-134.0
M15
G01X198.957Y-134.0
M16
G05
G00X196.257Y-141.3
M15
G01X198.957Y-141.3
M16
G05
G00X196.257Y-150.1
M15
G01X198.957Y-150.1
M16
G05
G00X202.543Y-134.0
M15
G01X205.243Y-134.0
M16
G05
G00X202.543Y-141.3
M15
G01X205.243Y-141.3
M16
G05
G00X202.543Y-150.1
M15
G01X205.243Y-150.1
M16
G05
G00X208.83Y-134.0
M15
G01X211.53Y-134.0
M16
G05
G00X208.83Y-141.3
M15
G01X211.53Y-141.3
M16
G05
G00X208.83Y-150.1
M15
G01X211.53Y-150.1
M16
G05
G00X215.117Y-134.0
M15
G01X217.817Y-134.0
M16
G05
G00X215.117Y-141.3
M15
G01X217.817Y-141.3
M16
G05
G00X215.117Y-150.1
M15
G01X217.817Y-150.1
M16
G05
G00X221.403Y-134.0
M15
G01X224.103Y-134.0
M16
G05
G00X221.403Y-141.3
M15
G01X224.103Y-141.3
M16
G05
G00X221.403Y-150.1
M15
G01X224.103Y-150.1
M16
G05
G00X227.69Y-134.0
M15
G01X230.39Y-134.0
M16
G05
G00X227.69Y-141.3
M15
G01X230.39Y-141.3
M16
G05
G00X227.69Y-150.1
M15
G01X230.39Y-150.1
M16
G05
G00X233.977Y-134.0
M15
G01X236.677Y-134.0
M16
G05
G00X233.977Y-141.3
M15
G01X236.677Y-141.3
M16
G05
G00X233.977Y-150.1
M15
G01X236.677Y-150.1
M16
G05
G00X240.263Y-134.0
M15
G01X242.963Y-134.0
M16
G05
G00X240.263Y-141.3
M15
G01X242.963Y-141.3
M16
G05
G00X240.263Y-150.1
M15
G01X242.963Y-150.1
M16
G05
G00X246.55Y-134.0
M15
G01X249.25Y-134.0
M16
G05
G00X246.55Y-141.3
M15
G01X249.25Y-141.3
M16
G05
G00X246.55Y-150.1
M15
G01X249.25Y-150.1
M16
G05
G00X252.837Y-134.0
M15
G01X255.537Y-134.0
M16
G05
G00X252.837Y-141.3
M15
G01X255.537Y-141.3
M16
G05
G00X252.837Y-150.1
M15
G01X255.537Y-150.1
M16
G05
G00X259.123Y-134.0
M15
G01X261.823Y-134.0
M16
G05
G00X259.123Y-141.3
M15
G01X261.823Y-141.3
M16
G05
G00X259.123Y-150.1
M15
G01X261.823Y-150.1
M16
G05
G00X265.41Y-134.0
M15
G01X268.11Y-134.0
M16
G05
G00X265.41Y-141.3
M15
G01X268.11Y-141.3
M16
G05
G00X265.41Y-150.1
M15
G01X268.11Y-150.1
M16
G05
T3
G00X237.0Y-50.8
M15
G01X237.0Y-48.8
M16
G05
G00X243.0Y-50.45
M15
G01X243.0Y-49.15
M16
G05
G00X243.25Y-45.3
M15
G01X244.75Y-45.3
M16
G05
G00X243.25Y-54.3
M15
G01X244.75Y-54.3
M16
G05
M30
