<?xml version="1.0" encoding="utf-8"?>
<!-- Generator: Adobe Illustrator 24.2.3, SVG Export Plug-In . SVG Version: 6.00 Build 0)  -->
<svg version="1.1"
	 id="svg1" xmlns:inkscape="http://www.inkscape.org/namespaces/inkscape" xmlns:sodipodi="http://sodipodi.sourceforge.net/DTD/sodipodi-0.dtd" xmlns:svg="http://www.w3.org/2000/svg"
	 xmlns="http://www.w3.org/2000/svg" xmlns:xlink="http://www.w3.org/1999/xlink" x="0px" y="0px" viewBox="0 0 595.3 841.9"
	 style="enable-background:new 0 0 595.3 841.9;" xml:space="preserve">
<style type="text/css">
	.st0{fill:none;stroke:#FFFF00;stroke-miterlimit:10;}
</style>
<sodipodi:namedview  bordercolor="#ffffff" borderopacity="1" id="namedview1" inkscape:current-layer="layer1" inkscape:cx="383" inkscape:cy="422.25" inkscape:deskcolor="#505050" inkscape:document-units="mm" inkscape:pagecheckerboard="1" inkscape:pageopacity="0" inkscape:showpageshadow="0" inkscape:window-height="1052" inkscape:window-maximized="1" inkscape:window-width="1920" inkscape:window-x="0" inkscape:window-y="0" inkscape:zoom="2" pagecolor="#505050">
	</sodipodi:namedview>
<path class="st0" d="M122.8,246.7v309.3h349.7V246.7H122.8z M133.9,545c-2.7,0-4.8-2.2-4.8-4.8c0-2.7,2.2-4.8,4.8-4.8
	c2.7,0,4.8,2.2,4.8,4.8C138.8,542.8,136.6,545,133.9,545z M133.9,267.5c-2.7,0-4.8-2.2-4.8-4.8c0-2.7,2.2-4.8,4.8-4.8
	c2.7,0,4.8,2.2,4.8,4.8C138.8,265.3,136.6,267.5,133.9,267.5z M461.3,545c-2.7,0-4.8-2.2-4.8-4.8c0-2.7,2.2-4.8,4.8-4.8
	c2.7,0,4.8,2.2,4.8,4.8C466.2,542.8,464,545,461.3,545z M461.3,267.5c-2.7,0-4.8-2.2-4.8-4.8c0-2.7,2.2-4.8,4.8-4.8
	c2.7,0,4.8,2.2,4.8,4.8C466.2,265.3,464,267.5,461.3,267.5z"/>
</svg>
