M48
; DRILL file {KiCad 8.0.5} date 2024-12-17T00:54:34+0800
; FORMAT={-:-/ absolute / inch / decimal}
; #@! TF.CreationDate,2024-12-17T00:54:34+08:00
; #@! TF.GenerationSoftware,Kicad,Pcbnew,8.0.5
; #@! TF.FileFunction,Plated,1,2,PTH
FMAT,2
INCH
; #@! TA.AperFunction,Plated,PTH,ViaDrill
T1C0.0118
; #@! TA.AperFunction,Plated,PTH,ViaDrill
T2C0.0197
; #@! TA.AperFunction,Plated,PTH,ComponentDrill
T3C0.0276
; #@! TA.AperFunction,Plated,PTH,ComponentDrill
T4C0.0394
%
G90
G05
T1
X6.3425Y-5.6043
X7.0039Y-2.7047
X7.0039Y-4.1437
X7.0039Y-4.5787
X7.0039Y-4.8839
X7.0051Y-2.5118
X7.0059Y-3.2657
X7.0059Y-3.5571
X7.0059Y-3.7008
X7.0059Y-4.0079
X7.0059Y-4.4429
X7.0079Y-2.8878
X7.0079Y-3.126
X7.0531Y-3.2657
X7.0531Y-3.5551
X7.0531Y-4.0059
X7.0531Y-4.1437
X7.0531Y-4.4429
X7.0531Y-4.8819
X7.0551Y-2.5098
X7.0551Y-2.7047
X7.0551Y-3.6988
X7.0551Y-4.5768
X7.0571Y-2.8878
X7.0571Y-3.126
X7.1063Y-2.5098
X7.1063Y-2.7047
X7.1063Y-2.8858
X7.1063Y-3.124
X7.1063Y-3.2638
X7.1063Y-3.5571
X7.1063Y-3.6988
X7.1063Y-4.1457
X7.1063Y-4.4429
X7.1063Y-4.5768
X7.1063Y-4.8819
X7.1083Y-4.0079
X7.1535Y-3.124
X7.1535Y-3.2638
X7.1535Y-3.7008
X7.1535Y-4.0079
X7.1555Y-2.5098
X7.1555Y-2.7047
X7.1555Y-2.8839
X7.1555Y-3.5551
X7.1555Y-4.1437
X7.1555Y-4.439
X7.1555Y-4.5807
X7.1555Y-4.8799
X7.3248Y-5.0807
X7.3937Y-2.4409
X7.4606Y-2.3996
X7.4843Y-2.3071
X7.4882Y-2.374
X7.6083Y-2.3563
X7.6673Y-2.252
X7.8484Y-4.6654
X7.8524Y-4.5866
X7.9291Y-2.4173
X7.9764Y-2.5886
X8.0433Y-4.6063
X8.0551Y-1.8819
X8.0551Y-1.9173
X8.0571Y-1.8484
X8.0591Y-1.8169
X8.1004Y-4.5886
X8.1142Y-4.9823
X8.1713Y-4.7854
X8.2028Y-4.3209
X8.2106Y-4.4606
X8.2618Y-4.4606
X8.2913Y-5.0413
X8.2972Y-4.7933
X8.3106Y-4.4587
X8.3819Y-4.4567
X8.3917Y-1.8799
X8.3937Y-1.815
X8.3937Y-1.8465
X8.3937Y-1.9154
X8.7638Y-4.6555
X8.8602Y-4.628
X8.9154Y-5.1437
X8.9272Y-4.6063
X8.9547Y-4.5827
X8.9587Y-4.6555
X9.002Y-3.3071
X9.0177Y-4.5906
X9.0276Y-4.7992
X9.1201Y-3.3071
X9.1673Y-2.2421
X9.1673Y-5.1417
X9.1811Y-3.3051
X9.2854Y-2.4429
X9.6476Y-5.1339
X9.7067Y-2.4429
X9.8996Y-2.4193
X9.8996Y-2.5177
X9.8996Y-3.7421
X9.8996Y-4.2106
X9.8996Y-4.5079
X9.9016Y-2.7126
X9.9016Y-3.2992
X9.9016Y-4.0827
X9.9016Y-4.6378
X9.9035Y-2.8858
X9.9035Y-3.1654
X9.9035Y-3.6122
X9.9035Y-4.872
X9.9134Y-2.0492
X9.9469Y-2.7106
X9.9488Y-2.4252
X9.9488Y-2.5157
X9.9508Y-2.8858
X9.9508Y-3.1634
X9.9508Y-3.6122
X9.9508Y-3.7402
X9.9508Y-4.0827
X9.9508Y-4.2087
X9.9508Y-4.5059
X9.9508Y-4.6358
X9.9508Y-4.872
X9.9528Y-3.2972
X9.9547Y-2.065
X9.9961Y-2.2677
X10.0Y-2.4232
X10.0Y-3.1634
X10.0Y-3.2972
X10.0Y-3.6122
X10.0Y-4.6339
X10.0008Y-2.8858
X10.002Y-2.7087
X10.002Y-3.7421
X10.002Y-4.0827
X10.002Y-4.5079
X10.002Y-4.874
X10.0039Y-4.2067
X10.0472Y-3.6122
X10.0492Y-2.25
X10.0492Y-2.4094
X10.0492Y-2.7087
X10.0492Y-4.2106
X10.0492Y-4.5059
X10.0492Y-4.6339
X10.0492Y-4.874
X10.0508Y-2.8858
X10.0512Y-3.1634
X10.0512Y-3.2953
X10.0531Y-3.7402
X10.0531Y-4.0827
X10.0748Y-2.0827
X10.0807Y-4.6791
X10.0866Y-3.3839
X10.0886Y-4.3169
X10.0906Y-2.9646
X10.0906Y-4.2835
X10.0925Y-2.9291
X10.0925Y-5.0945
X10.0965Y-2.4331
X10.0984Y-2.4843
X10.1083Y-3.4173
X10.1161Y-3.876
X10.1437Y-3.8465
X10.1457Y-3.122
X10.1476Y-3.1634
X10.1752Y-2.6516
X10.2441Y-4.0768
X10.2461Y-3.5669
X10.2461Y-4.4685
X10.248Y-3.6122
X10.248Y-4.0236
X10.248Y-4.5118
X10.2598Y-2.6831
X10.2618Y-2.2697
X10.315Y-2.0571
X10.3602Y-2.2717
X10.3602Y-2.4331
X10.3602Y-2.4843
X10.3602Y-3.3858
X10.3602Y-3.565
X10.3622Y-3.4252
X10.3622Y-3.876
X10.3622Y-4.4685
X10.3642Y-2.9311
X10.3642Y-3.2106
X10.3642Y-3.6161
X10.3642Y-3.8366
X10.3642Y-4.0768
X10.3661Y-2.6634
X10.3661Y-2.7126
X10.3661Y-2.9685
X10.3661Y-4.0197
X10.3661Y-4.2835
X10.3661Y-4.3268
X10.3661Y-4.5118
X10.3681Y-3.1594
X10.3681Y-4.6988
X10.3839Y-2.1811
X10.3898Y-2.0453
X10.3957Y-4.9921
X10.4646Y-4.9272
X10.9173Y-2.2992
T2
X7.4488Y-2.9094
X7.4528Y-4.5709
X7.4547Y-3.2461
X7.4626Y-4.1378
X7.4685Y-3.6673
X7.4734Y-2.1604
X7.5689Y-4.8799
X9.2185Y-2.0925
X10.2539Y-4.2382
X10.2539Y-4.6516
X10.2559Y-2.8622
X10.2559Y-3.315
X10.2559Y-3.7736
X10.2628Y-2.3848
X10.3091Y-4.9488
T4
X8.1272Y-2.0874
X8.1272Y-2.1874
X8.1272Y-2.2874
X8.1272Y-2.3874
X8.1272Y-2.4874
X8.1272Y-2.5874
X8.1272Y-2.6874
X8.1272Y-2.7874
X9.0272Y-2.0874
X9.0272Y-2.1874
X9.0272Y-2.2874
X9.0272Y-2.3874
X9.0272Y-2.4874
X9.0272Y-2.5874
X9.0272Y-2.6874
X9.0272Y-2.7874
T3
G00X6.8429Y-5.2756
M15
G01X6.7366Y-5.2756
M16
G05
G00X6.8429Y-5.622
M15
G01X6.7366Y-5.622
M16
G05
G00X6.8429Y-5.9094
M15
G01X6.7366Y-5.9094
M16
G05
G00X7.0904Y-5.2756
M15
G01X6.9841Y-5.2756
M16
G05
G00X7.0904Y-5.622
M15
G01X6.9841Y-5.622
M16
G05
G00X7.0904Y-5.9094
M15
G01X6.9841Y-5.9094
M16
G05
G00X7.3379Y-5.2756
M15
G01X7.2316Y-5.2756
M16
G05
G00X7.3379Y-5.622
M15
G01X7.2316Y-5.622
M16
G05
G00X7.3379Y-5.9094
M15
G01X7.2316Y-5.9094
M16
G05
G00X7.5854Y-5.2756
M15
G01X7.4791Y-5.2756
M16
G05
G00X7.5854Y-5.622
M15
G01X7.4791Y-5.622
M16
G05
G00X7.5854Y-5.9094
M15
G01X7.4791Y-5.9094
M16
G05
G00X7.8329Y-5.2756
M15
G01X7.7266Y-5.2756
M16
G05
G00X7.8329Y-5.622
M15
G01X7.7266Y-5.622
M16
G05
G00X7.8329Y-5.9094
M15
G01X7.7266Y-5.9094
M16
G05
G00X8.0804Y-5.2756
M15
G01X7.9741Y-5.2756
M16
G05
G00X8.0804Y-5.622
M15
G01X7.9741Y-5.622
M16
G05
G00X8.0804Y-5.9094
M15
G01X7.9741Y-5.9094
M16
G05
G00X8.328Y-5.2756
M15
G01X8.2217Y-5.2756
M16
G05
G00X8.328Y-5.622
M15
G01X8.2217Y-5.622
M16
G05
G00X8.328Y-5.9094
M15
G01X8.2217Y-5.9094
M16
G05
G00X8.5755Y-5.2756
M15
G01X8.4692Y-5.2756
M16
G05
G00X8.5755Y-5.622
M15
G01X8.4692Y-5.622
M16
G05
G00X8.5755Y-5.9094
M15
G01X8.4692Y-5.9094
M16
G05
G00X8.823Y-5.2756
M15
G01X8.7167Y-5.2756
M16
G05
G00X8.823Y-5.622
M15
G01X8.7167Y-5.622
M16
G05
G00X8.823Y-5.9094
M15
G01X8.7167Y-5.9094
M16
G05
G00X9.0705Y-5.2756
M15
G01X8.9642Y-5.2756
M16
G05
G00X9.0705Y-5.622
M15
G01X8.9642Y-5.622
M16
G05
G00X9.0705Y-5.9094
M15
G01X8.9642Y-5.9094
M16
G05
G00X9.318Y-5.2756
M15
G01X9.2117Y-5.2756
M16
G05
G00X9.318Y-5.622
M15
G01X9.2117Y-5.622
M16
G05
G00X9.318Y-5.9094
M15
G01X9.2117Y-5.9094
M16
G05
G00X9.5655Y-5.2756
M15
G01X9.4592Y-5.2756
M16
G05
G00X9.5655Y-5.622
M15
G01X9.4592Y-5.622
M16
G05
G00X9.5655Y-5.9094
M15
G01X9.4592Y-5.9094
M16
G05
G00X9.813Y-5.2756
M15
G01X9.7067Y-5.2756
M16
G05
G00X9.813Y-5.622
M15
G01X9.7067Y-5.622
M16
G05
G00X9.813Y-5.9094
M15
G01X9.7067Y-5.9094
M16
G05
G00X10.0605Y-5.2756
M15
G01X9.9542Y-5.2756
M16
G05
G00X10.0605Y-5.622
M15
G01X9.9542Y-5.622
M16
G05
G00X10.0605Y-5.9094
M15
G01X9.9542Y-5.9094
M16
G05
G00X10.308Y-5.2756
M15
G01X10.2017Y-5.2756
M16
G05
G00X10.308Y-5.622
M15
G01X10.2017Y-5.622
M16
G05
G00X10.308Y-5.9094
M15
G01X10.2017Y-5.9094
M16
G05
G00X10.5555Y-5.2756
M15
G01X10.4492Y-5.2756
M16
G05
G00X10.5555Y-5.622
M15
G01X10.4492Y-5.622
M16
G05
G00X10.5555Y-5.9094
M15
G01X10.4492Y-5.9094
M16
G05
T4
G00X7.2205Y-1.7795
M15
G01X7.1614Y-1.7795
M16
G05
G00X7.2205Y-2.1339
M15
G01X7.1614Y-2.1339
M16
G05
G00X7.2303Y-1.9311
M15
G01X7.2303Y-1.9823
M16
G05
G00X7.4665Y-1.9173
M15
G01X7.4665Y-1.9961
M16
G05
M30
