%TF.GenerationSoftware,KiCad,Pcbnew,8.0.5*%
%TF.CreationDate,2024-12-17T00:54:36+08:00*%
%TF.ProjectId,hardware,68617264-7761-4726-952e-6b696361645f,rev?*%
%TF.SameCoordinates,Original*%
%TF.FileFunction,Drillmap*%
%TF.FilePolarity,Positive*%
%FSLAX45Y45*%
G04 Gerber Fmt 4.5, Leading zero omitted, Abs format (unit mm)*
G04 Created by KiCad (PCBNEW 8.0.5) date 2024-12-17 00:54:36*
%MOMM*%
%LPD*%
G01*
G04 APERTURE LIST*
%ADD10C,0.050000*%
%ADD11C,0.200000*%
%ADD12C,0.150000*%
%ADD13C,0.160000*%
G04 APERTURE END LIST*
D10*
X28134000Y-4348743D02*
X28127260Y-4348743D01*
X28127260Y-4348903D02*
X28115000Y-4348903D01*
X28134000Y-15229841D02*
X28134000Y-15260159D01*
X28134000Y-15229841D02*
X28134000Y-4348743D01*
X15793362Y-15260318D02*
X28134000Y-15260318D01*
X15793362Y-4348903D02*
X28115000Y-4348903D01*
X15793362Y-15260318D02*
X15793362Y-4348903D01*
D11*
X16352260Y-14700000D02*
G75*
G02*
X16012260Y-14700000I-170000J0D01*
G01*
X16012260Y-14700000D02*
G75*
G02*
X16352260Y-14700000I170000J0D01*
G01*
X16357260Y-4915000D02*
G75*
G02*
X16017260Y-4915000I-170000J0D01*
G01*
X16017260Y-4915000D02*
G75*
G02*
X16357260Y-4915000I170000J0D01*
G01*
X27907260Y-4915000D02*
G75*
G02*
X27567260Y-4915000I-170000J0D01*
G01*
X27567260Y-4915000D02*
G75*
G02*
X27907260Y-4915000I170000J0D01*
G01*
X27907260Y-14700000D02*
G75*
G02*
X27567260Y-14700000I-170000J0D01*
G01*
X27567260Y-14700000D02*
G75*
G02*
X27907260Y-14700000I170000J0D01*
G01*
D12*
X16316500Y-5595000D02*
X16466500Y-5745000D01*
X16466500Y-5595000D02*
X16316500Y-5745000D01*
X16316500Y-6730833D02*
X16466500Y-6880833D01*
X16466500Y-6730833D02*
X16316500Y-6880833D01*
X16316500Y-7866667D02*
X16466500Y-8016667D01*
X16466500Y-7866667D02*
X16316500Y-8016667D01*
X16316500Y-9002500D02*
X16466500Y-9152500D01*
X16466500Y-9002500D02*
X16316500Y-9152500D01*
X16316500Y-10138333D02*
X16466500Y-10288333D01*
X16466500Y-10138333D02*
X16316500Y-10288333D01*
X16316500Y-11274166D02*
X16466500Y-11424166D01*
X16466500Y-11274166D02*
X16316500Y-11424166D01*
X16316500Y-12410000D02*
X16466500Y-12560000D01*
X16466500Y-12410000D02*
X16316500Y-12560000D01*
X27430000Y-5577500D02*
X27580000Y-5727500D01*
X27580000Y-5577500D02*
X27430000Y-5727500D01*
X27430000Y-6730417D02*
X27580000Y-6880417D01*
X27580000Y-6730417D02*
X27430000Y-6880417D01*
X27430000Y-7883333D02*
X27580000Y-8033333D01*
X27580000Y-7883333D02*
X27430000Y-8033333D01*
X27430000Y-9036250D02*
X27580000Y-9186250D01*
X27580000Y-9036250D02*
X27430000Y-9186250D01*
X27430000Y-10189166D02*
X27580000Y-10339166D01*
X27580000Y-10189166D02*
X27430000Y-10339166D01*
X27430000Y-11342083D02*
X27580000Y-11492083D01*
X27580000Y-11342083D02*
X27430000Y-11492083D01*
X27430000Y-12495000D02*
X27580000Y-12645000D01*
X27580000Y-12495000D02*
X27430000Y-12645000D01*
D13*
X17181500Y-5670000D02*
G75*
G02*
X17021500Y-5670000I-80000J0D01*
G01*
X17021500Y-5670000D02*
G75*
G02*
X17181500Y-5670000I80000J0D01*
G01*
X17181500Y-6805833D02*
G75*
G02*
X17021500Y-6805833I-80000J0D01*
G01*
X17021500Y-6805833D02*
G75*
G02*
X17181500Y-6805833I80000J0D01*
G01*
X17181500Y-7941667D02*
G75*
G02*
X17021500Y-7941667I-80000J0D01*
G01*
X17021500Y-7941667D02*
G75*
G02*
X17181500Y-7941667I80000J0D01*
G01*
X17181500Y-9077500D02*
G75*
G02*
X17021500Y-9077500I-80000J0D01*
G01*
X17021500Y-9077500D02*
G75*
G02*
X17181500Y-9077500I80000J0D01*
G01*
X17181500Y-10213333D02*
G75*
G02*
X17021500Y-10213333I-80000J0D01*
G01*
X17021500Y-10213333D02*
G75*
G02*
X17181500Y-10213333I80000J0D01*
G01*
X17181500Y-11349166D02*
G75*
G02*
X17021500Y-11349166I-80000J0D01*
G01*
X17021500Y-11349166D02*
G75*
G02*
X17181500Y-11349166I80000J0D01*
G01*
X17181500Y-12485000D02*
G75*
G02*
X17021500Y-12485000I-80000J0D01*
G01*
X17021500Y-12485000D02*
G75*
G02*
X17181500Y-12485000I80000J0D01*
G01*
X18145000Y-4970000D02*
G75*
G02*
X17985000Y-4970000I-80000J0D01*
G01*
X17985000Y-4970000D02*
G75*
G02*
X18145000Y-4970000I80000J0D01*
G01*
X26875000Y-5652500D02*
G75*
G02*
X26715000Y-5652500I-80000J0D01*
G01*
X26715000Y-5652500D02*
G75*
G02*
X26875000Y-5652500I80000J0D01*
G01*
X26875000Y-6805417D02*
G75*
G02*
X26715000Y-6805417I-80000J0D01*
G01*
X26715000Y-6805417D02*
G75*
G02*
X26875000Y-6805417I80000J0D01*
G01*
X26875000Y-7958333D02*
G75*
G02*
X26715000Y-7958333I-80000J0D01*
G01*
X26715000Y-7958333D02*
G75*
G02*
X26875000Y-7958333I80000J0D01*
G01*
X26875000Y-9111250D02*
G75*
G02*
X26715000Y-9111250I-80000J0D01*
G01*
X26715000Y-9111250D02*
G75*
G02*
X26875000Y-9111250I80000J0D01*
G01*
X26875000Y-10264166D02*
G75*
G02*
X26715000Y-10264166I-80000J0D01*
G01*
X26715000Y-10264166D02*
G75*
G02*
X26875000Y-10264166I80000J0D01*
G01*
X26875000Y-11417083D02*
G75*
G02*
X26715000Y-11417083I-80000J0D01*
G01*
X26715000Y-11417083D02*
G75*
G02*
X26875000Y-11417083I80000J0D01*
G01*
X26875000Y-12570000D02*
G75*
G02*
X26715000Y-12570000I-80000J0D01*
G01*
X26715000Y-12570000D02*
G75*
G02*
X26875000Y-12570000I80000J0D01*
G01*
D11*
X16051639Y-15574302D02*
X16051639Y-15374302D01*
X16051639Y-15374302D02*
X16099258Y-15374302D01*
X16099258Y-15374302D02*
X16127829Y-15383826D01*
X16127829Y-15383826D02*
X16146877Y-15402873D01*
X16146877Y-15402873D02*
X16156401Y-15421921D01*
X16156401Y-15421921D02*
X16165925Y-15460016D01*
X16165925Y-15460016D02*
X16165925Y-15488588D01*
X16165925Y-15488588D02*
X16156401Y-15526683D01*
X16156401Y-15526683D02*
X16146877Y-15545731D01*
X16146877Y-15545731D02*
X16127829Y-15564778D01*
X16127829Y-15564778D02*
X16099258Y-15574302D01*
X16099258Y-15574302D02*
X16051639Y-15574302D01*
X16251639Y-15574302D02*
X16251639Y-15440969D01*
X16251639Y-15479064D02*
X16261163Y-15460016D01*
X16261163Y-15460016D02*
X16270686Y-15450492D01*
X16270686Y-15450492D02*
X16289734Y-15440969D01*
X16289734Y-15440969D02*
X16308782Y-15440969D01*
X16375448Y-15574302D02*
X16375448Y-15440969D01*
X16375448Y-15374302D02*
X16365925Y-15383826D01*
X16365925Y-15383826D02*
X16375448Y-15393350D01*
X16375448Y-15393350D02*
X16384972Y-15383826D01*
X16384972Y-15383826D02*
X16375448Y-15374302D01*
X16375448Y-15374302D02*
X16375448Y-15393350D01*
X16499258Y-15574302D02*
X16480210Y-15564778D01*
X16480210Y-15564778D02*
X16470686Y-15545731D01*
X16470686Y-15545731D02*
X16470686Y-15374302D01*
X16604020Y-15574302D02*
X16584972Y-15564778D01*
X16584972Y-15564778D02*
X16575448Y-15545731D01*
X16575448Y-15545731D02*
X16575448Y-15374302D01*
X16832591Y-15574302D02*
X16832591Y-15374302D01*
X16832591Y-15374302D02*
X16899258Y-15517159D01*
X16899258Y-15517159D02*
X16965925Y-15374302D01*
X16965925Y-15374302D02*
X16965925Y-15574302D01*
X17146877Y-15574302D02*
X17146877Y-15469540D01*
X17146877Y-15469540D02*
X17137353Y-15450492D01*
X17137353Y-15450492D02*
X17118306Y-15440969D01*
X17118306Y-15440969D02*
X17080210Y-15440969D01*
X17080210Y-15440969D02*
X17061163Y-15450492D01*
X17146877Y-15564778D02*
X17127829Y-15574302D01*
X17127829Y-15574302D02*
X17080210Y-15574302D01*
X17080210Y-15574302D02*
X17061163Y-15564778D01*
X17061163Y-15564778D02*
X17051639Y-15545731D01*
X17051639Y-15545731D02*
X17051639Y-15526683D01*
X17051639Y-15526683D02*
X17061163Y-15507635D01*
X17061163Y-15507635D02*
X17080210Y-15498112D01*
X17080210Y-15498112D02*
X17127829Y-15498112D01*
X17127829Y-15498112D02*
X17146877Y-15488588D01*
X17242115Y-15440969D02*
X17242115Y-15640969D01*
X17242115Y-15450492D02*
X17261163Y-15440969D01*
X17261163Y-15440969D02*
X17299258Y-15440969D01*
X17299258Y-15440969D02*
X17318306Y-15450492D01*
X17318306Y-15450492D02*
X17327829Y-15460016D01*
X17327829Y-15460016D02*
X17337353Y-15479064D01*
X17337353Y-15479064D02*
X17337353Y-15536207D01*
X17337353Y-15536207D02*
X17327829Y-15555254D01*
X17327829Y-15555254D02*
X17318306Y-15564778D01*
X17318306Y-15564778D02*
X17299258Y-15574302D01*
X17299258Y-15574302D02*
X17261163Y-15574302D01*
X17261163Y-15574302D02*
X17242115Y-15564778D01*
X17423068Y-15555254D02*
X17432591Y-15564778D01*
X17432591Y-15564778D02*
X17423068Y-15574302D01*
X17423068Y-15574302D02*
X17413544Y-15564778D01*
X17413544Y-15564778D02*
X17423068Y-15555254D01*
X17423068Y-15555254D02*
X17423068Y-15574302D01*
X17423068Y-15450492D02*
X17432591Y-15460016D01*
X17432591Y-15460016D02*
X17423068Y-15469540D01*
X17423068Y-15469540D02*
X17413544Y-15460016D01*
X17413544Y-15460016D02*
X17423068Y-15450492D01*
X17423068Y-15450492D02*
X17423068Y-15469540D01*
D12*
X15640862Y-15827818D02*
X15790862Y-15977818D01*
X15790862Y-15827818D02*
X15640862Y-15977818D01*
D11*
X16156401Y-15994302D02*
X16042115Y-15994302D01*
X16099258Y-15994302D02*
X16099258Y-15794302D01*
X16099258Y-15794302D02*
X16080210Y-15822873D01*
X16080210Y-15822873D02*
X16061163Y-15841921D01*
X16061163Y-15841921D02*
X16042115Y-15851445D01*
X16242115Y-15975254D02*
X16251639Y-15984778D01*
X16251639Y-15984778D02*
X16242115Y-15994302D01*
X16242115Y-15994302D02*
X16232591Y-15984778D01*
X16232591Y-15984778D02*
X16242115Y-15975254D01*
X16242115Y-15975254D02*
X16242115Y-15994302D01*
X16432591Y-15794302D02*
X16337353Y-15794302D01*
X16337353Y-15794302D02*
X16327829Y-15889540D01*
X16327829Y-15889540D02*
X16337353Y-15880016D01*
X16337353Y-15880016D02*
X16356401Y-15870492D01*
X16356401Y-15870492D02*
X16404020Y-15870492D01*
X16404020Y-15870492D02*
X16423067Y-15880016D01*
X16423067Y-15880016D02*
X16432591Y-15889540D01*
X16432591Y-15889540D02*
X16442115Y-15908588D01*
X16442115Y-15908588D02*
X16442115Y-15956207D01*
X16442115Y-15956207D02*
X16432591Y-15975254D01*
X16432591Y-15975254D02*
X16423067Y-15984778D01*
X16423067Y-15984778D02*
X16404020Y-15994302D01*
X16404020Y-15994302D02*
X16356401Y-15994302D01*
X16356401Y-15994302D02*
X16337353Y-15984778D01*
X16337353Y-15984778D02*
X16327829Y-15975254D01*
X16565925Y-15794302D02*
X16584972Y-15794302D01*
X16584972Y-15794302D02*
X16604020Y-15803826D01*
X16604020Y-15803826D02*
X16613544Y-15813350D01*
X16613544Y-15813350D02*
X16623067Y-15832397D01*
X16623067Y-15832397D02*
X16632591Y-15870492D01*
X16632591Y-15870492D02*
X16632591Y-15918112D01*
X16632591Y-15918112D02*
X16623067Y-15956207D01*
X16623067Y-15956207D02*
X16613544Y-15975254D01*
X16613544Y-15975254D02*
X16604020Y-15984778D01*
X16604020Y-15984778D02*
X16584972Y-15994302D01*
X16584972Y-15994302D02*
X16565925Y-15994302D01*
X16565925Y-15994302D02*
X16546877Y-15984778D01*
X16546877Y-15984778D02*
X16537353Y-15975254D01*
X16537353Y-15975254D02*
X16527829Y-15956207D01*
X16527829Y-15956207D02*
X16518306Y-15918112D01*
X16518306Y-15918112D02*
X16518306Y-15870492D01*
X16518306Y-15870492D02*
X16527829Y-15832397D01*
X16527829Y-15832397D02*
X16537353Y-15813350D01*
X16537353Y-15813350D02*
X16546877Y-15803826D01*
X16546877Y-15803826D02*
X16565925Y-15794302D01*
X16756401Y-15794302D02*
X16775448Y-15794302D01*
X16775448Y-15794302D02*
X16794496Y-15803826D01*
X16794496Y-15803826D02*
X16804020Y-15813350D01*
X16804020Y-15813350D02*
X16813544Y-15832397D01*
X16813544Y-15832397D02*
X16823068Y-15870492D01*
X16823068Y-15870492D02*
X16823068Y-15918112D01*
X16823068Y-15918112D02*
X16813544Y-15956207D01*
X16813544Y-15956207D02*
X16804020Y-15975254D01*
X16804020Y-15975254D02*
X16794496Y-15984778D01*
X16794496Y-15984778D02*
X16775448Y-15994302D01*
X16775448Y-15994302D02*
X16756401Y-15994302D01*
X16756401Y-15994302D02*
X16737353Y-15984778D01*
X16737353Y-15984778D02*
X16727829Y-15975254D01*
X16727829Y-15975254D02*
X16718306Y-15956207D01*
X16718306Y-15956207D02*
X16708782Y-15918112D01*
X16708782Y-15918112D02*
X16708782Y-15870492D01*
X16708782Y-15870492D02*
X16718306Y-15832397D01*
X16718306Y-15832397D02*
X16727829Y-15813350D01*
X16727829Y-15813350D02*
X16737353Y-15803826D01*
X16737353Y-15803826D02*
X16756401Y-15794302D01*
X16908782Y-15994302D02*
X16908782Y-15860969D01*
X16908782Y-15880016D02*
X16918306Y-15870492D01*
X16918306Y-15870492D02*
X16937353Y-15860969D01*
X16937353Y-15860969D02*
X16965925Y-15860969D01*
X16965925Y-15860969D02*
X16984972Y-15870492D01*
X16984972Y-15870492D02*
X16994496Y-15889540D01*
X16994496Y-15889540D02*
X16994496Y-15994302D01*
X16994496Y-15889540D02*
X17004020Y-15870492D01*
X17004020Y-15870492D02*
X17023068Y-15860969D01*
X17023068Y-15860969D02*
X17051639Y-15860969D01*
X17051639Y-15860969D02*
X17070687Y-15870492D01*
X17070687Y-15870492D02*
X17080210Y-15889540D01*
X17080210Y-15889540D02*
X17080210Y-15994302D01*
X17175449Y-15994302D02*
X17175449Y-15860969D01*
X17175449Y-15880016D02*
X17184972Y-15870492D01*
X17184972Y-15870492D02*
X17204020Y-15860969D01*
X17204020Y-15860969D02*
X17232591Y-15860969D01*
X17232591Y-15860969D02*
X17251639Y-15870492D01*
X17251639Y-15870492D02*
X17261163Y-15889540D01*
X17261163Y-15889540D02*
X17261163Y-15994302D01*
X17261163Y-15889540D02*
X17270687Y-15870492D01*
X17270687Y-15870492D02*
X17289734Y-15860969D01*
X17289734Y-15860969D02*
X17318306Y-15860969D01*
X17318306Y-15860969D02*
X17337353Y-15870492D01*
X17337353Y-15870492D02*
X17346877Y-15889540D01*
X17346877Y-15889540D02*
X17346877Y-15994302D01*
X17737353Y-15784778D02*
X17565925Y-16041921D01*
X17994496Y-15794302D02*
X18013544Y-15794302D01*
X18013544Y-15794302D02*
X18032592Y-15803826D01*
X18032592Y-15803826D02*
X18042115Y-15813350D01*
X18042115Y-15813350D02*
X18051639Y-15832397D01*
X18051639Y-15832397D02*
X18061163Y-15870492D01*
X18061163Y-15870492D02*
X18061163Y-15918112D01*
X18061163Y-15918112D02*
X18051639Y-15956207D01*
X18051639Y-15956207D02*
X18042115Y-15975254D01*
X18042115Y-15975254D02*
X18032592Y-15984778D01*
X18032592Y-15984778D02*
X18013544Y-15994302D01*
X18013544Y-15994302D02*
X17994496Y-15994302D01*
X17994496Y-15994302D02*
X17975449Y-15984778D01*
X17975449Y-15984778D02*
X17965925Y-15975254D01*
X17965925Y-15975254D02*
X17956401Y-15956207D01*
X17956401Y-15956207D02*
X17946877Y-15918112D01*
X17946877Y-15918112D02*
X17946877Y-15870492D01*
X17946877Y-15870492D02*
X17956401Y-15832397D01*
X17956401Y-15832397D02*
X17965925Y-15813350D01*
X17965925Y-15813350D02*
X17975449Y-15803826D01*
X17975449Y-15803826D02*
X17994496Y-15794302D01*
X18146877Y-15975254D02*
X18156401Y-15984778D01*
X18156401Y-15984778D02*
X18146877Y-15994302D01*
X18146877Y-15994302D02*
X18137353Y-15984778D01*
X18137353Y-15984778D02*
X18146877Y-15975254D01*
X18146877Y-15975254D02*
X18146877Y-15994302D01*
X18280211Y-15794302D02*
X18299258Y-15794302D01*
X18299258Y-15794302D02*
X18318306Y-15803826D01*
X18318306Y-15803826D02*
X18327830Y-15813350D01*
X18327830Y-15813350D02*
X18337353Y-15832397D01*
X18337353Y-15832397D02*
X18346877Y-15870492D01*
X18346877Y-15870492D02*
X18346877Y-15918112D01*
X18346877Y-15918112D02*
X18337353Y-15956207D01*
X18337353Y-15956207D02*
X18327830Y-15975254D01*
X18327830Y-15975254D02*
X18318306Y-15984778D01*
X18318306Y-15984778D02*
X18299258Y-15994302D01*
X18299258Y-15994302D02*
X18280211Y-15994302D01*
X18280211Y-15994302D02*
X18261163Y-15984778D01*
X18261163Y-15984778D02*
X18251639Y-15975254D01*
X18251639Y-15975254D02*
X18242115Y-15956207D01*
X18242115Y-15956207D02*
X18232592Y-15918112D01*
X18232592Y-15918112D02*
X18232592Y-15870492D01*
X18232592Y-15870492D02*
X18242115Y-15832397D01*
X18242115Y-15832397D02*
X18251639Y-15813350D01*
X18251639Y-15813350D02*
X18261163Y-15803826D01*
X18261163Y-15803826D02*
X18280211Y-15794302D01*
X18527830Y-15794302D02*
X18432592Y-15794302D01*
X18432592Y-15794302D02*
X18423068Y-15889540D01*
X18423068Y-15889540D02*
X18432592Y-15880016D01*
X18432592Y-15880016D02*
X18451639Y-15870492D01*
X18451639Y-15870492D02*
X18499258Y-15870492D01*
X18499258Y-15870492D02*
X18518306Y-15880016D01*
X18518306Y-15880016D02*
X18527830Y-15889540D01*
X18527830Y-15889540D02*
X18537353Y-15908588D01*
X18537353Y-15908588D02*
X18537353Y-15956207D01*
X18537353Y-15956207D02*
X18527830Y-15975254D01*
X18527830Y-15975254D02*
X18518306Y-15984778D01*
X18518306Y-15984778D02*
X18499258Y-15994302D01*
X18499258Y-15994302D02*
X18451639Y-15994302D01*
X18451639Y-15994302D02*
X18432592Y-15984778D01*
X18432592Y-15984778D02*
X18423068Y-15975254D01*
X18632592Y-15994302D02*
X18670687Y-15994302D01*
X18670687Y-15994302D02*
X18689734Y-15984778D01*
X18689734Y-15984778D02*
X18699258Y-15975254D01*
X18699258Y-15975254D02*
X18718306Y-15946683D01*
X18718306Y-15946683D02*
X18727830Y-15908588D01*
X18727830Y-15908588D02*
X18727830Y-15832397D01*
X18727830Y-15832397D02*
X18718306Y-15813350D01*
X18718306Y-15813350D02*
X18708782Y-15803826D01*
X18708782Y-15803826D02*
X18689734Y-15794302D01*
X18689734Y-15794302D02*
X18651639Y-15794302D01*
X18651639Y-15794302D02*
X18632592Y-15803826D01*
X18632592Y-15803826D02*
X18623068Y-15813350D01*
X18623068Y-15813350D02*
X18613544Y-15832397D01*
X18613544Y-15832397D02*
X18613544Y-15880016D01*
X18613544Y-15880016D02*
X18623068Y-15899064D01*
X18623068Y-15899064D02*
X18632592Y-15908588D01*
X18632592Y-15908588D02*
X18651639Y-15918112D01*
X18651639Y-15918112D02*
X18689734Y-15918112D01*
X18689734Y-15918112D02*
X18708782Y-15908588D01*
X18708782Y-15908588D02*
X18718306Y-15899064D01*
X18718306Y-15899064D02*
X18727830Y-15880016D01*
X18918306Y-15994302D02*
X18804020Y-15994302D01*
X18861163Y-15994302D02*
X18861163Y-15794302D01*
X18861163Y-15794302D02*
X18842115Y-15822873D01*
X18842115Y-15822873D02*
X18823068Y-15841921D01*
X18823068Y-15841921D02*
X18804020Y-15851445D01*
X18994496Y-15794302D02*
X18994496Y-15832397D01*
X19070687Y-15794302D02*
X19070687Y-15832397D01*
X19365925Y-16070492D02*
X19356401Y-16060969D01*
X19356401Y-16060969D02*
X19337354Y-16032397D01*
X19337354Y-16032397D02*
X19327830Y-16013350D01*
X19327830Y-16013350D02*
X19318306Y-15984778D01*
X19318306Y-15984778D02*
X19308782Y-15937159D01*
X19308782Y-15937159D02*
X19308782Y-15899064D01*
X19308782Y-15899064D02*
X19318306Y-15851445D01*
X19318306Y-15851445D02*
X19327830Y-15822873D01*
X19327830Y-15822873D02*
X19337354Y-15803826D01*
X19337354Y-15803826D02*
X19356401Y-15775254D01*
X19356401Y-15775254D02*
X19365925Y-15765731D01*
X19546877Y-15994302D02*
X19432592Y-15994302D01*
X19489734Y-15994302D02*
X19489734Y-15794302D01*
X19489734Y-15794302D02*
X19470687Y-15822873D01*
X19470687Y-15822873D02*
X19451639Y-15841921D01*
X19451639Y-15841921D02*
X19432592Y-15851445D01*
X19718306Y-15860969D02*
X19718306Y-15994302D01*
X19670687Y-15784778D02*
X19623068Y-15927635D01*
X19623068Y-15927635D02*
X19746877Y-15927635D01*
X19975449Y-15994302D02*
X19975449Y-15794302D01*
X20061163Y-15994302D02*
X20061163Y-15889540D01*
X20061163Y-15889540D02*
X20051639Y-15870492D01*
X20051639Y-15870492D02*
X20032592Y-15860969D01*
X20032592Y-15860969D02*
X20004020Y-15860969D01*
X20004020Y-15860969D02*
X19984973Y-15870492D01*
X19984973Y-15870492D02*
X19975449Y-15880016D01*
X20184973Y-15994302D02*
X20165925Y-15984778D01*
X20165925Y-15984778D02*
X20156401Y-15975254D01*
X20156401Y-15975254D02*
X20146877Y-15956207D01*
X20146877Y-15956207D02*
X20146877Y-15899064D01*
X20146877Y-15899064D02*
X20156401Y-15880016D01*
X20156401Y-15880016D02*
X20165925Y-15870492D01*
X20165925Y-15870492D02*
X20184973Y-15860969D01*
X20184973Y-15860969D02*
X20213544Y-15860969D01*
X20213544Y-15860969D02*
X20232592Y-15870492D01*
X20232592Y-15870492D02*
X20242116Y-15880016D01*
X20242116Y-15880016D02*
X20251639Y-15899064D01*
X20251639Y-15899064D02*
X20251639Y-15956207D01*
X20251639Y-15956207D02*
X20242116Y-15975254D01*
X20242116Y-15975254D02*
X20232592Y-15984778D01*
X20232592Y-15984778D02*
X20213544Y-15994302D01*
X20213544Y-15994302D02*
X20184973Y-15994302D01*
X20365925Y-15994302D02*
X20346877Y-15984778D01*
X20346877Y-15984778D02*
X20337354Y-15965731D01*
X20337354Y-15965731D02*
X20337354Y-15794302D01*
X20518306Y-15984778D02*
X20499258Y-15994302D01*
X20499258Y-15994302D02*
X20461163Y-15994302D01*
X20461163Y-15994302D02*
X20442116Y-15984778D01*
X20442116Y-15984778D02*
X20432592Y-15965731D01*
X20432592Y-15965731D02*
X20432592Y-15889540D01*
X20432592Y-15889540D02*
X20442116Y-15870492D01*
X20442116Y-15870492D02*
X20461163Y-15860969D01*
X20461163Y-15860969D02*
X20499258Y-15860969D01*
X20499258Y-15860969D02*
X20518306Y-15870492D01*
X20518306Y-15870492D02*
X20527830Y-15889540D01*
X20527830Y-15889540D02*
X20527830Y-15908588D01*
X20527830Y-15908588D02*
X20432592Y-15927635D01*
X20604020Y-15984778D02*
X20623068Y-15994302D01*
X20623068Y-15994302D02*
X20661163Y-15994302D01*
X20661163Y-15994302D02*
X20680211Y-15984778D01*
X20680211Y-15984778D02*
X20689735Y-15965731D01*
X20689735Y-15965731D02*
X20689735Y-15956207D01*
X20689735Y-15956207D02*
X20680211Y-15937159D01*
X20680211Y-15937159D02*
X20661163Y-15927635D01*
X20661163Y-15927635D02*
X20632592Y-15927635D01*
X20632592Y-15927635D02*
X20613544Y-15918112D01*
X20613544Y-15918112D02*
X20604020Y-15899064D01*
X20604020Y-15899064D02*
X20604020Y-15889540D01*
X20604020Y-15889540D02*
X20613544Y-15870492D01*
X20613544Y-15870492D02*
X20632592Y-15860969D01*
X20632592Y-15860969D02*
X20661163Y-15860969D01*
X20661163Y-15860969D02*
X20680211Y-15870492D01*
X20756401Y-16070492D02*
X20765925Y-16060969D01*
X20765925Y-16060969D02*
X20784973Y-16032397D01*
X20784973Y-16032397D02*
X20794497Y-16013350D01*
X20794497Y-16013350D02*
X20804020Y-15984778D01*
X20804020Y-15984778D02*
X20813544Y-15937159D01*
X20813544Y-15937159D02*
X20813544Y-15899064D01*
X20813544Y-15899064D02*
X20804020Y-15851445D01*
X20804020Y-15851445D02*
X20794497Y-15822873D01*
X20794497Y-15822873D02*
X20784973Y-15803826D01*
X20784973Y-15803826D02*
X20765925Y-15775254D01*
X20765925Y-15775254D02*
X20756401Y-15765731D01*
X21118306Y-16070492D02*
X21108782Y-16060969D01*
X21108782Y-16060969D02*
X21089735Y-16032397D01*
X21089735Y-16032397D02*
X21080211Y-16013350D01*
X21080211Y-16013350D02*
X21070687Y-15984778D01*
X21070687Y-15984778D02*
X21061163Y-15937159D01*
X21061163Y-15937159D02*
X21061163Y-15899064D01*
X21061163Y-15899064D02*
X21070687Y-15851445D01*
X21070687Y-15851445D02*
X21080211Y-15822873D01*
X21080211Y-15822873D02*
X21089735Y-15803826D01*
X21089735Y-15803826D02*
X21108782Y-15775254D01*
X21108782Y-15775254D02*
X21118306Y-15765731D01*
X21194497Y-15860969D02*
X21194497Y-15994302D01*
X21194497Y-15880016D02*
X21204020Y-15870492D01*
X21204020Y-15870492D02*
X21223068Y-15860969D01*
X21223068Y-15860969D02*
X21251639Y-15860969D01*
X21251639Y-15860969D02*
X21270687Y-15870492D01*
X21270687Y-15870492D02*
X21280211Y-15889540D01*
X21280211Y-15889540D02*
X21280211Y-15994302D01*
X21404020Y-15994302D02*
X21384973Y-15984778D01*
X21384973Y-15984778D02*
X21375449Y-15975254D01*
X21375449Y-15975254D02*
X21365925Y-15956207D01*
X21365925Y-15956207D02*
X21365925Y-15899064D01*
X21365925Y-15899064D02*
X21375449Y-15880016D01*
X21375449Y-15880016D02*
X21384973Y-15870492D01*
X21384973Y-15870492D02*
X21404020Y-15860969D01*
X21404020Y-15860969D02*
X21432592Y-15860969D01*
X21432592Y-15860969D02*
X21451639Y-15870492D01*
X21451639Y-15870492D02*
X21461163Y-15880016D01*
X21461163Y-15880016D02*
X21470687Y-15899064D01*
X21470687Y-15899064D02*
X21470687Y-15956207D01*
X21470687Y-15956207D02*
X21461163Y-15975254D01*
X21461163Y-15975254D02*
X21451639Y-15984778D01*
X21451639Y-15984778D02*
X21432592Y-15994302D01*
X21432592Y-15994302D02*
X21404020Y-15994302D01*
X21527830Y-15860969D02*
X21604020Y-15860969D01*
X21556401Y-15794302D02*
X21556401Y-15965731D01*
X21556401Y-15965731D02*
X21565925Y-15984778D01*
X21565925Y-15984778D02*
X21584973Y-15994302D01*
X21584973Y-15994302D02*
X21604020Y-15994302D01*
X21823068Y-15860969D02*
X21823068Y-16060969D01*
X21823068Y-15870492D02*
X21842116Y-15860969D01*
X21842116Y-15860969D02*
X21880211Y-15860969D01*
X21880211Y-15860969D02*
X21899259Y-15870492D01*
X21899259Y-15870492D02*
X21908782Y-15880016D01*
X21908782Y-15880016D02*
X21918306Y-15899064D01*
X21918306Y-15899064D02*
X21918306Y-15956207D01*
X21918306Y-15956207D02*
X21908782Y-15975254D01*
X21908782Y-15975254D02*
X21899259Y-15984778D01*
X21899259Y-15984778D02*
X21880211Y-15994302D01*
X21880211Y-15994302D02*
X21842116Y-15994302D01*
X21842116Y-15994302D02*
X21823068Y-15984778D01*
X22032592Y-15994302D02*
X22013544Y-15984778D01*
X22013544Y-15984778D02*
X22004020Y-15965731D01*
X22004020Y-15965731D02*
X22004020Y-15794302D01*
X22194497Y-15994302D02*
X22194497Y-15889540D01*
X22194497Y-15889540D02*
X22184973Y-15870492D01*
X22184973Y-15870492D02*
X22165925Y-15860969D01*
X22165925Y-15860969D02*
X22127830Y-15860969D01*
X22127830Y-15860969D02*
X22108782Y-15870492D01*
X22194497Y-15984778D02*
X22175449Y-15994302D01*
X22175449Y-15994302D02*
X22127830Y-15994302D01*
X22127830Y-15994302D02*
X22108782Y-15984778D01*
X22108782Y-15984778D02*
X22099259Y-15965731D01*
X22099259Y-15965731D02*
X22099259Y-15946683D01*
X22099259Y-15946683D02*
X22108782Y-15927635D01*
X22108782Y-15927635D02*
X22127830Y-15918112D01*
X22127830Y-15918112D02*
X22175449Y-15918112D01*
X22175449Y-15918112D02*
X22194497Y-15908588D01*
X22261163Y-15860969D02*
X22337354Y-15860969D01*
X22289735Y-15794302D02*
X22289735Y-15965731D01*
X22289735Y-15965731D02*
X22299259Y-15984778D01*
X22299259Y-15984778D02*
X22318306Y-15994302D01*
X22318306Y-15994302D02*
X22337354Y-15994302D01*
X22480211Y-15984778D02*
X22461163Y-15994302D01*
X22461163Y-15994302D02*
X22423068Y-15994302D01*
X22423068Y-15994302D02*
X22404020Y-15984778D01*
X22404020Y-15984778D02*
X22394497Y-15965731D01*
X22394497Y-15965731D02*
X22394497Y-15889540D01*
X22394497Y-15889540D02*
X22404020Y-15870492D01*
X22404020Y-15870492D02*
X22423068Y-15860969D01*
X22423068Y-15860969D02*
X22461163Y-15860969D01*
X22461163Y-15860969D02*
X22480211Y-15870492D01*
X22480211Y-15870492D02*
X22489735Y-15889540D01*
X22489735Y-15889540D02*
X22489735Y-15908588D01*
X22489735Y-15908588D02*
X22394497Y-15927635D01*
X22661163Y-15994302D02*
X22661163Y-15794302D01*
X22661163Y-15984778D02*
X22642116Y-15994302D01*
X22642116Y-15994302D02*
X22604020Y-15994302D01*
X22604020Y-15994302D02*
X22584973Y-15984778D01*
X22584973Y-15984778D02*
X22575449Y-15975254D01*
X22575449Y-15975254D02*
X22565925Y-15956207D01*
X22565925Y-15956207D02*
X22565925Y-15899064D01*
X22565925Y-15899064D02*
X22575449Y-15880016D01*
X22575449Y-15880016D02*
X22584973Y-15870492D01*
X22584973Y-15870492D02*
X22604020Y-15860969D01*
X22604020Y-15860969D02*
X22642116Y-15860969D01*
X22642116Y-15860969D02*
X22661163Y-15870492D01*
X22737354Y-16070492D02*
X22746878Y-16060969D01*
X22746878Y-16060969D02*
X22765925Y-16032397D01*
X22765925Y-16032397D02*
X22775449Y-16013350D01*
X22775449Y-16013350D02*
X22784973Y-15984778D01*
X22784973Y-15984778D02*
X22794497Y-15937159D01*
X22794497Y-15937159D02*
X22794497Y-15899064D01*
X22794497Y-15899064D02*
X22784973Y-15851445D01*
X22784973Y-15851445D02*
X22775449Y-15822873D01*
X22775449Y-15822873D02*
X22765925Y-15803826D01*
X22765925Y-15803826D02*
X22746878Y-15775254D01*
X22746878Y-15775254D02*
X22737354Y-15765731D01*
D13*
X15790862Y-16172818D02*
G75*
G02*
X15630862Y-16172818I-80000J0D01*
G01*
X15630862Y-16172818D02*
G75*
G02*
X15790862Y-16172818I80000J0D01*
G01*
D11*
X16156401Y-16264302D02*
X16042115Y-16264302D01*
X16099258Y-16264302D02*
X16099258Y-16064302D01*
X16099258Y-16064302D02*
X16080210Y-16092873D01*
X16080210Y-16092873D02*
X16061163Y-16111921D01*
X16061163Y-16111921D02*
X16042115Y-16121445D01*
X16242115Y-16245254D02*
X16251639Y-16254778D01*
X16251639Y-16254778D02*
X16242115Y-16264302D01*
X16242115Y-16264302D02*
X16232591Y-16254778D01*
X16232591Y-16254778D02*
X16242115Y-16245254D01*
X16242115Y-16245254D02*
X16242115Y-16264302D01*
X16423067Y-16064302D02*
X16384972Y-16064302D01*
X16384972Y-16064302D02*
X16365925Y-16073826D01*
X16365925Y-16073826D02*
X16356401Y-16083350D01*
X16356401Y-16083350D02*
X16337353Y-16111921D01*
X16337353Y-16111921D02*
X16327829Y-16150016D01*
X16327829Y-16150016D02*
X16327829Y-16226207D01*
X16327829Y-16226207D02*
X16337353Y-16245254D01*
X16337353Y-16245254D02*
X16346877Y-16254778D01*
X16346877Y-16254778D02*
X16365925Y-16264302D01*
X16365925Y-16264302D02*
X16404020Y-16264302D01*
X16404020Y-16264302D02*
X16423067Y-16254778D01*
X16423067Y-16254778D02*
X16432591Y-16245254D01*
X16432591Y-16245254D02*
X16442115Y-16226207D01*
X16442115Y-16226207D02*
X16442115Y-16178588D01*
X16442115Y-16178588D02*
X16432591Y-16159540D01*
X16432591Y-16159540D02*
X16423067Y-16150016D01*
X16423067Y-16150016D02*
X16404020Y-16140492D01*
X16404020Y-16140492D02*
X16365925Y-16140492D01*
X16365925Y-16140492D02*
X16346877Y-16150016D01*
X16346877Y-16150016D02*
X16337353Y-16159540D01*
X16337353Y-16159540D02*
X16327829Y-16178588D01*
X16565925Y-16064302D02*
X16584972Y-16064302D01*
X16584972Y-16064302D02*
X16604020Y-16073826D01*
X16604020Y-16073826D02*
X16613544Y-16083350D01*
X16613544Y-16083350D02*
X16623067Y-16102397D01*
X16623067Y-16102397D02*
X16632591Y-16140492D01*
X16632591Y-16140492D02*
X16632591Y-16188112D01*
X16632591Y-16188112D02*
X16623067Y-16226207D01*
X16623067Y-16226207D02*
X16613544Y-16245254D01*
X16613544Y-16245254D02*
X16604020Y-16254778D01*
X16604020Y-16254778D02*
X16584972Y-16264302D01*
X16584972Y-16264302D02*
X16565925Y-16264302D01*
X16565925Y-16264302D02*
X16546877Y-16254778D01*
X16546877Y-16254778D02*
X16537353Y-16245254D01*
X16537353Y-16245254D02*
X16527829Y-16226207D01*
X16527829Y-16226207D02*
X16518306Y-16188112D01*
X16518306Y-16188112D02*
X16518306Y-16140492D01*
X16518306Y-16140492D02*
X16527829Y-16102397D01*
X16527829Y-16102397D02*
X16537353Y-16083350D01*
X16537353Y-16083350D02*
X16546877Y-16073826D01*
X16546877Y-16073826D02*
X16565925Y-16064302D01*
X16756401Y-16064302D02*
X16775448Y-16064302D01*
X16775448Y-16064302D02*
X16794496Y-16073826D01*
X16794496Y-16073826D02*
X16804020Y-16083350D01*
X16804020Y-16083350D02*
X16813544Y-16102397D01*
X16813544Y-16102397D02*
X16823068Y-16140492D01*
X16823068Y-16140492D02*
X16823068Y-16188112D01*
X16823068Y-16188112D02*
X16813544Y-16226207D01*
X16813544Y-16226207D02*
X16804020Y-16245254D01*
X16804020Y-16245254D02*
X16794496Y-16254778D01*
X16794496Y-16254778D02*
X16775448Y-16264302D01*
X16775448Y-16264302D02*
X16756401Y-16264302D01*
X16756401Y-16264302D02*
X16737353Y-16254778D01*
X16737353Y-16254778D02*
X16727829Y-16245254D01*
X16727829Y-16245254D02*
X16718306Y-16226207D01*
X16718306Y-16226207D02*
X16708782Y-16188112D01*
X16708782Y-16188112D02*
X16708782Y-16140492D01*
X16708782Y-16140492D02*
X16718306Y-16102397D01*
X16718306Y-16102397D02*
X16727829Y-16083350D01*
X16727829Y-16083350D02*
X16737353Y-16073826D01*
X16737353Y-16073826D02*
X16756401Y-16064302D01*
X16908782Y-16264302D02*
X16908782Y-16130969D01*
X16908782Y-16150016D02*
X16918306Y-16140492D01*
X16918306Y-16140492D02*
X16937353Y-16130969D01*
X16937353Y-16130969D02*
X16965925Y-16130969D01*
X16965925Y-16130969D02*
X16984972Y-16140492D01*
X16984972Y-16140492D02*
X16994496Y-16159540D01*
X16994496Y-16159540D02*
X16994496Y-16264302D01*
X16994496Y-16159540D02*
X17004020Y-16140492D01*
X17004020Y-16140492D02*
X17023068Y-16130969D01*
X17023068Y-16130969D02*
X17051639Y-16130969D01*
X17051639Y-16130969D02*
X17070687Y-16140492D01*
X17070687Y-16140492D02*
X17080210Y-16159540D01*
X17080210Y-16159540D02*
X17080210Y-16264302D01*
X17175449Y-16264302D02*
X17175449Y-16130969D01*
X17175449Y-16150016D02*
X17184972Y-16140492D01*
X17184972Y-16140492D02*
X17204020Y-16130969D01*
X17204020Y-16130969D02*
X17232591Y-16130969D01*
X17232591Y-16130969D02*
X17251639Y-16140492D01*
X17251639Y-16140492D02*
X17261163Y-16159540D01*
X17261163Y-16159540D02*
X17261163Y-16264302D01*
X17261163Y-16159540D02*
X17270687Y-16140492D01*
X17270687Y-16140492D02*
X17289734Y-16130969D01*
X17289734Y-16130969D02*
X17318306Y-16130969D01*
X17318306Y-16130969D02*
X17337353Y-16140492D01*
X17337353Y-16140492D02*
X17346877Y-16159540D01*
X17346877Y-16159540D02*
X17346877Y-16264302D01*
X17737353Y-16054778D02*
X17565925Y-16311921D01*
X17994496Y-16064302D02*
X18013544Y-16064302D01*
X18013544Y-16064302D02*
X18032592Y-16073826D01*
X18032592Y-16073826D02*
X18042115Y-16083350D01*
X18042115Y-16083350D02*
X18051639Y-16102397D01*
X18051639Y-16102397D02*
X18061163Y-16140492D01*
X18061163Y-16140492D02*
X18061163Y-16188112D01*
X18061163Y-16188112D02*
X18051639Y-16226207D01*
X18051639Y-16226207D02*
X18042115Y-16245254D01*
X18042115Y-16245254D02*
X18032592Y-16254778D01*
X18032592Y-16254778D02*
X18013544Y-16264302D01*
X18013544Y-16264302D02*
X17994496Y-16264302D01*
X17994496Y-16264302D02*
X17975449Y-16254778D01*
X17975449Y-16254778D02*
X17965925Y-16245254D01*
X17965925Y-16245254D02*
X17956401Y-16226207D01*
X17956401Y-16226207D02*
X17946877Y-16188112D01*
X17946877Y-16188112D02*
X17946877Y-16140492D01*
X17946877Y-16140492D02*
X17956401Y-16102397D01*
X17956401Y-16102397D02*
X17965925Y-16083350D01*
X17965925Y-16083350D02*
X17975449Y-16073826D01*
X17975449Y-16073826D02*
X17994496Y-16064302D01*
X18146877Y-16245254D02*
X18156401Y-16254778D01*
X18156401Y-16254778D02*
X18146877Y-16264302D01*
X18146877Y-16264302D02*
X18137353Y-16254778D01*
X18137353Y-16254778D02*
X18146877Y-16245254D01*
X18146877Y-16245254D02*
X18146877Y-16264302D01*
X18280211Y-16064302D02*
X18299258Y-16064302D01*
X18299258Y-16064302D02*
X18318306Y-16073826D01*
X18318306Y-16073826D02*
X18327830Y-16083350D01*
X18327830Y-16083350D02*
X18337353Y-16102397D01*
X18337353Y-16102397D02*
X18346877Y-16140492D01*
X18346877Y-16140492D02*
X18346877Y-16188112D01*
X18346877Y-16188112D02*
X18337353Y-16226207D01*
X18337353Y-16226207D02*
X18327830Y-16245254D01*
X18327830Y-16245254D02*
X18318306Y-16254778D01*
X18318306Y-16254778D02*
X18299258Y-16264302D01*
X18299258Y-16264302D02*
X18280211Y-16264302D01*
X18280211Y-16264302D02*
X18261163Y-16254778D01*
X18261163Y-16254778D02*
X18251639Y-16245254D01*
X18251639Y-16245254D02*
X18242115Y-16226207D01*
X18242115Y-16226207D02*
X18232592Y-16188112D01*
X18232592Y-16188112D02*
X18232592Y-16140492D01*
X18232592Y-16140492D02*
X18242115Y-16102397D01*
X18242115Y-16102397D02*
X18251639Y-16083350D01*
X18251639Y-16083350D02*
X18261163Y-16073826D01*
X18261163Y-16073826D02*
X18280211Y-16064302D01*
X18518306Y-16064302D02*
X18480211Y-16064302D01*
X18480211Y-16064302D02*
X18461163Y-16073826D01*
X18461163Y-16073826D02*
X18451639Y-16083350D01*
X18451639Y-16083350D02*
X18432592Y-16111921D01*
X18432592Y-16111921D02*
X18423068Y-16150016D01*
X18423068Y-16150016D02*
X18423068Y-16226207D01*
X18423068Y-16226207D02*
X18432592Y-16245254D01*
X18432592Y-16245254D02*
X18442115Y-16254778D01*
X18442115Y-16254778D02*
X18461163Y-16264302D01*
X18461163Y-16264302D02*
X18499258Y-16264302D01*
X18499258Y-16264302D02*
X18518306Y-16254778D01*
X18518306Y-16254778D02*
X18527830Y-16245254D01*
X18527830Y-16245254D02*
X18537353Y-16226207D01*
X18537353Y-16226207D02*
X18537353Y-16178588D01*
X18537353Y-16178588D02*
X18527830Y-16159540D01*
X18527830Y-16159540D02*
X18518306Y-16150016D01*
X18518306Y-16150016D02*
X18499258Y-16140492D01*
X18499258Y-16140492D02*
X18461163Y-16140492D01*
X18461163Y-16140492D02*
X18442115Y-16150016D01*
X18442115Y-16150016D02*
X18432592Y-16159540D01*
X18432592Y-16159540D02*
X18423068Y-16178588D01*
X18604020Y-16064302D02*
X18727830Y-16064302D01*
X18727830Y-16064302D02*
X18661163Y-16140492D01*
X18661163Y-16140492D02*
X18689734Y-16140492D01*
X18689734Y-16140492D02*
X18708782Y-16150016D01*
X18708782Y-16150016D02*
X18718306Y-16159540D01*
X18718306Y-16159540D02*
X18727830Y-16178588D01*
X18727830Y-16178588D02*
X18727830Y-16226207D01*
X18727830Y-16226207D02*
X18718306Y-16245254D01*
X18718306Y-16245254D02*
X18708782Y-16254778D01*
X18708782Y-16254778D02*
X18689734Y-16264302D01*
X18689734Y-16264302D02*
X18632592Y-16264302D01*
X18632592Y-16264302D02*
X18613544Y-16254778D01*
X18613544Y-16254778D02*
X18604020Y-16245254D01*
X18851639Y-16064302D02*
X18870687Y-16064302D01*
X18870687Y-16064302D02*
X18889734Y-16073826D01*
X18889734Y-16073826D02*
X18899258Y-16083350D01*
X18899258Y-16083350D02*
X18908782Y-16102397D01*
X18908782Y-16102397D02*
X18918306Y-16140492D01*
X18918306Y-16140492D02*
X18918306Y-16188112D01*
X18918306Y-16188112D02*
X18908782Y-16226207D01*
X18908782Y-16226207D02*
X18899258Y-16245254D01*
X18899258Y-16245254D02*
X18889734Y-16254778D01*
X18889734Y-16254778D02*
X18870687Y-16264302D01*
X18870687Y-16264302D02*
X18851639Y-16264302D01*
X18851639Y-16264302D02*
X18832592Y-16254778D01*
X18832592Y-16254778D02*
X18823068Y-16245254D01*
X18823068Y-16245254D02*
X18813544Y-16226207D01*
X18813544Y-16226207D02*
X18804020Y-16188112D01*
X18804020Y-16188112D02*
X18804020Y-16140492D01*
X18804020Y-16140492D02*
X18813544Y-16102397D01*
X18813544Y-16102397D02*
X18823068Y-16083350D01*
X18823068Y-16083350D02*
X18832592Y-16073826D01*
X18832592Y-16073826D02*
X18851639Y-16064302D01*
X18994496Y-16064302D02*
X18994496Y-16102397D01*
X19070687Y-16064302D02*
X19070687Y-16102397D01*
X19365925Y-16340492D02*
X19356401Y-16330969D01*
X19356401Y-16330969D02*
X19337354Y-16302397D01*
X19337354Y-16302397D02*
X19327830Y-16283350D01*
X19327830Y-16283350D02*
X19318306Y-16254778D01*
X19318306Y-16254778D02*
X19308782Y-16207159D01*
X19308782Y-16207159D02*
X19308782Y-16169064D01*
X19308782Y-16169064D02*
X19318306Y-16121445D01*
X19318306Y-16121445D02*
X19327830Y-16092873D01*
X19327830Y-16092873D02*
X19337354Y-16073826D01*
X19337354Y-16073826D02*
X19356401Y-16045254D01*
X19356401Y-16045254D02*
X19365925Y-16035731D01*
X19546877Y-16264302D02*
X19432592Y-16264302D01*
X19489734Y-16264302D02*
X19489734Y-16064302D01*
X19489734Y-16064302D02*
X19470687Y-16092873D01*
X19470687Y-16092873D02*
X19451639Y-16111921D01*
X19451639Y-16111921D02*
X19432592Y-16121445D01*
X19727830Y-16064302D02*
X19632592Y-16064302D01*
X19632592Y-16064302D02*
X19623068Y-16159540D01*
X19623068Y-16159540D02*
X19632592Y-16150016D01*
X19632592Y-16150016D02*
X19651639Y-16140492D01*
X19651639Y-16140492D02*
X19699258Y-16140492D01*
X19699258Y-16140492D02*
X19718306Y-16150016D01*
X19718306Y-16150016D02*
X19727830Y-16159540D01*
X19727830Y-16159540D02*
X19737354Y-16178588D01*
X19737354Y-16178588D02*
X19737354Y-16226207D01*
X19737354Y-16226207D02*
X19727830Y-16245254D01*
X19727830Y-16245254D02*
X19718306Y-16254778D01*
X19718306Y-16254778D02*
X19699258Y-16264302D01*
X19699258Y-16264302D02*
X19651639Y-16264302D01*
X19651639Y-16264302D02*
X19632592Y-16254778D01*
X19632592Y-16254778D02*
X19623068Y-16245254D01*
X19975449Y-16264302D02*
X19975449Y-16064302D01*
X20061163Y-16264302D02*
X20061163Y-16159540D01*
X20061163Y-16159540D02*
X20051639Y-16140492D01*
X20051639Y-16140492D02*
X20032592Y-16130969D01*
X20032592Y-16130969D02*
X20004020Y-16130969D01*
X20004020Y-16130969D02*
X19984973Y-16140492D01*
X19984973Y-16140492D02*
X19975449Y-16150016D01*
X20184973Y-16264302D02*
X20165925Y-16254778D01*
X20165925Y-16254778D02*
X20156401Y-16245254D01*
X20156401Y-16245254D02*
X20146877Y-16226207D01*
X20146877Y-16226207D02*
X20146877Y-16169064D01*
X20146877Y-16169064D02*
X20156401Y-16150016D01*
X20156401Y-16150016D02*
X20165925Y-16140492D01*
X20165925Y-16140492D02*
X20184973Y-16130969D01*
X20184973Y-16130969D02*
X20213544Y-16130969D01*
X20213544Y-16130969D02*
X20232592Y-16140492D01*
X20232592Y-16140492D02*
X20242116Y-16150016D01*
X20242116Y-16150016D02*
X20251639Y-16169064D01*
X20251639Y-16169064D02*
X20251639Y-16226207D01*
X20251639Y-16226207D02*
X20242116Y-16245254D01*
X20242116Y-16245254D02*
X20232592Y-16254778D01*
X20232592Y-16254778D02*
X20213544Y-16264302D01*
X20213544Y-16264302D02*
X20184973Y-16264302D01*
X20365925Y-16264302D02*
X20346877Y-16254778D01*
X20346877Y-16254778D02*
X20337354Y-16235731D01*
X20337354Y-16235731D02*
X20337354Y-16064302D01*
X20518306Y-16254778D02*
X20499258Y-16264302D01*
X20499258Y-16264302D02*
X20461163Y-16264302D01*
X20461163Y-16264302D02*
X20442116Y-16254778D01*
X20442116Y-16254778D02*
X20432592Y-16235731D01*
X20432592Y-16235731D02*
X20432592Y-16159540D01*
X20432592Y-16159540D02*
X20442116Y-16140492D01*
X20442116Y-16140492D02*
X20461163Y-16130969D01*
X20461163Y-16130969D02*
X20499258Y-16130969D01*
X20499258Y-16130969D02*
X20518306Y-16140492D01*
X20518306Y-16140492D02*
X20527830Y-16159540D01*
X20527830Y-16159540D02*
X20527830Y-16178588D01*
X20527830Y-16178588D02*
X20432592Y-16197635D01*
X20604020Y-16254778D02*
X20623068Y-16264302D01*
X20623068Y-16264302D02*
X20661163Y-16264302D01*
X20661163Y-16264302D02*
X20680211Y-16254778D01*
X20680211Y-16254778D02*
X20689735Y-16235731D01*
X20689735Y-16235731D02*
X20689735Y-16226207D01*
X20689735Y-16226207D02*
X20680211Y-16207159D01*
X20680211Y-16207159D02*
X20661163Y-16197635D01*
X20661163Y-16197635D02*
X20632592Y-16197635D01*
X20632592Y-16197635D02*
X20613544Y-16188112D01*
X20613544Y-16188112D02*
X20604020Y-16169064D01*
X20604020Y-16169064D02*
X20604020Y-16159540D01*
X20604020Y-16159540D02*
X20613544Y-16140492D01*
X20613544Y-16140492D02*
X20632592Y-16130969D01*
X20632592Y-16130969D02*
X20661163Y-16130969D01*
X20661163Y-16130969D02*
X20680211Y-16140492D01*
X20756401Y-16340492D02*
X20765925Y-16330969D01*
X20765925Y-16330969D02*
X20784973Y-16302397D01*
X20784973Y-16302397D02*
X20794497Y-16283350D01*
X20794497Y-16283350D02*
X20804020Y-16254778D01*
X20804020Y-16254778D02*
X20813544Y-16207159D01*
X20813544Y-16207159D02*
X20813544Y-16169064D01*
X20813544Y-16169064D02*
X20804020Y-16121445D01*
X20804020Y-16121445D02*
X20794497Y-16092873D01*
X20794497Y-16092873D02*
X20784973Y-16073826D01*
X20784973Y-16073826D02*
X20765925Y-16045254D01*
X20765925Y-16045254D02*
X20756401Y-16035731D01*
X21118306Y-16340492D02*
X21108782Y-16330969D01*
X21108782Y-16330969D02*
X21089735Y-16302397D01*
X21089735Y-16302397D02*
X21080211Y-16283350D01*
X21080211Y-16283350D02*
X21070687Y-16254778D01*
X21070687Y-16254778D02*
X21061163Y-16207159D01*
X21061163Y-16207159D02*
X21061163Y-16169064D01*
X21061163Y-16169064D02*
X21070687Y-16121445D01*
X21070687Y-16121445D02*
X21080211Y-16092873D01*
X21080211Y-16092873D02*
X21089735Y-16073826D01*
X21089735Y-16073826D02*
X21108782Y-16045254D01*
X21108782Y-16045254D02*
X21118306Y-16035731D01*
X21194497Y-16130969D02*
X21194497Y-16264302D01*
X21194497Y-16150016D02*
X21204020Y-16140492D01*
X21204020Y-16140492D02*
X21223068Y-16130969D01*
X21223068Y-16130969D02*
X21251639Y-16130969D01*
X21251639Y-16130969D02*
X21270687Y-16140492D01*
X21270687Y-16140492D02*
X21280211Y-16159540D01*
X21280211Y-16159540D02*
X21280211Y-16264302D01*
X21404020Y-16264302D02*
X21384973Y-16254778D01*
X21384973Y-16254778D02*
X21375449Y-16245254D01*
X21375449Y-16245254D02*
X21365925Y-16226207D01*
X21365925Y-16226207D02*
X21365925Y-16169064D01*
X21365925Y-16169064D02*
X21375449Y-16150016D01*
X21375449Y-16150016D02*
X21384973Y-16140492D01*
X21384973Y-16140492D02*
X21404020Y-16130969D01*
X21404020Y-16130969D02*
X21432592Y-16130969D01*
X21432592Y-16130969D02*
X21451639Y-16140492D01*
X21451639Y-16140492D02*
X21461163Y-16150016D01*
X21461163Y-16150016D02*
X21470687Y-16169064D01*
X21470687Y-16169064D02*
X21470687Y-16226207D01*
X21470687Y-16226207D02*
X21461163Y-16245254D01*
X21461163Y-16245254D02*
X21451639Y-16254778D01*
X21451639Y-16254778D02*
X21432592Y-16264302D01*
X21432592Y-16264302D02*
X21404020Y-16264302D01*
X21527830Y-16130969D02*
X21604020Y-16130969D01*
X21556401Y-16064302D02*
X21556401Y-16235731D01*
X21556401Y-16235731D02*
X21565925Y-16254778D01*
X21565925Y-16254778D02*
X21584973Y-16264302D01*
X21584973Y-16264302D02*
X21604020Y-16264302D01*
X21823068Y-16130969D02*
X21823068Y-16330969D01*
X21823068Y-16140492D02*
X21842116Y-16130969D01*
X21842116Y-16130969D02*
X21880211Y-16130969D01*
X21880211Y-16130969D02*
X21899259Y-16140492D01*
X21899259Y-16140492D02*
X21908782Y-16150016D01*
X21908782Y-16150016D02*
X21918306Y-16169064D01*
X21918306Y-16169064D02*
X21918306Y-16226207D01*
X21918306Y-16226207D02*
X21908782Y-16245254D01*
X21908782Y-16245254D02*
X21899259Y-16254778D01*
X21899259Y-16254778D02*
X21880211Y-16264302D01*
X21880211Y-16264302D02*
X21842116Y-16264302D01*
X21842116Y-16264302D02*
X21823068Y-16254778D01*
X22032592Y-16264302D02*
X22013544Y-16254778D01*
X22013544Y-16254778D02*
X22004020Y-16235731D01*
X22004020Y-16235731D02*
X22004020Y-16064302D01*
X22194497Y-16264302D02*
X22194497Y-16159540D01*
X22194497Y-16159540D02*
X22184973Y-16140492D01*
X22184973Y-16140492D02*
X22165925Y-16130969D01*
X22165925Y-16130969D02*
X22127830Y-16130969D01*
X22127830Y-16130969D02*
X22108782Y-16140492D01*
X22194497Y-16254778D02*
X22175449Y-16264302D01*
X22175449Y-16264302D02*
X22127830Y-16264302D01*
X22127830Y-16264302D02*
X22108782Y-16254778D01*
X22108782Y-16254778D02*
X22099259Y-16235731D01*
X22099259Y-16235731D02*
X22099259Y-16216683D01*
X22099259Y-16216683D02*
X22108782Y-16197635D01*
X22108782Y-16197635D02*
X22127830Y-16188112D01*
X22127830Y-16188112D02*
X22175449Y-16188112D01*
X22175449Y-16188112D02*
X22194497Y-16178588D01*
X22261163Y-16130969D02*
X22337354Y-16130969D01*
X22289735Y-16064302D02*
X22289735Y-16235731D01*
X22289735Y-16235731D02*
X22299259Y-16254778D01*
X22299259Y-16254778D02*
X22318306Y-16264302D01*
X22318306Y-16264302D02*
X22337354Y-16264302D01*
X22480211Y-16254778D02*
X22461163Y-16264302D01*
X22461163Y-16264302D02*
X22423068Y-16264302D01*
X22423068Y-16264302D02*
X22404020Y-16254778D01*
X22404020Y-16254778D02*
X22394497Y-16235731D01*
X22394497Y-16235731D02*
X22394497Y-16159540D01*
X22394497Y-16159540D02*
X22404020Y-16140492D01*
X22404020Y-16140492D02*
X22423068Y-16130969D01*
X22423068Y-16130969D02*
X22461163Y-16130969D01*
X22461163Y-16130969D02*
X22480211Y-16140492D01*
X22480211Y-16140492D02*
X22489735Y-16159540D01*
X22489735Y-16159540D02*
X22489735Y-16178588D01*
X22489735Y-16178588D02*
X22394497Y-16197635D01*
X22661163Y-16264302D02*
X22661163Y-16064302D01*
X22661163Y-16254778D02*
X22642116Y-16264302D01*
X22642116Y-16264302D02*
X22604020Y-16264302D01*
X22604020Y-16264302D02*
X22584973Y-16254778D01*
X22584973Y-16254778D02*
X22575449Y-16245254D01*
X22575449Y-16245254D02*
X22565925Y-16226207D01*
X22565925Y-16226207D02*
X22565925Y-16169064D01*
X22565925Y-16169064D02*
X22575449Y-16150016D01*
X22575449Y-16150016D02*
X22584973Y-16140492D01*
X22584973Y-16140492D02*
X22604020Y-16130969D01*
X22604020Y-16130969D02*
X22642116Y-16130969D01*
X22642116Y-16130969D02*
X22661163Y-16140492D01*
X22737354Y-16340492D02*
X22746878Y-16330969D01*
X22746878Y-16330969D02*
X22765925Y-16302397D01*
X22765925Y-16302397D02*
X22775449Y-16283350D01*
X22775449Y-16283350D02*
X22784973Y-16254778D01*
X22784973Y-16254778D02*
X22794497Y-16207159D01*
X22794497Y-16207159D02*
X22794497Y-16169064D01*
X22794497Y-16169064D02*
X22784973Y-16121445D01*
X22784973Y-16121445D02*
X22775449Y-16092873D01*
X22775449Y-16092873D02*
X22765925Y-16073826D01*
X22765925Y-16073826D02*
X22746878Y-16045254D01*
X22746878Y-16045254D02*
X22737354Y-16035731D01*
M02*
