%TF.GenerationSoftware,KiCad,Pcbnew,8.0.5*%
%TF.CreationDate,2024-12-17T00:57:55+08:00*%
%TF.ProjectId,hardware,68617264-7761-4726-952e-6b696361645f,rev?*%
%TF.SameCoordinates,Original*%
%TF.FileFunction,Soldermask,Bot*%
%TF.FilePolarity,Negative*%
%FSLAX46Y46*%
G04 Gerber Fmt 4.6, Leading zero omitted, Abs format (unit mm)*
G04 Created by KiCad (PCBNEW 8.0.5) date 2024-12-17 00:57:55*
%MOMM*%
%LPD*%
G01*
G04 APERTURE LIST*
%ADD10R,2.000000X2.000000*%
%ADD11O,2.000000X1.600000*%
%ADD12O,4.404000X2.004000*%
%ADD13C,1.500000*%
%ADD14C,1.600000*%
%ADD15R,2.000000X4.000000*%
%ADD16O,2.000000X3.300000*%
%ADD17O,3.500000X2.000000*%
G04 APERTURE END LIST*
D10*
%TO.C,U1*%
X229290000Y-70800000D03*
D11*
X229290000Y-68260000D03*
X229290000Y-65720000D03*
X229290000Y-63180000D03*
X229290000Y-60640000D03*
X229290000Y-58100000D03*
X229290000Y-55560000D03*
X229290000Y-53020000D03*
X206430000Y-53020000D03*
X206430000Y-55560000D03*
X206430000Y-58100000D03*
X206430000Y-60640000D03*
X206430000Y-63180000D03*
X206430000Y-65720000D03*
X206430000Y-68260000D03*
X206430000Y-70800000D03*
%TD*%
D12*
%TO.C,SW15*%
X260473334Y-134000000D03*
X260473334Y-150100000D03*
X260473334Y-142800000D03*
%TD*%
%TO.C,SW14*%
X254186668Y-134000000D03*
X254186668Y-150100000D03*
X254186668Y-142800000D03*
%TD*%
%TO.C,SW13*%
X247900002Y-134000000D03*
X247900002Y-150100000D03*
X247900002Y-142800000D03*
%TD*%
%TO.C,SW12*%
X241613336Y-134000000D03*
X241613336Y-150100000D03*
X241613336Y-142800000D03*
%TD*%
%TO.C,SW11*%
X235326670Y-134000000D03*
X235326670Y-150100000D03*
X235326670Y-142800000D03*
%TD*%
%TO.C,SW10*%
X229040004Y-134000000D03*
X229040004Y-150100000D03*
X229040004Y-142800000D03*
%TD*%
%TO.C,SW9*%
X222753338Y-134000000D03*
X222753338Y-150100000D03*
X222753338Y-142800000D03*
%TD*%
%TO.C,SW8*%
X216466672Y-134000000D03*
X216466672Y-150100000D03*
X216466672Y-142800000D03*
%TD*%
%TO.C,SW7*%
X210180006Y-134000000D03*
X210180006Y-150100000D03*
X210180006Y-142800000D03*
%TD*%
%TO.C,SW6*%
X203893340Y-134000000D03*
X203893340Y-150100000D03*
X203893340Y-142800000D03*
%TD*%
%TO.C,SW5*%
X197606674Y-134000000D03*
X197606674Y-150100000D03*
X197606674Y-142800000D03*
%TD*%
%TO.C,SW4*%
X191320008Y-134000000D03*
X191320008Y-150100000D03*
X191320008Y-142800000D03*
%TD*%
%TO.C,SW3*%
X185033342Y-134000000D03*
X185033342Y-150100000D03*
X185033342Y-142800000D03*
%TD*%
%TO.C,SW2*%
X178746676Y-134000000D03*
X178746676Y-150100000D03*
X178746676Y-142800000D03*
%TD*%
%TO.C,SW1*%
X172460010Y-134000000D03*
X172460010Y-150100000D03*
X172460010Y-142800000D03*
%TD*%
%TO.C,SW16*%
X266760000Y-134000000D03*
X266760000Y-150100000D03*
X266760000Y-142800000D03*
%TD*%
D13*
%TO.C,M12*%
X267950000Y-102641664D03*
D14*
X275050000Y-102641664D03*
%TD*%
%TO.C,M14*%
X275050000Y-125700000D03*
D13*
X267950000Y-125700000D03*
%TD*%
D14*
%TO.C,M13*%
X275050000Y-114170830D03*
D13*
X267950000Y-114170830D03*
%TD*%
%TO.C,M11*%
X267950000Y-91112498D03*
D14*
X275050000Y-91112498D03*
%TD*%
D13*
%TO.C,M9*%
X267950000Y-68054166D03*
D14*
X275050000Y-68054166D03*
%TD*%
D13*
%TO.C,M8*%
X267950000Y-56525000D03*
D14*
X275050000Y-56525000D03*
%TD*%
D13*
%TO.C,M7*%
X171015000Y-124850000D03*
D14*
X163915000Y-124850000D03*
%TD*%
%TO.C,M6*%
X163915000Y-113491665D03*
D13*
X171015000Y-113491665D03*
%TD*%
D14*
%TO.C,M5*%
X163915000Y-102133332D03*
D13*
X171015000Y-102133332D03*
%TD*%
D14*
%TO.C,M4*%
X163915000Y-90774999D03*
D13*
X171015000Y-90774999D03*
%TD*%
D14*
%TO.C,M3*%
X163915000Y-79416666D03*
D13*
X171015000Y-79416666D03*
%TD*%
D14*
%TO.C,M2*%
X163915000Y-68058333D03*
D13*
X171015000Y-68058333D03*
%TD*%
%TO.C,M1*%
X171015000Y-56700000D03*
D14*
X163915000Y-56700000D03*
%TD*%
%TO.C,J2*%
X180650000Y-49700000D03*
D15*
X189650000Y-49700000D03*
D16*
X183650000Y-49700000D03*
D17*
X182650000Y-45200000D03*
X182650000Y-54200000D03*
%TD*%
D13*
%TO.C,M10*%
X267950000Y-79583332D03*
D14*
X275050000Y-79583332D03*
%TD*%
M02*
