%TF.GenerationSoftware,KiCad,Pcbnew,8.0.5*%
%TF.CreationDate,2024-12-17T00:54:36+08:00*%
%TF.ProjectId,hardware,68617264-7761-4726-952e-6b696361645f,rev?*%
%TF.SameCoordinates,Original*%
%TF.FileFunction,Drillmap*%
%TF.FilePolarity,Positive*%
%FSLAX45Y45*%
G04 Gerber Fmt 4.5, Leading zero omitted, Abs format (unit mm)*
G04 Created by KiCad (PCBNEW 8.0.5) date 2024-12-17 00:54:36*
%MOMM*%
%LPD*%
G01*
G04 APERTURE LIST*
%ADD10C,0.050000*%
%ADD11C,0.200000*%
%ADD12C,0.100000*%
G04 APERTURE END LIST*
D10*
X28134000Y-4348743D02*
X28127260Y-4348743D01*
X28127260Y-4348903D02*
X28115000Y-4348903D01*
X28134000Y-15229841D02*
X28134000Y-15260159D01*
X28134000Y-15229841D02*
X28134000Y-4348743D01*
X15793362Y-15260318D02*
X28134000Y-15260318D01*
X15793362Y-4348903D02*
X28115000Y-4348903D01*
X15793362Y-15260318D02*
X15793362Y-4348903D01*
D11*
X16352260Y-14700000D02*
G75*
G02*
X16012260Y-14700000I-170000J0D01*
G01*
X16012260Y-14700000D02*
G75*
G02*
X16352260Y-14700000I170000J0D01*
G01*
X16357260Y-4915000D02*
G75*
G02*
X16017260Y-4915000I-170000J0D01*
G01*
X16017260Y-4915000D02*
G75*
G02*
X16357260Y-4915000I170000J0D01*
G01*
X27907260Y-4915000D02*
G75*
G02*
X27567260Y-4915000I-170000J0D01*
G01*
X27567260Y-4915000D02*
G75*
G02*
X27907260Y-4915000I170000J0D01*
G01*
X27907260Y-14700000D02*
G75*
G02*
X27567260Y-14700000I-170000J0D01*
G01*
X27567260Y-14700000D02*
G75*
G02*
X27907260Y-14700000I170000J0D01*
G01*
D12*
X16095000Y-14220000D02*
X16125000Y-14250000D01*
X16125000Y-14220000D02*
X16095000Y-14250000D01*
X17775000Y-6855000D02*
X17805000Y-6885000D01*
X17805000Y-6855000D02*
X17775000Y-6885000D01*
X17775000Y-10510000D02*
X17805000Y-10540000D01*
X17805000Y-10510000D02*
X17775000Y-10540000D01*
X17775000Y-11615000D02*
X17805000Y-11645000D01*
X17805000Y-11615000D02*
X17775000Y-11645000D01*
X17775000Y-12390000D02*
X17805000Y-12420000D01*
X17805000Y-12390000D02*
X17775000Y-12420000D01*
X17778000Y-6365000D02*
X17808000Y-6395000D01*
X17808000Y-6365000D02*
X17778000Y-6395000D01*
X17780000Y-8280000D02*
X17810000Y-8310000D01*
X17810000Y-8280000D02*
X17780000Y-8310000D01*
X17780000Y-9020000D02*
X17810000Y-9050000D01*
X17810000Y-9020000D02*
X17780000Y-9050000D01*
X17780000Y-9385000D02*
X17810000Y-9415000D01*
X17810000Y-9385000D02*
X17780000Y-9415000D01*
X17780000Y-10165000D02*
X17810000Y-10195000D01*
X17810000Y-10165000D02*
X17780000Y-10195000D01*
X17780000Y-11270000D02*
X17810000Y-11300000D01*
X17810000Y-11270000D02*
X17780000Y-11300000D01*
X17785000Y-7320000D02*
X17815000Y-7350000D01*
X17815000Y-7320000D02*
X17785000Y-7350000D01*
X17785000Y-7925000D02*
X17815000Y-7955000D01*
X17815000Y-7925000D02*
X17785000Y-7955000D01*
X17900000Y-8280000D02*
X17930000Y-8310000D01*
X17930000Y-8280000D02*
X17900000Y-8310000D01*
X17900000Y-9015000D02*
X17930000Y-9045000D01*
X17930000Y-9015000D02*
X17900000Y-9045000D01*
X17900000Y-10160000D02*
X17930000Y-10190000D01*
X17930000Y-10160000D02*
X17900000Y-10190000D01*
X17900000Y-10510000D02*
X17930000Y-10540000D01*
X17930000Y-10510000D02*
X17900000Y-10540000D01*
X17900000Y-11270000D02*
X17930000Y-11300000D01*
X17930000Y-11270000D02*
X17900000Y-11300000D01*
X17900000Y-12385000D02*
X17930000Y-12415000D01*
X17930000Y-12385000D02*
X17900000Y-12415000D01*
X17905000Y-6360000D02*
X17935000Y-6390000D01*
X17935000Y-6360000D02*
X17905000Y-6390000D01*
X17905000Y-6855000D02*
X17935000Y-6885000D01*
X17935000Y-6855000D02*
X17905000Y-6885000D01*
X17905000Y-9380000D02*
X17935000Y-9410000D01*
X17935000Y-9380000D02*
X17905000Y-9410000D01*
X17905000Y-11610000D02*
X17935000Y-11640000D01*
X17935000Y-11610000D02*
X17905000Y-11640000D01*
X17910000Y-7320000D02*
X17940000Y-7350000D01*
X17940000Y-7320000D02*
X17910000Y-7350000D01*
X17910000Y-7925000D02*
X17940000Y-7955000D01*
X17940000Y-7925000D02*
X17910000Y-7955000D01*
X18035000Y-6360000D02*
X18065000Y-6390000D01*
X18065000Y-6360000D02*
X18035000Y-6390000D01*
X18035000Y-6855000D02*
X18065000Y-6885000D01*
X18065000Y-6855000D02*
X18035000Y-6885000D01*
X18035000Y-7315000D02*
X18065000Y-7345000D01*
X18065000Y-7315000D02*
X18035000Y-7345000D01*
X18035000Y-7920000D02*
X18065000Y-7950000D01*
X18065000Y-7920000D02*
X18035000Y-7950000D01*
X18035000Y-8275000D02*
X18065000Y-8305000D01*
X18065000Y-8275000D02*
X18035000Y-8305000D01*
X18035000Y-9020000D02*
X18065000Y-9050000D01*
X18065000Y-9020000D02*
X18035000Y-9050000D01*
X18035000Y-9380000D02*
X18065000Y-9410000D01*
X18065000Y-9380000D02*
X18035000Y-9410000D01*
X18035000Y-10515000D02*
X18065000Y-10545000D01*
X18065000Y-10515000D02*
X18035000Y-10545000D01*
X18035000Y-11270000D02*
X18065000Y-11300000D01*
X18065000Y-11270000D02*
X18035000Y-11300000D01*
X18035000Y-11610000D02*
X18065000Y-11640000D01*
X18065000Y-11610000D02*
X18035000Y-11640000D01*
X18035000Y-12385000D02*
X18065000Y-12415000D01*
X18065000Y-12385000D02*
X18035000Y-12415000D01*
X18040000Y-10165000D02*
X18070000Y-10195000D01*
X18070000Y-10165000D02*
X18040000Y-10195000D01*
X18155000Y-7920000D02*
X18185000Y-7950000D01*
X18185000Y-7920000D02*
X18155000Y-7950000D01*
X18155000Y-8275000D02*
X18185000Y-8305000D01*
X18185000Y-8275000D02*
X18155000Y-8305000D01*
X18155000Y-9385000D02*
X18185000Y-9415000D01*
X18185000Y-9385000D02*
X18155000Y-9415000D01*
X18155000Y-10165000D02*
X18185000Y-10195000D01*
X18185000Y-10165000D02*
X18155000Y-10195000D01*
X18160000Y-6360000D02*
X18190000Y-6390000D01*
X18190000Y-6360000D02*
X18160000Y-6390000D01*
X18160000Y-6855000D02*
X18190000Y-6885000D01*
X18190000Y-6855000D02*
X18160000Y-6885000D01*
X18160000Y-7310000D02*
X18190000Y-7340000D01*
X18190000Y-7310000D02*
X18160000Y-7340000D01*
X18160000Y-9015000D02*
X18190000Y-9045000D01*
X18190000Y-9015000D02*
X18160000Y-9045000D01*
X18160000Y-10510000D02*
X18190000Y-10540000D01*
X18190000Y-10510000D02*
X18160000Y-10540000D01*
X18160000Y-11260000D02*
X18190000Y-11290000D01*
X18190000Y-11260000D02*
X18160000Y-11290000D01*
X18160000Y-11620000D02*
X18190000Y-11650000D01*
X18190000Y-11620000D02*
X18160000Y-11650000D01*
X18160000Y-12380000D02*
X18190000Y-12410000D01*
X18190000Y-12380000D02*
X18160000Y-12410000D01*
X18590000Y-12890000D02*
X18620000Y-12920000D01*
X18620000Y-12890000D02*
X18590000Y-12920000D01*
X18765000Y-6185000D02*
X18795000Y-6215000D01*
X18795000Y-6185000D02*
X18765000Y-6215000D01*
X18935000Y-6080000D02*
X18965000Y-6110000D01*
X18965000Y-6080000D02*
X18935000Y-6110000D01*
X18995000Y-5845000D02*
X19025000Y-5875000D01*
X19025000Y-5845000D02*
X18995000Y-5875000D01*
X19005000Y-6015000D02*
X19035000Y-6045000D01*
X19035000Y-6015000D02*
X19005000Y-6045000D01*
X19310000Y-5970000D02*
X19340000Y-6000000D01*
X19340000Y-5970000D02*
X19310000Y-6000000D01*
X19460000Y-5705000D02*
X19490000Y-5735000D01*
X19490000Y-5705000D02*
X19460000Y-5735000D01*
X19920000Y-11835000D02*
X19950000Y-11865000D01*
X19950000Y-11835000D02*
X19920000Y-11865000D01*
X19930000Y-11635000D02*
X19960000Y-11665000D01*
X19960000Y-11635000D02*
X19930000Y-11665000D01*
X20125000Y-6125000D02*
X20155000Y-6155000D01*
X20155000Y-6125000D02*
X20125000Y-6155000D01*
X20245000Y-6560000D02*
X20275000Y-6590000D01*
X20275000Y-6560000D02*
X20245000Y-6590000D01*
X20415000Y-11685000D02*
X20445000Y-11715000D01*
X20445000Y-11685000D02*
X20415000Y-11715000D01*
X20445000Y-4765000D02*
X20475000Y-4795000D01*
X20475000Y-4765000D02*
X20445000Y-4795000D01*
X20445000Y-4855000D02*
X20475000Y-4885000D01*
X20475000Y-4855000D02*
X20445000Y-4885000D01*
X20450000Y-4680000D02*
X20480000Y-4710000D01*
X20480000Y-4680000D02*
X20450000Y-4710000D01*
X20455000Y-4600000D02*
X20485000Y-4630000D01*
X20485000Y-4600000D02*
X20455000Y-4630000D01*
X20560000Y-11640000D02*
X20590000Y-11670000D01*
X20590000Y-11640000D02*
X20560000Y-11670000D01*
X20595000Y-12640000D02*
X20625000Y-12670000D01*
X20625000Y-12640000D02*
X20595000Y-12670000D01*
X20740000Y-12140000D02*
X20770000Y-12170000D01*
X20770000Y-12140000D02*
X20740000Y-12170000D01*
X20820000Y-10960000D02*
X20850000Y-10990000D01*
X20850000Y-10960000D02*
X20820000Y-10990000D01*
X20840000Y-11315000D02*
X20870000Y-11345000D01*
X20870000Y-11315000D02*
X20840000Y-11345000D01*
X20970000Y-11315000D02*
X21000000Y-11345000D01*
X21000000Y-11315000D02*
X20970000Y-11345000D01*
X21045000Y-12790000D02*
X21075000Y-12820000D01*
X21075000Y-12790000D02*
X21045000Y-12820000D01*
X21060000Y-12160000D02*
X21090000Y-12190000D01*
X21090000Y-12160000D02*
X21060000Y-12190000D01*
X21094000Y-11310000D02*
X21124000Y-11340000D01*
X21124000Y-11310000D02*
X21094000Y-11340000D01*
X21275000Y-11305000D02*
X21305000Y-11335000D01*
X21305000Y-11305000D02*
X21275000Y-11335000D01*
X21300000Y-4760000D02*
X21330000Y-4790000D01*
X21330000Y-4760000D02*
X21300000Y-4790000D01*
X21305000Y-4595000D02*
X21335000Y-4625000D01*
X21335000Y-4595000D02*
X21305000Y-4625000D01*
X21305000Y-4675000D02*
X21335000Y-4705000D01*
X21335000Y-4675000D02*
X21305000Y-4705000D01*
X21305000Y-4850000D02*
X21335000Y-4880000D01*
X21335000Y-4850000D02*
X21305000Y-4880000D01*
X22245000Y-11810000D02*
X22275000Y-11840000D01*
X22275000Y-11810000D02*
X22245000Y-11840000D01*
X22490000Y-11740000D02*
X22520000Y-11770000D01*
X22520000Y-11740000D02*
X22490000Y-11770000D01*
X22630000Y-13050000D02*
X22660000Y-13080000D01*
X22660000Y-13050000D02*
X22630000Y-13080000D01*
X22660000Y-11685000D02*
X22690000Y-11715000D01*
X22690000Y-11685000D02*
X22660000Y-11715000D01*
X22730000Y-11625000D02*
X22760000Y-11655000D01*
X22760000Y-11625000D02*
X22730000Y-11655000D01*
X22740000Y-11810000D02*
X22770000Y-11840000D01*
X22770000Y-11810000D02*
X22740000Y-11840000D01*
X22850000Y-8385000D02*
X22880000Y-8415000D01*
X22880000Y-8385000D02*
X22850000Y-8415000D01*
X22890000Y-11645000D02*
X22920000Y-11675000D01*
X22920000Y-11645000D02*
X22890000Y-11675000D01*
X22915000Y-12175000D02*
X22945000Y-12205000D01*
X22945000Y-12175000D02*
X22915000Y-12205000D01*
X23150000Y-8385000D02*
X23180000Y-8415000D01*
X23180000Y-8385000D02*
X23150000Y-8415000D01*
X23270000Y-5680000D02*
X23300000Y-5710000D01*
X23300000Y-5680000D02*
X23270000Y-5710000D01*
X23270000Y-13045000D02*
X23300000Y-13075000D01*
X23300000Y-13045000D02*
X23270000Y-13075000D01*
X23305000Y-8380000D02*
X23335000Y-8410000D01*
X23335000Y-8380000D02*
X23305000Y-8410000D01*
X23570000Y-6190000D02*
X23600000Y-6220000D01*
X23600000Y-6190000D02*
X23570000Y-6220000D01*
X24490000Y-13025000D02*
X24520000Y-13055000D01*
X24520000Y-13025000D02*
X24490000Y-13055000D01*
X24640000Y-6190000D02*
X24670000Y-6220000D01*
X24670000Y-6190000D02*
X24640000Y-6220000D01*
X25130000Y-6130000D02*
X25160000Y-6160000D01*
X25160000Y-6130000D02*
X25130000Y-6160000D01*
X25130000Y-6380000D02*
X25160000Y-6410000D01*
X25160000Y-6380000D02*
X25130000Y-6410000D01*
X25130000Y-9490000D02*
X25160000Y-9520000D01*
X25160000Y-9490000D02*
X25130000Y-9520000D01*
X25130000Y-10680000D02*
X25160000Y-10710000D01*
X25160000Y-10680000D02*
X25130000Y-10710000D01*
X25130000Y-11435000D02*
X25160000Y-11465000D01*
X25160000Y-11435000D02*
X25130000Y-11465000D01*
X25135000Y-6875000D02*
X25165000Y-6905000D01*
X25165000Y-6875000D02*
X25135000Y-6905000D01*
X25135000Y-8365000D02*
X25165000Y-8395000D01*
X25165000Y-8365000D02*
X25135000Y-8395000D01*
X25135000Y-10355000D02*
X25165000Y-10385000D01*
X25165000Y-10355000D02*
X25135000Y-10385000D01*
X25135000Y-11765000D02*
X25165000Y-11795000D01*
X25165000Y-11765000D02*
X25135000Y-11795000D01*
X25140000Y-7315000D02*
X25170000Y-7345000D01*
X25170000Y-7315000D02*
X25140000Y-7345000D01*
X25140000Y-8025000D02*
X25170000Y-8055000D01*
X25170000Y-8025000D02*
X25140000Y-8055000D01*
X25140000Y-9160000D02*
X25170000Y-9190000D01*
X25170000Y-9160000D02*
X25140000Y-9190000D01*
X25140000Y-12360000D02*
X25170000Y-12390000D01*
X25170000Y-12360000D02*
X25140000Y-12390000D01*
X25165000Y-5190000D02*
X25195000Y-5220000D01*
X25195000Y-5190000D02*
X25165000Y-5220000D01*
X25250000Y-6870000D02*
X25280000Y-6900000D01*
X25280000Y-6870000D02*
X25250000Y-6900000D01*
X25255000Y-6145000D02*
X25285000Y-6175000D01*
X25285000Y-6145000D02*
X25255000Y-6175000D01*
X25255000Y-6375000D02*
X25285000Y-6405000D01*
X25285000Y-6375000D02*
X25255000Y-6405000D01*
X25260000Y-7315000D02*
X25290000Y-7345000D01*
X25290000Y-7315000D02*
X25260000Y-7345000D01*
X25260000Y-8020000D02*
X25290000Y-8050000D01*
X25290000Y-8020000D02*
X25260000Y-8050000D01*
X25260000Y-9160000D02*
X25290000Y-9190000D01*
X25290000Y-9160000D02*
X25260000Y-9190000D01*
X25260000Y-9485000D02*
X25290000Y-9515000D01*
X25290000Y-9485000D02*
X25260000Y-9515000D01*
X25260000Y-10355000D02*
X25290000Y-10385000D01*
X25290000Y-10355000D02*
X25260000Y-10385000D01*
X25260000Y-10675000D02*
X25290000Y-10705000D01*
X25290000Y-10675000D02*
X25260000Y-10705000D01*
X25260000Y-11430000D02*
X25290000Y-11460000D01*
X25290000Y-11430000D02*
X25260000Y-11460000D01*
X25260000Y-11760000D02*
X25290000Y-11790000D01*
X25290000Y-11760000D02*
X25260000Y-11790000D01*
X25260000Y-12360000D02*
X25290000Y-12390000D01*
X25290000Y-12360000D02*
X25260000Y-12390000D01*
X25265000Y-8360000D02*
X25295000Y-8390000D01*
X25295000Y-8360000D02*
X25265000Y-8390000D01*
X25270000Y-5230000D02*
X25300000Y-5260000D01*
X25300000Y-5230000D02*
X25270000Y-5260000D01*
X25375000Y-5745000D02*
X25405000Y-5775000D01*
X25405000Y-5745000D02*
X25375000Y-5775000D01*
X25385000Y-6140000D02*
X25415000Y-6170000D01*
X25415000Y-6140000D02*
X25385000Y-6170000D01*
X25385000Y-8020000D02*
X25415000Y-8050000D01*
X25415000Y-8020000D02*
X25385000Y-8050000D01*
X25385000Y-8360000D02*
X25415000Y-8390000D01*
X25415000Y-8360000D02*
X25385000Y-8390000D01*
X25385000Y-9160000D02*
X25415000Y-9190000D01*
X25415000Y-9160000D02*
X25385000Y-9190000D01*
X25385000Y-11755000D02*
X25415000Y-11785000D01*
X25415000Y-11755000D02*
X25385000Y-11785000D01*
X25387000Y-7315000D02*
X25417000Y-7345000D01*
X25417000Y-7315000D02*
X25387000Y-7345000D01*
X25390000Y-6865000D02*
X25420000Y-6895000D01*
X25420000Y-6865000D02*
X25390000Y-6895000D01*
X25390000Y-9490000D02*
X25420000Y-9520000D01*
X25420000Y-9490000D02*
X25390000Y-9520000D01*
X25390000Y-10355000D02*
X25420000Y-10385000D01*
X25420000Y-10355000D02*
X25390000Y-10385000D01*
X25390000Y-11435000D02*
X25420000Y-11465000D01*
X25420000Y-11435000D02*
X25390000Y-11465000D01*
X25390000Y-12365000D02*
X25420000Y-12395000D01*
X25420000Y-12365000D02*
X25390000Y-12395000D01*
X25395000Y-10670000D02*
X25425000Y-10700000D01*
X25425000Y-10670000D02*
X25395000Y-10700000D01*
X25505000Y-9160000D02*
X25535000Y-9190000D01*
X25535000Y-9160000D02*
X25505000Y-9190000D01*
X25510000Y-5700000D02*
X25540000Y-5730000D01*
X25540000Y-5700000D02*
X25510000Y-5730000D01*
X25510000Y-6105000D02*
X25540000Y-6135000D01*
X25540000Y-6105000D02*
X25510000Y-6135000D01*
X25510000Y-6865000D02*
X25540000Y-6895000D01*
X25540000Y-6865000D02*
X25510000Y-6895000D01*
X25510000Y-10680000D02*
X25540000Y-10710000D01*
X25540000Y-10680000D02*
X25510000Y-10710000D01*
X25510000Y-11430000D02*
X25540000Y-11460000D01*
X25540000Y-11430000D02*
X25510000Y-11460000D01*
X25510000Y-11755000D02*
X25540000Y-11785000D01*
X25540000Y-11755000D02*
X25510000Y-11785000D01*
X25510000Y-12365000D02*
X25540000Y-12395000D01*
X25540000Y-12365000D02*
X25510000Y-12395000D01*
X25514000Y-7315000D02*
X25544000Y-7345000D01*
X25544000Y-7315000D02*
X25514000Y-7345000D01*
X25515000Y-8020000D02*
X25545000Y-8050000D01*
X25545000Y-8020000D02*
X25515000Y-8050000D01*
X25515000Y-8355000D02*
X25545000Y-8385000D01*
X25545000Y-8355000D02*
X25515000Y-8385000D01*
X25520000Y-9485000D02*
X25550000Y-9515000D01*
X25550000Y-9485000D02*
X25520000Y-9515000D01*
X25520000Y-10355000D02*
X25550000Y-10385000D01*
X25550000Y-10355000D02*
X25520000Y-10385000D01*
X25575000Y-5275000D02*
X25605000Y-5305000D01*
X25605000Y-5275000D02*
X25575000Y-5305000D01*
X25590000Y-11870000D02*
X25620000Y-11900000D01*
X25620000Y-11870000D02*
X25590000Y-11900000D01*
X25605000Y-8580000D02*
X25635000Y-8610000D01*
X25635000Y-8580000D02*
X25605000Y-8610000D01*
X25610000Y-10950000D02*
X25640000Y-10980000D01*
X25640000Y-10950000D02*
X25610000Y-10980000D01*
X25615000Y-7515000D02*
X25645000Y-7545000D01*
X25645000Y-7515000D02*
X25615000Y-7545000D01*
X25615000Y-10865000D02*
X25645000Y-10895000D01*
X25645000Y-10865000D02*
X25615000Y-10895000D01*
X25620000Y-7425000D02*
X25650000Y-7455000D01*
X25650000Y-7425000D02*
X25620000Y-7455000D01*
X25620000Y-12925000D02*
X25650000Y-12955000D01*
X25650000Y-12925000D02*
X25620000Y-12955000D01*
X25630000Y-6165000D02*
X25660000Y-6195000D01*
X25660000Y-6165000D02*
X25630000Y-6195000D01*
X25635000Y-6295000D02*
X25665000Y-6325000D01*
X25665000Y-6295000D02*
X25635000Y-6325000D01*
X25660000Y-8665000D02*
X25690000Y-8695000D01*
X25690000Y-8665000D02*
X25660000Y-8695000D01*
X25680000Y-9830000D02*
X25710000Y-9860000D01*
X25710000Y-9830000D02*
X25680000Y-9860000D01*
X25750000Y-9755000D02*
X25780000Y-9785000D01*
X25780000Y-9755000D02*
X25750000Y-9785000D01*
X25755000Y-7915000D02*
X25785000Y-7945000D01*
X25785000Y-7915000D02*
X25755000Y-7945000D01*
X25760000Y-8020000D02*
X25790000Y-8050000D01*
X25790000Y-8020000D02*
X25760000Y-8050000D01*
X25830000Y-6720000D02*
X25860000Y-6750000D01*
X25860000Y-6720000D02*
X25830000Y-6750000D01*
X26005000Y-10340000D02*
X26035000Y-10370000D01*
X26035000Y-10340000D02*
X26005000Y-10370000D01*
X26010000Y-9045000D02*
X26040000Y-9075000D01*
X26040000Y-9045000D02*
X26010000Y-9075000D01*
X26010000Y-11335000D02*
X26040000Y-11365000D01*
X26040000Y-11335000D02*
X26010000Y-11365000D01*
X26015000Y-9160000D02*
X26045000Y-9190000D01*
X26045000Y-9160000D02*
X26015000Y-9190000D01*
X26015000Y-10205000D02*
X26045000Y-10235000D01*
X26045000Y-10205000D02*
X26015000Y-10235000D01*
X26015000Y-11445000D02*
X26045000Y-11475000D01*
X26045000Y-11445000D02*
X26015000Y-11475000D01*
X26045000Y-6800000D02*
X26075000Y-6830000D01*
X26075000Y-6800000D02*
X26045000Y-6830000D01*
X26050000Y-5750000D02*
X26080000Y-5780000D01*
X26080000Y-5750000D02*
X26050000Y-5780000D01*
X26185000Y-5210000D02*
X26215000Y-5240000D01*
X26215000Y-5210000D02*
X26185000Y-5240000D01*
X26300000Y-5755000D02*
X26330000Y-5785000D01*
X26330000Y-5755000D02*
X26300000Y-5785000D01*
X26300000Y-6165000D02*
X26330000Y-6195000D01*
X26330000Y-6165000D02*
X26300000Y-6195000D01*
X26300000Y-6295000D02*
X26330000Y-6325000D01*
X26330000Y-6295000D02*
X26300000Y-6325000D01*
X26300000Y-8585000D02*
X26330000Y-8615000D01*
X26330000Y-8585000D02*
X26300000Y-8615000D01*
X26300000Y-9040000D02*
X26330000Y-9070000D01*
X26330000Y-9040000D02*
X26300000Y-9070000D01*
X26305000Y-8685000D02*
X26335000Y-8715000D01*
X26335000Y-8685000D02*
X26305000Y-8715000D01*
X26305000Y-9830000D02*
X26335000Y-9860000D01*
X26335000Y-9830000D02*
X26305000Y-9860000D01*
X26305000Y-11335000D02*
X26335000Y-11365000D01*
X26335000Y-11335000D02*
X26305000Y-11365000D01*
X26310000Y-7430000D02*
X26340000Y-7460000D01*
X26340000Y-7430000D02*
X26310000Y-7460000D01*
X26310000Y-8140000D02*
X26340000Y-8170000D01*
X26340000Y-8140000D02*
X26310000Y-8170000D01*
X26310000Y-9170000D02*
X26340000Y-9200000D01*
X26340000Y-9170000D02*
X26310000Y-9200000D01*
X26310000Y-9730000D02*
X26340000Y-9760000D01*
X26340000Y-9730000D02*
X26310000Y-9760000D01*
X26310000Y-10340000D02*
X26340000Y-10370000D01*
X26340000Y-10340000D02*
X26310000Y-10370000D01*
X26315000Y-6750000D02*
X26345000Y-6780000D01*
X26345000Y-6750000D02*
X26315000Y-6780000D01*
X26315000Y-6875000D02*
X26345000Y-6905000D01*
X26345000Y-6875000D02*
X26315000Y-6905000D01*
X26315000Y-7525000D02*
X26345000Y-7555000D01*
X26345000Y-7525000D02*
X26315000Y-7555000D01*
X26315000Y-10195000D02*
X26345000Y-10225000D01*
X26345000Y-10195000D02*
X26315000Y-10225000D01*
X26315000Y-10865000D02*
X26345000Y-10895000D01*
X26345000Y-10865000D02*
X26315000Y-10895000D01*
X26315000Y-10975000D02*
X26345000Y-11005000D01*
X26345000Y-10975000D02*
X26315000Y-11005000D01*
X26315000Y-11445000D02*
X26345000Y-11475000D01*
X26345000Y-11445000D02*
X26315000Y-11475000D01*
X26320000Y-8010000D02*
X26350000Y-8040000D01*
X26350000Y-8010000D02*
X26320000Y-8040000D01*
X26320000Y-11920000D02*
X26350000Y-11950000D01*
X26350000Y-11920000D02*
X26320000Y-11950000D01*
X26360000Y-5525000D02*
X26390000Y-5555000D01*
X26390000Y-5525000D02*
X26360000Y-5555000D01*
X26375000Y-5180000D02*
X26405000Y-5210000D01*
X26405000Y-5180000D02*
X26375000Y-5210000D01*
X26390000Y-12665000D02*
X26420000Y-12695000D01*
X26420000Y-12665000D02*
X26390000Y-12695000D01*
X26565000Y-12500000D02*
X26595000Y-12530000D01*
X26595000Y-12500000D02*
X26565000Y-12530000D01*
X27715000Y-5825000D02*
X27745000Y-5855000D01*
X27745000Y-5825000D02*
X27715000Y-5855000D01*
X18945000Y-7390000D02*
G75*
G02*
X18895000Y-7390000I-25000J0D01*
G01*
X18895000Y-7390000D02*
G75*
G02*
X18945000Y-7390000I25000J0D01*
G01*
X18955000Y-11610000D02*
G75*
G02*
X18905000Y-11610000I-25000J0D01*
G01*
X18905000Y-11610000D02*
G75*
G02*
X18955000Y-11610000I25000J0D01*
G01*
X18960000Y-8245000D02*
G75*
G02*
X18910000Y-8245000I-25000J0D01*
G01*
X18910000Y-8245000D02*
G75*
G02*
X18960000Y-8245000I25000J0D01*
G01*
X18980000Y-10510000D02*
G75*
G02*
X18930000Y-10510000I-25000J0D01*
G01*
X18930000Y-10510000D02*
G75*
G02*
X18980000Y-10510000I25000J0D01*
G01*
X18995000Y-9315000D02*
G75*
G02*
X18945000Y-9315000I-25000J0D01*
G01*
X18945000Y-9315000D02*
G75*
G02*
X18995000Y-9315000I25000J0D01*
G01*
X19007500Y-5487500D02*
G75*
G02*
X18957500Y-5487500I-25000J0D01*
G01*
X18957500Y-5487500D02*
G75*
G02*
X19007500Y-5487500I25000J0D01*
G01*
X19250000Y-12395000D02*
G75*
G02*
X19200000Y-12395000I-25000J0D01*
G01*
X19200000Y-12395000D02*
G75*
G02*
X19250000Y-12395000I25000J0D01*
G01*
X23440000Y-5315000D02*
G75*
G02*
X23390000Y-5315000I-25000J0D01*
G01*
X23390000Y-5315000D02*
G75*
G02*
X23440000Y-5315000I25000J0D01*
G01*
X26070000Y-10765000D02*
G75*
G02*
X26020000Y-10765000I-25000J0D01*
G01*
X26020000Y-10765000D02*
G75*
G02*
X26070000Y-10765000I25000J0D01*
G01*
X26070000Y-11815000D02*
G75*
G02*
X26020000Y-11815000I-25000J0D01*
G01*
X26020000Y-11815000D02*
G75*
G02*
X26070000Y-11815000I25000J0D01*
G01*
X26075000Y-7270000D02*
G75*
G02*
X26025000Y-7270000I-25000J0D01*
G01*
X26025000Y-7270000D02*
G75*
G02*
X26075000Y-7270000I25000J0D01*
G01*
X26075000Y-8420000D02*
G75*
G02*
X26025000Y-8420000I-25000J0D01*
G01*
X26025000Y-8420000D02*
G75*
G02*
X26075000Y-8420000I25000J0D01*
G01*
X26075000Y-9585000D02*
G75*
G02*
X26025000Y-9585000I-25000J0D01*
G01*
X26025000Y-9585000D02*
G75*
G02*
X26075000Y-9585000I25000J0D01*
G01*
X26092500Y-6057500D02*
G75*
G02*
X26042500Y-6057500I-25000J0D01*
G01*
X26042500Y-6057500D02*
G75*
G02*
X26092500Y-6057500I25000J0D01*
G01*
X26210000Y-12570000D02*
G75*
G02*
X26160000Y-12570000I-25000J0D01*
G01*
X26160000Y-12570000D02*
G75*
G02*
X26210000Y-12570000I25000J0D01*
G01*
X17246001Y-13365000D02*
X17246001Y-13435000D01*
X17211001Y-13400000D02*
X17281001Y-13400000D01*
X17381001Y-13365000D02*
X17111001Y-13365000D01*
X17111001Y-13435000D02*
G75*
G02*
X17111001Y-13365000I0J35000D01*
G01*
X17111001Y-13435000D02*
X17381001Y-13435000D01*
X17381001Y-13435000D02*
G75*
G03*
X17381001Y-13365000I0J35000D01*
G01*
X17246001Y-14245000D02*
X17246001Y-14315000D01*
X17211001Y-14280000D02*
X17281001Y-14280000D01*
X17381001Y-14245000D02*
X17111001Y-14245000D01*
X17111001Y-14315000D02*
G75*
G02*
X17111001Y-14245000I0J35000D01*
G01*
X17111001Y-14315000D02*
X17381001Y-14315000D01*
X17381001Y-14315000D02*
G75*
G03*
X17381001Y-14245000I0J35000D01*
G01*
X17246001Y-14975000D02*
X17246001Y-15045000D01*
X17211001Y-15010000D02*
X17281001Y-15010000D01*
X17381001Y-14975000D02*
X17111001Y-14975000D01*
X17111001Y-15045000D02*
G75*
G02*
X17111001Y-14975000I0J35000D01*
G01*
X17111001Y-15045000D02*
X17381001Y-15045000D01*
X17381001Y-15045000D02*
G75*
G03*
X17381001Y-14975000I0J35000D01*
G01*
X17874668Y-13365000D02*
X17874668Y-13435000D01*
X17839668Y-13400000D02*
X17909668Y-13400000D01*
X18009668Y-13365000D02*
X17739668Y-13365000D01*
X17739668Y-13435000D02*
G75*
G02*
X17739668Y-13365000I0J35000D01*
G01*
X17739668Y-13435000D02*
X18009668Y-13435000D01*
X18009668Y-13435000D02*
G75*
G03*
X18009668Y-13365000I0J35000D01*
G01*
X17874668Y-14245000D02*
X17874668Y-14315000D01*
X17839668Y-14280000D02*
X17909668Y-14280000D01*
X18009668Y-14245000D02*
X17739668Y-14245000D01*
X17739668Y-14315000D02*
G75*
G02*
X17739668Y-14245000I0J35000D01*
G01*
X17739668Y-14315000D02*
X18009668Y-14315000D01*
X18009668Y-14315000D02*
G75*
G03*
X18009668Y-14245000I0J35000D01*
G01*
X17874668Y-14975000D02*
X17874668Y-15045000D01*
X17839668Y-15010000D02*
X17909668Y-15010000D01*
X18009668Y-14975000D02*
X17739668Y-14975000D01*
X17739668Y-15045000D02*
G75*
G02*
X17739668Y-14975000I0J35000D01*
G01*
X17739668Y-15045000D02*
X18009668Y-15045000D01*
X18009668Y-15045000D02*
G75*
G03*
X18009668Y-14975000I0J35000D01*
G01*
X18503334Y-13365000D02*
X18503334Y-13435000D01*
X18468334Y-13400000D02*
X18538334Y-13400000D01*
X18638334Y-13365000D02*
X18368334Y-13365000D01*
X18368334Y-13435000D02*
G75*
G02*
X18368334Y-13365000I0J35000D01*
G01*
X18368334Y-13435000D02*
X18638334Y-13435000D01*
X18638334Y-13435000D02*
G75*
G03*
X18638334Y-13365000I0J35000D01*
G01*
X18503334Y-14245000D02*
X18503334Y-14315000D01*
X18468334Y-14280000D02*
X18538334Y-14280000D01*
X18638334Y-14245000D02*
X18368334Y-14245000D01*
X18368334Y-14315000D02*
G75*
G02*
X18368334Y-14245000I0J35000D01*
G01*
X18368334Y-14315000D02*
X18638334Y-14315000D01*
X18638334Y-14315000D02*
G75*
G03*
X18638334Y-14245000I0J35000D01*
G01*
X18503334Y-14975000D02*
X18503334Y-15045000D01*
X18468334Y-15010000D02*
X18538334Y-15010000D01*
X18638334Y-14975000D02*
X18368334Y-14975000D01*
X18368334Y-15045000D02*
G75*
G02*
X18368334Y-14975000I0J35000D01*
G01*
X18368334Y-15045000D02*
X18638334Y-15045000D01*
X18638334Y-15045000D02*
G75*
G03*
X18638334Y-14975000I0J35000D01*
G01*
X19132001Y-13365000D02*
X19132001Y-13435000D01*
X19097001Y-13400000D02*
X19167001Y-13400000D01*
X19267001Y-13365000D02*
X18997001Y-13365000D01*
X18997001Y-13435000D02*
G75*
G02*
X18997001Y-13365000I0J35000D01*
G01*
X18997001Y-13435000D02*
X19267001Y-13435000D01*
X19267001Y-13435000D02*
G75*
G03*
X19267001Y-13365000I0J35000D01*
G01*
X19132001Y-14245000D02*
X19132001Y-14315000D01*
X19097001Y-14280000D02*
X19167001Y-14280000D01*
X19267001Y-14245000D02*
X18997001Y-14245000D01*
X18997001Y-14315000D02*
G75*
G02*
X18997001Y-14245000I0J35000D01*
G01*
X18997001Y-14315000D02*
X19267001Y-14315000D01*
X19267001Y-14315000D02*
G75*
G03*
X19267001Y-14245000I0J35000D01*
G01*
X19132001Y-14975000D02*
X19132001Y-15045000D01*
X19097001Y-15010000D02*
X19167001Y-15010000D01*
X19267001Y-14975000D02*
X18997001Y-14975000D01*
X18997001Y-15045000D02*
G75*
G02*
X18997001Y-14975000I0J35000D01*
G01*
X18997001Y-15045000D02*
X19267001Y-15045000D01*
X19267001Y-15045000D02*
G75*
G03*
X19267001Y-14975000I0J35000D01*
G01*
X19760667Y-13365000D02*
X19760667Y-13435000D01*
X19725667Y-13400000D02*
X19795667Y-13400000D01*
X19895667Y-13365000D02*
X19625667Y-13365000D01*
X19625667Y-13435000D02*
G75*
G02*
X19625667Y-13365000I0J35000D01*
G01*
X19625667Y-13435000D02*
X19895667Y-13435000D01*
X19895667Y-13435000D02*
G75*
G03*
X19895667Y-13365000I0J35000D01*
G01*
X19760667Y-14245000D02*
X19760667Y-14315000D01*
X19725667Y-14280000D02*
X19795667Y-14280000D01*
X19895667Y-14245000D02*
X19625667Y-14245000D01*
X19625667Y-14315000D02*
G75*
G02*
X19625667Y-14245000I0J35000D01*
G01*
X19625667Y-14315000D02*
X19895667Y-14315000D01*
X19895667Y-14315000D02*
G75*
G03*
X19895667Y-14245000I0J35000D01*
G01*
X19760667Y-14975000D02*
X19760667Y-15045000D01*
X19725667Y-15010000D02*
X19795667Y-15010000D01*
X19895667Y-14975000D02*
X19625667Y-14975000D01*
X19625667Y-15045000D02*
G75*
G02*
X19625667Y-14975000I0J35000D01*
G01*
X19625667Y-15045000D02*
X19895667Y-15045000D01*
X19895667Y-15045000D02*
G75*
G03*
X19895667Y-14975000I0J35000D01*
G01*
X20389334Y-13365000D02*
X20389334Y-13435000D01*
X20354334Y-13400000D02*
X20424334Y-13400000D01*
X20524334Y-13365000D02*
X20254334Y-13365000D01*
X20254334Y-13435000D02*
G75*
G02*
X20254334Y-13365000I0J35000D01*
G01*
X20254334Y-13435000D02*
X20524334Y-13435000D01*
X20524334Y-13435000D02*
G75*
G03*
X20524334Y-13365000I0J35000D01*
G01*
X20389334Y-14245000D02*
X20389334Y-14315000D01*
X20354334Y-14280000D02*
X20424334Y-14280000D01*
X20524334Y-14245000D02*
X20254334Y-14245000D01*
X20254334Y-14315000D02*
G75*
G02*
X20254334Y-14245000I0J35000D01*
G01*
X20254334Y-14315000D02*
X20524334Y-14315000D01*
X20524334Y-14315000D02*
G75*
G03*
X20524334Y-14245000I0J35000D01*
G01*
X20389334Y-14975000D02*
X20389334Y-15045000D01*
X20354334Y-15010000D02*
X20424334Y-15010000D01*
X20524334Y-14975000D02*
X20254334Y-14975000D01*
X20254334Y-15045000D02*
G75*
G02*
X20254334Y-14975000I0J35000D01*
G01*
X20254334Y-15045000D02*
X20524334Y-15045000D01*
X20524334Y-15045000D02*
G75*
G03*
X20524334Y-14975000I0J35000D01*
G01*
X21018001Y-13365000D02*
X21018001Y-13435000D01*
X20983001Y-13400000D02*
X21053001Y-13400000D01*
X21153001Y-13365000D02*
X20883001Y-13365000D01*
X20883001Y-13435000D02*
G75*
G02*
X20883001Y-13365000I0J35000D01*
G01*
X20883001Y-13435000D02*
X21153001Y-13435000D01*
X21153001Y-13435000D02*
G75*
G03*
X21153001Y-13365000I0J35000D01*
G01*
X21018001Y-14245000D02*
X21018001Y-14315000D01*
X20983001Y-14280000D02*
X21053001Y-14280000D01*
X21153001Y-14245000D02*
X20883001Y-14245000D01*
X20883001Y-14315000D02*
G75*
G02*
X20883001Y-14245000I0J35000D01*
G01*
X20883001Y-14315000D02*
X21153001Y-14315000D01*
X21153001Y-14315000D02*
G75*
G03*
X21153001Y-14245000I0J35000D01*
G01*
X21018001Y-14975000D02*
X21018001Y-15045000D01*
X20983001Y-15010000D02*
X21053001Y-15010000D01*
X21153001Y-14975000D02*
X20883001Y-14975000D01*
X20883001Y-15045000D02*
G75*
G02*
X20883001Y-14975000I0J35000D01*
G01*
X20883001Y-15045000D02*
X21153001Y-15045000D01*
X21153001Y-15045000D02*
G75*
G03*
X21153001Y-14975000I0J35000D01*
G01*
X21646667Y-13365000D02*
X21646667Y-13435000D01*
X21611667Y-13400000D02*
X21681667Y-13400000D01*
X21781667Y-13365000D02*
X21511667Y-13365000D01*
X21511667Y-13435000D02*
G75*
G02*
X21511667Y-13365000I0J35000D01*
G01*
X21511667Y-13435000D02*
X21781667Y-13435000D01*
X21781667Y-13435000D02*
G75*
G03*
X21781667Y-13365000I0J35000D01*
G01*
X21646667Y-14245000D02*
X21646667Y-14315000D01*
X21611667Y-14280000D02*
X21681667Y-14280000D01*
X21781667Y-14245000D02*
X21511667Y-14245000D01*
X21511667Y-14315000D02*
G75*
G02*
X21511667Y-14245000I0J35000D01*
G01*
X21511667Y-14315000D02*
X21781667Y-14315000D01*
X21781667Y-14315000D02*
G75*
G03*
X21781667Y-14245000I0J35000D01*
G01*
X21646667Y-14975000D02*
X21646667Y-15045000D01*
X21611667Y-15010000D02*
X21681667Y-15010000D01*
X21781667Y-14975000D02*
X21511667Y-14975000D01*
X21511667Y-15045000D02*
G75*
G02*
X21511667Y-14975000I0J35000D01*
G01*
X21511667Y-15045000D02*
X21781667Y-15045000D01*
X21781667Y-15045000D02*
G75*
G03*
X21781667Y-14975000I0J35000D01*
G01*
X22275334Y-13365000D02*
X22275334Y-13435000D01*
X22240334Y-13400000D02*
X22310334Y-13400000D01*
X22410334Y-13365000D02*
X22140334Y-13365000D01*
X22140334Y-13435000D02*
G75*
G02*
X22140334Y-13365000I0J35000D01*
G01*
X22140334Y-13435000D02*
X22410334Y-13435000D01*
X22410334Y-13435000D02*
G75*
G03*
X22410334Y-13365000I0J35000D01*
G01*
X22275334Y-14245000D02*
X22275334Y-14315000D01*
X22240334Y-14280000D02*
X22310334Y-14280000D01*
X22410334Y-14245000D02*
X22140334Y-14245000D01*
X22140334Y-14315000D02*
G75*
G02*
X22140334Y-14245000I0J35000D01*
G01*
X22140334Y-14315000D02*
X22410334Y-14315000D01*
X22410334Y-14315000D02*
G75*
G03*
X22410334Y-14245000I0J35000D01*
G01*
X22275334Y-14975000D02*
X22275334Y-15045000D01*
X22240334Y-15010000D02*
X22310334Y-15010000D01*
X22410334Y-14975000D02*
X22140334Y-14975000D01*
X22140334Y-15045000D02*
G75*
G02*
X22140334Y-14975000I0J35000D01*
G01*
X22140334Y-15045000D02*
X22410334Y-15045000D01*
X22410334Y-15045000D02*
G75*
G03*
X22410334Y-14975000I0J35000D01*
G01*
X22904000Y-13365000D02*
X22904000Y-13435000D01*
X22869000Y-13400000D02*
X22939000Y-13400000D01*
X23039000Y-13365000D02*
X22769000Y-13365000D01*
X22769000Y-13435000D02*
G75*
G02*
X22769000Y-13365000I0J35000D01*
G01*
X22769000Y-13435000D02*
X23039000Y-13435000D01*
X23039000Y-13435000D02*
G75*
G03*
X23039000Y-13365000I0J35000D01*
G01*
X22904000Y-14245000D02*
X22904000Y-14315000D01*
X22869000Y-14280000D02*
X22939000Y-14280000D01*
X23039000Y-14245000D02*
X22769000Y-14245000D01*
X22769000Y-14315000D02*
G75*
G02*
X22769000Y-14245000I0J35000D01*
G01*
X22769000Y-14315000D02*
X23039000Y-14315000D01*
X23039000Y-14315000D02*
G75*
G03*
X23039000Y-14245000I0J35000D01*
G01*
X22904000Y-14975000D02*
X22904000Y-15045000D01*
X22869000Y-15010000D02*
X22939000Y-15010000D01*
X23039000Y-14975000D02*
X22769000Y-14975000D01*
X22769000Y-15045000D02*
G75*
G02*
X22769000Y-14975000I0J35000D01*
G01*
X22769000Y-15045000D02*
X23039000Y-15045000D01*
X23039000Y-15045000D02*
G75*
G03*
X23039000Y-14975000I0J35000D01*
G01*
X23532667Y-13365000D02*
X23532667Y-13435000D01*
X23497667Y-13400000D02*
X23567667Y-13400000D01*
X23667667Y-13365000D02*
X23397667Y-13365000D01*
X23397667Y-13435000D02*
G75*
G02*
X23397667Y-13365000I0J35000D01*
G01*
X23397667Y-13435000D02*
X23667667Y-13435000D01*
X23667667Y-13435000D02*
G75*
G03*
X23667667Y-13365000I0J35000D01*
G01*
X23532667Y-14245000D02*
X23532667Y-14315000D01*
X23497667Y-14280000D02*
X23567667Y-14280000D01*
X23667667Y-14245000D02*
X23397667Y-14245000D01*
X23397667Y-14315000D02*
G75*
G02*
X23397667Y-14245000I0J35000D01*
G01*
X23397667Y-14315000D02*
X23667667Y-14315000D01*
X23667667Y-14315000D02*
G75*
G03*
X23667667Y-14245000I0J35000D01*
G01*
X23532667Y-14975000D02*
X23532667Y-15045000D01*
X23497667Y-15010000D02*
X23567667Y-15010000D01*
X23667667Y-14975000D02*
X23397667Y-14975000D01*
X23397667Y-15045000D02*
G75*
G02*
X23397667Y-14975000I0J35000D01*
G01*
X23397667Y-15045000D02*
X23667667Y-15045000D01*
X23667667Y-15045000D02*
G75*
G03*
X23667667Y-14975000I0J35000D01*
G01*
X24161334Y-13365000D02*
X24161334Y-13435000D01*
X24126334Y-13400000D02*
X24196334Y-13400000D01*
X24296334Y-13365000D02*
X24026334Y-13365000D01*
X24026334Y-13435000D02*
G75*
G02*
X24026334Y-13365000I0J35000D01*
G01*
X24026334Y-13435000D02*
X24296334Y-13435000D01*
X24296334Y-13435000D02*
G75*
G03*
X24296334Y-13365000I0J35000D01*
G01*
X24161334Y-14245000D02*
X24161334Y-14315000D01*
X24126334Y-14280000D02*
X24196334Y-14280000D01*
X24296334Y-14245000D02*
X24026334Y-14245000D01*
X24026334Y-14315000D02*
G75*
G02*
X24026334Y-14245000I0J35000D01*
G01*
X24026334Y-14315000D02*
X24296334Y-14315000D01*
X24296334Y-14315000D02*
G75*
G03*
X24296334Y-14245000I0J35000D01*
G01*
X24161334Y-14975000D02*
X24161334Y-15045000D01*
X24126334Y-15010000D02*
X24196334Y-15010000D01*
X24296334Y-14975000D02*
X24026334Y-14975000D01*
X24026334Y-15045000D02*
G75*
G02*
X24026334Y-14975000I0J35000D01*
G01*
X24026334Y-15045000D02*
X24296334Y-15045000D01*
X24296334Y-15045000D02*
G75*
G03*
X24296334Y-14975000I0J35000D01*
G01*
X24790000Y-13365000D02*
X24790000Y-13435000D01*
X24755000Y-13400000D02*
X24825000Y-13400000D01*
X24925000Y-13365000D02*
X24655000Y-13365000D01*
X24655000Y-13435000D02*
G75*
G02*
X24655000Y-13365000I0J35000D01*
G01*
X24655000Y-13435000D02*
X24925000Y-13435000D01*
X24925000Y-13435000D02*
G75*
G03*
X24925000Y-13365000I0J35000D01*
G01*
X24790000Y-14245000D02*
X24790000Y-14315000D01*
X24755000Y-14280000D02*
X24825000Y-14280000D01*
X24925000Y-14245000D02*
X24655000Y-14245000D01*
X24655000Y-14315000D02*
G75*
G02*
X24655000Y-14245000I0J35000D01*
G01*
X24655000Y-14315000D02*
X24925000Y-14315000D01*
X24925000Y-14315000D02*
G75*
G03*
X24925000Y-14245000I0J35000D01*
G01*
X24790000Y-14975000D02*
X24790000Y-15045000D01*
X24755000Y-15010000D02*
X24825000Y-15010000D01*
X24925000Y-14975000D02*
X24655000Y-14975000D01*
X24655000Y-15045000D02*
G75*
G02*
X24655000Y-14975000I0J35000D01*
G01*
X24655000Y-15045000D02*
X24925000Y-15045000D01*
X24925000Y-15045000D02*
G75*
G03*
X24925000Y-14975000I0J35000D01*
G01*
X25418667Y-13365000D02*
X25418667Y-13435000D01*
X25383667Y-13400000D02*
X25453667Y-13400000D01*
X25553667Y-13365000D02*
X25283667Y-13365000D01*
X25283667Y-13435000D02*
G75*
G02*
X25283667Y-13365000I0J35000D01*
G01*
X25283667Y-13435000D02*
X25553667Y-13435000D01*
X25553667Y-13435000D02*
G75*
G03*
X25553667Y-13365000I0J35000D01*
G01*
X25418667Y-14245000D02*
X25418667Y-14315000D01*
X25383667Y-14280000D02*
X25453667Y-14280000D01*
X25553667Y-14245000D02*
X25283667Y-14245000D01*
X25283667Y-14315000D02*
G75*
G02*
X25283667Y-14245000I0J35000D01*
G01*
X25283667Y-14315000D02*
X25553667Y-14315000D01*
X25553667Y-14315000D02*
G75*
G03*
X25553667Y-14245000I0J35000D01*
G01*
X25418667Y-14975000D02*
X25418667Y-15045000D01*
X25383667Y-15010000D02*
X25453667Y-15010000D01*
X25553667Y-14975000D02*
X25283667Y-14975000D01*
X25283667Y-15045000D02*
G75*
G02*
X25283667Y-14975000I0J35000D01*
G01*
X25283667Y-15045000D02*
X25553667Y-15045000D01*
X25553667Y-15045000D02*
G75*
G03*
X25553667Y-14975000I0J35000D01*
G01*
X26047333Y-13365000D02*
X26047333Y-13435000D01*
X26012333Y-13400000D02*
X26082333Y-13400000D01*
X26182333Y-13365000D02*
X25912333Y-13365000D01*
X25912333Y-13435000D02*
G75*
G02*
X25912333Y-13365000I0J35000D01*
G01*
X25912333Y-13435000D02*
X26182333Y-13435000D01*
X26182333Y-13435000D02*
G75*
G03*
X26182333Y-13365000I0J35000D01*
G01*
X26047333Y-14245000D02*
X26047333Y-14315000D01*
X26012333Y-14280000D02*
X26082333Y-14280000D01*
X26182333Y-14245000D02*
X25912333Y-14245000D01*
X25912333Y-14315000D02*
G75*
G02*
X25912333Y-14245000I0J35000D01*
G01*
X25912333Y-14315000D02*
X26182333Y-14315000D01*
X26182333Y-14315000D02*
G75*
G03*
X26182333Y-14245000I0J35000D01*
G01*
X26047333Y-14975000D02*
X26047333Y-15045000D01*
X26012333Y-15010000D02*
X26082333Y-15010000D01*
X26182333Y-14975000D02*
X25912333Y-14975000D01*
X25912333Y-15045000D02*
G75*
G02*
X25912333Y-14975000I0J35000D01*
G01*
X25912333Y-15045000D02*
X26182333Y-15045000D01*
X26182333Y-15045000D02*
G75*
G03*
X26182333Y-14975000I0J35000D01*
G01*
X26676000Y-13365000D02*
X26676000Y-13435000D01*
X26641000Y-13400000D02*
X26711000Y-13400000D01*
X26811000Y-13365000D02*
X26541000Y-13365000D01*
X26541000Y-13435000D02*
G75*
G02*
X26541000Y-13365000I0J35000D01*
G01*
X26541000Y-13435000D02*
X26811000Y-13435000D01*
X26811000Y-13435000D02*
G75*
G03*
X26811000Y-13365000I0J35000D01*
G01*
X26676000Y-14245000D02*
X26676000Y-14315000D01*
X26641000Y-14280000D02*
X26711000Y-14280000D01*
X26811000Y-14245000D02*
X26541000Y-14245000D01*
X26541000Y-14315000D02*
G75*
G02*
X26541000Y-14245000I0J35000D01*
G01*
X26541000Y-14315000D02*
X26811000Y-14315000D01*
X26811000Y-14315000D02*
G75*
G03*
X26811000Y-14245000I0J35000D01*
G01*
X26676000Y-14975000D02*
X26676000Y-15045000D01*
X26641000Y-15010000D02*
X26711000Y-15010000D01*
X26811000Y-14975000D02*
X26541000Y-14975000D01*
X26541000Y-15045000D02*
G75*
G02*
X26541000Y-14975000I0J35000D01*
G01*
X26541000Y-15045000D02*
X26811000Y-15045000D01*
X26811000Y-15045000D02*
G75*
G03*
X26811000Y-14975000I0J35000D01*
G01*
X18300356Y-4555356D02*
X18300356Y-4484644D01*
X18229644Y-4484644D01*
X18229644Y-4555356D01*
X18300356Y-4555356D01*
X18340000Y-4470000D02*
X18190000Y-4470000D01*
X18190000Y-4570000D02*
G75*
G02*
X18190000Y-4470000I0J50000D01*
G01*
X18190000Y-4570000D02*
X18340000Y-4570000D01*
X18340000Y-4570000D02*
G75*
G03*
X18340000Y-4470000I0J50000D01*
G01*
X18300356Y-5455356D02*
X18300356Y-5384644D01*
X18229644Y-5384644D01*
X18229644Y-5455356D01*
X18300356Y-5455356D01*
X18340000Y-5370000D02*
X18190000Y-5370000D01*
X18190000Y-5470000D02*
G75*
G02*
X18190000Y-5370000I0J50000D01*
G01*
X18190000Y-5470000D02*
X18340000Y-5470000D01*
X18340000Y-5470000D02*
G75*
G03*
X18340000Y-5370000I0J50000D01*
G01*
X18400356Y-5005356D02*
X18400356Y-4934644D01*
X18329644Y-4934644D01*
X18329644Y-5005356D01*
X18400356Y-5005356D01*
X18315000Y-4905000D02*
X18315000Y-5035000D01*
X18415000Y-5035000D02*
G75*
G02*
X18315000Y-5035000I-50000J0D01*
G01*
X18415000Y-5035000D02*
X18415000Y-4905000D01*
X18415000Y-4905000D02*
G75*
G03*
X18315000Y-4905000I-50000J0D01*
G01*
X19000356Y-5005356D02*
X19000356Y-4934644D01*
X18929644Y-4934644D01*
X18929644Y-5005356D01*
X19000356Y-5005356D01*
X18915000Y-4870000D02*
X18915000Y-5070000D01*
X19015000Y-5070000D02*
G75*
G02*
X18915000Y-5070000I-50000J0D01*
G01*
X19015000Y-5070000D02*
X19015000Y-4870000D01*
X19015000Y-4870000D02*
G75*
G03*
X18915000Y-4870000I-50000J0D01*
G01*
X20678356Y-5337356D02*
X20678356Y-5266644D01*
X20607644Y-5266644D01*
X20607644Y-5337356D01*
X20678356Y-5337356D01*
X20678356Y-5591356D02*
X20678356Y-5520644D01*
X20607644Y-5520644D01*
X20607644Y-5591356D01*
X20678356Y-5591356D01*
X20678356Y-5845356D02*
X20678356Y-5774644D01*
X20607644Y-5774644D01*
X20607644Y-5845356D01*
X20678356Y-5845356D01*
X20678356Y-6099356D02*
X20678356Y-6028644D01*
X20607644Y-6028644D01*
X20607644Y-6099356D01*
X20678356Y-6099356D01*
X20678356Y-6353356D02*
X20678356Y-6282644D01*
X20607644Y-6282644D01*
X20607644Y-6353356D01*
X20678356Y-6353356D01*
X20678356Y-6607356D02*
X20678356Y-6536644D01*
X20607644Y-6536644D01*
X20607644Y-6607356D01*
X20678356Y-6607356D01*
X20678356Y-6861356D02*
X20678356Y-6790644D01*
X20607644Y-6790644D01*
X20607644Y-6861356D01*
X20678356Y-6861356D01*
X20678356Y-7115356D02*
X20678356Y-7044644D01*
X20607644Y-7044644D01*
X20607644Y-7115356D01*
X20678356Y-7115356D01*
X22964356Y-5337356D02*
X22964356Y-5266644D01*
X22893644Y-5266644D01*
X22893644Y-5337356D01*
X22964356Y-5337356D01*
X22964356Y-5591356D02*
X22964356Y-5520644D01*
X22893644Y-5520644D01*
X22893644Y-5591356D01*
X22964356Y-5591356D01*
X22964356Y-5845356D02*
X22964356Y-5774644D01*
X22893644Y-5774644D01*
X22893644Y-5845356D01*
X22964356Y-5845356D01*
X22964356Y-6099356D02*
X22964356Y-6028644D01*
X22893644Y-6028644D01*
X22893644Y-6099356D01*
X22964356Y-6099356D01*
X22964356Y-6353356D02*
X22964356Y-6282644D01*
X22893644Y-6282644D01*
X22893644Y-6353356D01*
X22964356Y-6353356D01*
X22964356Y-6607356D02*
X22964356Y-6536644D01*
X22893644Y-6536644D01*
X22893644Y-6607356D01*
X22964356Y-6607356D01*
X22964356Y-6861356D02*
X22964356Y-6790644D01*
X22893644Y-6790644D01*
X22893644Y-6861356D01*
X22964356Y-6861356D01*
X22964356Y-7115356D02*
X22964356Y-7044644D01*
X22893644Y-7044644D01*
X22893644Y-7115356D01*
X22964356Y-7115356D01*
D11*
X16051639Y-15574302D02*
X16051639Y-15374302D01*
X16051639Y-15374302D02*
X16099258Y-15374302D01*
X16099258Y-15374302D02*
X16127829Y-15383826D01*
X16127829Y-15383826D02*
X16146877Y-15402873D01*
X16146877Y-15402873D02*
X16156401Y-15421921D01*
X16156401Y-15421921D02*
X16165925Y-15460016D01*
X16165925Y-15460016D02*
X16165925Y-15488588D01*
X16165925Y-15488588D02*
X16156401Y-15526683D01*
X16156401Y-15526683D02*
X16146877Y-15545731D01*
X16146877Y-15545731D02*
X16127829Y-15564778D01*
X16127829Y-15564778D02*
X16099258Y-15574302D01*
X16099258Y-15574302D02*
X16051639Y-15574302D01*
X16251639Y-15574302D02*
X16251639Y-15440969D01*
X16251639Y-15479064D02*
X16261163Y-15460016D01*
X16261163Y-15460016D02*
X16270686Y-15450492D01*
X16270686Y-15450492D02*
X16289734Y-15440969D01*
X16289734Y-15440969D02*
X16308782Y-15440969D01*
X16375448Y-15574302D02*
X16375448Y-15440969D01*
X16375448Y-15374302D02*
X16365925Y-15383826D01*
X16365925Y-15383826D02*
X16375448Y-15393350D01*
X16375448Y-15393350D02*
X16384972Y-15383826D01*
X16384972Y-15383826D02*
X16375448Y-15374302D01*
X16375448Y-15374302D02*
X16375448Y-15393350D01*
X16499258Y-15574302D02*
X16480210Y-15564778D01*
X16480210Y-15564778D02*
X16470686Y-15545731D01*
X16470686Y-15545731D02*
X16470686Y-15374302D01*
X16604020Y-15574302D02*
X16584972Y-15564778D01*
X16584972Y-15564778D02*
X16575448Y-15545731D01*
X16575448Y-15545731D02*
X16575448Y-15374302D01*
X16832591Y-15574302D02*
X16832591Y-15374302D01*
X16832591Y-15374302D02*
X16899258Y-15517159D01*
X16899258Y-15517159D02*
X16965925Y-15374302D01*
X16965925Y-15374302D02*
X16965925Y-15574302D01*
X17146877Y-15574302D02*
X17146877Y-15469540D01*
X17146877Y-15469540D02*
X17137353Y-15450492D01*
X17137353Y-15450492D02*
X17118306Y-15440969D01*
X17118306Y-15440969D02*
X17080210Y-15440969D01*
X17080210Y-15440969D02*
X17061163Y-15450492D01*
X17146877Y-15564778D02*
X17127829Y-15574302D01*
X17127829Y-15574302D02*
X17080210Y-15574302D01*
X17080210Y-15574302D02*
X17061163Y-15564778D01*
X17061163Y-15564778D02*
X17051639Y-15545731D01*
X17051639Y-15545731D02*
X17051639Y-15526683D01*
X17051639Y-15526683D02*
X17061163Y-15507635D01*
X17061163Y-15507635D02*
X17080210Y-15498112D01*
X17080210Y-15498112D02*
X17127829Y-15498112D01*
X17127829Y-15498112D02*
X17146877Y-15488588D01*
X17242115Y-15440969D02*
X17242115Y-15640969D01*
X17242115Y-15450492D02*
X17261163Y-15440969D01*
X17261163Y-15440969D02*
X17299258Y-15440969D01*
X17299258Y-15440969D02*
X17318306Y-15450492D01*
X17318306Y-15450492D02*
X17327829Y-15460016D01*
X17327829Y-15460016D02*
X17337353Y-15479064D01*
X17337353Y-15479064D02*
X17337353Y-15536207D01*
X17337353Y-15536207D02*
X17327829Y-15555254D01*
X17327829Y-15555254D02*
X17318306Y-15564778D01*
X17318306Y-15564778D02*
X17299258Y-15574302D01*
X17299258Y-15574302D02*
X17261163Y-15574302D01*
X17261163Y-15574302D02*
X17242115Y-15564778D01*
X17423068Y-15555254D02*
X17432591Y-15564778D01*
X17432591Y-15564778D02*
X17423068Y-15574302D01*
X17423068Y-15574302D02*
X17413544Y-15564778D01*
X17413544Y-15564778D02*
X17423068Y-15555254D01*
X17423068Y-15555254D02*
X17423068Y-15574302D01*
X17423068Y-15450492D02*
X17432591Y-15460016D01*
X17432591Y-15460016D02*
X17423068Y-15469540D01*
X17423068Y-15469540D02*
X17413544Y-15460016D01*
X17413544Y-15460016D02*
X17423068Y-15450492D01*
X17423068Y-15450492D02*
X17423068Y-15469540D01*
D12*
X15760862Y-15887818D02*
X15790862Y-15917818D01*
X15790862Y-15887818D02*
X15760862Y-15917818D01*
D11*
X16089734Y-15794302D02*
X16108782Y-15794302D01*
X16108782Y-15794302D02*
X16127829Y-15803826D01*
X16127829Y-15803826D02*
X16137353Y-15813350D01*
X16137353Y-15813350D02*
X16146877Y-15832397D01*
X16146877Y-15832397D02*
X16156401Y-15870492D01*
X16156401Y-15870492D02*
X16156401Y-15918112D01*
X16156401Y-15918112D02*
X16146877Y-15956207D01*
X16146877Y-15956207D02*
X16137353Y-15975254D01*
X16137353Y-15975254D02*
X16127829Y-15984778D01*
X16127829Y-15984778D02*
X16108782Y-15994302D01*
X16108782Y-15994302D02*
X16089734Y-15994302D01*
X16089734Y-15994302D02*
X16070686Y-15984778D01*
X16070686Y-15984778D02*
X16061163Y-15975254D01*
X16061163Y-15975254D02*
X16051639Y-15956207D01*
X16051639Y-15956207D02*
X16042115Y-15918112D01*
X16042115Y-15918112D02*
X16042115Y-15870492D01*
X16042115Y-15870492D02*
X16051639Y-15832397D01*
X16051639Y-15832397D02*
X16061163Y-15813350D01*
X16061163Y-15813350D02*
X16070686Y-15803826D01*
X16070686Y-15803826D02*
X16089734Y-15794302D01*
X16242115Y-15975254D02*
X16251639Y-15984778D01*
X16251639Y-15984778D02*
X16242115Y-15994302D01*
X16242115Y-15994302D02*
X16232591Y-15984778D01*
X16232591Y-15984778D02*
X16242115Y-15975254D01*
X16242115Y-15975254D02*
X16242115Y-15994302D01*
X16318306Y-15794302D02*
X16442115Y-15794302D01*
X16442115Y-15794302D02*
X16375448Y-15870492D01*
X16375448Y-15870492D02*
X16404020Y-15870492D01*
X16404020Y-15870492D02*
X16423067Y-15880016D01*
X16423067Y-15880016D02*
X16432591Y-15889540D01*
X16432591Y-15889540D02*
X16442115Y-15908588D01*
X16442115Y-15908588D02*
X16442115Y-15956207D01*
X16442115Y-15956207D02*
X16432591Y-15975254D01*
X16432591Y-15975254D02*
X16423067Y-15984778D01*
X16423067Y-15984778D02*
X16404020Y-15994302D01*
X16404020Y-15994302D02*
X16346877Y-15994302D01*
X16346877Y-15994302D02*
X16327829Y-15984778D01*
X16327829Y-15984778D02*
X16318306Y-15975254D01*
X16565925Y-15794302D02*
X16584972Y-15794302D01*
X16584972Y-15794302D02*
X16604020Y-15803826D01*
X16604020Y-15803826D02*
X16613544Y-15813350D01*
X16613544Y-15813350D02*
X16623067Y-15832397D01*
X16623067Y-15832397D02*
X16632591Y-15870492D01*
X16632591Y-15870492D02*
X16632591Y-15918112D01*
X16632591Y-15918112D02*
X16623067Y-15956207D01*
X16623067Y-15956207D02*
X16613544Y-15975254D01*
X16613544Y-15975254D02*
X16604020Y-15984778D01*
X16604020Y-15984778D02*
X16584972Y-15994302D01*
X16584972Y-15994302D02*
X16565925Y-15994302D01*
X16565925Y-15994302D02*
X16546877Y-15984778D01*
X16546877Y-15984778D02*
X16537353Y-15975254D01*
X16537353Y-15975254D02*
X16527829Y-15956207D01*
X16527829Y-15956207D02*
X16518306Y-15918112D01*
X16518306Y-15918112D02*
X16518306Y-15870492D01*
X16518306Y-15870492D02*
X16527829Y-15832397D01*
X16527829Y-15832397D02*
X16537353Y-15813350D01*
X16537353Y-15813350D02*
X16546877Y-15803826D01*
X16546877Y-15803826D02*
X16565925Y-15794302D01*
X16756401Y-15794302D02*
X16775448Y-15794302D01*
X16775448Y-15794302D02*
X16794496Y-15803826D01*
X16794496Y-15803826D02*
X16804020Y-15813350D01*
X16804020Y-15813350D02*
X16813544Y-15832397D01*
X16813544Y-15832397D02*
X16823068Y-15870492D01*
X16823068Y-15870492D02*
X16823068Y-15918112D01*
X16823068Y-15918112D02*
X16813544Y-15956207D01*
X16813544Y-15956207D02*
X16804020Y-15975254D01*
X16804020Y-15975254D02*
X16794496Y-15984778D01*
X16794496Y-15984778D02*
X16775448Y-15994302D01*
X16775448Y-15994302D02*
X16756401Y-15994302D01*
X16756401Y-15994302D02*
X16737353Y-15984778D01*
X16737353Y-15984778D02*
X16727829Y-15975254D01*
X16727829Y-15975254D02*
X16718306Y-15956207D01*
X16718306Y-15956207D02*
X16708782Y-15918112D01*
X16708782Y-15918112D02*
X16708782Y-15870492D01*
X16708782Y-15870492D02*
X16718306Y-15832397D01*
X16718306Y-15832397D02*
X16727829Y-15813350D01*
X16727829Y-15813350D02*
X16737353Y-15803826D01*
X16737353Y-15803826D02*
X16756401Y-15794302D01*
X16908782Y-15994302D02*
X16908782Y-15860969D01*
X16908782Y-15880016D02*
X16918306Y-15870492D01*
X16918306Y-15870492D02*
X16937353Y-15860969D01*
X16937353Y-15860969D02*
X16965925Y-15860969D01*
X16965925Y-15860969D02*
X16984972Y-15870492D01*
X16984972Y-15870492D02*
X16994496Y-15889540D01*
X16994496Y-15889540D02*
X16994496Y-15994302D01*
X16994496Y-15889540D02*
X17004020Y-15870492D01*
X17004020Y-15870492D02*
X17023068Y-15860969D01*
X17023068Y-15860969D02*
X17051639Y-15860969D01*
X17051639Y-15860969D02*
X17070687Y-15870492D01*
X17070687Y-15870492D02*
X17080210Y-15889540D01*
X17080210Y-15889540D02*
X17080210Y-15994302D01*
X17175449Y-15994302D02*
X17175449Y-15860969D01*
X17175449Y-15880016D02*
X17184972Y-15870492D01*
X17184972Y-15870492D02*
X17204020Y-15860969D01*
X17204020Y-15860969D02*
X17232591Y-15860969D01*
X17232591Y-15860969D02*
X17251639Y-15870492D01*
X17251639Y-15870492D02*
X17261163Y-15889540D01*
X17261163Y-15889540D02*
X17261163Y-15994302D01*
X17261163Y-15889540D02*
X17270687Y-15870492D01*
X17270687Y-15870492D02*
X17289734Y-15860969D01*
X17289734Y-15860969D02*
X17318306Y-15860969D01*
X17318306Y-15860969D02*
X17337353Y-15870492D01*
X17337353Y-15870492D02*
X17346877Y-15889540D01*
X17346877Y-15889540D02*
X17346877Y-15994302D01*
X17737353Y-15784778D02*
X17565925Y-16041921D01*
X17994496Y-15794302D02*
X18013544Y-15794302D01*
X18013544Y-15794302D02*
X18032592Y-15803826D01*
X18032592Y-15803826D02*
X18042115Y-15813350D01*
X18042115Y-15813350D02*
X18051639Y-15832397D01*
X18051639Y-15832397D02*
X18061163Y-15870492D01*
X18061163Y-15870492D02*
X18061163Y-15918112D01*
X18061163Y-15918112D02*
X18051639Y-15956207D01*
X18051639Y-15956207D02*
X18042115Y-15975254D01*
X18042115Y-15975254D02*
X18032592Y-15984778D01*
X18032592Y-15984778D02*
X18013544Y-15994302D01*
X18013544Y-15994302D02*
X17994496Y-15994302D01*
X17994496Y-15994302D02*
X17975449Y-15984778D01*
X17975449Y-15984778D02*
X17965925Y-15975254D01*
X17965925Y-15975254D02*
X17956401Y-15956207D01*
X17956401Y-15956207D02*
X17946877Y-15918112D01*
X17946877Y-15918112D02*
X17946877Y-15870492D01*
X17946877Y-15870492D02*
X17956401Y-15832397D01*
X17956401Y-15832397D02*
X17965925Y-15813350D01*
X17965925Y-15813350D02*
X17975449Y-15803826D01*
X17975449Y-15803826D02*
X17994496Y-15794302D01*
X18146877Y-15975254D02*
X18156401Y-15984778D01*
X18156401Y-15984778D02*
X18146877Y-15994302D01*
X18146877Y-15994302D02*
X18137353Y-15984778D01*
X18137353Y-15984778D02*
X18146877Y-15975254D01*
X18146877Y-15975254D02*
X18146877Y-15994302D01*
X18280211Y-15794302D02*
X18299258Y-15794302D01*
X18299258Y-15794302D02*
X18318306Y-15803826D01*
X18318306Y-15803826D02*
X18327830Y-15813350D01*
X18327830Y-15813350D02*
X18337353Y-15832397D01*
X18337353Y-15832397D02*
X18346877Y-15870492D01*
X18346877Y-15870492D02*
X18346877Y-15918112D01*
X18346877Y-15918112D02*
X18337353Y-15956207D01*
X18337353Y-15956207D02*
X18327830Y-15975254D01*
X18327830Y-15975254D02*
X18318306Y-15984778D01*
X18318306Y-15984778D02*
X18299258Y-15994302D01*
X18299258Y-15994302D02*
X18280211Y-15994302D01*
X18280211Y-15994302D02*
X18261163Y-15984778D01*
X18261163Y-15984778D02*
X18251639Y-15975254D01*
X18251639Y-15975254D02*
X18242115Y-15956207D01*
X18242115Y-15956207D02*
X18232592Y-15918112D01*
X18232592Y-15918112D02*
X18232592Y-15870492D01*
X18232592Y-15870492D02*
X18242115Y-15832397D01*
X18242115Y-15832397D02*
X18251639Y-15813350D01*
X18251639Y-15813350D02*
X18261163Y-15803826D01*
X18261163Y-15803826D02*
X18280211Y-15794302D01*
X18537353Y-15994302D02*
X18423068Y-15994302D01*
X18480211Y-15994302D02*
X18480211Y-15794302D01*
X18480211Y-15794302D02*
X18461163Y-15822873D01*
X18461163Y-15822873D02*
X18442115Y-15841921D01*
X18442115Y-15841921D02*
X18423068Y-15851445D01*
X18727830Y-15994302D02*
X18613544Y-15994302D01*
X18670687Y-15994302D02*
X18670687Y-15794302D01*
X18670687Y-15794302D02*
X18651639Y-15822873D01*
X18651639Y-15822873D02*
X18632592Y-15841921D01*
X18632592Y-15841921D02*
X18613544Y-15851445D01*
X18842115Y-15880016D02*
X18823068Y-15870492D01*
X18823068Y-15870492D02*
X18813544Y-15860969D01*
X18813544Y-15860969D02*
X18804020Y-15841921D01*
X18804020Y-15841921D02*
X18804020Y-15832397D01*
X18804020Y-15832397D02*
X18813544Y-15813350D01*
X18813544Y-15813350D02*
X18823068Y-15803826D01*
X18823068Y-15803826D02*
X18842115Y-15794302D01*
X18842115Y-15794302D02*
X18880211Y-15794302D01*
X18880211Y-15794302D02*
X18899258Y-15803826D01*
X18899258Y-15803826D02*
X18908782Y-15813350D01*
X18908782Y-15813350D02*
X18918306Y-15832397D01*
X18918306Y-15832397D02*
X18918306Y-15841921D01*
X18918306Y-15841921D02*
X18908782Y-15860969D01*
X18908782Y-15860969D02*
X18899258Y-15870492D01*
X18899258Y-15870492D02*
X18880211Y-15880016D01*
X18880211Y-15880016D02*
X18842115Y-15880016D01*
X18842115Y-15880016D02*
X18823068Y-15889540D01*
X18823068Y-15889540D02*
X18813544Y-15899064D01*
X18813544Y-15899064D02*
X18804020Y-15918112D01*
X18804020Y-15918112D02*
X18804020Y-15956207D01*
X18804020Y-15956207D02*
X18813544Y-15975254D01*
X18813544Y-15975254D02*
X18823068Y-15984778D01*
X18823068Y-15984778D02*
X18842115Y-15994302D01*
X18842115Y-15994302D02*
X18880211Y-15994302D01*
X18880211Y-15994302D02*
X18899258Y-15984778D01*
X18899258Y-15984778D02*
X18908782Y-15975254D01*
X18908782Y-15975254D02*
X18918306Y-15956207D01*
X18918306Y-15956207D02*
X18918306Y-15918112D01*
X18918306Y-15918112D02*
X18908782Y-15899064D01*
X18908782Y-15899064D02*
X18899258Y-15889540D01*
X18899258Y-15889540D02*
X18880211Y-15880016D01*
X18994496Y-15794302D02*
X18994496Y-15832397D01*
X19070687Y-15794302D02*
X19070687Y-15832397D01*
X19365925Y-16070492D02*
X19356401Y-16060969D01*
X19356401Y-16060969D02*
X19337354Y-16032397D01*
X19337354Y-16032397D02*
X19327830Y-16013350D01*
X19327830Y-16013350D02*
X19318306Y-15984778D01*
X19318306Y-15984778D02*
X19308782Y-15937159D01*
X19308782Y-15937159D02*
X19308782Y-15899064D01*
X19308782Y-15899064D02*
X19318306Y-15851445D01*
X19318306Y-15851445D02*
X19327830Y-15822873D01*
X19327830Y-15822873D02*
X19337354Y-15803826D01*
X19337354Y-15803826D02*
X19356401Y-15775254D01*
X19356401Y-15775254D02*
X19365925Y-15765731D01*
X19432592Y-15813350D02*
X19442115Y-15803826D01*
X19442115Y-15803826D02*
X19461163Y-15794302D01*
X19461163Y-15794302D02*
X19508782Y-15794302D01*
X19508782Y-15794302D02*
X19527830Y-15803826D01*
X19527830Y-15803826D02*
X19537354Y-15813350D01*
X19537354Y-15813350D02*
X19546877Y-15832397D01*
X19546877Y-15832397D02*
X19546877Y-15851445D01*
X19546877Y-15851445D02*
X19537354Y-15880016D01*
X19537354Y-15880016D02*
X19423068Y-15994302D01*
X19423068Y-15994302D02*
X19546877Y-15994302D01*
X19670687Y-15794302D02*
X19689735Y-15794302D01*
X19689735Y-15794302D02*
X19708782Y-15803826D01*
X19708782Y-15803826D02*
X19718306Y-15813350D01*
X19718306Y-15813350D02*
X19727830Y-15832397D01*
X19727830Y-15832397D02*
X19737354Y-15870492D01*
X19737354Y-15870492D02*
X19737354Y-15918112D01*
X19737354Y-15918112D02*
X19727830Y-15956207D01*
X19727830Y-15956207D02*
X19718306Y-15975254D01*
X19718306Y-15975254D02*
X19708782Y-15984778D01*
X19708782Y-15984778D02*
X19689735Y-15994302D01*
X19689735Y-15994302D02*
X19670687Y-15994302D01*
X19670687Y-15994302D02*
X19651639Y-15984778D01*
X19651639Y-15984778D02*
X19642115Y-15975254D01*
X19642115Y-15975254D02*
X19632592Y-15956207D01*
X19632592Y-15956207D02*
X19623068Y-15918112D01*
X19623068Y-15918112D02*
X19623068Y-15870492D01*
X19623068Y-15870492D02*
X19632592Y-15832397D01*
X19632592Y-15832397D02*
X19642115Y-15813350D01*
X19642115Y-15813350D02*
X19651639Y-15803826D01*
X19651639Y-15803826D02*
X19670687Y-15794302D01*
X19927830Y-15994302D02*
X19813544Y-15994302D01*
X19870687Y-15994302D02*
X19870687Y-15794302D01*
X19870687Y-15794302D02*
X19851639Y-15822873D01*
X19851639Y-15822873D02*
X19832592Y-15841921D01*
X19832592Y-15841921D02*
X19813544Y-15851445D01*
X20165925Y-15994302D02*
X20165925Y-15794302D01*
X20251639Y-15994302D02*
X20251639Y-15889540D01*
X20251639Y-15889540D02*
X20242116Y-15870492D01*
X20242116Y-15870492D02*
X20223068Y-15860969D01*
X20223068Y-15860969D02*
X20194496Y-15860969D01*
X20194496Y-15860969D02*
X20175449Y-15870492D01*
X20175449Y-15870492D02*
X20165925Y-15880016D01*
X20375449Y-15994302D02*
X20356401Y-15984778D01*
X20356401Y-15984778D02*
X20346877Y-15975254D01*
X20346877Y-15975254D02*
X20337354Y-15956207D01*
X20337354Y-15956207D02*
X20337354Y-15899064D01*
X20337354Y-15899064D02*
X20346877Y-15880016D01*
X20346877Y-15880016D02*
X20356401Y-15870492D01*
X20356401Y-15870492D02*
X20375449Y-15860969D01*
X20375449Y-15860969D02*
X20404020Y-15860969D01*
X20404020Y-15860969D02*
X20423068Y-15870492D01*
X20423068Y-15870492D02*
X20432592Y-15880016D01*
X20432592Y-15880016D02*
X20442116Y-15899064D01*
X20442116Y-15899064D02*
X20442116Y-15956207D01*
X20442116Y-15956207D02*
X20432592Y-15975254D01*
X20432592Y-15975254D02*
X20423068Y-15984778D01*
X20423068Y-15984778D02*
X20404020Y-15994302D01*
X20404020Y-15994302D02*
X20375449Y-15994302D01*
X20556401Y-15994302D02*
X20537354Y-15984778D01*
X20537354Y-15984778D02*
X20527830Y-15965731D01*
X20527830Y-15965731D02*
X20527830Y-15794302D01*
X20708782Y-15984778D02*
X20689735Y-15994302D01*
X20689735Y-15994302D02*
X20651639Y-15994302D01*
X20651639Y-15994302D02*
X20632592Y-15984778D01*
X20632592Y-15984778D02*
X20623068Y-15965731D01*
X20623068Y-15965731D02*
X20623068Y-15889540D01*
X20623068Y-15889540D02*
X20632592Y-15870492D01*
X20632592Y-15870492D02*
X20651639Y-15860969D01*
X20651639Y-15860969D02*
X20689735Y-15860969D01*
X20689735Y-15860969D02*
X20708782Y-15870492D01*
X20708782Y-15870492D02*
X20718306Y-15889540D01*
X20718306Y-15889540D02*
X20718306Y-15908588D01*
X20718306Y-15908588D02*
X20623068Y-15927635D01*
X20794497Y-15984778D02*
X20813544Y-15994302D01*
X20813544Y-15994302D02*
X20851639Y-15994302D01*
X20851639Y-15994302D02*
X20870687Y-15984778D01*
X20870687Y-15984778D02*
X20880211Y-15965731D01*
X20880211Y-15965731D02*
X20880211Y-15956207D01*
X20880211Y-15956207D02*
X20870687Y-15937159D01*
X20870687Y-15937159D02*
X20851639Y-15927635D01*
X20851639Y-15927635D02*
X20823068Y-15927635D01*
X20823068Y-15927635D02*
X20804020Y-15918112D01*
X20804020Y-15918112D02*
X20794497Y-15899064D01*
X20794497Y-15899064D02*
X20794497Y-15889540D01*
X20794497Y-15889540D02*
X20804020Y-15870492D01*
X20804020Y-15870492D02*
X20823068Y-15860969D01*
X20823068Y-15860969D02*
X20851639Y-15860969D01*
X20851639Y-15860969D02*
X20870687Y-15870492D01*
X20946878Y-16070492D02*
X20956401Y-16060969D01*
X20956401Y-16060969D02*
X20975449Y-16032397D01*
X20975449Y-16032397D02*
X20984973Y-16013350D01*
X20984973Y-16013350D02*
X20994497Y-15984778D01*
X20994497Y-15984778D02*
X21004020Y-15937159D01*
X21004020Y-15937159D02*
X21004020Y-15899064D01*
X21004020Y-15899064D02*
X20994497Y-15851445D01*
X20994497Y-15851445D02*
X20984973Y-15822873D01*
X20984973Y-15822873D02*
X20975449Y-15803826D01*
X20975449Y-15803826D02*
X20956401Y-15775254D01*
X20956401Y-15775254D02*
X20946878Y-15765731D01*
D12*
X15790862Y-16166818D02*
G75*
G02*
X15740862Y-16166818I-25000J0D01*
G01*
X15740862Y-16166818D02*
G75*
G02*
X15790862Y-16166818I25000J0D01*
G01*
D11*
X16089734Y-16058302D02*
X16108782Y-16058302D01*
X16108782Y-16058302D02*
X16127829Y-16067826D01*
X16127829Y-16067826D02*
X16137353Y-16077350D01*
X16137353Y-16077350D02*
X16146877Y-16096397D01*
X16146877Y-16096397D02*
X16156401Y-16134492D01*
X16156401Y-16134492D02*
X16156401Y-16182112D01*
X16156401Y-16182112D02*
X16146877Y-16220207D01*
X16146877Y-16220207D02*
X16137353Y-16239254D01*
X16137353Y-16239254D02*
X16127829Y-16248778D01*
X16127829Y-16248778D02*
X16108782Y-16258302D01*
X16108782Y-16258302D02*
X16089734Y-16258302D01*
X16089734Y-16258302D02*
X16070686Y-16248778D01*
X16070686Y-16248778D02*
X16061163Y-16239254D01*
X16061163Y-16239254D02*
X16051639Y-16220207D01*
X16051639Y-16220207D02*
X16042115Y-16182112D01*
X16042115Y-16182112D02*
X16042115Y-16134492D01*
X16042115Y-16134492D02*
X16051639Y-16096397D01*
X16051639Y-16096397D02*
X16061163Y-16077350D01*
X16061163Y-16077350D02*
X16070686Y-16067826D01*
X16070686Y-16067826D02*
X16089734Y-16058302D01*
X16242115Y-16239254D02*
X16251639Y-16248778D01*
X16251639Y-16248778D02*
X16242115Y-16258302D01*
X16242115Y-16258302D02*
X16232591Y-16248778D01*
X16232591Y-16248778D02*
X16242115Y-16239254D01*
X16242115Y-16239254D02*
X16242115Y-16258302D01*
X16432591Y-16058302D02*
X16337353Y-16058302D01*
X16337353Y-16058302D02*
X16327829Y-16153540D01*
X16327829Y-16153540D02*
X16337353Y-16144016D01*
X16337353Y-16144016D02*
X16356401Y-16134492D01*
X16356401Y-16134492D02*
X16404020Y-16134492D01*
X16404020Y-16134492D02*
X16423067Y-16144016D01*
X16423067Y-16144016D02*
X16432591Y-16153540D01*
X16432591Y-16153540D02*
X16442115Y-16172588D01*
X16442115Y-16172588D02*
X16442115Y-16220207D01*
X16442115Y-16220207D02*
X16432591Y-16239254D01*
X16432591Y-16239254D02*
X16423067Y-16248778D01*
X16423067Y-16248778D02*
X16404020Y-16258302D01*
X16404020Y-16258302D02*
X16356401Y-16258302D01*
X16356401Y-16258302D02*
X16337353Y-16248778D01*
X16337353Y-16248778D02*
X16327829Y-16239254D01*
X16565925Y-16058302D02*
X16584972Y-16058302D01*
X16584972Y-16058302D02*
X16604020Y-16067826D01*
X16604020Y-16067826D02*
X16613544Y-16077350D01*
X16613544Y-16077350D02*
X16623067Y-16096397D01*
X16623067Y-16096397D02*
X16632591Y-16134492D01*
X16632591Y-16134492D02*
X16632591Y-16182112D01*
X16632591Y-16182112D02*
X16623067Y-16220207D01*
X16623067Y-16220207D02*
X16613544Y-16239254D01*
X16613544Y-16239254D02*
X16604020Y-16248778D01*
X16604020Y-16248778D02*
X16584972Y-16258302D01*
X16584972Y-16258302D02*
X16565925Y-16258302D01*
X16565925Y-16258302D02*
X16546877Y-16248778D01*
X16546877Y-16248778D02*
X16537353Y-16239254D01*
X16537353Y-16239254D02*
X16527829Y-16220207D01*
X16527829Y-16220207D02*
X16518306Y-16182112D01*
X16518306Y-16182112D02*
X16518306Y-16134492D01*
X16518306Y-16134492D02*
X16527829Y-16096397D01*
X16527829Y-16096397D02*
X16537353Y-16077350D01*
X16537353Y-16077350D02*
X16546877Y-16067826D01*
X16546877Y-16067826D02*
X16565925Y-16058302D01*
X16756401Y-16058302D02*
X16775448Y-16058302D01*
X16775448Y-16058302D02*
X16794496Y-16067826D01*
X16794496Y-16067826D02*
X16804020Y-16077350D01*
X16804020Y-16077350D02*
X16813544Y-16096397D01*
X16813544Y-16096397D02*
X16823068Y-16134492D01*
X16823068Y-16134492D02*
X16823068Y-16182112D01*
X16823068Y-16182112D02*
X16813544Y-16220207D01*
X16813544Y-16220207D02*
X16804020Y-16239254D01*
X16804020Y-16239254D02*
X16794496Y-16248778D01*
X16794496Y-16248778D02*
X16775448Y-16258302D01*
X16775448Y-16258302D02*
X16756401Y-16258302D01*
X16756401Y-16258302D02*
X16737353Y-16248778D01*
X16737353Y-16248778D02*
X16727829Y-16239254D01*
X16727829Y-16239254D02*
X16718306Y-16220207D01*
X16718306Y-16220207D02*
X16708782Y-16182112D01*
X16708782Y-16182112D02*
X16708782Y-16134492D01*
X16708782Y-16134492D02*
X16718306Y-16096397D01*
X16718306Y-16096397D02*
X16727829Y-16077350D01*
X16727829Y-16077350D02*
X16737353Y-16067826D01*
X16737353Y-16067826D02*
X16756401Y-16058302D01*
X16908782Y-16258302D02*
X16908782Y-16124969D01*
X16908782Y-16144016D02*
X16918306Y-16134492D01*
X16918306Y-16134492D02*
X16937353Y-16124969D01*
X16937353Y-16124969D02*
X16965925Y-16124969D01*
X16965925Y-16124969D02*
X16984972Y-16134492D01*
X16984972Y-16134492D02*
X16994496Y-16153540D01*
X16994496Y-16153540D02*
X16994496Y-16258302D01*
X16994496Y-16153540D02*
X17004020Y-16134492D01*
X17004020Y-16134492D02*
X17023068Y-16124969D01*
X17023068Y-16124969D02*
X17051639Y-16124969D01*
X17051639Y-16124969D02*
X17070687Y-16134492D01*
X17070687Y-16134492D02*
X17080210Y-16153540D01*
X17080210Y-16153540D02*
X17080210Y-16258302D01*
X17175449Y-16258302D02*
X17175449Y-16124969D01*
X17175449Y-16144016D02*
X17184972Y-16134492D01*
X17184972Y-16134492D02*
X17204020Y-16124969D01*
X17204020Y-16124969D02*
X17232591Y-16124969D01*
X17232591Y-16124969D02*
X17251639Y-16134492D01*
X17251639Y-16134492D02*
X17261163Y-16153540D01*
X17261163Y-16153540D02*
X17261163Y-16258302D01*
X17261163Y-16153540D02*
X17270687Y-16134492D01*
X17270687Y-16134492D02*
X17289734Y-16124969D01*
X17289734Y-16124969D02*
X17318306Y-16124969D01*
X17318306Y-16124969D02*
X17337353Y-16134492D01*
X17337353Y-16134492D02*
X17346877Y-16153540D01*
X17346877Y-16153540D02*
X17346877Y-16258302D01*
X17737353Y-16048778D02*
X17565925Y-16305921D01*
X17994496Y-16058302D02*
X18013544Y-16058302D01*
X18013544Y-16058302D02*
X18032592Y-16067826D01*
X18032592Y-16067826D02*
X18042115Y-16077350D01*
X18042115Y-16077350D02*
X18051639Y-16096397D01*
X18051639Y-16096397D02*
X18061163Y-16134492D01*
X18061163Y-16134492D02*
X18061163Y-16182112D01*
X18061163Y-16182112D02*
X18051639Y-16220207D01*
X18051639Y-16220207D02*
X18042115Y-16239254D01*
X18042115Y-16239254D02*
X18032592Y-16248778D01*
X18032592Y-16248778D02*
X18013544Y-16258302D01*
X18013544Y-16258302D02*
X17994496Y-16258302D01*
X17994496Y-16258302D02*
X17975449Y-16248778D01*
X17975449Y-16248778D02*
X17965925Y-16239254D01*
X17965925Y-16239254D02*
X17956401Y-16220207D01*
X17956401Y-16220207D02*
X17946877Y-16182112D01*
X17946877Y-16182112D02*
X17946877Y-16134492D01*
X17946877Y-16134492D02*
X17956401Y-16096397D01*
X17956401Y-16096397D02*
X17965925Y-16077350D01*
X17965925Y-16077350D02*
X17975449Y-16067826D01*
X17975449Y-16067826D02*
X17994496Y-16058302D01*
X18146877Y-16239254D02*
X18156401Y-16248778D01*
X18156401Y-16248778D02*
X18146877Y-16258302D01*
X18146877Y-16258302D02*
X18137353Y-16248778D01*
X18137353Y-16248778D02*
X18146877Y-16239254D01*
X18146877Y-16239254D02*
X18146877Y-16258302D01*
X18280211Y-16058302D02*
X18299258Y-16058302D01*
X18299258Y-16058302D02*
X18318306Y-16067826D01*
X18318306Y-16067826D02*
X18327830Y-16077350D01*
X18327830Y-16077350D02*
X18337353Y-16096397D01*
X18337353Y-16096397D02*
X18346877Y-16134492D01*
X18346877Y-16134492D02*
X18346877Y-16182112D01*
X18346877Y-16182112D02*
X18337353Y-16220207D01*
X18337353Y-16220207D02*
X18327830Y-16239254D01*
X18327830Y-16239254D02*
X18318306Y-16248778D01*
X18318306Y-16248778D02*
X18299258Y-16258302D01*
X18299258Y-16258302D02*
X18280211Y-16258302D01*
X18280211Y-16258302D02*
X18261163Y-16248778D01*
X18261163Y-16248778D02*
X18251639Y-16239254D01*
X18251639Y-16239254D02*
X18242115Y-16220207D01*
X18242115Y-16220207D02*
X18232592Y-16182112D01*
X18232592Y-16182112D02*
X18232592Y-16134492D01*
X18232592Y-16134492D02*
X18242115Y-16096397D01*
X18242115Y-16096397D02*
X18251639Y-16077350D01*
X18251639Y-16077350D02*
X18261163Y-16067826D01*
X18261163Y-16067826D02*
X18280211Y-16058302D01*
X18537353Y-16258302D02*
X18423068Y-16258302D01*
X18480211Y-16258302D02*
X18480211Y-16058302D01*
X18480211Y-16058302D02*
X18461163Y-16086873D01*
X18461163Y-16086873D02*
X18442115Y-16105921D01*
X18442115Y-16105921D02*
X18423068Y-16115445D01*
X18632592Y-16258302D02*
X18670687Y-16258302D01*
X18670687Y-16258302D02*
X18689734Y-16248778D01*
X18689734Y-16248778D02*
X18699258Y-16239254D01*
X18699258Y-16239254D02*
X18718306Y-16210683D01*
X18718306Y-16210683D02*
X18727830Y-16172588D01*
X18727830Y-16172588D02*
X18727830Y-16096397D01*
X18727830Y-16096397D02*
X18718306Y-16077350D01*
X18718306Y-16077350D02*
X18708782Y-16067826D01*
X18708782Y-16067826D02*
X18689734Y-16058302D01*
X18689734Y-16058302D02*
X18651639Y-16058302D01*
X18651639Y-16058302D02*
X18632592Y-16067826D01*
X18632592Y-16067826D02*
X18623068Y-16077350D01*
X18623068Y-16077350D02*
X18613544Y-16096397D01*
X18613544Y-16096397D02*
X18613544Y-16144016D01*
X18613544Y-16144016D02*
X18623068Y-16163064D01*
X18623068Y-16163064D02*
X18632592Y-16172588D01*
X18632592Y-16172588D02*
X18651639Y-16182112D01*
X18651639Y-16182112D02*
X18689734Y-16182112D01*
X18689734Y-16182112D02*
X18708782Y-16172588D01*
X18708782Y-16172588D02*
X18718306Y-16163064D01*
X18718306Y-16163064D02*
X18727830Y-16144016D01*
X18794496Y-16058302D02*
X18927830Y-16058302D01*
X18927830Y-16058302D02*
X18842115Y-16258302D01*
X18994496Y-16058302D02*
X18994496Y-16096397D01*
X19070687Y-16058302D02*
X19070687Y-16096397D01*
X19365925Y-16334492D02*
X19356401Y-16324969D01*
X19356401Y-16324969D02*
X19337354Y-16296397D01*
X19337354Y-16296397D02*
X19327830Y-16277350D01*
X19327830Y-16277350D02*
X19318306Y-16248778D01*
X19318306Y-16248778D02*
X19308782Y-16201159D01*
X19308782Y-16201159D02*
X19308782Y-16163064D01*
X19308782Y-16163064D02*
X19318306Y-16115445D01*
X19318306Y-16115445D02*
X19327830Y-16086873D01*
X19327830Y-16086873D02*
X19337354Y-16067826D01*
X19337354Y-16067826D02*
X19356401Y-16039254D01*
X19356401Y-16039254D02*
X19365925Y-16029731D01*
X19546877Y-16258302D02*
X19432592Y-16258302D01*
X19489734Y-16258302D02*
X19489734Y-16058302D01*
X19489734Y-16058302D02*
X19470687Y-16086873D01*
X19470687Y-16086873D02*
X19451639Y-16105921D01*
X19451639Y-16105921D02*
X19432592Y-16115445D01*
X19727830Y-16058302D02*
X19632592Y-16058302D01*
X19632592Y-16058302D02*
X19623068Y-16153540D01*
X19623068Y-16153540D02*
X19632592Y-16144016D01*
X19632592Y-16144016D02*
X19651639Y-16134492D01*
X19651639Y-16134492D02*
X19699258Y-16134492D01*
X19699258Y-16134492D02*
X19718306Y-16144016D01*
X19718306Y-16144016D02*
X19727830Y-16153540D01*
X19727830Y-16153540D02*
X19737354Y-16172588D01*
X19737354Y-16172588D02*
X19737354Y-16220207D01*
X19737354Y-16220207D02*
X19727830Y-16239254D01*
X19727830Y-16239254D02*
X19718306Y-16248778D01*
X19718306Y-16248778D02*
X19699258Y-16258302D01*
X19699258Y-16258302D02*
X19651639Y-16258302D01*
X19651639Y-16258302D02*
X19632592Y-16248778D01*
X19632592Y-16248778D02*
X19623068Y-16239254D01*
X19975449Y-16258302D02*
X19975449Y-16058302D01*
X20061163Y-16258302D02*
X20061163Y-16153540D01*
X20061163Y-16153540D02*
X20051639Y-16134492D01*
X20051639Y-16134492D02*
X20032592Y-16124969D01*
X20032592Y-16124969D02*
X20004020Y-16124969D01*
X20004020Y-16124969D02*
X19984973Y-16134492D01*
X19984973Y-16134492D02*
X19975449Y-16144016D01*
X20184973Y-16258302D02*
X20165925Y-16248778D01*
X20165925Y-16248778D02*
X20156401Y-16239254D01*
X20156401Y-16239254D02*
X20146877Y-16220207D01*
X20146877Y-16220207D02*
X20146877Y-16163064D01*
X20146877Y-16163064D02*
X20156401Y-16144016D01*
X20156401Y-16144016D02*
X20165925Y-16134492D01*
X20165925Y-16134492D02*
X20184973Y-16124969D01*
X20184973Y-16124969D02*
X20213544Y-16124969D01*
X20213544Y-16124969D02*
X20232592Y-16134492D01*
X20232592Y-16134492D02*
X20242116Y-16144016D01*
X20242116Y-16144016D02*
X20251639Y-16163064D01*
X20251639Y-16163064D02*
X20251639Y-16220207D01*
X20251639Y-16220207D02*
X20242116Y-16239254D01*
X20242116Y-16239254D02*
X20232592Y-16248778D01*
X20232592Y-16248778D02*
X20213544Y-16258302D01*
X20213544Y-16258302D02*
X20184973Y-16258302D01*
X20365925Y-16258302D02*
X20346877Y-16248778D01*
X20346877Y-16248778D02*
X20337354Y-16229731D01*
X20337354Y-16229731D02*
X20337354Y-16058302D01*
X20518306Y-16248778D02*
X20499258Y-16258302D01*
X20499258Y-16258302D02*
X20461163Y-16258302D01*
X20461163Y-16258302D02*
X20442116Y-16248778D01*
X20442116Y-16248778D02*
X20432592Y-16229731D01*
X20432592Y-16229731D02*
X20432592Y-16153540D01*
X20432592Y-16153540D02*
X20442116Y-16134492D01*
X20442116Y-16134492D02*
X20461163Y-16124969D01*
X20461163Y-16124969D02*
X20499258Y-16124969D01*
X20499258Y-16124969D02*
X20518306Y-16134492D01*
X20518306Y-16134492D02*
X20527830Y-16153540D01*
X20527830Y-16153540D02*
X20527830Y-16172588D01*
X20527830Y-16172588D02*
X20432592Y-16191635D01*
X20604020Y-16248778D02*
X20623068Y-16258302D01*
X20623068Y-16258302D02*
X20661163Y-16258302D01*
X20661163Y-16258302D02*
X20680211Y-16248778D01*
X20680211Y-16248778D02*
X20689735Y-16229731D01*
X20689735Y-16229731D02*
X20689735Y-16220207D01*
X20689735Y-16220207D02*
X20680211Y-16201159D01*
X20680211Y-16201159D02*
X20661163Y-16191635D01*
X20661163Y-16191635D02*
X20632592Y-16191635D01*
X20632592Y-16191635D02*
X20613544Y-16182112D01*
X20613544Y-16182112D02*
X20604020Y-16163064D01*
X20604020Y-16163064D02*
X20604020Y-16153540D01*
X20604020Y-16153540D02*
X20613544Y-16134492D01*
X20613544Y-16134492D02*
X20632592Y-16124969D01*
X20632592Y-16124969D02*
X20661163Y-16124969D01*
X20661163Y-16124969D02*
X20680211Y-16134492D01*
X20756401Y-16334492D02*
X20765925Y-16324969D01*
X20765925Y-16324969D02*
X20784973Y-16296397D01*
X20784973Y-16296397D02*
X20794497Y-16277350D01*
X20794497Y-16277350D02*
X20804020Y-16248778D01*
X20804020Y-16248778D02*
X20813544Y-16201159D01*
X20813544Y-16201159D02*
X20813544Y-16163064D01*
X20813544Y-16163064D02*
X20804020Y-16115445D01*
X20804020Y-16115445D02*
X20794497Y-16086873D01*
X20794497Y-16086873D02*
X20784973Y-16067826D01*
X20784973Y-16067826D02*
X20765925Y-16039254D01*
X20765925Y-16039254D02*
X20756401Y-16029731D01*
D12*
X15755862Y-16395818D02*
X15755862Y-16465818D01*
X15720862Y-16430818D02*
X15790862Y-16430818D01*
D11*
X16089734Y-16322302D02*
X16108782Y-16322302D01*
X16108782Y-16322302D02*
X16127829Y-16331826D01*
X16127829Y-16331826D02*
X16137353Y-16341350D01*
X16137353Y-16341350D02*
X16146877Y-16360397D01*
X16146877Y-16360397D02*
X16156401Y-16398492D01*
X16156401Y-16398492D02*
X16156401Y-16446112D01*
X16156401Y-16446112D02*
X16146877Y-16484207D01*
X16146877Y-16484207D02*
X16137353Y-16503254D01*
X16137353Y-16503254D02*
X16127829Y-16512778D01*
X16127829Y-16512778D02*
X16108782Y-16522302D01*
X16108782Y-16522302D02*
X16089734Y-16522302D01*
X16089734Y-16522302D02*
X16070686Y-16512778D01*
X16070686Y-16512778D02*
X16061163Y-16503254D01*
X16061163Y-16503254D02*
X16051639Y-16484207D01*
X16051639Y-16484207D02*
X16042115Y-16446112D01*
X16042115Y-16446112D02*
X16042115Y-16398492D01*
X16042115Y-16398492D02*
X16051639Y-16360397D01*
X16051639Y-16360397D02*
X16061163Y-16341350D01*
X16061163Y-16341350D02*
X16070686Y-16331826D01*
X16070686Y-16331826D02*
X16089734Y-16322302D01*
X16242115Y-16503254D02*
X16251639Y-16512778D01*
X16251639Y-16512778D02*
X16242115Y-16522302D01*
X16242115Y-16522302D02*
X16232591Y-16512778D01*
X16232591Y-16512778D02*
X16242115Y-16503254D01*
X16242115Y-16503254D02*
X16242115Y-16522302D01*
X16318306Y-16322302D02*
X16451639Y-16322302D01*
X16451639Y-16322302D02*
X16365925Y-16522302D01*
X16565925Y-16322302D02*
X16584972Y-16322302D01*
X16584972Y-16322302D02*
X16604020Y-16331826D01*
X16604020Y-16331826D02*
X16613544Y-16341350D01*
X16613544Y-16341350D02*
X16623067Y-16360397D01*
X16623067Y-16360397D02*
X16632591Y-16398492D01*
X16632591Y-16398492D02*
X16632591Y-16446112D01*
X16632591Y-16446112D02*
X16623067Y-16484207D01*
X16623067Y-16484207D02*
X16613544Y-16503254D01*
X16613544Y-16503254D02*
X16604020Y-16512778D01*
X16604020Y-16512778D02*
X16584972Y-16522302D01*
X16584972Y-16522302D02*
X16565925Y-16522302D01*
X16565925Y-16522302D02*
X16546877Y-16512778D01*
X16546877Y-16512778D02*
X16537353Y-16503254D01*
X16537353Y-16503254D02*
X16527829Y-16484207D01*
X16527829Y-16484207D02*
X16518306Y-16446112D01*
X16518306Y-16446112D02*
X16518306Y-16398492D01*
X16518306Y-16398492D02*
X16527829Y-16360397D01*
X16527829Y-16360397D02*
X16537353Y-16341350D01*
X16537353Y-16341350D02*
X16546877Y-16331826D01*
X16546877Y-16331826D02*
X16565925Y-16322302D01*
X16756401Y-16322302D02*
X16775448Y-16322302D01*
X16775448Y-16322302D02*
X16794496Y-16331826D01*
X16794496Y-16331826D02*
X16804020Y-16341350D01*
X16804020Y-16341350D02*
X16813544Y-16360397D01*
X16813544Y-16360397D02*
X16823068Y-16398492D01*
X16823068Y-16398492D02*
X16823068Y-16446112D01*
X16823068Y-16446112D02*
X16813544Y-16484207D01*
X16813544Y-16484207D02*
X16804020Y-16503254D01*
X16804020Y-16503254D02*
X16794496Y-16512778D01*
X16794496Y-16512778D02*
X16775448Y-16522302D01*
X16775448Y-16522302D02*
X16756401Y-16522302D01*
X16756401Y-16522302D02*
X16737353Y-16512778D01*
X16737353Y-16512778D02*
X16727829Y-16503254D01*
X16727829Y-16503254D02*
X16718306Y-16484207D01*
X16718306Y-16484207D02*
X16708782Y-16446112D01*
X16708782Y-16446112D02*
X16708782Y-16398492D01*
X16708782Y-16398492D02*
X16718306Y-16360397D01*
X16718306Y-16360397D02*
X16727829Y-16341350D01*
X16727829Y-16341350D02*
X16737353Y-16331826D01*
X16737353Y-16331826D02*
X16756401Y-16322302D01*
X16908782Y-16522302D02*
X16908782Y-16388969D01*
X16908782Y-16408016D02*
X16918306Y-16398492D01*
X16918306Y-16398492D02*
X16937353Y-16388969D01*
X16937353Y-16388969D02*
X16965925Y-16388969D01*
X16965925Y-16388969D02*
X16984972Y-16398492D01*
X16984972Y-16398492D02*
X16994496Y-16417540D01*
X16994496Y-16417540D02*
X16994496Y-16522302D01*
X16994496Y-16417540D02*
X17004020Y-16398492D01*
X17004020Y-16398492D02*
X17023068Y-16388969D01*
X17023068Y-16388969D02*
X17051639Y-16388969D01*
X17051639Y-16388969D02*
X17070687Y-16398492D01*
X17070687Y-16398492D02*
X17080210Y-16417540D01*
X17080210Y-16417540D02*
X17080210Y-16522302D01*
X17175449Y-16522302D02*
X17175449Y-16388969D01*
X17175449Y-16408016D02*
X17184972Y-16398492D01*
X17184972Y-16398492D02*
X17204020Y-16388969D01*
X17204020Y-16388969D02*
X17232591Y-16388969D01*
X17232591Y-16388969D02*
X17251639Y-16398492D01*
X17251639Y-16398492D02*
X17261163Y-16417540D01*
X17261163Y-16417540D02*
X17261163Y-16522302D01*
X17261163Y-16417540D02*
X17270687Y-16398492D01*
X17270687Y-16398492D02*
X17289734Y-16388969D01*
X17289734Y-16388969D02*
X17318306Y-16388969D01*
X17318306Y-16388969D02*
X17337353Y-16398492D01*
X17337353Y-16398492D02*
X17346877Y-16417540D01*
X17346877Y-16417540D02*
X17346877Y-16522302D01*
X17737353Y-16312778D02*
X17565925Y-16569921D01*
X17994496Y-16322302D02*
X18013544Y-16322302D01*
X18013544Y-16322302D02*
X18032592Y-16331826D01*
X18032592Y-16331826D02*
X18042115Y-16341350D01*
X18042115Y-16341350D02*
X18051639Y-16360397D01*
X18051639Y-16360397D02*
X18061163Y-16398492D01*
X18061163Y-16398492D02*
X18061163Y-16446112D01*
X18061163Y-16446112D02*
X18051639Y-16484207D01*
X18051639Y-16484207D02*
X18042115Y-16503254D01*
X18042115Y-16503254D02*
X18032592Y-16512778D01*
X18032592Y-16512778D02*
X18013544Y-16522302D01*
X18013544Y-16522302D02*
X17994496Y-16522302D01*
X17994496Y-16522302D02*
X17975449Y-16512778D01*
X17975449Y-16512778D02*
X17965925Y-16503254D01*
X17965925Y-16503254D02*
X17956401Y-16484207D01*
X17956401Y-16484207D02*
X17946877Y-16446112D01*
X17946877Y-16446112D02*
X17946877Y-16398492D01*
X17946877Y-16398492D02*
X17956401Y-16360397D01*
X17956401Y-16360397D02*
X17965925Y-16341350D01*
X17965925Y-16341350D02*
X17975449Y-16331826D01*
X17975449Y-16331826D02*
X17994496Y-16322302D01*
X18146877Y-16503254D02*
X18156401Y-16512778D01*
X18156401Y-16512778D02*
X18146877Y-16522302D01*
X18146877Y-16522302D02*
X18137353Y-16512778D01*
X18137353Y-16512778D02*
X18146877Y-16503254D01*
X18146877Y-16503254D02*
X18146877Y-16522302D01*
X18280211Y-16322302D02*
X18299258Y-16322302D01*
X18299258Y-16322302D02*
X18318306Y-16331826D01*
X18318306Y-16331826D02*
X18327830Y-16341350D01*
X18327830Y-16341350D02*
X18337353Y-16360397D01*
X18337353Y-16360397D02*
X18346877Y-16398492D01*
X18346877Y-16398492D02*
X18346877Y-16446112D01*
X18346877Y-16446112D02*
X18337353Y-16484207D01*
X18337353Y-16484207D02*
X18327830Y-16503254D01*
X18327830Y-16503254D02*
X18318306Y-16512778D01*
X18318306Y-16512778D02*
X18299258Y-16522302D01*
X18299258Y-16522302D02*
X18280211Y-16522302D01*
X18280211Y-16522302D02*
X18261163Y-16512778D01*
X18261163Y-16512778D02*
X18251639Y-16503254D01*
X18251639Y-16503254D02*
X18242115Y-16484207D01*
X18242115Y-16484207D02*
X18232592Y-16446112D01*
X18232592Y-16446112D02*
X18232592Y-16398492D01*
X18232592Y-16398492D02*
X18242115Y-16360397D01*
X18242115Y-16360397D02*
X18251639Y-16341350D01*
X18251639Y-16341350D02*
X18261163Y-16331826D01*
X18261163Y-16331826D02*
X18280211Y-16322302D01*
X18423068Y-16341350D02*
X18432592Y-16331826D01*
X18432592Y-16331826D02*
X18451639Y-16322302D01*
X18451639Y-16322302D02*
X18499258Y-16322302D01*
X18499258Y-16322302D02*
X18518306Y-16331826D01*
X18518306Y-16331826D02*
X18527830Y-16341350D01*
X18527830Y-16341350D02*
X18537353Y-16360397D01*
X18537353Y-16360397D02*
X18537353Y-16379445D01*
X18537353Y-16379445D02*
X18527830Y-16408016D01*
X18527830Y-16408016D02*
X18413544Y-16522302D01*
X18413544Y-16522302D02*
X18537353Y-16522302D01*
X18604020Y-16322302D02*
X18737353Y-16322302D01*
X18737353Y-16322302D02*
X18651639Y-16522302D01*
X18899258Y-16322302D02*
X18861163Y-16322302D01*
X18861163Y-16322302D02*
X18842115Y-16331826D01*
X18842115Y-16331826D02*
X18832592Y-16341350D01*
X18832592Y-16341350D02*
X18813544Y-16369921D01*
X18813544Y-16369921D02*
X18804020Y-16408016D01*
X18804020Y-16408016D02*
X18804020Y-16484207D01*
X18804020Y-16484207D02*
X18813544Y-16503254D01*
X18813544Y-16503254D02*
X18823068Y-16512778D01*
X18823068Y-16512778D02*
X18842115Y-16522302D01*
X18842115Y-16522302D02*
X18880211Y-16522302D01*
X18880211Y-16522302D02*
X18899258Y-16512778D01*
X18899258Y-16512778D02*
X18908782Y-16503254D01*
X18908782Y-16503254D02*
X18918306Y-16484207D01*
X18918306Y-16484207D02*
X18918306Y-16436588D01*
X18918306Y-16436588D02*
X18908782Y-16417540D01*
X18908782Y-16417540D02*
X18899258Y-16408016D01*
X18899258Y-16408016D02*
X18880211Y-16398492D01*
X18880211Y-16398492D02*
X18842115Y-16398492D01*
X18842115Y-16398492D02*
X18823068Y-16408016D01*
X18823068Y-16408016D02*
X18813544Y-16417540D01*
X18813544Y-16417540D02*
X18804020Y-16436588D01*
X18994496Y-16322302D02*
X18994496Y-16360397D01*
X19070687Y-16322302D02*
X19070687Y-16360397D01*
X19365925Y-16598492D02*
X19356401Y-16588969D01*
X19356401Y-16588969D02*
X19337354Y-16560397D01*
X19337354Y-16560397D02*
X19327830Y-16541350D01*
X19327830Y-16541350D02*
X19318306Y-16512778D01*
X19318306Y-16512778D02*
X19308782Y-16465159D01*
X19308782Y-16465159D02*
X19308782Y-16427064D01*
X19308782Y-16427064D02*
X19318306Y-16379445D01*
X19318306Y-16379445D02*
X19327830Y-16350873D01*
X19327830Y-16350873D02*
X19337354Y-16331826D01*
X19337354Y-16331826D02*
X19356401Y-16303254D01*
X19356401Y-16303254D02*
X19365925Y-16293731D01*
X19480211Y-16322302D02*
X19499258Y-16322302D01*
X19499258Y-16322302D02*
X19518306Y-16331826D01*
X19518306Y-16331826D02*
X19527830Y-16341350D01*
X19527830Y-16341350D02*
X19537354Y-16360397D01*
X19537354Y-16360397D02*
X19546877Y-16398492D01*
X19546877Y-16398492D02*
X19546877Y-16446112D01*
X19546877Y-16446112D02*
X19537354Y-16484207D01*
X19537354Y-16484207D02*
X19527830Y-16503254D01*
X19527830Y-16503254D02*
X19518306Y-16512778D01*
X19518306Y-16512778D02*
X19499258Y-16522302D01*
X19499258Y-16522302D02*
X19480211Y-16522302D01*
X19480211Y-16522302D02*
X19461163Y-16512778D01*
X19461163Y-16512778D02*
X19451639Y-16503254D01*
X19451639Y-16503254D02*
X19442115Y-16484207D01*
X19442115Y-16484207D02*
X19432592Y-16446112D01*
X19432592Y-16446112D02*
X19432592Y-16398492D01*
X19432592Y-16398492D02*
X19442115Y-16360397D01*
X19442115Y-16360397D02*
X19451639Y-16341350D01*
X19451639Y-16341350D02*
X19461163Y-16331826D01*
X19461163Y-16331826D02*
X19480211Y-16322302D01*
X19784973Y-16522302D02*
X19784973Y-16322302D01*
X19870687Y-16522302D02*
X19870687Y-16417540D01*
X19870687Y-16417540D02*
X19861163Y-16398492D01*
X19861163Y-16398492D02*
X19842116Y-16388969D01*
X19842116Y-16388969D02*
X19813544Y-16388969D01*
X19813544Y-16388969D02*
X19794496Y-16398492D01*
X19794496Y-16398492D02*
X19784973Y-16408016D01*
X19994496Y-16522302D02*
X19975449Y-16512778D01*
X19975449Y-16512778D02*
X19965925Y-16503254D01*
X19965925Y-16503254D02*
X19956401Y-16484207D01*
X19956401Y-16484207D02*
X19956401Y-16427064D01*
X19956401Y-16427064D02*
X19965925Y-16408016D01*
X19965925Y-16408016D02*
X19975449Y-16398492D01*
X19975449Y-16398492D02*
X19994496Y-16388969D01*
X19994496Y-16388969D02*
X20023068Y-16388969D01*
X20023068Y-16388969D02*
X20042116Y-16398492D01*
X20042116Y-16398492D02*
X20051639Y-16408016D01*
X20051639Y-16408016D02*
X20061163Y-16427064D01*
X20061163Y-16427064D02*
X20061163Y-16484207D01*
X20061163Y-16484207D02*
X20051639Y-16503254D01*
X20051639Y-16503254D02*
X20042116Y-16512778D01*
X20042116Y-16512778D02*
X20023068Y-16522302D01*
X20023068Y-16522302D02*
X19994496Y-16522302D01*
X20175449Y-16522302D02*
X20156401Y-16512778D01*
X20156401Y-16512778D02*
X20146877Y-16493731D01*
X20146877Y-16493731D02*
X20146877Y-16322302D01*
X20327830Y-16512778D02*
X20308782Y-16522302D01*
X20308782Y-16522302D02*
X20270687Y-16522302D01*
X20270687Y-16522302D02*
X20251639Y-16512778D01*
X20251639Y-16512778D02*
X20242116Y-16493731D01*
X20242116Y-16493731D02*
X20242116Y-16417540D01*
X20242116Y-16417540D02*
X20251639Y-16398492D01*
X20251639Y-16398492D02*
X20270687Y-16388969D01*
X20270687Y-16388969D02*
X20308782Y-16388969D01*
X20308782Y-16388969D02*
X20327830Y-16398492D01*
X20327830Y-16398492D02*
X20337354Y-16417540D01*
X20337354Y-16417540D02*
X20337354Y-16436588D01*
X20337354Y-16436588D02*
X20242116Y-16455635D01*
X20413544Y-16512778D02*
X20432592Y-16522302D01*
X20432592Y-16522302D02*
X20470687Y-16522302D01*
X20470687Y-16522302D02*
X20489735Y-16512778D01*
X20489735Y-16512778D02*
X20499258Y-16493731D01*
X20499258Y-16493731D02*
X20499258Y-16484207D01*
X20499258Y-16484207D02*
X20489735Y-16465159D01*
X20489735Y-16465159D02*
X20470687Y-16455635D01*
X20470687Y-16455635D02*
X20442116Y-16455635D01*
X20442116Y-16455635D02*
X20423068Y-16446112D01*
X20423068Y-16446112D02*
X20413544Y-16427064D01*
X20413544Y-16427064D02*
X20413544Y-16417540D01*
X20413544Y-16417540D02*
X20423068Y-16398492D01*
X20423068Y-16398492D02*
X20442116Y-16388969D01*
X20442116Y-16388969D02*
X20470687Y-16388969D01*
X20470687Y-16388969D02*
X20489735Y-16398492D01*
X20737354Y-16446112D02*
X20889735Y-16446112D01*
X20813544Y-16522302D02*
X20813544Y-16369921D01*
X21223068Y-16388969D02*
X21223068Y-16522302D01*
X21175449Y-16312778D02*
X21127830Y-16455635D01*
X21127830Y-16455635D02*
X21251639Y-16455635D01*
X21356401Y-16408016D02*
X21337354Y-16398492D01*
X21337354Y-16398492D02*
X21327830Y-16388969D01*
X21327830Y-16388969D02*
X21318306Y-16369921D01*
X21318306Y-16369921D02*
X21318306Y-16360397D01*
X21318306Y-16360397D02*
X21327830Y-16341350D01*
X21327830Y-16341350D02*
X21337354Y-16331826D01*
X21337354Y-16331826D02*
X21356401Y-16322302D01*
X21356401Y-16322302D02*
X21394497Y-16322302D01*
X21394497Y-16322302D02*
X21413544Y-16331826D01*
X21413544Y-16331826D02*
X21423068Y-16341350D01*
X21423068Y-16341350D02*
X21432592Y-16360397D01*
X21432592Y-16360397D02*
X21432592Y-16369921D01*
X21432592Y-16369921D02*
X21423068Y-16388969D01*
X21423068Y-16388969D02*
X21413544Y-16398492D01*
X21413544Y-16398492D02*
X21394497Y-16408016D01*
X21394497Y-16408016D02*
X21356401Y-16408016D01*
X21356401Y-16408016D02*
X21337354Y-16417540D01*
X21337354Y-16417540D02*
X21327830Y-16427064D01*
X21327830Y-16427064D02*
X21318306Y-16446112D01*
X21318306Y-16446112D02*
X21318306Y-16484207D01*
X21318306Y-16484207D02*
X21327830Y-16503254D01*
X21327830Y-16503254D02*
X21337354Y-16512778D01*
X21337354Y-16512778D02*
X21356401Y-16522302D01*
X21356401Y-16522302D02*
X21394497Y-16522302D01*
X21394497Y-16522302D02*
X21413544Y-16512778D01*
X21413544Y-16512778D02*
X21423068Y-16503254D01*
X21423068Y-16503254D02*
X21432592Y-16484207D01*
X21432592Y-16484207D02*
X21432592Y-16446112D01*
X21432592Y-16446112D02*
X21423068Y-16427064D01*
X21423068Y-16427064D02*
X21413544Y-16417540D01*
X21413544Y-16417540D02*
X21394497Y-16408016D01*
X21661163Y-16512778D02*
X21680211Y-16522302D01*
X21680211Y-16522302D02*
X21718306Y-16522302D01*
X21718306Y-16522302D02*
X21737354Y-16512778D01*
X21737354Y-16512778D02*
X21746878Y-16493731D01*
X21746878Y-16493731D02*
X21746878Y-16484207D01*
X21746878Y-16484207D02*
X21737354Y-16465159D01*
X21737354Y-16465159D02*
X21718306Y-16455635D01*
X21718306Y-16455635D02*
X21689735Y-16455635D01*
X21689735Y-16455635D02*
X21670687Y-16446112D01*
X21670687Y-16446112D02*
X21661163Y-16427064D01*
X21661163Y-16427064D02*
X21661163Y-16417540D01*
X21661163Y-16417540D02*
X21670687Y-16398492D01*
X21670687Y-16398492D02*
X21689735Y-16388969D01*
X21689735Y-16388969D02*
X21718306Y-16388969D01*
X21718306Y-16388969D02*
X21737354Y-16398492D01*
X21861163Y-16522302D02*
X21842116Y-16512778D01*
X21842116Y-16512778D02*
X21832592Y-16493731D01*
X21832592Y-16493731D02*
X21832592Y-16322302D01*
X21965925Y-16522302D02*
X21946878Y-16512778D01*
X21946878Y-16512778D02*
X21937354Y-16503254D01*
X21937354Y-16503254D02*
X21927830Y-16484207D01*
X21927830Y-16484207D02*
X21927830Y-16427064D01*
X21927830Y-16427064D02*
X21937354Y-16408016D01*
X21937354Y-16408016D02*
X21946878Y-16398492D01*
X21946878Y-16398492D02*
X21965925Y-16388969D01*
X21965925Y-16388969D02*
X21994497Y-16388969D01*
X21994497Y-16388969D02*
X22013544Y-16398492D01*
X22013544Y-16398492D02*
X22023068Y-16408016D01*
X22023068Y-16408016D02*
X22032592Y-16427064D01*
X22032592Y-16427064D02*
X22032592Y-16484207D01*
X22032592Y-16484207D02*
X22023068Y-16503254D01*
X22023068Y-16503254D02*
X22013544Y-16512778D01*
X22013544Y-16512778D02*
X21994497Y-16522302D01*
X21994497Y-16522302D02*
X21965925Y-16522302D01*
X22089735Y-16388969D02*
X22165925Y-16388969D01*
X22118306Y-16322302D02*
X22118306Y-16493731D01*
X22118306Y-16493731D02*
X22127830Y-16512778D01*
X22127830Y-16512778D02*
X22146878Y-16522302D01*
X22146878Y-16522302D02*
X22165925Y-16522302D01*
X22223068Y-16512778D02*
X22242116Y-16522302D01*
X22242116Y-16522302D02*
X22280211Y-16522302D01*
X22280211Y-16522302D02*
X22299259Y-16512778D01*
X22299259Y-16512778D02*
X22308782Y-16493731D01*
X22308782Y-16493731D02*
X22308782Y-16484207D01*
X22308782Y-16484207D02*
X22299259Y-16465159D01*
X22299259Y-16465159D02*
X22280211Y-16455635D01*
X22280211Y-16455635D02*
X22251640Y-16455635D01*
X22251640Y-16455635D02*
X22232592Y-16446112D01*
X22232592Y-16446112D02*
X22223068Y-16427064D01*
X22223068Y-16427064D02*
X22223068Y-16417540D01*
X22223068Y-16417540D02*
X22232592Y-16398492D01*
X22232592Y-16398492D02*
X22251640Y-16388969D01*
X22251640Y-16388969D02*
X22280211Y-16388969D01*
X22280211Y-16388969D02*
X22299259Y-16398492D01*
X22375449Y-16598492D02*
X22384973Y-16588969D01*
X22384973Y-16588969D02*
X22404020Y-16560397D01*
X22404020Y-16560397D02*
X22413544Y-16541350D01*
X22413544Y-16541350D02*
X22423068Y-16512778D01*
X22423068Y-16512778D02*
X22432592Y-16465159D01*
X22432592Y-16465159D02*
X22432592Y-16427064D01*
X22432592Y-16427064D02*
X22423068Y-16379445D01*
X22423068Y-16379445D02*
X22413544Y-16350873D01*
X22413544Y-16350873D02*
X22404020Y-16331826D01*
X22404020Y-16331826D02*
X22384973Y-16303254D01*
X22384973Y-16303254D02*
X22375449Y-16293731D01*
D12*
X15776218Y-16730174D02*
X15776218Y-16659463D01*
X15705506Y-16659463D01*
X15705506Y-16730174D01*
X15776218Y-16730174D01*
D11*
X16156401Y-16786302D02*
X16042115Y-16786302D01*
X16099258Y-16786302D02*
X16099258Y-16586302D01*
X16099258Y-16586302D02*
X16080210Y-16614873D01*
X16080210Y-16614873D02*
X16061163Y-16633921D01*
X16061163Y-16633921D02*
X16042115Y-16643445D01*
X16242115Y-16767254D02*
X16251639Y-16776778D01*
X16251639Y-16776778D02*
X16242115Y-16786302D01*
X16242115Y-16786302D02*
X16232591Y-16776778D01*
X16232591Y-16776778D02*
X16242115Y-16767254D01*
X16242115Y-16767254D02*
X16242115Y-16786302D01*
X16375448Y-16586302D02*
X16394496Y-16586302D01*
X16394496Y-16586302D02*
X16413544Y-16595826D01*
X16413544Y-16595826D02*
X16423067Y-16605350D01*
X16423067Y-16605350D02*
X16432591Y-16624397D01*
X16432591Y-16624397D02*
X16442115Y-16662492D01*
X16442115Y-16662492D02*
X16442115Y-16710112D01*
X16442115Y-16710112D02*
X16432591Y-16748207D01*
X16432591Y-16748207D02*
X16423067Y-16767254D01*
X16423067Y-16767254D02*
X16413544Y-16776778D01*
X16413544Y-16776778D02*
X16394496Y-16786302D01*
X16394496Y-16786302D02*
X16375448Y-16786302D01*
X16375448Y-16786302D02*
X16356401Y-16776778D01*
X16356401Y-16776778D02*
X16346877Y-16767254D01*
X16346877Y-16767254D02*
X16337353Y-16748207D01*
X16337353Y-16748207D02*
X16327829Y-16710112D01*
X16327829Y-16710112D02*
X16327829Y-16662492D01*
X16327829Y-16662492D02*
X16337353Y-16624397D01*
X16337353Y-16624397D02*
X16346877Y-16605350D01*
X16346877Y-16605350D02*
X16356401Y-16595826D01*
X16356401Y-16595826D02*
X16375448Y-16586302D01*
X16565925Y-16586302D02*
X16584972Y-16586302D01*
X16584972Y-16586302D02*
X16604020Y-16595826D01*
X16604020Y-16595826D02*
X16613544Y-16605350D01*
X16613544Y-16605350D02*
X16623067Y-16624397D01*
X16623067Y-16624397D02*
X16632591Y-16662492D01*
X16632591Y-16662492D02*
X16632591Y-16710112D01*
X16632591Y-16710112D02*
X16623067Y-16748207D01*
X16623067Y-16748207D02*
X16613544Y-16767254D01*
X16613544Y-16767254D02*
X16604020Y-16776778D01*
X16604020Y-16776778D02*
X16584972Y-16786302D01*
X16584972Y-16786302D02*
X16565925Y-16786302D01*
X16565925Y-16786302D02*
X16546877Y-16776778D01*
X16546877Y-16776778D02*
X16537353Y-16767254D01*
X16537353Y-16767254D02*
X16527829Y-16748207D01*
X16527829Y-16748207D02*
X16518306Y-16710112D01*
X16518306Y-16710112D02*
X16518306Y-16662492D01*
X16518306Y-16662492D02*
X16527829Y-16624397D01*
X16527829Y-16624397D02*
X16537353Y-16605350D01*
X16537353Y-16605350D02*
X16546877Y-16595826D01*
X16546877Y-16595826D02*
X16565925Y-16586302D01*
X16756401Y-16586302D02*
X16775448Y-16586302D01*
X16775448Y-16586302D02*
X16794496Y-16595826D01*
X16794496Y-16595826D02*
X16804020Y-16605350D01*
X16804020Y-16605350D02*
X16813544Y-16624397D01*
X16813544Y-16624397D02*
X16823068Y-16662492D01*
X16823068Y-16662492D02*
X16823068Y-16710112D01*
X16823068Y-16710112D02*
X16813544Y-16748207D01*
X16813544Y-16748207D02*
X16804020Y-16767254D01*
X16804020Y-16767254D02*
X16794496Y-16776778D01*
X16794496Y-16776778D02*
X16775448Y-16786302D01*
X16775448Y-16786302D02*
X16756401Y-16786302D01*
X16756401Y-16786302D02*
X16737353Y-16776778D01*
X16737353Y-16776778D02*
X16727829Y-16767254D01*
X16727829Y-16767254D02*
X16718306Y-16748207D01*
X16718306Y-16748207D02*
X16708782Y-16710112D01*
X16708782Y-16710112D02*
X16708782Y-16662492D01*
X16708782Y-16662492D02*
X16718306Y-16624397D01*
X16718306Y-16624397D02*
X16727829Y-16605350D01*
X16727829Y-16605350D02*
X16737353Y-16595826D01*
X16737353Y-16595826D02*
X16756401Y-16586302D01*
X16908782Y-16786302D02*
X16908782Y-16652969D01*
X16908782Y-16672016D02*
X16918306Y-16662492D01*
X16918306Y-16662492D02*
X16937353Y-16652969D01*
X16937353Y-16652969D02*
X16965925Y-16652969D01*
X16965925Y-16652969D02*
X16984972Y-16662492D01*
X16984972Y-16662492D02*
X16994496Y-16681540D01*
X16994496Y-16681540D02*
X16994496Y-16786302D01*
X16994496Y-16681540D02*
X17004020Y-16662492D01*
X17004020Y-16662492D02*
X17023068Y-16652969D01*
X17023068Y-16652969D02*
X17051639Y-16652969D01*
X17051639Y-16652969D02*
X17070687Y-16662492D01*
X17070687Y-16662492D02*
X17080210Y-16681540D01*
X17080210Y-16681540D02*
X17080210Y-16786302D01*
X17175449Y-16786302D02*
X17175449Y-16652969D01*
X17175449Y-16672016D02*
X17184972Y-16662492D01*
X17184972Y-16662492D02*
X17204020Y-16652969D01*
X17204020Y-16652969D02*
X17232591Y-16652969D01*
X17232591Y-16652969D02*
X17251639Y-16662492D01*
X17251639Y-16662492D02*
X17261163Y-16681540D01*
X17261163Y-16681540D02*
X17261163Y-16786302D01*
X17261163Y-16681540D02*
X17270687Y-16662492D01*
X17270687Y-16662492D02*
X17289734Y-16652969D01*
X17289734Y-16652969D02*
X17318306Y-16652969D01*
X17318306Y-16652969D02*
X17337353Y-16662492D01*
X17337353Y-16662492D02*
X17346877Y-16681540D01*
X17346877Y-16681540D02*
X17346877Y-16786302D01*
X17737353Y-16576778D02*
X17565925Y-16833921D01*
X17994496Y-16586302D02*
X18013544Y-16586302D01*
X18013544Y-16586302D02*
X18032592Y-16595826D01*
X18032592Y-16595826D02*
X18042115Y-16605350D01*
X18042115Y-16605350D02*
X18051639Y-16624397D01*
X18051639Y-16624397D02*
X18061163Y-16662492D01*
X18061163Y-16662492D02*
X18061163Y-16710112D01*
X18061163Y-16710112D02*
X18051639Y-16748207D01*
X18051639Y-16748207D02*
X18042115Y-16767254D01*
X18042115Y-16767254D02*
X18032592Y-16776778D01*
X18032592Y-16776778D02*
X18013544Y-16786302D01*
X18013544Y-16786302D02*
X17994496Y-16786302D01*
X17994496Y-16786302D02*
X17975449Y-16776778D01*
X17975449Y-16776778D02*
X17965925Y-16767254D01*
X17965925Y-16767254D02*
X17956401Y-16748207D01*
X17956401Y-16748207D02*
X17946877Y-16710112D01*
X17946877Y-16710112D02*
X17946877Y-16662492D01*
X17946877Y-16662492D02*
X17956401Y-16624397D01*
X17956401Y-16624397D02*
X17965925Y-16605350D01*
X17965925Y-16605350D02*
X17975449Y-16595826D01*
X17975449Y-16595826D02*
X17994496Y-16586302D01*
X18146877Y-16767254D02*
X18156401Y-16776778D01*
X18156401Y-16776778D02*
X18146877Y-16786302D01*
X18146877Y-16786302D02*
X18137353Y-16776778D01*
X18137353Y-16776778D02*
X18146877Y-16767254D01*
X18146877Y-16767254D02*
X18146877Y-16786302D01*
X18280211Y-16586302D02*
X18299258Y-16586302D01*
X18299258Y-16586302D02*
X18318306Y-16595826D01*
X18318306Y-16595826D02*
X18327830Y-16605350D01*
X18327830Y-16605350D02*
X18337353Y-16624397D01*
X18337353Y-16624397D02*
X18346877Y-16662492D01*
X18346877Y-16662492D02*
X18346877Y-16710112D01*
X18346877Y-16710112D02*
X18337353Y-16748207D01*
X18337353Y-16748207D02*
X18327830Y-16767254D01*
X18327830Y-16767254D02*
X18318306Y-16776778D01*
X18318306Y-16776778D02*
X18299258Y-16786302D01*
X18299258Y-16786302D02*
X18280211Y-16786302D01*
X18280211Y-16786302D02*
X18261163Y-16776778D01*
X18261163Y-16776778D02*
X18251639Y-16767254D01*
X18251639Y-16767254D02*
X18242115Y-16748207D01*
X18242115Y-16748207D02*
X18232592Y-16710112D01*
X18232592Y-16710112D02*
X18232592Y-16662492D01*
X18232592Y-16662492D02*
X18242115Y-16624397D01*
X18242115Y-16624397D02*
X18251639Y-16605350D01*
X18251639Y-16605350D02*
X18261163Y-16595826D01*
X18261163Y-16595826D02*
X18280211Y-16586302D01*
X18413544Y-16586302D02*
X18537353Y-16586302D01*
X18537353Y-16586302D02*
X18470687Y-16662492D01*
X18470687Y-16662492D02*
X18499258Y-16662492D01*
X18499258Y-16662492D02*
X18518306Y-16672016D01*
X18518306Y-16672016D02*
X18527830Y-16681540D01*
X18527830Y-16681540D02*
X18537353Y-16700588D01*
X18537353Y-16700588D02*
X18537353Y-16748207D01*
X18537353Y-16748207D02*
X18527830Y-16767254D01*
X18527830Y-16767254D02*
X18518306Y-16776778D01*
X18518306Y-16776778D02*
X18499258Y-16786302D01*
X18499258Y-16786302D02*
X18442115Y-16786302D01*
X18442115Y-16786302D02*
X18423068Y-16776778D01*
X18423068Y-16776778D02*
X18413544Y-16767254D01*
X18632592Y-16786302D02*
X18670687Y-16786302D01*
X18670687Y-16786302D02*
X18689734Y-16776778D01*
X18689734Y-16776778D02*
X18699258Y-16767254D01*
X18699258Y-16767254D02*
X18718306Y-16738683D01*
X18718306Y-16738683D02*
X18727830Y-16700588D01*
X18727830Y-16700588D02*
X18727830Y-16624397D01*
X18727830Y-16624397D02*
X18718306Y-16605350D01*
X18718306Y-16605350D02*
X18708782Y-16595826D01*
X18708782Y-16595826D02*
X18689734Y-16586302D01*
X18689734Y-16586302D02*
X18651639Y-16586302D01*
X18651639Y-16586302D02*
X18632592Y-16595826D01*
X18632592Y-16595826D02*
X18623068Y-16605350D01*
X18623068Y-16605350D02*
X18613544Y-16624397D01*
X18613544Y-16624397D02*
X18613544Y-16672016D01*
X18613544Y-16672016D02*
X18623068Y-16691064D01*
X18623068Y-16691064D02*
X18632592Y-16700588D01*
X18632592Y-16700588D02*
X18651639Y-16710112D01*
X18651639Y-16710112D02*
X18689734Y-16710112D01*
X18689734Y-16710112D02*
X18708782Y-16700588D01*
X18708782Y-16700588D02*
X18718306Y-16691064D01*
X18718306Y-16691064D02*
X18727830Y-16672016D01*
X18899258Y-16652969D02*
X18899258Y-16786302D01*
X18851639Y-16576778D02*
X18804020Y-16719635D01*
X18804020Y-16719635D02*
X18927830Y-16719635D01*
X18994496Y-16586302D02*
X18994496Y-16624397D01*
X19070687Y-16586302D02*
X19070687Y-16624397D01*
X19365925Y-16862493D02*
X19356401Y-16852969D01*
X19356401Y-16852969D02*
X19337354Y-16824397D01*
X19337354Y-16824397D02*
X19327830Y-16805350D01*
X19327830Y-16805350D02*
X19318306Y-16776778D01*
X19318306Y-16776778D02*
X19308782Y-16729159D01*
X19308782Y-16729159D02*
X19308782Y-16691064D01*
X19308782Y-16691064D02*
X19318306Y-16643445D01*
X19318306Y-16643445D02*
X19327830Y-16614873D01*
X19327830Y-16614873D02*
X19337354Y-16595826D01*
X19337354Y-16595826D02*
X19356401Y-16567254D01*
X19356401Y-16567254D02*
X19365925Y-16557731D01*
X19546877Y-16786302D02*
X19432592Y-16786302D01*
X19489734Y-16786302D02*
X19489734Y-16586302D01*
X19489734Y-16586302D02*
X19470687Y-16614873D01*
X19470687Y-16614873D02*
X19451639Y-16633921D01*
X19451639Y-16633921D02*
X19432592Y-16643445D01*
X19718306Y-16586302D02*
X19680211Y-16586302D01*
X19680211Y-16586302D02*
X19661163Y-16595826D01*
X19661163Y-16595826D02*
X19651639Y-16605350D01*
X19651639Y-16605350D02*
X19632592Y-16633921D01*
X19632592Y-16633921D02*
X19623068Y-16672016D01*
X19623068Y-16672016D02*
X19623068Y-16748207D01*
X19623068Y-16748207D02*
X19632592Y-16767254D01*
X19632592Y-16767254D02*
X19642115Y-16776778D01*
X19642115Y-16776778D02*
X19661163Y-16786302D01*
X19661163Y-16786302D02*
X19699258Y-16786302D01*
X19699258Y-16786302D02*
X19718306Y-16776778D01*
X19718306Y-16776778D02*
X19727830Y-16767254D01*
X19727830Y-16767254D02*
X19737354Y-16748207D01*
X19737354Y-16748207D02*
X19737354Y-16700588D01*
X19737354Y-16700588D02*
X19727830Y-16681540D01*
X19727830Y-16681540D02*
X19718306Y-16672016D01*
X19718306Y-16672016D02*
X19699258Y-16662492D01*
X19699258Y-16662492D02*
X19661163Y-16662492D01*
X19661163Y-16662492D02*
X19642115Y-16672016D01*
X19642115Y-16672016D02*
X19632592Y-16681540D01*
X19632592Y-16681540D02*
X19623068Y-16700588D01*
X19975449Y-16786302D02*
X19975449Y-16586302D01*
X20061163Y-16786302D02*
X20061163Y-16681540D01*
X20061163Y-16681540D02*
X20051639Y-16662492D01*
X20051639Y-16662492D02*
X20032592Y-16652969D01*
X20032592Y-16652969D02*
X20004020Y-16652969D01*
X20004020Y-16652969D02*
X19984973Y-16662492D01*
X19984973Y-16662492D02*
X19975449Y-16672016D01*
X20184973Y-16786302D02*
X20165925Y-16776778D01*
X20165925Y-16776778D02*
X20156401Y-16767254D01*
X20156401Y-16767254D02*
X20146877Y-16748207D01*
X20146877Y-16748207D02*
X20146877Y-16691064D01*
X20146877Y-16691064D02*
X20156401Y-16672016D01*
X20156401Y-16672016D02*
X20165925Y-16662492D01*
X20165925Y-16662492D02*
X20184973Y-16652969D01*
X20184973Y-16652969D02*
X20213544Y-16652969D01*
X20213544Y-16652969D02*
X20232592Y-16662492D01*
X20232592Y-16662492D02*
X20242116Y-16672016D01*
X20242116Y-16672016D02*
X20251639Y-16691064D01*
X20251639Y-16691064D02*
X20251639Y-16748207D01*
X20251639Y-16748207D02*
X20242116Y-16767254D01*
X20242116Y-16767254D02*
X20232592Y-16776778D01*
X20232592Y-16776778D02*
X20213544Y-16786302D01*
X20213544Y-16786302D02*
X20184973Y-16786302D01*
X20365925Y-16786302D02*
X20346877Y-16776778D01*
X20346877Y-16776778D02*
X20337354Y-16757731D01*
X20337354Y-16757731D02*
X20337354Y-16586302D01*
X20518306Y-16776778D02*
X20499258Y-16786302D01*
X20499258Y-16786302D02*
X20461163Y-16786302D01*
X20461163Y-16786302D02*
X20442116Y-16776778D01*
X20442116Y-16776778D02*
X20432592Y-16757731D01*
X20432592Y-16757731D02*
X20432592Y-16681540D01*
X20432592Y-16681540D02*
X20442116Y-16662492D01*
X20442116Y-16662492D02*
X20461163Y-16652969D01*
X20461163Y-16652969D02*
X20499258Y-16652969D01*
X20499258Y-16652969D02*
X20518306Y-16662492D01*
X20518306Y-16662492D02*
X20527830Y-16681540D01*
X20527830Y-16681540D02*
X20527830Y-16700588D01*
X20527830Y-16700588D02*
X20432592Y-16719635D01*
X20604020Y-16776778D02*
X20623068Y-16786302D01*
X20623068Y-16786302D02*
X20661163Y-16786302D01*
X20661163Y-16786302D02*
X20680211Y-16776778D01*
X20680211Y-16776778D02*
X20689735Y-16757731D01*
X20689735Y-16757731D02*
X20689735Y-16748207D01*
X20689735Y-16748207D02*
X20680211Y-16729159D01*
X20680211Y-16729159D02*
X20661163Y-16719635D01*
X20661163Y-16719635D02*
X20632592Y-16719635D01*
X20632592Y-16719635D02*
X20613544Y-16710112D01*
X20613544Y-16710112D02*
X20604020Y-16691064D01*
X20604020Y-16691064D02*
X20604020Y-16681540D01*
X20604020Y-16681540D02*
X20613544Y-16662492D01*
X20613544Y-16662492D02*
X20632592Y-16652969D01*
X20632592Y-16652969D02*
X20661163Y-16652969D01*
X20661163Y-16652969D02*
X20680211Y-16662492D01*
X20927830Y-16710112D02*
X21080211Y-16710112D01*
X21004020Y-16786302D02*
X21004020Y-16633921D01*
X21413544Y-16652969D02*
X21413544Y-16786302D01*
X21365925Y-16576778D02*
X21318306Y-16719635D01*
X21318306Y-16719635D02*
X21442116Y-16719635D01*
X21661163Y-16776778D02*
X21680211Y-16786302D01*
X21680211Y-16786302D02*
X21718306Y-16786302D01*
X21718306Y-16786302D02*
X21737354Y-16776778D01*
X21737354Y-16776778D02*
X21746878Y-16757731D01*
X21746878Y-16757731D02*
X21746878Y-16748207D01*
X21746878Y-16748207D02*
X21737354Y-16729159D01*
X21737354Y-16729159D02*
X21718306Y-16719635D01*
X21718306Y-16719635D02*
X21689735Y-16719635D01*
X21689735Y-16719635D02*
X21670687Y-16710112D01*
X21670687Y-16710112D02*
X21661163Y-16691064D01*
X21661163Y-16691064D02*
X21661163Y-16681540D01*
X21661163Y-16681540D02*
X21670687Y-16662492D01*
X21670687Y-16662492D02*
X21689735Y-16652969D01*
X21689735Y-16652969D02*
X21718306Y-16652969D01*
X21718306Y-16652969D02*
X21737354Y-16662492D01*
X21861163Y-16786302D02*
X21842116Y-16776778D01*
X21842116Y-16776778D02*
X21832592Y-16757731D01*
X21832592Y-16757731D02*
X21832592Y-16586302D01*
X21965925Y-16786302D02*
X21946878Y-16776778D01*
X21946878Y-16776778D02*
X21937354Y-16767254D01*
X21937354Y-16767254D02*
X21927830Y-16748207D01*
X21927830Y-16748207D02*
X21927830Y-16691064D01*
X21927830Y-16691064D02*
X21937354Y-16672016D01*
X21937354Y-16672016D02*
X21946878Y-16662492D01*
X21946878Y-16662492D02*
X21965925Y-16652969D01*
X21965925Y-16652969D02*
X21994497Y-16652969D01*
X21994497Y-16652969D02*
X22013544Y-16662492D01*
X22013544Y-16662492D02*
X22023068Y-16672016D01*
X22023068Y-16672016D02*
X22032592Y-16691064D01*
X22032592Y-16691064D02*
X22032592Y-16748207D01*
X22032592Y-16748207D02*
X22023068Y-16767254D01*
X22023068Y-16767254D02*
X22013544Y-16776778D01*
X22013544Y-16776778D02*
X21994497Y-16786302D01*
X21994497Y-16786302D02*
X21965925Y-16786302D01*
X22089735Y-16652969D02*
X22165925Y-16652969D01*
X22118306Y-16586302D02*
X22118306Y-16757731D01*
X22118306Y-16757731D02*
X22127830Y-16776778D01*
X22127830Y-16776778D02*
X22146878Y-16786302D01*
X22146878Y-16786302D02*
X22165925Y-16786302D01*
X22223068Y-16776778D02*
X22242116Y-16786302D01*
X22242116Y-16786302D02*
X22280211Y-16786302D01*
X22280211Y-16786302D02*
X22299259Y-16776778D01*
X22299259Y-16776778D02*
X22308782Y-16757731D01*
X22308782Y-16757731D02*
X22308782Y-16748207D01*
X22308782Y-16748207D02*
X22299259Y-16729159D01*
X22299259Y-16729159D02*
X22280211Y-16719635D01*
X22280211Y-16719635D02*
X22251640Y-16719635D01*
X22251640Y-16719635D02*
X22232592Y-16710112D01*
X22232592Y-16710112D02*
X22223068Y-16691064D01*
X22223068Y-16691064D02*
X22223068Y-16681540D01*
X22223068Y-16681540D02*
X22232592Y-16662492D01*
X22232592Y-16662492D02*
X22251640Y-16652969D01*
X22251640Y-16652969D02*
X22280211Y-16652969D01*
X22280211Y-16652969D02*
X22299259Y-16662492D01*
X22375449Y-16862493D02*
X22384973Y-16852969D01*
X22384973Y-16852969D02*
X22404020Y-16824397D01*
X22404020Y-16824397D02*
X22413544Y-16805350D01*
X22413544Y-16805350D02*
X22423068Y-16776778D01*
X22423068Y-16776778D02*
X22432592Y-16729159D01*
X22432592Y-16729159D02*
X22432592Y-16691064D01*
X22432592Y-16691064D02*
X22423068Y-16643445D01*
X22423068Y-16643445D02*
X22413544Y-16614873D01*
X22413544Y-16614873D02*
X22404020Y-16595826D01*
X22404020Y-16595826D02*
X22384973Y-16567254D01*
X22384973Y-16567254D02*
X22375449Y-16557731D01*
M02*
