M48
; DRILL file {KiCad 8.0.5} date 2024-12-17T00:54:34+0800
; FORMAT={-:-/ absolute / inch / decimal}
; #@! TF.CreationDate,2024-12-17T00:54:34+08:00
; #@! TF.GenerationSoftware,Kicad,Pcbnew,8.0.5
; #@! TF.FileFunction,NonPlated,1,2,NPTH
FMAT,2
INCH
; #@! TA.AperFunction,NonPlated,NPTH,ComponentDrill
T1C0.0591
; #@! TA.AperFunction,NonPlated,NPTH,ComponentDrill
T2C0.0630
%
G90
G05
T1
X6.4533Y-2.2323
X6.4533Y-2.6795
X6.4533Y-3.1266
X6.4533Y-3.5738
X6.4533Y-4.021
X6.4533Y-4.4682
X6.4533Y-4.9154
X10.8287Y-2.2254
X10.8287Y-2.6793
X10.8287Y-3.1332
X10.8287Y-3.5871
X10.8287Y-4.041
X10.8287Y-4.4949
X10.8287Y-4.9488
T2
X6.7329Y-2.2323
X6.7329Y-2.6795
X6.7329Y-3.1266
X6.7329Y-3.5738
X6.7329Y-4.021
X6.7329Y-4.4682
X6.7329Y-4.9154
X7.1122Y-1.9567
X10.5492Y-2.2254
X10.5492Y-2.6793
X10.5492Y-3.1332
X10.5492Y-3.5871
X10.5492Y-4.041
X10.5492Y-4.4949
X10.5492Y-4.9488
M30
