%TF.GenerationSoftware,KiCad,Pcbnew,8.0.5*%
%TF.CreationDate,2024-12-18T14:45:40+08:00*%
%TF.ProjectId,hardware,68617264-7761-4726-952e-6b696361645f,rev?*%
%TF.SameCoordinates,Original*%
%TF.FileFunction,Drillmap*%
%TF.FilePolarity,Positive*%
%FSLAX45Y45*%
G04 Gerber Fmt 4.5, Leading zero omitted, Abs format (unit mm)*
G04 Created by KiCad (PCBNEW 8.0.5) date 2024-12-18 14:45:40*
%MOMM*%
%LPD*%
G01*
G04 APERTURE LIST*
%ADD10C,0.050000*%
%ADD11C,0.200000*%
%ADD12C,0.160000*%
G04 APERTURE END LIST*
D10*
X15793362Y-4348903D02*
X28115000Y-4348903D01*
X28134000Y-15229841D02*
X28134000Y-15260159D01*
X15793362Y-15260318D02*
X15793362Y-4348903D01*
D11*
X16352260Y-14700000D02*
G75*
G02*
X16012260Y-14700000I-170000J0D01*
G01*
X16012260Y-14700000D02*
G75*
G02*
X16352260Y-14700000I170000J0D01*
G01*
X27907260Y-4915000D02*
G75*
G02*
X27567260Y-4915000I-170000J0D01*
G01*
X27567260Y-4915000D02*
G75*
G02*
X27907260Y-4915000I170000J0D01*
G01*
X16357260Y-4915000D02*
G75*
G02*
X16017260Y-4915000I-170000J0D01*
G01*
X16017260Y-4915000D02*
G75*
G02*
X16357260Y-4915000I170000J0D01*
G01*
D10*
X28134000Y-15229841D02*
X28134000Y-4348743D01*
X28134000Y-4348743D02*
X28127260Y-4348743D01*
X28127260Y-4348903D02*
X28115000Y-4348903D01*
D11*
X27907260Y-14700000D02*
G75*
G02*
X27567260Y-14700000I-170000J0D01*
G01*
X27567260Y-14700000D02*
G75*
G02*
X27907260Y-14700000I170000J0D01*
G01*
D10*
X15793362Y-15260318D02*
X28134000Y-15260318D01*
D11*
D12*
X16120000Y-5655000D02*
X16280000Y-5815000D01*
X16280000Y-5655000D02*
X16120000Y-5815000D01*
D11*
X16051639Y-15574302D02*
X16051639Y-15374302D01*
X16051639Y-15374302D02*
X16099258Y-15374302D01*
X16099258Y-15374302D02*
X16127829Y-15383826D01*
X16127829Y-15383826D02*
X16146877Y-15402873D01*
X16146877Y-15402873D02*
X16156401Y-15421921D01*
X16156401Y-15421921D02*
X16165925Y-15460016D01*
X16165925Y-15460016D02*
X16165925Y-15488588D01*
X16165925Y-15488588D02*
X16156401Y-15526683D01*
X16156401Y-15526683D02*
X16146877Y-15545731D01*
X16146877Y-15545731D02*
X16127829Y-15564778D01*
X16127829Y-15564778D02*
X16099258Y-15574302D01*
X16099258Y-15574302D02*
X16051639Y-15574302D01*
X16251639Y-15574302D02*
X16251639Y-15440969D01*
X16251639Y-15479064D02*
X16261163Y-15460016D01*
X16261163Y-15460016D02*
X16270686Y-15450492D01*
X16270686Y-15450492D02*
X16289734Y-15440969D01*
X16289734Y-15440969D02*
X16308782Y-15440969D01*
X16375448Y-15574302D02*
X16375448Y-15440969D01*
X16375448Y-15374302D02*
X16365925Y-15383826D01*
X16365925Y-15383826D02*
X16375448Y-15393350D01*
X16375448Y-15393350D02*
X16384972Y-15383826D01*
X16384972Y-15383826D02*
X16375448Y-15374302D01*
X16375448Y-15374302D02*
X16375448Y-15393350D01*
X16499258Y-15574302D02*
X16480210Y-15564778D01*
X16480210Y-15564778D02*
X16470686Y-15545731D01*
X16470686Y-15545731D02*
X16470686Y-15374302D01*
X16604020Y-15574302D02*
X16584972Y-15564778D01*
X16584972Y-15564778D02*
X16575448Y-15545731D01*
X16575448Y-15545731D02*
X16575448Y-15374302D01*
X16832591Y-15574302D02*
X16832591Y-15374302D01*
X16832591Y-15374302D02*
X16899258Y-15517159D01*
X16899258Y-15517159D02*
X16965925Y-15374302D01*
X16965925Y-15374302D02*
X16965925Y-15574302D01*
X17146877Y-15574302D02*
X17146877Y-15469540D01*
X17146877Y-15469540D02*
X17137353Y-15450492D01*
X17137353Y-15450492D02*
X17118306Y-15440969D01*
X17118306Y-15440969D02*
X17080210Y-15440969D01*
X17080210Y-15440969D02*
X17061163Y-15450492D01*
X17146877Y-15564778D02*
X17127829Y-15574302D01*
X17127829Y-15574302D02*
X17080210Y-15574302D01*
X17080210Y-15574302D02*
X17061163Y-15564778D01*
X17061163Y-15564778D02*
X17051639Y-15545731D01*
X17051639Y-15545731D02*
X17051639Y-15526683D01*
X17051639Y-15526683D02*
X17061163Y-15507635D01*
X17061163Y-15507635D02*
X17080210Y-15498112D01*
X17080210Y-15498112D02*
X17127829Y-15498112D01*
X17127829Y-15498112D02*
X17146877Y-15488588D01*
X17242115Y-15440969D02*
X17242115Y-15640969D01*
X17242115Y-15450492D02*
X17261163Y-15440969D01*
X17261163Y-15440969D02*
X17299258Y-15440969D01*
X17299258Y-15440969D02*
X17318306Y-15450492D01*
X17318306Y-15450492D02*
X17327829Y-15460016D01*
X17327829Y-15460016D02*
X17337353Y-15479064D01*
X17337353Y-15479064D02*
X17337353Y-15536207D01*
X17337353Y-15536207D02*
X17327829Y-15555254D01*
X17327829Y-15555254D02*
X17318306Y-15564778D01*
X17318306Y-15564778D02*
X17299258Y-15574302D01*
X17299258Y-15574302D02*
X17261163Y-15574302D01*
X17261163Y-15574302D02*
X17242115Y-15564778D01*
X17423068Y-15555254D02*
X17432591Y-15564778D01*
X17432591Y-15564778D02*
X17423068Y-15574302D01*
X17423068Y-15574302D02*
X17413544Y-15564778D01*
X17413544Y-15564778D02*
X17423068Y-15555254D01*
X17423068Y-15555254D02*
X17423068Y-15574302D01*
X17423068Y-15450492D02*
X17432591Y-15460016D01*
X17432591Y-15460016D02*
X17423068Y-15469540D01*
X17423068Y-15469540D02*
X17413544Y-15460016D01*
X17413544Y-15460016D02*
X17423068Y-15450492D01*
X17423068Y-15450492D02*
X17423068Y-15469540D01*
D12*
X15630862Y-15822818D02*
X15790862Y-15982818D01*
X15790862Y-15822818D02*
X15630862Y-15982818D01*
D11*
X16156401Y-15994302D02*
X16042115Y-15994302D01*
X16099258Y-15994302D02*
X16099258Y-15794302D01*
X16099258Y-15794302D02*
X16080210Y-15822873D01*
X16080210Y-15822873D02*
X16061163Y-15841921D01*
X16061163Y-15841921D02*
X16042115Y-15851445D01*
X16242115Y-15975254D02*
X16251639Y-15984778D01*
X16251639Y-15984778D02*
X16242115Y-15994302D01*
X16242115Y-15994302D02*
X16232591Y-15984778D01*
X16232591Y-15984778D02*
X16242115Y-15975254D01*
X16242115Y-15975254D02*
X16242115Y-15994302D01*
X16423067Y-15794302D02*
X16384972Y-15794302D01*
X16384972Y-15794302D02*
X16365925Y-15803826D01*
X16365925Y-15803826D02*
X16356401Y-15813350D01*
X16356401Y-15813350D02*
X16337353Y-15841921D01*
X16337353Y-15841921D02*
X16327829Y-15880016D01*
X16327829Y-15880016D02*
X16327829Y-15956207D01*
X16327829Y-15956207D02*
X16337353Y-15975254D01*
X16337353Y-15975254D02*
X16346877Y-15984778D01*
X16346877Y-15984778D02*
X16365925Y-15994302D01*
X16365925Y-15994302D02*
X16404020Y-15994302D01*
X16404020Y-15994302D02*
X16423067Y-15984778D01*
X16423067Y-15984778D02*
X16432591Y-15975254D01*
X16432591Y-15975254D02*
X16442115Y-15956207D01*
X16442115Y-15956207D02*
X16442115Y-15908588D01*
X16442115Y-15908588D02*
X16432591Y-15889540D01*
X16432591Y-15889540D02*
X16423067Y-15880016D01*
X16423067Y-15880016D02*
X16404020Y-15870492D01*
X16404020Y-15870492D02*
X16365925Y-15870492D01*
X16365925Y-15870492D02*
X16346877Y-15880016D01*
X16346877Y-15880016D02*
X16337353Y-15889540D01*
X16337353Y-15889540D02*
X16327829Y-15908588D01*
X16565925Y-15794302D02*
X16584972Y-15794302D01*
X16584972Y-15794302D02*
X16604020Y-15803826D01*
X16604020Y-15803826D02*
X16613544Y-15813350D01*
X16613544Y-15813350D02*
X16623067Y-15832397D01*
X16623067Y-15832397D02*
X16632591Y-15870492D01*
X16632591Y-15870492D02*
X16632591Y-15918112D01*
X16632591Y-15918112D02*
X16623067Y-15956207D01*
X16623067Y-15956207D02*
X16613544Y-15975254D01*
X16613544Y-15975254D02*
X16604020Y-15984778D01*
X16604020Y-15984778D02*
X16584972Y-15994302D01*
X16584972Y-15994302D02*
X16565925Y-15994302D01*
X16565925Y-15994302D02*
X16546877Y-15984778D01*
X16546877Y-15984778D02*
X16537353Y-15975254D01*
X16537353Y-15975254D02*
X16527829Y-15956207D01*
X16527829Y-15956207D02*
X16518306Y-15918112D01*
X16518306Y-15918112D02*
X16518306Y-15870492D01*
X16518306Y-15870492D02*
X16527829Y-15832397D01*
X16527829Y-15832397D02*
X16537353Y-15813350D01*
X16537353Y-15813350D02*
X16546877Y-15803826D01*
X16546877Y-15803826D02*
X16565925Y-15794302D01*
X16756401Y-15794302D02*
X16775448Y-15794302D01*
X16775448Y-15794302D02*
X16794496Y-15803826D01*
X16794496Y-15803826D02*
X16804020Y-15813350D01*
X16804020Y-15813350D02*
X16813544Y-15832397D01*
X16813544Y-15832397D02*
X16823068Y-15870492D01*
X16823068Y-15870492D02*
X16823068Y-15918112D01*
X16823068Y-15918112D02*
X16813544Y-15956207D01*
X16813544Y-15956207D02*
X16804020Y-15975254D01*
X16804020Y-15975254D02*
X16794496Y-15984778D01*
X16794496Y-15984778D02*
X16775448Y-15994302D01*
X16775448Y-15994302D02*
X16756401Y-15994302D01*
X16756401Y-15994302D02*
X16737353Y-15984778D01*
X16737353Y-15984778D02*
X16727829Y-15975254D01*
X16727829Y-15975254D02*
X16718306Y-15956207D01*
X16718306Y-15956207D02*
X16708782Y-15918112D01*
X16708782Y-15918112D02*
X16708782Y-15870492D01*
X16708782Y-15870492D02*
X16718306Y-15832397D01*
X16718306Y-15832397D02*
X16727829Y-15813350D01*
X16727829Y-15813350D02*
X16737353Y-15803826D01*
X16737353Y-15803826D02*
X16756401Y-15794302D01*
X16908782Y-15994302D02*
X16908782Y-15860969D01*
X16908782Y-15880016D02*
X16918306Y-15870492D01*
X16918306Y-15870492D02*
X16937353Y-15860969D01*
X16937353Y-15860969D02*
X16965925Y-15860969D01*
X16965925Y-15860969D02*
X16984972Y-15870492D01*
X16984972Y-15870492D02*
X16994496Y-15889540D01*
X16994496Y-15889540D02*
X16994496Y-15994302D01*
X16994496Y-15889540D02*
X17004020Y-15870492D01*
X17004020Y-15870492D02*
X17023068Y-15860969D01*
X17023068Y-15860969D02*
X17051639Y-15860969D01*
X17051639Y-15860969D02*
X17070687Y-15870492D01*
X17070687Y-15870492D02*
X17080210Y-15889540D01*
X17080210Y-15889540D02*
X17080210Y-15994302D01*
X17175449Y-15994302D02*
X17175449Y-15860969D01*
X17175449Y-15880016D02*
X17184972Y-15870492D01*
X17184972Y-15870492D02*
X17204020Y-15860969D01*
X17204020Y-15860969D02*
X17232591Y-15860969D01*
X17232591Y-15860969D02*
X17251639Y-15870492D01*
X17251639Y-15870492D02*
X17261163Y-15889540D01*
X17261163Y-15889540D02*
X17261163Y-15994302D01*
X17261163Y-15889540D02*
X17270687Y-15870492D01*
X17270687Y-15870492D02*
X17289734Y-15860969D01*
X17289734Y-15860969D02*
X17318306Y-15860969D01*
X17318306Y-15860969D02*
X17337353Y-15870492D01*
X17337353Y-15870492D02*
X17346877Y-15889540D01*
X17346877Y-15889540D02*
X17346877Y-15994302D01*
X17737353Y-15784778D02*
X17565925Y-16041921D01*
X17994496Y-15794302D02*
X18013544Y-15794302D01*
X18013544Y-15794302D02*
X18032592Y-15803826D01*
X18032592Y-15803826D02*
X18042115Y-15813350D01*
X18042115Y-15813350D02*
X18051639Y-15832397D01*
X18051639Y-15832397D02*
X18061163Y-15870492D01*
X18061163Y-15870492D02*
X18061163Y-15918112D01*
X18061163Y-15918112D02*
X18051639Y-15956207D01*
X18051639Y-15956207D02*
X18042115Y-15975254D01*
X18042115Y-15975254D02*
X18032592Y-15984778D01*
X18032592Y-15984778D02*
X18013544Y-15994302D01*
X18013544Y-15994302D02*
X17994496Y-15994302D01*
X17994496Y-15994302D02*
X17975449Y-15984778D01*
X17975449Y-15984778D02*
X17965925Y-15975254D01*
X17965925Y-15975254D02*
X17956401Y-15956207D01*
X17956401Y-15956207D02*
X17946877Y-15918112D01*
X17946877Y-15918112D02*
X17946877Y-15870492D01*
X17946877Y-15870492D02*
X17956401Y-15832397D01*
X17956401Y-15832397D02*
X17965925Y-15813350D01*
X17965925Y-15813350D02*
X17975449Y-15803826D01*
X17975449Y-15803826D02*
X17994496Y-15794302D01*
X18146877Y-15975254D02*
X18156401Y-15984778D01*
X18156401Y-15984778D02*
X18146877Y-15994302D01*
X18146877Y-15994302D02*
X18137353Y-15984778D01*
X18137353Y-15984778D02*
X18146877Y-15975254D01*
X18146877Y-15975254D02*
X18146877Y-15994302D01*
X18280211Y-15794302D02*
X18299258Y-15794302D01*
X18299258Y-15794302D02*
X18318306Y-15803826D01*
X18318306Y-15803826D02*
X18327830Y-15813350D01*
X18327830Y-15813350D02*
X18337353Y-15832397D01*
X18337353Y-15832397D02*
X18346877Y-15870492D01*
X18346877Y-15870492D02*
X18346877Y-15918112D01*
X18346877Y-15918112D02*
X18337353Y-15956207D01*
X18337353Y-15956207D02*
X18327830Y-15975254D01*
X18327830Y-15975254D02*
X18318306Y-15984778D01*
X18318306Y-15984778D02*
X18299258Y-15994302D01*
X18299258Y-15994302D02*
X18280211Y-15994302D01*
X18280211Y-15994302D02*
X18261163Y-15984778D01*
X18261163Y-15984778D02*
X18251639Y-15975254D01*
X18251639Y-15975254D02*
X18242115Y-15956207D01*
X18242115Y-15956207D02*
X18232592Y-15918112D01*
X18232592Y-15918112D02*
X18232592Y-15870492D01*
X18232592Y-15870492D02*
X18242115Y-15832397D01*
X18242115Y-15832397D02*
X18251639Y-15813350D01*
X18251639Y-15813350D02*
X18261163Y-15803826D01*
X18261163Y-15803826D02*
X18280211Y-15794302D01*
X18518306Y-15794302D02*
X18480211Y-15794302D01*
X18480211Y-15794302D02*
X18461163Y-15803826D01*
X18461163Y-15803826D02*
X18451639Y-15813350D01*
X18451639Y-15813350D02*
X18432592Y-15841921D01*
X18432592Y-15841921D02*
X18423068Y-15880016D01*
X18423068Y-15880016D02*
X18423068Y-15956207D01*
X18423068Y-15956207D02*
X18432592Y-15975254D01*
X18432592Y-15975254D02*
X18442115Y-15984778D01*
X18442115Y-15984778D02*
X18461163Y-15994302D01*
X18461163Y-15994302D02*
X18499258Y-15994302D01*
X18499258Y-15994302D02*
X18518306Y-15984778D01*
X18518306Y-15984778D02*
X18527830Y-15975254D01*
X18527830Y-15975254D02*
X18537353Y-15956207D01*
X18537353Y-15956207D02*
X18537353Y-15908588D01*
X18537353Y-15908588D02*
X18527830Y-15889540D01*
X18527830Y-15889540D02*
X18518306Y-15880016D01*
X18518306Y-15880016D02*
X18499258Y-15870492D01*
X18499258Y-15870492D02*
X18461163Y-15870492D01*
X18461163Y-15870492D02*
X18442115Y-15880016D01*
X18442115Y-15880016D02*
X18432592Y-15889540D01*
X18432592Y-15889540D02*
X18423068Y-15908588D01*
X18604020Y-15794302D02*
X18727830Y-15794302D01*
X18727830Y-15794302D02*
X18661163Y-15870492D01*
X18661163Y-15870492D02*
X18689734Y-15870492D01*
X18689734Y-15870492D02*
X18708782Y-15880016D01*
X18708782Y-15880016D02*
X18718306Y-15889540D01*
X18718306Y-15889540D02*
X18727830Y-15908588D01*
X18727830Y-15908588D02*
X18727830Y-15956207D01*
X18727830Y-15956207D02*
X18718306Y-15975254D01*
X18718306Y-15975254D02*
X18708782Y-15984778D01*
X18708782Y-15984778D02*
X18689734Y-15994302D01*
X18689734Y-15994302D02*
X18632592Y-15994302D01*
X18632592Y-15994302D02*
X18613544Y-15984778D01*
X18613544Y-15984778D02*
X18604020Y-15975254D01*
X18851639Y-15794302D02*
X18870687Y-15794302D01*
X18870687Y-15794302D02*
X18889734Y-15803826D01*
X18889734Y-15803826D02*
X18899258Y-15813350D01*
X18899258Y-15813350D02*
X18908782Y-15832397D01*
X18908782Y-15832397D02*
X18918306Y-15870492D01*
X18918306Y-15870492D02*
X18918306Y-15918112D01*
X18918306Y-15918112D02*
X18908782Y-15956207D01*
X18908782Y-15956207D02*
X18899258Y-15975254D01*
X18899258Y-15975254D02*
X18889734Y-15984778D01*
X18889734Y-15984778D02*
X18870687Y-15994302D01*
X18870687Y-15994302D02*
X18851639Y-15994302D01*
X18851639Y-15994302D02*
X18832592Y-15984778D01*
X18832592Y-15984778D02*
X18823068Y-15975254D01*
X18823068Y-15975254D02*
X18813544Y-15956207D01*
X18813544Y-15956207D02*
X18804020Y-15918112D01*
X18804020Y-15918112D02*
X18804020Y-15870492D01*
X18804020Y-15870492D02*
X18813544Y-15832397D01*
X18813544Y-15832397D02*
X18823068Y-15813350D01*
X18823068Y-15813350D02*
X18832592Y-15803826D01*
X18832592Y-15803826D02*
X18851639Y-15794302D01*
X18994496Y-15794302D02*
X18994496Y-15832397D01*
X19070687Y-15794302D02*
X19070687Y-15832397D01*
X19365925Y-16070492D02*
X19356401Y-16060969D01*
X19356401Y-16060969D02*
X19337354Y-16032397D01*
X19337354Y-16032397D02*
X19327830Y-16013350D01*
X19327830Y-16013350D02*
X19318306Y-15984778D01*
X19318306Y-15984778D02*
X19308782Y-15937159D01*
X19308782Y-15937159D02*
X19308782Y-15899064D01*
X19308782Y-15899064D02*
X19318306Y-15851445D01*
X19318306Y-15851445D02*
X19327830Y-15822873D01*
X19327830Y-15822873D02*
X19337354Y-15803826D01*
X19337354Y-15803826D02*
X19356401Y-15775254D01*
X19356401Y-15775254D02*
X19365925Y-15765731D01*
X19546877Y-15994302D02*
X19432592Y-15994302D01*
X19489734Y-15994302D02*
X19489734Y-15794302D01*
X19489734Y-15794302D02*
X19470687Y-15822873D01*
X19470687Y-15822873D02*
X19451639Y-15841921D01*
X19451639Y-15841921D02*
X19432592Y-15851445D01*
X19784973Y-15994302D02*
X19784973Y-15794302D01*
X19870687Y-15994302D02*
X19870687Y-15889540D01*
X19870687Y-15889540D02*
X19861163Y-15870492D01*
X19861163Y-15870492D02*
X19842116Y-15860969D01*
X19842116Y-15860969D02*
X19813544Y-15860969D01*
X19813544Y-15860969D02*
X19794496Y-15870492D01*
X19794496Y-15870492D02*
X19784973Y-15880016D01*
X19994496Y-15994302D02*
X19975449Y-15984778D01*
X19975449Y-15984778D02*
X19965925Y-15975254D01*
X19965925Y-15975254D02*
X19956401Y-15956207D01*
X19956401Y-15956207D02*
X19956401Y-15899064D01*
X19956401Y-15899064D02*
X19965925Y-15880016D01*
X19965925Y-15880016D02*
X19975449Y-15870492D01*
X19975449Y-15870492D02*
X19994496Y-15860969D01*
X19994496Y-15860969D02*
X20023068Y-15860969D01*
X20023068Y-15860969D02*
X20042116Y-15870492D01*
X20042116Y-15870492D02*
X20051639Y-15880016D01*
X20051639Y-15880016D02*
X20061163Y-15899064D01*
X20061163Y-15899064D02*
X20061163Y-15956207D01*
X20061163Y-15956207D02*
X20051639Y-15975254D01*
X20051639Y-15975254D02*
X20042116Y-15984778D01*
X20042116Y-15984778D02*
X20023068Y-15994302D01*
X20023068Y-15994302D02*
X19994496Y-15994302D01*
X20175449Y-15994302D02*
X20156401Y-15984778D01*
X20156401Y-15984778D02*
X20146877Y-15965731D01*
X20146877Y-15965731D02*
X20146877Y-15794302D01*
X20327830Y-15984778D02*
X20308782Y-15994302D01*
X20308782Y-15994302D02*
X20270687Y-15994302D01*
X20270687Y-15994302D02*
X20251639Y-15984778D01*
X20251639Y-15984778D02*
X20242116Y-15965731D01*
X20242116Y-15965731D02*
X20242116Y-15889540D01*
X20242116Y-15889540D02*
X20251639Y-15870492D01*
X20251639Y-15870492D02*
X20270687Y-15860969D01*
X20270687Y-15860969D02*
X20308782Y-15860969D01*
X20308782Y-15860969D02*
X20327830Y-15870492D01*
X20327830Y-15870492D02*
X20337354Y-15889540D01*
X20337354Y-15889540D02*
X20337354Y-15908588D01*
X20337354Y-15908588D02*
X20242116Y-15927635D01*
X20404020Y-16070492D02*
X20413544Y-16060969D01*
X20413544Y-16060969D02*
X20432592Y-16032397D01*
X20432592Y-16032397D02*
X20442116Y-16013350D01*
X20442116Y-16013350D02*
X20451639Y-15984778D01*
X20451639Y-15984778D02*
X20461163Y-15937159D01*
X20461163Y-15937159D02*
X20461163Y-15899064D01*
X20461163Y-15899064D02*
X20451639Y-15851445D01*
X20451639Y-15851445D02*
X20442116Y-15822873D01*
X20442116Y-15822873D02*
X20432592Y-15803826D01*
X20432592Y-15803826D02*
X20413544Y-15775254D01*
X20413544Y-15775254D02*
X20404020Y-15765731D01*
X20765925Y-16070492D02*
X20756401Y-16060969D01*
X20756401Y-16060969D02*
X20737354Y-16032397D01*
X20737354Y-16032397D02*
X20727830Y-16013350D01*
X20727830Y-16013350D02*
X20718306Y-15984778D01*
X20718306Y-15984778D02*
X20708782Y-15937159D01*
X20708782Y-15937159D02*
X20708782Y-15899064D01*
X20708782Y-15899064D02*
X20718306Y-15851445D01*
X20718306Y-15851445D02*
X20727830Y-15822873D01*
X20727830Y-15822873D02*
X20737354Y-15803826D01*
X20737354Y-15803826D02*
X20756401Y-15775254D01*
X20756401Y-15775254D02*
X20765925Y-15765731D01*
X20842116Y-15860969D02*
X20842116Y-15994302D01*
X20842116Y-15880016D02*
X20851639Y-15870492D01*
X20851639Y-15870492D02*
X20870687Y-15860969D01*
X20870687Y-15860969D02*
X20899258Y-15860969D01*
X20899258Y-15860969D02*
X20918306Y-15870492D01*
X20918306Y-15870492D02*
X20927830Y-15889540D01*
X20927830Y-15889540D02*
X20927830Y-15994302D01*
X21051639Y-15994302D02*
X21032592Y-15984778D01*
X21032592Y-15984778D02*
X21023068Y-15975254D01*
X21023068Y-15975254D02*
X21013544Y-15956207D01*
X21013544Y-15956207D02*
X21013544Y-15899064D01*
X21013544Y-15899064D02*
X21023068Y-15880016D01*
X21023068Y-15880016D02*
X21032592Y-15870492D01*
X21032592Y-15870492D02*
X21051639Y-15860969D01*
X21051639Y-15860969D02*
X21080211Y-15860969D01*
X21080211Y-15860969D02*
X21099258Y-15870492D01*
X21099258Y-15870492D02*
X21108782Y-15880016D01*
X21108782Y-15880016D02*
X21118306Y-15899064D01*
X21118306Y-15899064D02*
X21118306Y-15956207D01*
X21118306Y-15956207D02*
X21108782Y-15975254D01*
X21108782Y-15975254D02*
X21099258Y-15984778D01*
X21099258Y-15984778D02*
X21080211Y-15994302D01*
X21080211Y-15994302D02*
X21051639Y-15994302D01*
X21175449Y-15860969D02*
X21251639Y-15860969D01*
X21204020Y-15794302D02*
X21204020Y-15965731D01*
X21204020Y-15965731D02*
X21213544Y-15984778D01*
X21213544Y-15984778D02*
X21232592Y-15994302D01*
X21232592Y-15994302D02*
X21251639Y-15994302D01*
X21470687Y-15860969D02*
X21470687Y-16060969D01*
X21470687Y-15870492D02*
X21489735Y-15860969D01*
X21489735Y-15860969D02*
X21527830Y-15860969D01*
X21527830Y-15860969D02*
X21546878Y-15870492D01*
X21546878Y-15870492D02*
X21556401Y-15880016D01*
X21556401Y-15880016D02*
X21565925Y-15899064D01*
X21565925Y-15899064D02*
X21565925Y-15956207D01*
X21565925Y-15956207D02*
X21556401Y-15975254D01*
X21556401Y-15975254D02*
X21546878Y-15984778D01*
X21546878Y-15984778D02*
X21527830Y-15994302D01*
X21527830Y-15994302D02*
X21489735Y-15994302D01*
X21489735Y-15994302D02*
X21470687Y-15984778D01*
X21680211Y-15994302D02*
X21661163Y-15984778D01*
X21661163Y-15984778D02*
X21651639Y-15965731D01*
X21651639Y-15965731D02*
X21651639Y-15794302D01*
X21842116Y-15994302D02*
X21842116Y-15889540D01*
X21842116Y-15889540D02*
X21832592Y-15870492D01*
X21832592Y-15870492D02*
X21813544Y-15860969D01*
X21813544Y-15860969D02*
X21775449Y-15860969D01*
X21775449Y-15860969D02*
X21756401Y-15870492D01*
X21842116Y-15984778D02*
X21823068Y-15994302D01*
X21823068Y-15994302D02*
X21775449Y-15994302D01*
X21775449Y-15994302D02*
X21756401Y-15984778D01*
X21756401Y-15984778D02*
X21746878Y-15965731D01*
X21746878Y-15965731D02*
X21746878Y-15946683D01*
X21746878Y-15946683D02*
X21756401Y-15927635D01*
X21756401Y-15927635D02*
X21775449Y-15918112D01*
X21775449Y-15918112D02*
X21823068Y-15918112D01*
X21823068Y-15918112D02*
X21842116Y-15908588D01*
X21908782Y-15860969D02*
X21984973Y-15860969D01*
X21937354Y-15794302D02*
X21937354Y-15965731D01*
X21937354Y-15965731D02*
X21946878Y-15984778D01*
X21946878Y-15984778D02*
X21965925Y-15994302D01*
X21965925Y-15994302D02*
X21984973Y-15994302D01*
X22127830Y-15984778D02*
X22108782Y-15994302D01*
X22108782Y-15994302D02*
X22070687Y-15994302D01*
X22070687Y-15994302D02*
X22051639Y-15984778D01*
X22051639Y-15984778D02*
X22042116Y-15965731D01*
X22042116Y-15965731D02*
X22042116Y-15889540D01*
X22042116Y-15889540D02*
X22051639Y-15870492D01*
X22051639Y-15870492D02*
X22070687Y-15860969D01*
X22070687Y-15860969D02*
X22108782Y-15860969D01*
X22108782Y-15860969D02*
X22127830Y-15870492D01*
X22127830Y-15870492D02*
X22137354Y-15889540D01*
X22137354Y-15889540D02*
X22137354Y-15908588D01*
X22137354Y-15908588D02*
X22042116Y-15927635D01*
X22308782Y-15994302D02*
X22308782Y-15794302D01*
X22308782Y-15984778D02*
X22289735Y-15994302D01*
X22289735Y-15994302D02*
X22251639Y-15994302D01*
X22251639Y-15994302D02*
X22232592Y-15984778D01*
X22232592Y-15984778D02*
X22223068Y-15975254D01*
X22223068Y-15975254D02*
X22213544Y-15956207D01*
X22213544Y-15956207D02*
X22213544Y-15899064D01*
X22213544Y-15899064D02*
X22223068Y-15880016D01*
X22223068Y-15880016D02*
X22232592Y-15870492D01*
X22232592Y-15870492D02*
X22251639Y-15860969D01*
X22251639Y-15860969D02*
X22289735Y-15860969D01*
X22289735Y-15860969D02*
X22308782Y-15870492D01*
X22384973Y-16070492D02*
X22394497Y-16060969D01*
X22394497Y-16060969D02*
X22413544Y-16032397D01*
X22413544Y-16032397D02*
X22423068Y-16013350D01*
X22423068Y-16013350D02*
X22432592Y-15984778D01*
X22432592Y-15984778D02*
X22442116Y-15937159D01*
X22442116Y-15937159D02*
X22442116Y-15899064D01*
X22442116Y-15899064D02*
X22432592Y-15851445D01*
X22432592Y-15851445D02*
X22423068Y-15822873D01*
X22423068Y-15822873D02*
X22413544Y-15803826D01*
X22413544Y-15803826D02*
X22394497Y-15775254D01*
X22394497Y-15775254D02*
X22384973Y-15765731D01*
M02*
