%TF.GenerationSoftware,KiCad,Pcbnew,8.0.5*%
%TF.CreationDate,2024-12-18T14:45:40+08:00*%
%TF.ProjectId,hardware,68617264-7761-4726-952e-6b696361645f,rev?*%
%TF.SameCoordinates,Original*%
%TF.FileFunction,Drillmap*%
%TF.FilePolarity,Positive*%
%FSLAX45Y45*%
G04 Gerber Fmt 4.5, Leading zero omitted, Abs format (unit mm)*
G04 Created by KiCad (PCBNEW 8.0.5) date 2024-12-18 14:45:40*
%MOMM*%
%LPD*%
G01*
G04 APERTURE LIST*
%ADD10C,0.050000*%
%ADD11C,0.200000*%
%ADD12C,0.100000*%
G04 APERTURE END LIST*
D10*
X15793362Y-4348903D02*
X28115000Y-4348903D01*
X28134000Y-15229841D02*
X28134000Y-15260159D01*
X15793362Y-15260318D02*
X15793362Y-4348903D01*
D11*
X16352260Y-14700000D02*
G75*
G02*
X16012260Y-14700000I-170000J0D01*
G01*
X16012260Y-14700000D02*
G75*
G02*
X16352260Y-14700000I170000J0D01*
G01*
X27907260Y-4915000D02*
G75*
G02*
X27567260Y-4915000I-170000J0D01*
G01*
X27567260Y-4915000D02*
G75*
G02*
X27907260Y-4915000I170000J0D01*
G01*
X16357260Y-4915000D02*
G75*
G02*
X16017260Y-4915000I-170000J0D01*
G01*
X16017260Y-4915000D02*
G75*
G02*
X16357260Y-4915000I170000J0D01*
G01*
D10*
X28134000Y-15229841D02*
X28134000Y-4348743D01*
X28134000Y-4348743D02*
X28127260Y-4348743D01*
X28127260Y-4348903D02*
X28115000Y-4348903D01*
D11*
X27907260Y-14700000D02*
G75*
G02*
X27567260Y-14700000I-170000J0D01*
G01*
X27567260Y-14700000D02*
G75*
G02*
X27907260Y-14700000I170000J0D01*
G01*
D10*
X15793362Y-15260318D02*
X28134000Y-15260318D01*
D11*
D12*
X17545000Y-12915000D02*
X17575000Y-12945000D01*
X17575000Y-12915000D02*
X17545000Y-12945000D01*
X17755000Y-7215000D02*
X17785000Y-7245000D01*
X17785000Y-7215000D02*
X17755000Y-7245000D01*
X17765000Y-7805000D02*
X17795000Y-7835000D01*
X17795000Y-7805000D02*
X17765000Y-7835000D01*
X17765000Y-8075000D02*
X17795000Y-8105000D01*
X17795000Y-8075000D02*
X17765000Y-8105000D01*
X17765000Y-8675000D02*
X17795000Y-8705000D01*
X17795000Y-8675000D02*
X17765000Y-8705000D01*
X17765000Y-8955000D02*
X17795000Y-8985000D01*
X17795000Y-8955000D02*
X17765000Y-8985000D01*
X17765000Y-9545000D02*
X17795000Y-9575000D01*
X17795000Y-9545000D02*
X17765000Y-9575000D01*
X17765000Y-9825000D02*
X17795000Y-9855000D01*
X17795000Y-9825000D02*
X17765000Y-9855000D01*
X17765000Y-10405000D02*
X17795000Y-10435000D01*
X17795000Y-10405000D02*
X17765000Y-10435000D01*
X17765000Y-10695000D02*
X17795000Y-10725000D01*
X17795000Y-10695000D02*
X17765000Y-10725000D01*
X17765000Y-11295000D02*
X17795000Y-11325000D01*
X17795000Y-11295000D02*
X17765000Y-11325000D01*
X17765000Y-11565000D02*
X17795000Y-11595000D01*
X17795000Y-11565000D02*
X17765000Y-11595000D01*
X17765000Y-12165000D02*
X17795000Y-12195000D01*
X17795000Y-12165000D02*
X17765000Y-12195000D01*
X17765000Y-12445000D02*
X17795000Y-12475000D01*
X17795000Y-12445000D02*
X17765000Y-12475000D01*
X17885000Y-7215000D02*
X17915000Y-7245000D01*
X17915000Y-7215000D02*
X17885000Y-7245000D01*
X17885000Y-7805000D02*
X17915000Y-7835000D01*
X17915000Y-7805000D02*
X17885000Y-7835000D01*
X17885000Y-8075000D02*
X17915000Y-8105000D01*
X17915000Y-8075000D02*
X17885000Y-8105000D01*
X17885000Y-8675000D02*
X17915000Y-8705000D01*
X17915000Y-8675000D02*
X17885000Y-8705000D01*
X17885000Y-8955000D02*
X17915000Y-8985000D01*
X17915000Y-8955000D02*
X17885000Y-8985000D01*
X17885000Y-9545000D02*
X17915000Y-9575000D01*
X17915000Y-9545000D02*
X17885000Y-9575000D01*
X17885000Y-10695000D02*
X17915000Y-10725000D01*
X17915000Y-10695000D02*
X17885000Y-10725000D01*
X17885000Y-11295000D02*
X17915000Y-11325000D01*
X17915000Y-11295000D02*
X17885000Y-11325000D01*
X17885000Y-12445000D02*
X17915000Y-12475000D01*
X17915000Y-12445000D02*
X17885000Y-12475000D01*
X17895000Y-9825000D02*
X17925000Y-9855000D01*
X17925000Y-9825000D02*
X17895000Y-9855000D01*
X17895000Y-10405000D02*
X17925000Y-10435000D01*
X17925000Y-10405000D02*
X17895000Y-10435000D01*
X17895000Y-11565000D02*
X17925000Y-11595000D01*
X17925000Y-11565000D02*
X17895000Y-11595000D01*
X17895000Y-12165000D02*
X17925000Y-12195000D01*
X17925000Y-12165000D02*
X17895000Y-12195000D01*
X18015000Y-7215000D02*
X18045000Y-7245000D01*
X18045000Y-7215000D02*
X18015000Y-7245000D01*
X18015000Y-7805000D02*
X18045000Y-7835000D01*
X18045000Y-7805000D02*
X18015000Y-7835000D01*
X18015000Y-8075000D02*
X18045000Y-8105000D01*
X18045000Y-8075000D02*
X18015000Y-8105000D01*
X18015000Y-8675000D02*
X18045000Y-8705000D01*
X18045000Y-8675000D02*
X18015000Y-8705000D01*
X18015000Y-8955000D02*
X18045000Y-8985000D01*
X18045000Y-8955000D02*
X18015000Y-8985000D01*
X18015000Y-9545000D02*
X18045000Y-9575000D01*
X18045000Y-9545000D02*
X18015000Y-9575000D01*
X18015000Y-9825000D02*
X18045000Y-9855000D01*
X18045000Y-9825000D02*
X18015000Y-9855000D01*
X18015000Y-10405000D02*
X18045000Y-10435000D01*
X18045000Y-10405000D02*
X18015000Y-10435000D01*
X18015000Y-10695000D02*
X18045000Y-10725000D01*
X18045000Y-10695000D02*
X18015000Y-10725000D01*
X18015000Y-11295000D02*
X18045000Y-11325000D01*
X18045000Y-11295000D02*
X18015000Y-11325000D01*
X18015000Y-11565000D02*
X18045000Y-11595000D01*
X18045000Y-11565000D02*
X18015000Y-11595000D01*
X18015000Y-12165000D02*
X18045000Y-12195000D01*
X18045000Y-12165000D02*
X18015000Y-12195000D01*
X18015000Y-12445000D02*
X18045000Y-12475000D01*
X18045000Y-12445000D02*
X18015000Y-12475000D01*
X18135000Y-9825000D02*
X18165000Y-9855000D01*
X18165000Y-9825000D02*
X18135000Y-9855000D01*
X18135000Y-10405000D02*
X18165000Y-10435000D01*
X18165000Y-10405000D02*
X18135000Y-10435000D01*
X18145000Y-7215000D02*
X18175000Y-7245000D01*
X18175000Y-7215000D02*
X18145000Y-7245000D01*
X18145000Y-7805000D02*
X18175000Y-7835000D01*
X18175000Y-7805000D02*
X18145000Y-7835000D01*
X18145000Y-8075000D02*
X18175000Y-8105000D01*
X18175000Y-8075000D02*
X18145000Y-8105000D01*
X18145000Y-8675000D02*
X18175000Y-8705000D01*
X18175000Y-8675000D02*
X18145000Y-8705000D01*
X18145000Y-8955000D02*
X18175000Y-8985000D01*
X18175000Y-8955000D02*
X18145000Y-8985000D01*
X18145000Y-9545000D02*
X18175000Y-9575000D01*
X18175000Y-9545000D02*
X18145000Y-9575000D01*
X18145000Y-10695000D02*
X18175000Y-10725000D01*
X18175000Y-10695000D02*
X18145000Y-10725000D01*
X18145000Y-11295000D02*
X18175000Y-11325000D01*
X18175000Y-11295000D02*
X18145000Y-11325000D01*
X18145000Y-11565000D02*
X18175000Y-11595000D01*
X18175000Y-11565000D02*
X18145000Y-11595000D01*
X18145000Y-12165000D02*
X18175000Y-12195000D01*
X18175000Y-12165000D02*
X18145000Y-12195000D01*
X18145000Y-12445000D02*
X18175000Y-12475000D01*
X18175000Y-12445000D02*
X18145000Y-12475000D01*
X18165000Y-12915000D02*
X18195000Y-12945000D01*
X18195000Y-12915000D02*
X18165000Y-12945000D01*
X18815000Y-12915000D02*
X18845000Y-12945000D01*
X18845000Y-12915000D02*
X18815000Y-12945000D01*
X19425000Y-12915000D02*
X19455000Y-12945000D01*
X19455000Y-12915000D02*
X19425000Y-12945000D01*
X20015000Y-6175000D02*
X20045000Y-6205000D01*
X20045000Y-6175000D02*
X20015000Y-6205000D01*
X20045000Y-12915000D02*
X20075000Y-12945000D01*
X20075000Y-12915000D02*
X20045000Y-12945000D01*
X20135000Y-11935000D02*
X20165000Y-11965000D01*
X20165000Y-11935000D02*
X20135000Y-11965000D01*
X20325000Y-12155000D02*
X20355000Y-12185000D01*
X20355000Y-12155000D02*
X20325000Y-12185000D01*
X20325000Y-12425000D02*
X20355000Y-12455000D01*
X20355000Y-12425000D02*
X20325000Y-12455000D01*
X20335000Y-5685000D02*
X20365000Y-5715000D01*
X20365000Y-5685000D02*
X20335000Y-5715000D01*
X20335000Y-11755000D02*
X20365000Y-11785000D01*
X20365000Y-11755000D02*
X20335000Y-11785000D01*
X20455000Y-11695000D02*
X20485000Y-11725000D01*
X20485000Y-11695000D02*
X20455000Y-11725000D01*
X20575000Y-12155000D02*
X20605000Y-12185000D01*
X20605000Y-12155000D02*
X20575000Y-12185000D01*
X20575000Y-12425000D02*
X20605000Y-12455000D01*
X20605000Y-12425000D02*
X20575000Y-12455000D01*
X20585000Y-11605000D02*
X20615000Y-11635000D01*
X20615000Y-11605000D02*
X20585000Y-11635000D01*
X20675000Y-12905000D02*
X20705000Y-12935000D01*
X20705000Y-12905000D02*
X20675000Y-12935000D01*
X20705000Y-11605000D02*
X20735000Y-11635000D01*
X20735000Y-11605000D02*
X20705000Y-11635000D01*
X20705000Y-12155000D02*
X20735000Y-12185000D01*
X20735000Y-12155000D02*
X20705000Y-12185000D01*
X20845000Y-11235000D02*
X20875000Y-11265000D01*
X20875000Y-11235000D02*
X20845000Y-11265000D01*
X20965000Y-11235000D02*
X20995000Y-11265000D01*
X20995000Y-11235000D02*
X20965000Y-11265000D01*
X21095000Y-11235000D02*
X21125000Y-11265000D01*
X21125000Y-11235000D02*
X21095000Y-11265000D01*
X21095000Y-11635000D02*
X21125000Y-11665000D01*
X21125000Y-11635000D02*
X21095000Y-11665000D01*
X21205000Y-11235000D02*
X21235000Y-11265000D01*
X21235000Y-11235000D02*
X21205000Y-11265000D01*
X21305000Y-8145000D02*
X21335000Y-8175000D01*
X21335000Y-8145000D02*
X21305000Y-8175000D01*
X21325000Y-11235000D02*
X21355000Y-11265000D01*
X21355000Y-11235000D02*
X21325000Y-11265000D01*
X21505000Y-11065000D02*
X21535000Y-11095000D01*
X21535000Y-11065000D02*
X21505000Y-11095000D01*
X22415000Y-12105000D02*
X22445000Y-12135000D01*
X22445000Y-12105000D02*
X22415000Y-12135000D01*
X22415000Y-12755000D02*
X22445000Y-12785000D01*
X22445000Y-12755000D02*
X22415000Y-12785000D01*
X22535000Y-12105000D02*
X22565000Y-12135000D01*
X22565000Y-12105000D02*
X22535000Y-12135000D01*
X22535000Y-12615000D02*
X22565000Y-12645000D01*
X22565000Y-12615000D02*
X22535000Y-12645000D01*
X22585000Y-11285000D02*
X22615000Y-11315000D01*
X22615000Y-11285000D02*
X22585000Y-11315000D01*
X22595000Y-12905000D02*
X22625000Y-12935000D01*
X22625000Y-12905000D02*
X22595000Y-12935000D01*
X22605000Y-5455000D02*
X22635000Y-5485000D01*
X22635000Y-5455000D02*
X22605000Y-5485000D01*
X22775000Y-11605000D02*
X22805000Y-11635000D01*
X22805000Y-11605000D02*
X22775000Y-11635000D01*
X22795000Y-12105000D02*
X22825000Y-12135000D01*
X22825000Y-12105000D02*
X22795000Y-12135000D01*
X22805000Y-12585000D02*
X22835000Y-12615000D01*
X22835000Y-12585000D02*
X22805000Y-12615000D01*
X22925000Y-12095000D02*
X22955000Y-12125000D01*
X22955000Y-12095000D02*
X22925000Y-12125000D01*
X22925000Y-12745000D02*
X22955000Y-12775000D01*
X22955000Y-12745000D02*
X22925000Y-12775000D01*
X23045000Y-11225000D02*
X23075000Y-11255000D01*
X23075000Y-11225000D02*
X23045000Y-11255000D01*
X23165000Y-11765000D02*
X23195000Y-11795000D01*
X23195000Y-11765000D02*
X23165000Y-11795000D01*
X23175000Y-11225000D02*
X23205000Y-11255000D01*
X23205000Y-11225000D02*
X23175000Y-11255000D01*
X23205000Y-12905000D02*
X23235000Y-12935000D01*
X23235000Y-12905000D02*
X23205000Y-12935000D01*
X23235000Y-5695000D02*
X23265000Y-5725000D01*
X23265000Y-5695000D02*
X23235000Y-5725000D01*
X23285000Y-11055000D02*
X23315000Y-11085000D01*
X23315000Y-11055000D02*
X23285000Y-11085000D01*
X23295000Y-11225000D02*
X23325000Y-11255000D01*
X23325000Y-11225000D02*
X23295000Y-11255000D01*
X23815000Y-12895000D02*
X23845000Y-12925000D01*
X23845000Y-12895000D02*
X23815000Y-12925000D01*
X24435000Y-11715000D02*
X24465000Y-11745000D01*
X24465000Y-11715000D02*
X24435000Y-11745000D01*
X24445000Y-12895000D02*
X24475000Y-12925000D01*
X24475000Y-12895000D02*
X24445000Y-12925000D01*
X24595000Y-12135000D02*
X24625000Y-12165000D01*
X24625000Y-12135000D02*
X24595000Y-12165000D01*
X24685000Y-12445000D02*
X24715000Y-12475000D01*
X24715000Y-12445000D02*
X24685000Y-12475000D01*
X24975000Y-6045000D02*
X25005000Y-6075000D01*
X25005000Y-6045000D02*
X24975000Y-6075000D01*
X25525000Y-6205000D02*
X25555000Y-6235000D01*
X25555000Y-6205000D02*
X25525000Y-6235000D01*
X25525000Y-6745000D02*
X25555000Y-6775000D01*
X25555000Y-6745000D02*
X25525000Y-6775000D01*
X25535000Y-7625000D02*
X25565000Y-7655000D01*
X25565000Y-7625000D02*
X25535000Y-7655000D01*
X25535000Y-8485000D02*
X25565000Y-8515000D01*
X25565000Y-8485000D02*
X25535000Y-8515000D01*
X25535000Y-9335000D02*
X25565000Y-9365000D01*
X25565000Y-9335000D02*
X25535000Y-9365000D01*
X25535000Y-10205000D02*
X25565000Y-10235000D01*
X25565000Y-10205000D02*
X25535000Y-10235000D01*
X25535000Y-11075000D02*
X25565000Y-11105000D01*
X25565000Y-11075000D02*
X25535000Y-11105000D01*
X25535000Y-11965000D02*
X25565000Y-11995000D01*
X25565000Y-11965000D02*
X25535000Y-11995000D01*
X25655000Y-6195000D02*
X25685000Y-6225000D01*
X25685000Y-6195000D02*
X25655000Y-6225000D01*
X25655000Y-6745000D02*
X25685000Y-6775000D01*
X25685000Y-6745000D02*
X25655000Y-6775000D01*
X25655000Y-7625000D02*
X25685000Y-7655000D01*
X25685000Y-7625000D02*
X25655000Y-7655000D01*
X25655000Y-8485000D02*
X25685000Y-8515000D01*
X25685000Y-8485000D02*
X25655000Y-8515000D01*
X25655000Y-9335000D02*
X25685000Y-9365000D01*
X25685000Y-9335000D02*
X25655000Y-9365000D01*
X25655000Y-10205000D02*
X25685000Y-10235000D01*
X25685000Y-10205000D02*
X25655000Y-10235000D01*
X25655000Y-11075000D02*
X25685000Y-11105000D01*
X25685000Y-11075000D02*
X25655000Y-11105000D01*
X25655000Y-11965000D02*
X25685000Y-11995000D01*
X25685000Y-11965000D02*
X25655000Y-11995000D01*
X25775000Y-6745000D02*
X25805000Y-6775000D01*
X25805000Y-6745000D02*
X25775000Y-6775000D01*
X25775000Y-7625000D02*
X25805000Y-7655000D01*
X25805000Y-7625000D02*
X25775000Y-7655000D01*
X25775000Y-8485000D02*
X25805000Y-8515000D01*
X25805000Y-8485000D02*
X25775000Y-8515000D01*
X25775000Y-9335000D02*
X25805000Y-9365000D01*
X25805000Y-9335000D02*
X25775000Y-9365000D01*
X25775000Y-10205000D02*
X25805000Y-10235000D01*
X25805000Y-10205000D02*
X25775000Y-10235000D01*
X25775000Y-11075000D02*
X25805000Y-11105000D01*
X25805000Y-11075000D02*
X25775000Y-11105000D01*
X25775000Y-11965000D02*
X25805000Y-11995000D01*
X25805000Y-11965000D02*
X25775000Y-11995000D01*
X25905000Y-6385000D02*
X25935000Y-6415000D01*
X25935000Y-6385000D02*
X25905000Y-6415000D01*
X25905000Y-6745000D02*
X25935000Y-6775000D01*
X25935000Y-6745000D02*
X25905000Y-6775000D01*
X25905000Y-7625000D02*
X25935000Y-7655000D01*
X25935000Y-7625000D02*
X25905000Y-7655000D01*
X25905000Y-8485000D02*
X25935000Y-8515000D01*
X25935000Y-8485000D02*
X25905000Y-8515000D01*
X25905000Y-9335000D02*
X25935000Y-9365000D01*
X25935000Y-9335000D02*
X25905000Y-9365000D01*
X25905000Y-10205000D02*
X25935000Y-10235000D01*
X25935000Y-10205000D02*
X25905000Y-10235000D01*
X25905000Y-11075000D02*
X25935000Y-11105000D01*
X25935000Y-11075000D02*
X25905000Y-11105000D01*
X25905000Y-11965000D02*
X25935000Y-11995000D01*
X25935000Y-11965000D02*
X25905000Y-11995000D01*
X17281001Y-13400000D02*
G75*
G02*
X17211001Y-13400000I-35000J0D01*
G01*
X17211001Y-13400000D02*
G75*
G02*
X17281001Y-13400000I35000J0D01*
G01*
X17381001Y-13365000D02*
X17111001Y-13365000D01*
X17111001Y-13435000D02*
G75*
G02*
X17111001Y-13365000I0J35000D01*
G01*
X17111001Y-13435000D02*
X17381001Y-13435000D01*
X17381001Y-13435000D02*
G75*
G03*
X17381001Y-13365000I0J35000D01*
G01*
X17281001Y-14280000D02*
G75*
G02*
X17211001Y-14280000I-35000J0D01*
G01*
X17211001Y-14280000D02*
G75*
G02*
X17281001Y-14280000I35000J0D01*
G01*
X17381001Y-14245000D02*
X17111001Y-14245000D01*
X17111001Y-14315000D02*
G75*
G02*
X17111001Y-14245000I0J35000D01*
G01*
X17111001Y-14315000D02*
X17381001Y-14315000D01*
X17381001Y-14315000D02*
G75*
G03*
X17381001Y-14245000I0J35000D01*
G01*
X17281001Y-15010000D02*
G75*
G02*
X17211001Y-15010000I-35000J0D01*
G01*
X17211001Y-15010000D02*
G75*
G02*
X17281001Y-15010000I35000J0D01*
G01*
X17381001Y-14975000D02*
X17111001Y-14975000D01*
X17111001Y-15045000D02*
G75*
G02*
X17111001Y-14975000I0J35000D01*
G01*
X17111001Y-15045000D02*
X17381001Y-15045000D01*
X17381001Y-15045000D02*
G75*
G03*
X17381001Y-14975000I0J35000D01*
G01*
X17909668Y-13400000D02*
G75*
G02*
X17839668Y-13400000I-35000J0D01*
G01*
X17839668Y-13400000D02*
G75*
G02*
X17909668Y-13400000I35000J0D01*
G01*
X18009668Y-13365000D02*
X17739668Y-13365000D01*
X17739668Y-13435000D02*
G75*
G02*
X17739668Y-13365000I0J35000D01*
G01*
X17739668Y-13435000D02*
X18009668Y-13435000D01*
X18009668Y-13435000D02*
G75*
G03*
X18009668Y-13365000I0J35000D01*
G01*
X17909668Y-14280000D02*
G75*
G02*
X17839668Y-14280000I-35000J0D01*
G01*
X17839668Y-14280000D02*
G75*
G02*
X17909668Y-14280000I35000J0D01*
G01*
X18009668Y-14245000D02*
X17739668Y-14245000D01*
X17739668Y-14315000D02*
G75*
G02*
X17739668Y-14245000I0J35000D01*
G01*
X17739668Y-14315000D02*
X18009668Y-14315000D01*
X18009668Y-14315000D02*
G75*
G03*
X18009668Y-14245000I0J35000D01*
G01*
X17909668Y-15010000D02*
G75*
G02*
X17839668Y-15010000I-35000J0D01*
G01*
X17839668Y-15010000D02*
G75*
G02*
X17909668Y-15010000I35000J0D01*
G01*
X18009668Y-14975000D02*
X17739668Y-14975000D01*
X17739668Y-15045000D02*
G75*
G02*
X17739668Y-14975000I0J35000D01*
G01*
X17739668Y-15045000D02*
X18009668Y-15045000D01*
X18009668Y-15045000D02*
G75*
G03*
X18009668Y-14975000I0J35000D01*
G01*
X18538334Y-13400000D02*
G75*
G02*
X18468334Y-13400000I-35000J0D01*
G01*
X18468334Y-13400000D02*
G75*
G02*
X18538334Y-13400000I35000J0D01*
G01*
X18638334Y-13365000D02*
X18368334Y-13365000D01*
X18368334Y-13435000D02*
G75*
G02*
X18368334Y-13365000I0J35000D01*
G01*
X18368334Y-13435000D02*
X18638334Y-13435000D01*
X18638334Y-13435000D02*
G75*
G03*
X18638334Y-13365000I0J35000D01*
G01*
X18538334Y-14280000D02*
G75*
G02*
X18468334Y-14280000I-35000J0D01*
G01*
X18468334Y-14280000D02*
G75*
G02*
X18538334Y-14280000I35000J0D01*
G01*
X18638334Y-14245000D02*
X18368334Y-14245000D01*
X18368334Y-14315000D02*
G75*
G02*
X18368334Y-14245000I0J35000D01*
G01*
X18368334Y-14315000D02*
X18638334Y-14315000D01*
X18638334Y-14315000D02*
G75*
G03*
X18638334Y-14245000I0J35000D01*
G01*
X18538334Y-15010000D02*
G75*
G02*
X18468334Y-15010000I-35000J0D01*
G01*
X18468334Y-15010000D02*
G75*
G02*
X18538334Y-15010000I35000J0D01*
G01*
X18638334Y-14975000D02*
X18368334Y-14975000D01*
X18368334Y-15045000D02*
G75*
G02*
X18368334Y-14975000I0J35000D01*
G01*
X18368334Y-15045000D02*
X18638334Y-15045000D01*
X18638334Y-15045000D02*
G75*
G03*
X18638334Y-14975000I0J35000D01*
G01*
X19167001Y-13400000D02*
G75*
G02*
X19097001Y-13400000I-35000J0D01*
G01*
X19097001Y-13400000D02*
G75*
G02*
X19167001Y-13400000I35000J0D01*
G01*
X19267001Y-13365000D02*
X18997001Y-13365000D01*
X18997001Y-13435000D02*
G75*
G02*
X18997001Y-13365000I0J35000D01*
G01*
X18997001Y-13435000D02*
X19267001Y-13435000D01*
X19267001Y-13435000D02*
G75*
G03*
X19267001Y-13365000I0J35000D01*
G01*
X19167001Y-14280000D02*
G75*
G02*
X19097001Y-14280000I-35000J0D01*
G01*
X19097001Y-14280000D02*
G75*
G02*
X19167001Y-14280000I35000J0D01*
G01*
X19267001Y-14245000D02*
X18997001Y-14245000D01*
X18997001Y-14315000D02*
G75*
G02*
X18997001Y-14245000I0J35000D01*
G01*
X18997001Y-14315000D02*
X19267001Y-14315000D01*
X19267001Y-14315000D02*
G75*
G03*
X19267001Y-14245000I0J35000D01*
G01*
X19167001Y-15010000D02*
G75*
G02*
X19097001Y-15010000I-35000J0D01*
G01*
X19097001Y-15010000D02*
G75*
G02*
X19167001Y-15010000I35000J0D01*
G01*
X19267001Y-14975000D02*
X18997001Y-14975000D01*
X18997001Y-15045000D02*
G75*
G02*
X18997001Y-14975000I0J35000D01*
G01*
X18997001Y-15045000D02*
X19267001Y-15045000D01*
X19267001Y-15045000D02*
G75*
G03*
X19267001Y-14975000I0J35000D01*
G01*
X19795667Y-13400000D02*
G75*
G02*
X19725667Y-13400000I-35000J0D01*
G01*
X19725667Y-13400000D02*
G75*
G02*
X19795667Y-13400000I35000J0D01*
G01*
X19895667Y-13365000D02*
X19625667Y-13365000D01*
X19625667Y-13435000D02*
G75*
G02*
X19625667Y-13365000I0J35000D01*
G01*
X19625667Y-13435000D02*
X19895667Y-13435000D01*
X19895667Y-13435000D02*
G75*
G03*
X19895667Y-13365000I0J35000D01*
G01*
X19795667Y-14280000D02*
G75*
G02*
X19725667Y-14280000I-35000J0D01*
G01*
X19725667Y-14280000D02*
G75*
G02*
X19795667Y-14280000I35000J0D01*
G01*
X19895667Y-14245000D02*
X19625667Y-14245000D01*
X19625667Y-14315000D02*
G75*
G02*
X19625667Y-14245000I0J35000D01*
G01*
X19625667Y-14315000D02*
X19895667Y-14315000D01*
X19895667Y-14315000D02*
G75*
G03*
X19895667Y-14245000I0J35000D01*
G01*
X19795667Y-15010000D02*
G75*
G02*
X19725667Y-15010000I-35000J0D01*
G01*
X19725667Y-15010000D02*
G75*
G02*
X19795667Y-15010000I35000J0D01*
G01*
X19895667Y-14975000D02*
X19625667Y-14975000D01*
X19625667Y-15045000D02*
G75*
G02*
X19625667Y-14975000I0J35000D01*
G01*
X19625667Y-15045000D02*
X19895667Y-15045000D01*
X19895667Y-15045000D02*
G75*
G03*
X19895667Y-14975000I0J35000D01*
G01*
X20424334Y-13400000D02*
G75*
G02*
X20354334Y-13400000I-35000J0D01*
G01*
X20354334Y-13400000D02*
G75*
G02*
X20424334Y-13400000I35000J0D01*
G01*
X20524334Y-13365000D02*
X20254334Y-13365000D01*
X20254334Y-13435000D02*
G75*
G02*
X20254334Y-13365000I0J35000D01*
G01*
X20254334Y-13435000D02*
X20524334Y-13435000D01*
X20524334Y-13435000D02*
G75*
G03*
X20524334Y-13365000I0J35000D01*
G01*
X20424334Y-14280000D02*
G75*
G02*
X20354334Y-14280000I-35000J0D01*
G01*
X20354334Y-14280000D02*
G75*
G02*
X20424334Y-14280000I35000J0D01*
G01*
X20524334Y-14245000D02*
X20254334Y-14245000D01*
X20254334Y-14315000D02*
G75*
G02*
X20254334Y-14245000I0J35000D01*
G01*
X20254334Y-14315000D02*
X20524334Y-14315000D01*
X20524334Y-14315000D02*
G75*
G03*
X20524334Y-14245000I0J35000D01*
G01*
X20424334Y-15010000D02*
G75*
G02*
X20354334Y-15010000I-35000J0D01*
G01*
X20354334Y-15010000D02*
G75*
G02*
X20424334Y-15010000I35000J0D01*
G01*
X20524334Y-14975000D02*
X20254334Y-14975000D01*
X20254334Y-15045000D02*
G75*
G02*
X20254334Y-14975000I0J35000D01*
G01*
X20254334Y-15045000D02*
X20524334Y-15045000D01*
X20524334Y-15045000D02*
G75*
G03*
X20524334Y-14975000I0J35000D01*
G01*
X21053001Y-13400000D02*
G75*
G02*
X20983001Y-13400000I-35000J0D01*
G01*
X20983001Y-13400000D02*
G75*
G02*
X21053001Y-13400000I35000J0D01*
G01*
X21153001Y-13365000D02*
X20883001Y-13365000D01*
X20883001Y-13435000D02*
G75*
G02*
X20883001Y-13365000I0J35000D01*
G01*
X20883001Y-13435000D02*
X21153001Y-13435000D01*
X21153001Y-13435000D02*
G75*
G03*
X21153001Y-13365000I0J35000D01*
G01*
X21053001Y-14280000D02*
G75*
G02*
X20983001Y-14280000I-35000J0D01*
G01*
X20983001Y-14280000D02*
G75*
G02*
X21053001Y-14280000I35000J0D01*
G01*
X21153001Y-14245000D02*
X20883001Y-14245000D01*
X20883001Y-14315000D02*
G75*
G02*
X20883001Y-14245000I0J35000D01*
G01*
X20883001Y-14315000D02*
X21153001Y-14315000D01*
X21153001Y-14315000D02*
G75*
G03*
X21153001Y-14245000I0J35000D01*
G01*
X21053001Y-15010000D02*
G75*
G02*
X20983001Y-15010000I-35000J0D01*
G01*
X20983001Y-15010000D02*
G75*
G02*
X21053001Y-15010000I35000J0D01*
G01*
X21153001Y-14975000D02*
X20883001Y-14975000D01*
X20883001Y-15045000D02*
G75*
G02*
X20883001Y-14975000I0J35000D01*
G01*
X20883001Y-15045000D02*
X21153001Y-15045000D01*
X21153001Y-15045000D02*
G75*
G03*
X21153001Y-14975000I0J35000D01*
G01*
X21681667Y-13400000D02*
G75*
G02*
X21611667Y-13400000I-35000J0D01*
G01*
X21611667Y-13400000D02*
G75*
G02*
X21681667Y-13400000I35000J0D01*
G01*
X21781667Y-13365000D02*
X21511667Y-13365000D01*
X21511667Y-13435000D02*
G75*
G02*
X21511667Y-13365000I0J35000D01*
G01*
X21511667Y-13435000D02*
X21781667Y-13435000D01*
X21781667Y-13435000D02*
G75*
G03*
X21781667Y-13365000I0J35000D01*
G01*
X21681667Y-14280000D02*
G75*
G02*
X21611667Y-14280000I-35000J0D01*
G01*
X21611667Y-14280000D02*
G75*
G02*
X21681667Y-14280000I35000J0D01*
G01*
X21781667Y-14245000D02*
X21511667Y-14245000D01*
X21511667Y-14315000D02*
G75*
G02*
X21511667Y-14245000I0J35000D01*
G01*
X21511667Y-14315000D02*
X21781667Y-14315000D01*
X21781667Y-14315000D02*
G75*
G03*
X21781667Y-14245000I0J35000D01*
G01*
X21681667Y-15010000D02*
G75*
G02*
X21611667Y-15010000I-35000J0D01*
G01*
X21611667Y-15010000D02*
G75*
G02*
X21681667Y-15010000I35000J0D01*
G01*
X21781667Y-14975000D02*
X21511667Y-14975000D01*
X21511667Y-15045000D02*
G75*
G02*
X21511667Y-14975000I0J35000D01*
G01*
X21511667Y-15045000D02*
X21781667Y-15045000D01*
X21781667Y-15045000D02*
G75*
G03*
X21781667Y-14975000I0J35000D01*
G01*
X22310334Y-13400000D02*
G75*
G02*
X22240334Y-13400000I-35000J0D01*
G01*
X22240334Y-13400000D02*
G75*
G02*
X22310334Y-13400000I35000J0D01*
G01*
X22410334Y-13365000D02*
X22140334Y-13365000D01*
X22140334Y-13435000D02*
G75*
G02*
X22140334Y-13365000I0J35000D01*
G01*
X22140334Y-13435000D02*
X22410334Y-13435000D01*
X22410334Y-13435000D02*
G75*
G03*
X22410334Y-13365000I0J35000D01*
G01*
X22310334Y-14280000D02*
G75*
G02*
X22240334Y-14280000I-35000J0D01*
G01*
X22240334Y-14280000D02*
G75*
G02*
X22310334Y-14280000I35000J0D01*
G01*
X22410334Y-14245000D02*
X22140334Y-14245000D01*
X22140334Y-14315000D02*
G75*
G02*
X22140334Y-14245000I0J35000D01*
G01*
X22140334Y-14315000D02*
X22410334Y-14315000D01*
X22410334Y-14315000D02*
G75*
G03*
X22410334Y-14245000I0J35000D01*
G01*
X22310334Y-15010000D02*
G75*
G02*
X22240334Y-15010000I-35000J0D01*
G01*
X22240334Y-15010000D02*
G75*
G02*
X22310334Y-15010000I35000J0D01*
G01*
X22410334Y-14975000D02*
X22140334Y-14975000D01*
X22140334Y-15045000D02*
G75*
G02*
X22140334Y-14975000I0J35000D01*
G01*
X22140334Y-15045000D02*
X22410334Y-15045000D01*
X22410334Y-15045000D02*
G75*
G03*
X22410334Y-14975000I0J35000D01*
G01*
X22939000Y-13400000D02*
G75*
G02*
X22869000Y-13400000I-35000J0D01*
G01*
X22869000Y-13400000D02*
G75*
G02*
X22939000Y-13400000I35000J0D01*
G01*
X23039000Y-13365000D02*
X22769000Y-13365000D01*
X22769000Y-13435000D02*
G75*
G02*
X22769000Y-13365000I0J35000D01*
G01*
X22769000Y-13435000D02*
X23039000Y-13435000D01*
X23039000Y-13435000D02*
G75*
G03*
X23039000Y-13365000I0J35000D01*
G01*
X22939000Y-14280000D02*
G75*
G02*
X22869000Y-14280000I-35000J0D01*
G01*
X22869000Y-14280000D02*
G75*
G02*
X22939000Y-14280000I35000J0D01*
G01*
X23039000Y-14245000D02*
X22769000Y-14245000D01*
X22769000Y-14315000D02*
G75*
G02*
X22769000Y-14245000I0J35000D01*
G01*
X22769000Y-14315000D02*
X23039000Y-14315000D01*
X23039000Y-14315000D02*
G75*
G03*
X23039000Y-14245000I0J35000D01*
G01*
X22939000Y-15010000D02*
G75*
G02*
X22869000Y-15010000I-35000J0D01*
G01*
X22869000Y-15010000D02*
G75*
G02*
X22939000Y-15010000I35000J0D01*
G01*
X23039000Y-14975000D02*
X22769000Y-14975000D01*
X22769000Y-15045000D02*
G75*
G02*
X22769000Y-14975000I0J35000D01*
G01*
X22769000Y-15045000D02*
X23039000Y-15045000D01*
X23039000Y-15045000D02*
G75*
G03*
X23039000Y-14975000I0J35000D01*
G01*
X23567667Y-13400000D02*
G75*
G02*
X23497667Y-13400000I-35000J0D01*
G01*
X23497667Y-13400000D02*
G75*
G02*
X23567667Y-13400000I35000J0D01*
G01*
X23667667Y-13365000D02*
X23397667Y-13365000D01*
X23397667Y-13435000D02*
G75*
G02*
X23397667Y-13365000I0J35000D01*
G01*
X23397667Y-13435000D02*
X23667667Y-13435000D01*
X23667667Y-13435000D02*
G75*
G03*
X23667667Y-13365000I0J35000D01*
G01*
X23567667Y-14280000D02*
G75*
G02*
X23497667Y-14280000I-35000J0D01*
G01*
X23497667Y-14280000D02*
G75*
G02*
X23567667Y-14280000I35000J0D01*
G01*
X23667667Y-14245000D02*
X23397667Y-14245000D01*
X23397667Y-14315000D02*
G75*
G02*
X23397667Y-14245000I0J35000D01*
G01*
X23397667Y-14315000D02*
X23667667Y-14315000D01*
X23667667Y-14315000D02*
G75*
G03*
X23667667Y-14245000I0J35000D01*
G01*
X23567667Y-15010000D02*
G75*
G02*
X23497667Y-15010000I-35000J0D01*
G01*
X23497667Y-15010000D02*
G75*
G02*
X23567667Y-15010000I35000J0D01*
G01*
X23667667Y-14975000D02*
X23397667Y-14975000D01*
X23397667Y-15045000D02*
G75*
G02*
X23397667Y-14975000I0J35000D01*
G01*
X23397667Y-15045000D02*
X23667667Y-15045000D01*
X23667667Y-15045000D02*
G75*
G03*
X23667667Y-14975000I0J35000D01*
G01*
X24196334Y-13400000D02*
G75*
G02*
X24126334Y-13400000I-35000J0D01*
G01*
X24126334Y-13400000D02*
G75*
G02*
X24196334Y-13400000I35000J0D01*
G01*
X24296334Y-13365000D02*
X24026334Y-13365000D01*
X24026334Y-13435000D02*
G75*
G02*
X24026334Y-13365000I0J35000D01*
G01*
X24026334Y-13435000D02*
X24296334Y-13435000D01*
X24296334Y-13435000D02*
G75*
G03*
X24296334Y-13365000I0J35000D01*
G01*
X24196334Y-14280000D02*
G75*
G02*
X24126334Y-14280000I-35000J0D01*
G01*
X24126334Y-14280000D02*
G75*
G02*
X24196334Y-14280000I35000J0D01*
G01*
X24296334Y-14245000D02*
X24026334Y-14245000D01*
X24026334Y-14315000D02*
G75*
G02*
X24026334Y-14245000I0J35000D01*
G01*
X24026334Y-14315000D02*
X24296334Y-14315000D01*
X24296334Y-14315000D02*
G75*
G03*
X24296334Y-14245000I0J35000D01*
G01*
X24196334Y-15010000D02*
G75*
G02*
X24126334Y-15010000I-35000J0D01*
G01*
X24126334Y-15010000D02*
G75*
G02*
X24196334Y-15010000I35000J0D01*
G01*
X24296334Y-14975000D02*
X24026334Y-14975000D01*
X24026334Y-15045000D02*
G75*
G02*
X24026334Y-14975000I0J35000D01*
G01*
X24026334Y-15045000D02*
X24296334Y-15045000D01*
X24296334Y-15045000D02*
G75*
G03*
X24296334Y-14975000I0J35000D01*
G01*
X24825000Y-13400000D02*
G75*
G02*
X24755000Y-13400000I-35000J0D01*
G01*
X24755000Y-13400000D02*
G75*
G02*
X24825000Y-13400000I35000J0D01*
G01*
X24925000Y-13365000D02*
X24655000Y-13365000D01*
X24655000Y-13435000D02*
G75*
G02*
X24655000Y-13365000I0J35000D01*
G01*
X24655000Y-13435000D02*
X24925000Y-13435000D01*
X24925000Y-13435000D02*
G75*
G03*
X24925000Y-13365000I0J35000D01*
G01*
X24825000Y-14280000D02*
G75*
G02*
X24755000Y-14280000I-35000J0D01*
G01*
X24755000Y-14280000D02*
G75*
G02*
X24825000Y-14280000I35000J0D01*
G01*
X24925000Y-14245000D02*
X24655000Y-14245000D01*
X24655000Y-14315000D02*
G75*
G02*
X24655000Y-14245000I0J35000D01*
G01*
X24655000Y-14315000D02*
X24925000Y-14315000D01*
X24925000Y-14315000D02*
G75*
G03*
X24925000Y-14245000I0J35000D01*
G01*
X24825000Y-15010000D02*
G75*
G02*
X24755000Y-15010000I-35000J0D01*
G01*
X24755000Y-15010000D02*
G75*
G02*
X24825000Y-15010000I35000J0D01*
G01*
X24925000Y-14975000D02*
X24655000Y-14975000D01*
X24655000Y-15045000D02*
G75*
G02*
X24655000Y-14975000I0J35000D01*
G01*
X24655000Y-15045000D02*
X24925000Y-15045000D01*
X24925000Y-15045000D02*
G75*
G03*
X24925000Y-14975000I0J35000D01*
G01*
X25453667Y-13400000D02*
G75*
G02*
X25383667Y-13400000I-35000J0D01*
G01*
X25383667Y-13400000D02*
G75*
G02*
X25453667Y-13400000I35000J0D01*
G01*
X25553667Y-13365000D02*
X25283667Y-13365000D01*
X25283667Y-13435000D02*
G75*
G02*
X25283667Y-13365000I0J35000D01*
G01*
X25283667Y-13435000D02*
X25553667Y-13435000D01*
X25553667Y-13435000D02*
G75*
G03*
X25553667Y-13365000I0J35000D01*
G01*
X25453667Y-14280000D02*
G75*
G02*
X25383667Y-14280000I-35000J0D01*
G01*
X25383667Y-14280000D02*
G75*
G02*
X25453667Y-14280000I35000J0D01*
G01*
X25553667Y-14245000D02*
X25283667Y-14245000D01*
X25283667Y-14315000D02*
G75*
G02*
X25283667Y-14245000I0J35000D01*
G01*
X25283667Y-14315000D02*
X25553667Y-14315000D01*
X25553667Y-14315000D02*
G75*
G03*
X25553667Y-14245000I0J35000D01*
G01*
X25453667Y-15010000D02*
G75*
G02*
X25383667Y-15010000I-35000J0D01*
G01*
X25383667Y-15010000D02*
G75*
G02*
X25453667Y-15010000I35000J0D01*
G01*
X25553667Y-14975000D02*
X25283667Y-14975000D01*
X25283667Y-15045000D02*
G75*
G02*
X25283667Y-14975000I0J35000D01*
G01*
X25283667Y-15045000D02*
X25553667Y-15045000D01*
X25553667Y-15045000D02*
G75*
G03*
X25553667Y-14975000I0J35000D01*
G01*
X26082333Y-13400000D02*
G75*
G02*
X26012333Y-13400000I-35000J0D01*
G01*
X26012333Y-13400000D02*
G75*
G02*
X26082333Y-13400000I35000J0D01*
G01*
X26182333Y-13365000D02*
X25912333Y-13365000D01*
X25912333Y-13435000D02*
G75*
G02*
X25912333Y-13365000I0J35000D01*
G01*
X25912333Y-13435000D02*
X26182333Y-13435000D01*
X26182333Y-13435000D02*
G75*
G03*
X26182333Y-13365000I0J35000D01*
G01*
X26082333Y-14280000D02*
G75*
G02*
X26012333Y-14280000I-35000J0D01*
G01*
X26012333Y-14280000D02*
G75*
G02*
X26082333Y-14280000I35000J0D01*
G01*
X26182333Y-14245000D02*
X25912333Y-14245000D01*
X25912333Y-14315000D02*
G75*
G02*
X25912333Y-14245000I0J35000D01*
G01*
X25912333Y-14315000D02*
X26182333Y-14315000D01*
X26182333Y-14315000D02*
G75*
G03*
X26182333Y-14245000I0J35000D01*
G01*
X26082333Y-15010000D02*
G75*
G02*
X26012333Y-15010000I-35000J0D01*
G01*
X26012333Y-15010000D02*
G75*
G02*
X26082333Y-15010000I35000J0D01*
G01*
X26182333Y-14975000D02*
X25912333Y-14975000D01*
X25912333Y-15045000D02*
G75*
G02*
X25912333Y-14975000I0J35000D01*
G01*
X25912333Y-15045000D02*
X26182333Y-15045000D01*
X26182333Y-15045000D02*
G75*
G03*
X26182333Y-14975000I0J35000D01*
G01*
X26711000Y-13400000D02*
G75*
G02*
X26641000Y-13400000I-35000J0D01*
G01*
X26641000Y-13400000D02*
G75*
G02*
X26711000Y-13400000I35000J0D01*
G01*
X26811000Y-13365000D02*
X26541000Y-13365000D01*
X26541000Y-13435000D02*
G75*
G02*
X26541000Y-13365000I0J35000D01*
G01*
X26541000Y-13435000D02*
X26811000Y-13435000D01*
X26811000Y-13435000D02*
G75*
G03*
X26811000Y-13365000I0J35000D01*
G01*
X26711000Y-14280000D02*
G75*
G02*
X26641000Y-14280000I-35000J0D01*
G01*
X26641000Y-14280000D02*
G75*
G02*
X26711000Y-14280000I35000J0D01*
G01*
X26811000Y-14245000D02*
X26541000Y-14245000D01*
X26541000Y-14315000D02*
G75*
G02*
X26541000Y-14245000I0J35000D01*
G01*
X26541000Y-14315000D02*
X26811000Y-14315000D01*
X26811000Y-14315000D02*
G75*
G03*
X26811000Y-14245000I0J35000D01*
G01*
X26711000Y-15010000D02*
G75*
G02*
X26641000Y-15010000I-35000J0D01*
G01*
X26641000Y-15010000D02*
G75*
G02*
X26711000Y-15010000I35000J0D01*
G01*
X26811000Y-14975000D02*
X26541000Y-14975000D01*
X26541000Y-15045000D02*
G75*
G02*
X26541000Y-14975000I0J35000D01*
G01*
X26541000Y-15045000D02*
X26811000Y-15045000D01*
X26811000Y-15045000D02*
G75*
G03*
X26811000Y-14975000I0J35000D01*
G01*
X16230000Y-7002500D02*
X16230000Y-7097500D01*
X16182500Y-7050000D02*
X16277500Y-7050000D01*
X16230000Y-7872500D02*
X16230000Y-7967500D01*
X16182500Y-7920000D02*
X16277500Y-7920000D01*
X16230000Y-8742500D02*
X16230000Y-8837500D01*
X16182500Y-8790000D02*
X16277500Y-8790000D01*
X16230000Y-9582500D02*
X16230000Y-9677500D01*
X16182500Y-9630000D02*
X16277500Y-9630000D01*
X16230000Y-10462500D02*
X16230000Y-10557500D01*
X16182500Y-10510000D02*
X16277500Y-10510000D01*
X16230000Y-11337500D02*
X16230000Y-11432500D01*
X16182500Y-11385000D02*
X16277500Y-11385000D01*
X16230000Y-12247500D02*
X16230000Y-12342500D01*
X16182500Y-12295000D02*
X16277500Y-12295000D01*
X16480000Y-7002500D02*
X16480000Y-7097500D01*
X16432500Y-7050000D02*
X16527500Y-7050000D01*
X16480000Y-7872500D02*
X16480000Y-7967500D01*
X16432500Y-7920000D02*
X16527500Y-7920000D01*
X16480000Y-8742500D02*
X16480000Y-8837500D01*
X16432500Y-8790000D02*
X16527500Y-8790000D01*
X16480000Y-9582500D02*
X16480000Y-9677500D01*
X16432500Y-9630000D02*
X16527500Y-9630000D01*
X16480000Y-10462500D02*
X16480000Y-10557500D01*
X16432500Y-10510000D02*
X16527500Y-10510000D01*
X16480000Y-11337500D02*
X16480000Y-11432500D01*
X16432500Y-11385000D02*
X16527500Y-11385000D01*
X16480000Y-12247500D02*
X16480000Y-12342500D01*
X16432500Y-12295000D02*
X16527500Y-12295000D01*
X16730000Y-7002500D02*
X16730000Y-7097500D01*
X16682500Y-7050000D02*
X16777500Y-7050000D01*
X16730000Y-7872500D02*
X16730000Y-7967500D01*
X16682500Y-7920000D02*
X16777500Y-7920000D01*
X16730000Y-8742500D02*
X16730000Y-8837500D01*
X16682500Y-8790000D02*
X16777500Y-8790000D01*
X16730000Y-9582500D02*
X16730000Y-9677500D01*
X16682500Y-9630000D02*
X16777500Y-9630000D01*
X16730000Y-10462500D02*
X16730000Y-10557500D01*
X16682500Y-10510000D02*
X16777500Y-10510000D01*
X16730000Y-11337500D02*
X16730000Y-11432500D01*
X16682500Y-11385000D02*
X16777500Y-11385000D01*
X16730000Y-12247500D02*
X16730000Y-12342500D01*
X16682500Y-12295000D02*
X16777500Y-12295000D01*
X16980000Y-7002500D02*
X16980000Y-7097500D01*
X16932500Y-7050000D02*
X17027500Y-7050000D01*
X16980000Y-7872500D02*
X16980000Y-7967500D01*
X16932500Y-7920000D02*
X17027500Y-7920000D01*
X16980000Y-8742500D02*
X16980000Y-8837500D01*
X16932500Y-8790000D02*
X17027500Y-8790000D01*
X16980000Y-9582500D02*
X16980000Y-9677500D01*
X16932500Y-9630000D02*
X17027500Y-9630000D01*
X16980000Y-10462500D02*
X16980000Y-10557500D01*
X16932500Y-10510000D02*
X17027500Y-10510000D01*
X16980000Y-11337500D02*
X16980000Y-11432500D01*
X16932500Y-11385000D02*
X17027500Y-11385000D01*
X16980000Y-12247500D02*
X16980000Y-12342500D01*
X16932500Y-12295000D02*
X17027500Y-12295000D01*
X17230000Y-7002500D02*
X17230000Y-7097500D01*
X17182500Y-7050000D02*
X17277500Y-7050000D01*
X17230000Y-7872500D02*
X17230000Y-7967500D01*
X17182500Y-7920000D02*
X17277500Y-7920000D01*
X17230000Y-8742500D02*
X17230000Y-8837500D01*
X17182500Y-8790000D02*
X17277500Y-8790000D01*
X17230000Y-9582500D02*
X17230000Y-9677500D01*
X17182500Y-9630000D02*
X17277500Y-9630000D01*
X17230000Y-10462500D02*
X17230000Y-10557500D01*
X17182500Y-10510000D02*
X17277500Y-10510000D01*
X17230000Y-11337500D02*
X17230000Y-11432500D01*
X17182500Y-11385000D02*
X17277500Y-11385000D01*
X17230000Y-12247500D02*
X17230000Y-12342500D01*
X17182500Y-12295000D02*
X17277500Y-12295000D01*
X26610000Y-7022500D02*
X26610000Y-7117500D01*
X26562500Y-7070000D02*
X26657500Y-7070000D01*
X26610000Y-7892500D02*
X26610000Y-7987500D01*
X26562500Y-7940000D02*
X26657500Y-7940000D01*
X26610000Y-8762500D02*
X26610000Y-8857500D01*
X26562500Y-8810000D02*
X26657500Y-8810000D01*
X26610000Y-9592500D02*
X26610000Y-9687500D01*
X26562500Y-9640000D02*
X26657500Y-9640000D01*
X26610000Y-10472500D02*
X26610000Y-10567500D01*
X26562500Y-10520000D02*
X26657500Y-10520000D01*
X26610000Y-11352500D02*
X26610000Y-11447500D01*
X26562500Y-11400000D02*
X26657500Y-11400000D01*
X26610000Y-12272500D02*
X26610000Y-12367500D01*
X26562500Y-12320000D02*
X26657500Y-12320000D01*
X26860000Y-7022500D02*
X26860000Y-7117500D01*
X26812500Y-7070000D02*
X26907500Y-7070000D01*
X26860000Y-7892500D02*
X26860000Y-7987500D01*
X26812500Y-7940000D02*
X26907500Y-7940000D01*
X26860000Y-8762500D02*
X26860000Y-8857500D01*
X26812500Y-8810000D02*
X26907500Y-8810000D01*
X26860000Y-9592500D02*
X26860000Y-9687500D01*
X26812500Y-9640000D02*
X26907500Y-9640000D01*
X26860000Y-10472500D02*
X26860000Y-10567500D01*
X26812500Y-10520000D02*
X26907500Y-10520000D01*
X26860000Y-11352500D02*
X26860000Y-11447500D01*
X26812500Y-11400000D02*
X26907500Y-11400000D01*
X26860000Y-12272500D02*
X26860000Y-12367500D01*
X26812500Y-12320000D02*
X26907500Y-12320000D01*
X27110000Y-7022500D02*
X27110000Y-7117500D01*
X27062500Y-7070000D02*
X27157500Y-7070000D01*
X27110000Y-7892500D02*
X27110000Y-7987500D01*
X27062500Y-7940000D02*
X27157500Y-7940000D01*
X27110000Y-8762500D02*
X27110000Y-8857500D01*
X27062500Y-8810000D02*
X27157500Y-8810000D01*
X27110000Y-9592500D02*
X27110000Y-9687500D01*
X27062500Y-9640000D02*
X27157500Y-9640000D01*
X27110000Y-10472500D02*
X27110000Y-10567500D01*
X27062500Y-10520000D02*
X27157500Y-10520000D01*
X27110000Y-11352500D02*
X27110000Y-11447500D01*
X27062500Y-11400000D02*
X27157500Y-11400000D01*
X27110000Y-12272500D02*
X27110000Y-12367500D01*
X27062500Y-12320000D02*
X27157500Y-12320000D01*
X27360000Y-7022500D02*
X27360000Y-7117500D01*
X27312500Y-7070000D02*
X27407500Y-7070000D01*
X27360000Y-7892500D02*
X27360000Y-7987500D01*
X27312500Y-7940000D02*
X27407500Y-7940000D01*
X27360000Y-8762500D02*
X27360000Y-8857500D01*
X27312500Y-8810000D02*
X27407500Y-8810000D01*
X27360000Y-9592500D02*
X27360000Y-9687500D01*
X27312500Y-9640000D02*
X27407500Y-9640000D01*
X27360000Y-10472500D02*
X27360000Y-10567500D01*
X27312500Y-10520000D02*
X27407500Y-10520000D01*
X27360000Y-11352500D02*
X27360000Y-11447500D01*
X27312500Y-11400000D02*
X27407500Y-11400000D01*
X27360000Y-12272500D02*
X27360000Y-12367500D01*
X27312500Y-12320000D02*
X27407500Y-12320000D01*
X27610000Y-7022500D02*
X27610000Y-7117500D01*
X27562500Y-7070000D02*
X27657500Y-7070000D01*
X27610000Y-7892500D02*
X27610000Y-7987500D01*
X27562500Y-7940000D02*
X27657500Y-7940000D01*
X27610000Y-8762500D02*
X27610000Y-8857500D01*
X27562500Y-8810000D02*
X27657500Y-8810000D01*
X27610000Y-9592500D02*
X27610000Y-9687500D01*
X27562500Y-9640000D02*
X27657500Y-9640000D01*
X27610000Y-10472500D02*
X27610000Y-10567500D01*
X27562500Y-10520000D02*
X27657500Y-10520000D01*
X27610000Y-11352500D02*
X27610000Y-11447500D01*
X27562500Y-11400000D02*
X27657500Y-11400000D01*
X27610000Y-12272500D02*
X27610000Y-12367500D01*
X27562500Y-12320000D02*
X27657500Y-12320000D01*
X16435356Y-5320356D02*
X16435356Y-5249644D01*
X16364644Y-5249644D01*
X16364644Y-5320356D01*
X16435356Y-5320356D01*
X16475000Y-5235000D02*
X16325000Y-5235000D01*
X16325000Y-5335000D02*
G75*
G02*
X16325000Y-5235000I0J50000D01*
G01*
X16325000Y-5335000D02*
X16475000Y-5335000D01*
X16475000Y-5335000D02*
G75*
G03*
X16475000Y-5235000I0J50000D01*
G01*
X16435356Y-6220356D02*
X16435356Y-6149644D01*
X16364644Y-6149644D01*
X16364644Y-6220356D01*
X16435356Y-6220356D01*
X16475000Y-6135000D02*
X16325000Y-6135000D01*
X16325000Y-6235000D02*
G75*
G02*
X16325000Y-6135000I0J50000D01*
G01*
X16325000Y-6235000D02*
X16475000Y-6235000D01*
X16475000Y-6235000D02*
G75*
G03*
X16475000Y-6135000I0J50000D01*
G01*
X16535356Y-5770356D02*
X16535356Y-5699644D01*
X16464644Y-5699644D01*
X16464644Y-5770356D01*
X16535356Y-5770356D01*
X16450000Y-5670000D02*
X16450000Y-5800000D01*
X16550000Y-5800000D02*
G75*
G02*
X16450000Y-5800000I-50000J0D01*
G01*
X16550000Y-5800000D02*
X16550000Y-5670000D01*
X16550000Y-5670000D02*
G75*
G03*
X16450000Y-5670000I-50000J0D01*
G01*
X17135356Y-5770356D02*
X17135356Y-5699644D01*
X17064644Y-5699644D01*
X17064644Y-5770356D01*
X17135356Y-5770356D01*
X17050000Y-5635000D02*
X17050000Y-5835000D01*
X17150000Y-5835000D02*
G75*
G02*
X17050000Y-5835000I-50000J0D01*
G01*
X17150000Y-5835000D02*
X17150000Y-5635000D01*
X17150000Y-5635000D02*
G75*
G03*
X17050000Y-5635000I-50000J0D01*
G01*
X20678356Y-5337356D02*
X20678356Y-5266644D01*
X20607644Y-5266644D01*
X20607644Y-5337356D01*
X20678356Y-5337356D01*
X20678356Y-5591356D02*
X20678356Y-5520644D01*
X20607644Y-5520644D01*
X20607644Y-5591356D01*
X20678356Y-5591356D01*
X20678356Y-5845356D02*
X20678356Y-5774644D01*
X20607644Y-5774644D01*
X20607644Y-5845356D01*
X20678356Y-5845356D01*
X20678356Y-6099356D02*
X20678356Y-6028644D01*
X20607644Y-6028644D01*
X20607644Y-6099356D01*
X20678356Y-6099356D01*
X20678356Y-6353356D02*
X20678356Y-6282644D01*
X20607644Y-6282644D01*
X20607644Y-6353356D01*
X20678356Y-6353356D01*
X20678356Y-6607356D02*
X20678356Y-6536644D01*
X20607644Y-6536644D01*
X20607644Y-6607356D01*
X20678356Y-6607356D01*
X20678356Y-6861356D02*
X20678356Y-6790644D01*
X20607644Y-6790644D01*
X20607644Y-6861356D01*
X20678356Y-6861356D01*
X20678356Y-7115356D02*
X20678356Y-7044644D01*
X20607644Y-7044644D01*
X20607644Y-7115356D01*
X20678356Y-7115356D01*
X22964356Y-5337356D02*
X22964356Y-5266644D01*
X22893644Y-5266644D01*
X22893644Y-5337356D01*
X22964356Y-5337356D01*
X22964356Y-5591356D02*
X22964356Y-5520644D01*
X22893644Y-5520644D01*
X22893644Y-5591356D01*
X22964356Y-5591356D01*
X22964356Y-5845356D02*
X22964356Y-5774644D01*
X22893644Y-5774644D01*
X22893644Y-5845356D01*
X22964356Y-5845356D01*
X22964356Y-6099356D02*
X22964356Y-6028644D01*
X22893644Y-6028644D01*
X22893644Y-6099356D01*
X22964356Y-6099356D01*
X22964356Y-6353356D02*
X22964356Y-6282644D01*
X22893644Y-6282644D01*
X22893644Y-6353356D01*
X22964356Y-6353356D01*
X22964356Y-6607356D02*
X22964356Y-6536644D01*
X22893644Y-6536644D01*
X22893644Y-6607356D01*
X22964356Y-6607356D01*
X22964356Y-6861356D02*
X22964356Y-6790644D01*
X22893644Y-6790644D01*
X22893644Y-6861356D01*
X22964356Y-6861356D01*
X22964356Y-7115356D02*
X22964356Y-7044644D01*
X22893644Y-7044644D01*
X22893644Y-7115356D01*
X22964356Y-7115356D01*
D11*
X16051639Y-15574302D02*
X16051639Y-15374302D01*
X16051639Y-15374302D02*
X16099258Y-15374302D01*
X16099258Y-15374302D02*
X16127829Y-15383826D01*
X16127829Y-15383826D02*
X16146877Y-15402873D01*
X16146877Y-15402873D02*
X16156401Y-15421921D01*
X16156401Y-15421921D02*
X16165925Y-15460016D01*
X16165925Y-15460016D02*
X16165925Y-15488588D01*
X16165925Y-15488588D02*
X16156401Y-15526683D01*
X16156401Y-15526683D02*
X16146877Y-15545731D01*
X16146877Y-15545731D02*
X16127829Y-15564778D01*
X16127829Y-15564778D02*
X16099258Y-15574302D01*
X16099258Y-15574302D02*
X16051639Y-15574302D01*
X16251639Y-15574302D02*
X16251639Y-15440969D01*
X16251639Y-15479064D02*
X16261163Y-15460016D01*
X16261163Y-15460016D02*
X16270686Y-15450492D01*
X16270686Y-15450492D02*
X16289734Y-15440969D01*
X16289734Y-15440969D02*
X16308782Y-15440969D01*
X16375448Y-15574302D02*
X16375448Y-15440969D01*
X16375448Y-15374302D02*
X16365925Y-15383826D01*
X16365925Y-15383826D02*
X16375448Y-15393350D01*
X16375448Y-15393350D02*
X16384972Y-15383826D01*
X16384972Y-15383826D02*
X16375448Y-15374302D01*
X16375448Y-15374302D02*
X16375448Y-15393350D01*
X16499258Y-15574302D02*
X16480210Y-15564778D01*
X16480210Y-15564778D02*
X16470686Y-15545731D01*
X16470686Y-15545731D02*
X16470686Y-15374302D01*
X16604020Y-15574302D02*
X16584972Y-15564778D01*
X16584972Y-15564778D02*
X16575448Y-15545731D01*
X16575448Y-15545731D02*
X16575448Y-15374302D01*
X16832591Y-15574302D02*
X16832591Y-15374302D01*
X16832591Y-15374302D02*
X16899258Y-15517159D01*
X16899258Y-15517159D02*
X16965925Y-15374302D01*
X16965925Y-15374302D02*
X16965925Y-15574302D01*
X17146877Y-15574302D02*
X17146877Y-15469540D01*
X17146877Y-15469540D02*
X17137353Y-15450492D01*
X17137353Y-15450492D02*
X17118306Y-15440969D01*
X17118306Y-15440969D02*
X17080210Y-15440969D01*
X17080210Y-15440969D02*
X17061163Y-15450492D01*
X17146877Y-15564778D02*
X17127829Y-15574302D01*
X17127829Y-15574302D02*
X17080210Y-15574302D01*
X17080210Y-15574302D02*
X17061163Y-15564778D01*
X17061163Y-15564778D02*
X17051639Y-15545731D01*
X17051639Y-15545731D02*
X17051639Y-15526683D01*
X17051639Y-15526683D02*
X17061163Y-15507635D01*
X17061163Y-15507635D02*
X17080210Y-15498112D01*
X17080210Y-15498112D02*
X17127829Y-15498112D01*
X17127829Y-15498112D02*
X17146877Y-15488588D01*
X17242115Y-15440969D02*
X17242115Y-15640969D01*
X17242115Y-15450492D02*
X17261163Y-15440969D01*
X17261163Y-15440969D02*
X17299258Y-15440969D01*
X17299258Y-15440969D02*
X17318306Y-15450492D01*
X17318306Y-15450492D02*
X17327829Y-15460016D01*
X17327829Y-15460016D02*
X17337353Y-15479064D01*
X17337353Y-15479064D02*
X17337353Y-15536207D01*
X17337353Y-15536207D02*
X17327829Y-15555254D01*
X17327829Y-15555254D02*
X17318306Y-15564778D01*
X17318306Y-15564778D02*
X17299258Y-15574302D01*
X17299258Y-15574302D02*
X17261163Y-15574302D01*
X17261163Y-15574302D02*
X17242115Y-15564778D01*
X17423068Y-15555254D02*
X17432591Y-15564778D01*
X17432591Y-15564778D02*
X17423068Y-15574302D01*
X17423068Y-15574302D02*
X17413544Y-15564778D01*
X17413544Y-15564778D02*
X17423068Y-15555254D01*
X17423068Y-15555254D02*
X17423068Y-15574302D01*
X17423068Y-15450492D02*
X17432591Y-15460016D01*
X17432591Y-15460016D02*
X17423068Y-15469540D01*
X17423068Y-15469540D02*
X17413544Y-15460016D01*
X17413544Y-15460016D02*
X17423068Y-15450492D01*
X17423068Y-15450492D02*
X17423068Y-15469540D01*
D12*
X15760862Y-15887818D02*
X15790862Y-15917818D01*
X15790862Y-15887818D02*
X15760862Y-15917818D01*
D11*
X16089734Y-15794302D02*
X16108782Y-15794302D01*
X16108782Y-15794302D02*
X16127829Y-15803826D01*
X16127829Y-15803826D02*
X16137353Y-15813350D01*
X16137353Y-15813350D02*
X16146877Y-15832397D01*
X16146877Y-15832397D02*
X16156401Y-15870492D01*
X16156401Y-15870492D02*
X16156401Y-15918112D01*
X16156401Y-15918112D02*
X16146877Y-15956207D01*
X16146877Y-15956207D02*
X16137353Y-15975254D01*
X16137353Y-15975254D02*
X16127829Y-15984778D01*
X16127829Y-15984778D02*
X16108782Y-15994302D01*
X16108782Y-15994302D02*
X16089734Y-15994302D01*
X16089734Y-15994302D02*
X16070686Y-15984778D01*
X16070686Y-15984778D02*
X16061163Y-15975254D01*
X16061163Y-15975254D02*
X16051639Y-15956207D01*
X16051639Y-15956207D02*
X16042115Y-15918112D01*
X16042115Y-15918112D02*
X16042115Y-15870492D01*
X16042115Y-15870492D02*
X16051639Y-15832397D01*
X16051639Y-15832397D02*
X16061163Y-15813350D01*
X16061163Y-15813350D02*
X16070686Y-15803826D01*
X16070686Y-15803826D02*
X16089734Y-15794302D01*
X16242115Y-15975254D02*
X16251639Y-15984778D01*
X16251639Y-15984778D02*
X16242115Y-15994302D01*
X16242115Y-15994302D02*
X16232591Y-15984778D01*
X16232591Y-15984778D02*
X16242115Y-15975254D01*
X16242115Y-15975254D02*
X16242115Y-15994302D01*
X16318306Y-15794302D02*
X16442115Y-15794302D01*
X16442115Y-15794302D02*
X16375448Y-15870492D01*
X16375448Y-15870492D02*
X16404020Y-15870492D01*
X16404020Y-15870492D02*
X16423067Y-15880016D01*
X16423067Y-15880016D02*
X16432591Y-15889540D01*
X16432591Y-15889540D02*
X16442115Y-15908588D01*
X16442115Y-15908588D02*
X16442115Y-15956207D01*
X16442115Y-15956207D02*
X16432591Y-15975254D01*
X16432591Y-15975254D02*
X16423067Y-15984778D01*
X16423067Y-15984778D02*
X16404020Y-15994302D01*
X16404020Y-15994302D02*
X16346877Y-15994302D01*
X16346877Y-15994302D02*
X16327829Y-15984778D01*
X16327829Y-15984778D02*
X16318306Y-15975254D01*
X16565925Y-15794302D02*
X16584972Y-15794302D01*
X16584972Y-15794302D02*
X16604020Y-15803826D01*
X16604020Y-15803826D02*
X16613544Y-15813350D01*
X16613544Y-15813350D02*
X16623067Y-15832397D01*
X16623067Y-15832397D02*
X16632591Y-15870492D01*
X16632591Y-15870492D02*
X16632591Y-15918112D01*
X16632591Y-15918112D02*
X16623067Y-15956207D01*
X16623067Y-15956207D02*
X16613544Y-15975254D01*
X16613544Y-15975254D02*
X16604020Y-15984778D01*
X16604020Y-15984778D02*
X16584972Y-15994302D01*
X16584972Y-15994302D02*
X16565925Y-15994302D01*
X16565925Y-15994302D02*
X16546877Y-15984778D01*
X16546877Y-15984778D02*
X16537353Y-15975254D01*
X16537353Y-15975254D02*
X16527829Y-15956207D01*
X16527829Y-15956207D02*
X16518306Y-15918112D01*
X16518306Y-15918112D02*
X16518306Y-15870492D01*
X16518306Y-15870492D02*
X16527829Y-15832397D01*
X16527829Y-15832397D02*
X16537353Y-15813350D01*
X16537353Y-15813350D02*
X16546877Y-15803826D01*
X16546877Y-15803826D02*
X16565925Y-15794302D01*
X16756401Y-15794302D02*
X16775448Y-15794302D01*
X16775448Y-15794302D02*
X16794496Y-15803826D01*
X16794496Y-15803826D02*
X16804020Y-15813350D01*
X16804020Y-15813350D02*
X16813544Y-15832397D01*
X16813544Y-15832397D02*
X16823068Y-15870492D01*
X16823068Y-15870492D02*
X16823068Y-15918112D01*
X16823068Y-15918112D02*
X16813544Y-15956207D01*
X16813544Y-15956207D02*
X16804020Y-15975254D01*
X16804020Y-15975254D02*
X16794496Y-15984778D01*
X16794496Y-15984778D02*
X16775448Y-15994302D01*
X16775448Y-15994302D02*
X16756401Y-15994302D01*
X16756401Y-15994302D02*
X16737353Y-15984778D01*
X16737353Y-15984778D02*
X16727829Y-15975254D01*
X16727829Y-15975254D02*
X16718306Y-15956207D01*
X16718306Y-15956207D02*
X16708782Y-15918112D01*
X16708782Y-15918112D02*
X16708782Y-15870492D01*
X16708782Y-15870492D02*
X16718306Y-15832397D01*
X16718306Y-15832397D02*
X16727829Y-15813350D01*
X16727829Y-15813350D02*
X16737353Y-15803826D01*
X16737353Y-15803826D02*
X16756401Y-15794302D01*
X16908782Y-15994302D02*
X16908782Y-15860969D01*
X16908782Y-15880016D02*
X16918306Y-15870492D01*
X16918306Y-15870492D02*
X16937353Y-15860969D01*
X16937353Y-15860969D02*
X16965925Y-15860969D01*
X16965925Y-15860969D02*
X16984972Y-15870492D01*
X16984972Y-15870492D02*
X16994496Y-15889540D01*
X16994496Y-15889540D02*
X16994496Y-15994302D01*
X16994496Y-15889540D02*
X17004020Y-15870492D01*
X17004020Y-15870492D02*
X17023068Y-15860969D01*
X17023068Y-15860969D02*
X17051639Y-15860969D01*
X17051639Y-15860969D02*
X17070687Y-15870492D01*
X17070687Y-15870492D02*
X17080210Y-15889540D01*
X17080210Y-15889540D02*
X17080210Y-15994302D01*
X17175449Y-15994302D02*
X17175449Y-15860969D01*
X17175449Y-15880016D02*
X17184972Y-15870492D01*
X17184972Y-15870492D02*
X17204020Y-15860969D01*
X17204020Y-15860969D02*
X17232591Y-15860969D01*
X17232591Y-15860969D02*
X17251639Y-15870492D01*
X17251639Y-15870492D02*
X17261163Y-15889540D01*
X17261163Y-15889540D02*
X17261163Y-15994302D01*
X17261163Y-15889540D02*
X17270687Y-15870492D01*
X17270687Y-15870492D02*
X17289734Y-15860969D01*
X17289734Y-15860969D02*
X17318306Y-15860969D01*
X17318306Y-15860969D02*
X17337353Y-15870492D01*
X17337353Y-15870492D02*
X17346877Y-15889540D01*
X17346877Y-15889540D02*
X17346877Y-15994302D01*
X17737353Y-15784778D02*
X17565925Y-16041921D01*
X17994496Y-15794302D02*
X18013544Y-15794302D01*
X18013544Y-15794302D02*
X18032592Y-15803826D01*
X18032592Y-15803826D02*
X18042115Y-15813350D01*
X18042115Y-15813350D02*
X18051639Y-15832397D01*
X18051639Y-15832397D02*
X18061163Y-15870492D01*
X18061163Y-15870492D02*
X18061163Y-15918112D01*
X18061163Y-15918112D02*
X18051639Y-15956207D01*
X18051639Y-15956207D02*
X18042115Y-15975254D01*
X18042115Y-15975254D02*
X18032592Y-15984778D01*
X18032592Y-15984778D02*
X18013544Y-15994302D01*
X18013544Y-15994302D02*
X17994496Y-15994302D01*
X17994496Y-15994302D02*
X17975449Y-15984778D01*
X17975449Y-15984778D02*
X17965925Y-15975254D01*
X17965925Y-15975254D02*
X17956401Y-15956207D01*
X17956401Y-15956207D02*
X17946877Y-15918112D01*
X17946877Y-15918112D02*
X17946877Y-15870492D01*
X17946877Y-15870492D02*
X17956401Y-15832397D01*
X17956401Y-15832397D02*
X17965925Y-15813350D01*
X17965925Y-15813350D02*
X17975449Y-15803826D01*
X17975449Y-15803826D02*
X17994496Y-15794302D01*
X18146877Y-15975254D02*
X18156401Y-15984778D01*
X18156401Y-15984778D02*
X18146877Y-15994302D01*
X18146877Y-15994302D02*
X18137353Y-15984778D01*
X18137353Y-15984778D02*
X18146877Y-15975254D01*
X18146877Y-15975254D02*
X18146877Y-15994302D01*
X18280211Y-15794302D02*
X18299258Y-15794302D01*
X18299258Y-15794302D02*
X18318306Y-15803826D01*
X18318306Y-15803826D02*
X18327830Y-15813350D01*
X18327830Y-15813350D02*
X18337353Y-15832397D01*
X18337353Y-15832397D02*
X18346877Y-15870492D01*
X18346877Y-15870492D02*
X18346877Y-15918112D01*
X18346877Y-15918112D02*
X18337353Y-15956207D01*
X18337353Y-15956207D02*
X18327830Y-15975254D01*
X18327830Y-15975254D02*
X18318306Y-15984778D01*
X18318306Y-15984778D02*
X18299258Y-15994302D01*
X18299258Y-15994302D02*
X18280211Y-15994302D01*
X18280211Y-15994302D02*
X18261163Y-15984778D01*
X18261163Y-15984778D02*
X18251639Y-15975254D01*
X18251639Y-15975254D02*
X18242115Y-15956207D01*
X18242115Y-15956207D02*
X18232592Y-15918112D01*
X18232592Y-15918112D02*
X18232592Y-15870492D01*
X18232592Y-15870492D02*
X18242115Y-15832397D01*
X18242115Y-15832397D02*
X18251639Y-15813350D01*
X18251639Y-15813350D02*
X18261163Y-15803826D01*
X18261163Y-15803826D02*
X18280211Y-15794302D01*
X18537353Y-15994302D02*
X18423068Y-15994302D01*
X18480211Y-15994302D02*
X18480211Y-15794302D01*
X18480211Y-15794302D02*
X18461163Y-15822873D01*
X18461163Y-15822873D02*
X18442115Y-15841921D01*
X18442115Y-15841921D02*
X18423068Y-15851445D01*
X18727830Y-15994302D02*
X18613544Y-15994302D01*
X18670687Y-15994302D02*
X18670687Y-15794302D01*
X18670687Y-15794302D02*
X18651639Y-15822873D01*
X18651639Y-15822873D02*
X18632592Y-15841921D01*
X18632592Y-15841921D02*
X18613544Y-15851445D01*
X18842115Y-15880016D02*
X18823068Y-15870492D01*
X18823068Y-15870492D02*
X18813544Y-15860969D01*
X18813544Y-15860969D02*
X18804020Y-15841921D01*
X18804020Y-15841921D02*
X18804020Y-15832397D01*
X18804020Y-15832397D02*
X18813544Y-15813350D01*
X18813544Y-15813350D02*
X18823068Y-15803826D01*
X18823068Y-15803826D02*
X18842115Y-15794302D01*
X18842115Y-15794302D02*
X18880211Y-15794302D01*
X18880211Y-15794302D02*
X18899258Y-15803826D01*
X18899258Y-15803826D02*
X18908782Y-15813350D01*
X18908782Y-15813350D02*
X18918306Y-15832397D01*
X18918306Y-15832397D02*
X18918306Y-15841921D01*
X18918306Y-15841921D02*
X18908782Y-15860969D01*
X18908782Y-15860969D02*
X18899258Y-15870492D01*
X18899258Y-15870492D02*
X18880211Y-15880016D01*
X18880211Y-15880016D02*
X18842115Y-15880016D01*
X18842115Y-15880016D02*
X18823068Y-15889540D01*
X18823068Y-15889540D02*
X18813544Y-15899064D01*
X18813544Y-15899064D02*
X18804020Y-15918112D01*
X18804020Y-15918112D02*
X18804020Y-15956207D01*
X18804020Y-15956207D02*
X18813544Y-15975254D01*
X18813544Y-15975254D02*
X18823068Y-15984778D01*
X18823068Y-15984778D02*
X18842115Y-15994302D01*
X18842115Y-15994302D02*
X18880211Y-15994302D01*
X18880211Y-15994302D02*
X18899258Y-15984778D01*
X18899258Y-15984778D02*
X18908782Y-15975254D01*
X18908782Y-15975254D02*
X18918306Y-15956207D01*
X18918306Y-15956207D02*
X18918306Y-15918112D01*
X18918306Y-15918112D02*
X18908782Y-15899064D01*
X18908782Y-15899064D02*
X18899258Y-15889540D01*
X18899258Y-15889540D02*
X18880211Y-15880016D01*
X18994496Y-15794302D02*
X18994496Y-15832397D01*
X19070687Y-15794302D02*
X19070687Y-15832397D01*
X19365925Y-16070492D02*
X19356401Y-16060969D01*
X19356401Y-16060969D02*
X19337354Y-16032397D01*
X19337354Y-16032397D02*
X19327830Y-16013350D01*
X19327830Y-16013350D02*
X19318306Y-15984778D01*
X19318306Y-15984778D02*
X19308782Y-15937159D01*
X19308782Y-15937159D02*
X19308782Y-15899064D01*
X19308782Y-15899064D02*
X19318306Y-15851445D01*
X19318306Y-15851445D02*
X19327830Y-15822873D01*
X19327830Y-15822873D02*
X19337354Y-15803826D01*
X19337354Y-15803826D02*
X19356401Y-15775254D01*
X19356401Y-15775254D02*
X19365925Y-15765731D01*
X19546877Y-15994302D02*
X19432592Y-15994302D01*
X19489734Y-15994302D02*
X19489734Y-15794302D01*
X19489734Y-15794302D02*
X19470687Y-15822873D01*
X19470687Y-15822873D02*
X19451639Y-15841921D01*
X19451639Y-15841921D02*
X19432592Y-15851445D01*
X19613544Y-15794302D02*
X19737354Y-15794302D01*
X19737354Y-15794302D02*
X19670687Y-15870492D01*
X19670687Y-15870492D02*
X19699258Y-15870492D01*
X19699258Y-15870492D02*
X19718306Y-15880016D01*
X19718306Y-15880016D02*
X19727830Y-15889540D01*
X19727830Y-15889540D02*
X19737354Y-15908588D01*
X19737354Y-15908588D02*
X19737354Y-15956207D01*
X19737354Y-15956207D02*
X19727830Y-15975254D01*
X19727830Y-15975254D02*
X19718306Y-15984778D01*
X19718306Y-15984778D02*
X19699258Y-15994302D01*
X19699258Y-15994302D02*
X19642115Y-15994302D01*
X19642115Y-15994302D02*
X19623068Y-15984778D01*
X19623068Y-15984778D02*
X19613544Y-15975254D01*
X19908782Y-15860969D02*
X19908782Y-15994302D01*
X19861163Y-15784778D02*
X19813544Y-15927635D01*
X19813544Y-15927635D02*
X19937354Y-15927635D01*
X20165925Y-15994302D02*
X20165925Y-15794302D01*
X20251639Y-15994302D02*
X20251639Y-15889540D01*
X20251639Y-15889540D02*
X20242116Y-15870492D01*
X20242116Y-15870492D02*
X20223068Y-15860969D01*
X20223068Y-15860969D02*
X20194496Y-15860969D01*
X20194496Y-15860969D02*
X20175449Y-15870492D01*
X20175449Y-15870492D02*
X20165925Y-15880016D01*
X20375449Y-15994302D02*
X20356401Y-15984778D01*
X20356401Y-15984778D02*
X20346877Y-15975254D01*
X20346877Y-15975254D02*
X20337354Y-15956207D01*
X20337354Y-15956207D02*
X20337354Y-15899064D01*
X20337354Y-15899064D02*
X20346877Y-15880016D01*
X20346877Y-15880016D02*
X20356401Y-15870492D01*
X20356401Y-15870492D02*
X20375449Y-15860969D01*
X20375449Y-15860969D02*
X20404020Y-15860969D01*
X20404020Y-15860969D02*
X20423068Y-15870492D01*
X20423068Y-15870492D02*
X20432592Y-15880016D01*
X20432592Y-15880016D02*
X20442116Y-15899064D01*
X20442116Y-15899064D02*
X20442116Y-15956207D01*
X20442116Y-15956207D02*
X20432592Y-15975254D01*
X20432592Y-15975254D02*
X20423068Y-15984778D01*
X20423068Y-15984778D02*
X20404020Y-15994302D01*
X20404020Y-15994302D02*
X20375449Y-15994302D01*
X20556401Y-15994302D02*
X20537354Y-15984778D01*
X20537354Y-15984778D02*
X20527830Y-15965731D01*
X20527830Y-15965731D02*
X20527830Y-15794302D01*
X20708782Y-15984778D02*
X20689735Y-15994302D01*
X20689735Y-15994302D02*
X20651639Y-15994302D01*
X20651639Y-15994302D02*
X20632592Y-15984778D01*
X20632592Y-15984778D02*
X20623068Y-15965731D01*
X20623068Y-15965731D02*
X20623068Y-15889540D01*
X20623068Y-15889540D02*
X20632592Y-15870492D01*
X20632592Y-15870492D02*
X20651639Y-15860969D01*
X20651639Y-15860969D02*
X20689735Y-15860969D01*
X20689735Y-15860969D02*
X20708782Y-15870492D01*
X20708782Y-15870492D02*
X20718306Y-15889540D01*
X20718306Y-15889540D02*
X20718306Y-15908588D01*
X20718306Y-15908588D02*
X20623068Y-15927635D01*
X20794497Y-15984778D02*
X20813544Y-15994302D01*
X20813544Y-15994302D02*
X20851639Y-15994302D01*
X20851639Y-15994302D02*
X20870687Y-15984778D01*
X20870687Y-15984778D02*
X20880211Y-15965731D01*
X20880211Y-15965731D02*
X20880211Y-15956207D01*
X20880211Y-15956207D02*
X20870687Y-15937159D01*
X20870687Y-15937159D02*
X20851639Y-15927635D01*
X20851639Y-15927635D02*
X20823068Y-15927635D01*
X20823068Y-15927635D02*
X20804020Y-15918112D01*
X20804020Y-15918112D02*
X20794497Y-15899064D01*
X20794497Y-15899064D02*
X20794497Y-15889540D01*
X20794497Y-15889540D02*
X20804020Y-15870492D01*
X20804020Y-15870492D02*
X20823068Y-15860969D01*
X20823068Y-15860969D02*
X20851639Y-15860969D01*
X20851639Y-15860969D02*
X20870687Y-15870492D01*
X20946878Y-16070492D02*
X20956401Y-16060969D01*
X20956401Y-16060969D02*
X20975449Y-16032397D01*
X20975449Y-16032397D02*
X20984973Y-16013350D01*
X20984973Y-16013350D02*
X20994497Y-15984778D01*
X20994497Y-15984778D02*
X21004020Y-15937159D01*
X21004020Y-15937159D02*
X21004020Y-15899064D01*
X21004020Y-15899064D02*
X20994497Y-15851445D01*
X20994497Y-15851445D02*
X20984973Y-15822873D01*
X20984973Y-15822873D02*
X20975449Y-15803826D01*
X20975449Y-15803826D02*
X20956401Y-15775254D01*
X20956401Y-15775254D02*
X20946878Y-15765731D01*
D12*
X15790862Y-16166818D02*
G75*
G02*
X15720862Y-16166818I-35000J0D01*
G01*
X15720862Y-16166818D02*
G75*
G02*
X15790862Y-16166818I35000J0D01*
G01*
D11*
X16089734Y-16058302D02*
X16108782Y-16058302D01*
X16108782Y-16058302D02*
X16127829Y-16067826D01*
X16127829Y-16067826D02*
X16137353Y-16077350D01*
X16137353Y-16077350D02*
X16146877Y-16096397D01*
X16146877Y-16096397D02*
X16156401Y-16134492D01*
X16156401Y-16134492D02*
X16156401Y-16182112D01*
X16156401Y-16182112D02*
X16146877Y-16220207D01*
X16146877Y-16220207D02*
X16137353Y-16239254D01*
X16137353Y-16239254D02*
X16127829Y-16248778D01*
X16127829Y-16248778D02*
X16108782Y-16258302D01*
X16108782Y-16258302D02*
X16089734Y-16258302D01*
X16089734Y-16258302D02*
X16070686Y-16248778D01*
X16070686Y-16248778D02*
X16061163Y-16239254D01*
X16061163Y-16239254D02*
X16051639Y-16220207D01*
X16051639Y-16220207D02*
X16042115Y-16182112D01*
X16042115Y-16182112D02*
X16042115Y-16134492D01*
X16042115Y-16134492D02*
X16051639Y-16096397D01*
X16051639Y-16096397D02*
X16061163Y-16077350D01*
X16061163Y-16077350D02*
X16070686Y-16067826D01*
X16070686Y-16067826D02*
X16089734Y-16058302D01*
X16242115Y-16239254D02*
X16251639Y-16248778D01*
X16251639Y-16248778D02*
X16242115Y-16258302D01*
X16242115Y-16258302D02*
X16232591Y-16248778D01*
X16232591Y-16248778D02*
X16242115Y-16239254D01*
X16242115Y-16239254D02*
X16242115Y-16258302D01*
X16318306Y-16058302D02*
X16451639Y-16058302D01*
X16451639Y-16058302D02*
X16365925Y-16258302D01*
X16565925Y-16058302D02*
X16584972Y-16058302D01*
X16584972Y-16058302D02*
X16604020Y-16067826D01*
X16604020Y-16067826D02*
X16613544Y-16077350D01*
X16613544Y-16077350D02*
X16623067Y-16096397D01*
X16623067Y-16096397D02*
X16632591Y-16134492D01*
X16632591Y-16134492D02*
X16632591Y-16182112D01*
X16632591Y-16182112D02*
X16623067Y-16220207D01*
X16623067Y-16220207D02*
X16613544Y-16239254D01*
X16613544Y-16239254D02*
X16604020Y-16248778D01*
X16604020Y-16248778D02*
X16584972Y-16258302D01*
X16584972Y-16258302D02*
X16565925Y-16258302D01*
X16565925Y-16258302D02*
X16546877Y-16248778D01*
X16546877Y-16248778D02*
X16537353Y-16239254D01*
X16537353Y-16239254D02*
X16527829Y-16220207D01*
X16527829Y-16220207D02*
X16518306Y-16182112D01*
X16518306Y-16182112D02*
X16518306Y-16134492D01*
X16518306Y-16134492D02*
X16527829Y-16096397D01*
X16527829Y-16096397D02*
X16537353Y-16077350D01*
X16537353Y-16077350D02*
X16546877Y-16067826D01*
X16546877Y-16067826D02*
X16565925Y-16058302D01*
X16756401Y-16058302D02*
X16775448Y-16058302D01*
X16775448Y-16058302D02*
X16794496Y-16067826D01*
X16794496Y-16067826D02*
X16804020Y-16077350D01*
X16804020Y-16077350D02*
X16813544Y-16096397D01*
X16813544Y-16096397D02*
X16823068Y-16134492D01*
X16823068Y-16134492D02*
X16823068Y-16182112D01*
X16823068Y-16182112D02*
X16813544Y-16220207D01*
X16813544Y-16220207D02*
X16804020Y-16239254D01*
X16804020Y-16239254D02*
X16794496Y-16248778D01*
X16794496Y-16248778D02*
X16775448Y-16258302D01*
X16775448Y-16258302D02*
X16756401Y-16258302D01*
X16756401Y-16258302D02*
X16737353Y-16248778D01*
X16737353Y-16248778D02*
X16727829Y-16239254D01*
X16727829Y-16239254D02*
X16718306Y-16220207D01*
X16718306Y-16220207D02*
X16708782Y-16182112D01*
X16708782Y-16182112D02*
X16708782Y-16134492D01*
X16708782Y-16134492D02*
X16718306Y-16096397D01*
X16718306Y-16096397D02*
X16727829Y-16077350D01*
X16727829Y-16077350D02*
X16737353Y-16067826D01*
X16737353Y-16067826D02*
X16756401Y-16058302D01*
X16908782Y-16258302D02*
X16908782Y-16124969D01*
X16908782Y-16144016D02*
X16918306Y-16134492D01*
X16918306Y-16134492D02*
X16937353Y-16124969D01*
X16937353Y-16124969D02*
X16965925Y-16124969D01*
X16965925Y-16124969D02*
X16984972Y-16134492D01*
X16984972Y-16134492D02*
X16994496Y-16153540D01*
X16994496Y-16153540D02*
X16994496Y-16258302D01*
X16994496Y-16153540D02*
X17004020Y-16134492D01*
X17004020Y-16134492D02*
X17023068Y-16124969D01*
X17023068Y-16124969D02*
X17051639Y-16124969D01*
X17051639Y-16124969D02*
X17070687Y-16134492D01*
X17070687Y-16134492D02*
X17080210Y-16153540D01*
X17080210Y-16153540D02*
X17080210Y-16258302D01*
X17175449Y-16258302D02*
X17175449Y-16124969D01*
X17175449Y-16144016D02*
X17184972Y-16134492D01*
X17184972Y-16134492D02*
X17204020Y-16124969D01*
X17204020Y-16124969D02*
X17232591Y-16124969D01*
X17232591Y-16124969D02*
X17251639Y-16134492D01*
X17251639Y-16134492D02*
X17261163Y-16153540D01*
X17261163Y-16153540D02*
X17261163Y-16258302D01*
X17261163Y-16153540D02*
X17270687Y-16134492D01*
X17270687Y-16134492D02*
X17289734Y-16124969D01*
X17289734Y-16124969D02*
X17318306Y-16124969D01*
X17318306Y-16124969D02*
X17337353Y-16134492D01*
X17337353Y-16134492D02*
X17346877Y-16153540D01*
X17346877Y-16153540D02*
X17346877Y-16258302D01*
X17737353Y-16048778D02*
X17565925Y-16305921D01*
X17994496Y-16058302D02*
X18013544Y-16058302D01*
X18013544Y-16058302D02*
X18032592Y-16067826D01*
X18032592Y-16067826D02*
X18042115Y-16077350D01*
X18042115Y-16077350D02*
X18051639Y-16096397D01*
X18051639Y-16096397D02*
X18061163Y-16134492D01*
X18061163Y-16134492D02*
X18061163Y-16182112D01*
X18061163Y-16182112D02*
X18051639Y-16220207D01*
X18051639Y-16220207D02*
X18042115Y-16239254D01*
X18042115Y-16239254D02*
X18032592Y-16248778D01*
X18032592Y-16248778D02*
X18013544Y-16258302D01*
X18013544Y-16258302D02*
X17994496Y-16258302D01*
X17994496Y-16258302D02*
X17975449Y-16248778D01*
X17975449Y-16248778D02*
X17965925Y-16239254D01*
X17965925Y-16239254D02*
X17956401Y-16220207D01*
X17956401Y-16220207D02*
X17946877Y-16182112D01*
X17946877Y-16182112D02*
X17946877Y-16134492D01*
X17946877Y-16134492D02*
X17956401Y-16096397D01*
X17956401Y-16096397D02*
X17965925Y-16077350D01*
X17965925Y-16077350D02*
X17975449Y-16067826D01*
X17975449Y-16067826D02*
X17994496Y-16058302D01*
X18146877Y-16239254D02*
X18156401Y-16248778D01*
X18156401Y-16248778D02*
X18146877Y-16258302D01*
X18146877Y-16258302D02*
X18137353Y-16248778D01*
X18137353Y-16248778D02*
X18146877Y-16239254D01*
X18146877Y-16239254D02*
X18146877Y-16258302D01*
X18280211Y-16058302D02*
X18299258Y-16058302D01*
X18299258Y-16058302D02*
X18318306Y-16067826D01*
X18318306Y-16067826D02*
X18327830Y-16077350D01*
X18327830Y-16077350D02*
X18337353Y-16096397D01*
X18337353Y-16096397D02*
X18346877Y-16134492D01*
X18346877Y-16134492D02*
X18346877Y-16182112D01*
X18346877Y-16182112D02*
X18337353Y-16220207D01*
X18337353Y-16220207D02*
X18327830Y-16239254D01*
X18327830Y-16239254D02*
X18318306Y-16248778D01*
X18318306Y-16248778D02*
X18299258Y-16258302D01*
X18299258Y-16258302D02*
X18280211Y-16258302D01*
X18280211Y-16258302D02*
X18261163Y-16248778D01*
X18261163Y-16248778D02*
X18251639Y-16239254D01*
X18251639Y-16239254D02*
X18242115Y-16220207D01*
X18242115Y-16220207D02*
X18232592Y-16182112D01*
X18232592Y-16182112D02*
X18232592Y-16134492D01*
X18232592Y-16134492D02*
X18242115Y-16096397D01*
X18242115Y-16096397D02*
X18251639Y-16077350D01*
X18251639Y-16077350D02*
X18261163Y-16067826D01*
X18261163Y-16067826D02*
X18280211Y-16058302D01*
X18423068Y-16077350D02*
X18432592Y-16067826D01*
X18432592Y-16067826D02*
X18451639Y-16058302D01*
X18451639Y-16058302D02*
X18499258Y-16058302D01*
X18499258Y-16058302D02*
X18518306Y-16067826D01*
X18518306Y-16067826D02*
X18527830Y-16077350D01*
X18527830Y-16077350D02*
X18537353Y-16096397D01*
X18537353Y-16096397D02*
X18537353Y-16115445D01*
X18537353Y-16115445D02*
X18527830Y-16144016D01*
X18527830Y-16144016D02*
X18413544Y-16258302D01*
X18413544Y-16258302D02*
X18537353Y-16258302D01*
X18604020Y-16058302D02*
X18737353Y-16058302D01*
X18737353Y-16058302D02*
X18651639Y-16258302D01*
X18899258Y-16058302D02*
X18861163Y-16058302D01*
X18861163Y-16058302D02*
X18842115Y-16067826D01*
X18842115Y-16067826D02*
X18832592Y-16077350D01*
X18832592Y-16077350D02*
X18813544Y-16105921D01*
X18813544Y-16105921D02*
X18804020Y-16144016D01*
X18804020Y-16144016D02*
X18804020Y-16220207D01*
X18804020Y-16220207D02*
X18813544Y-16239254D01*
X18813544Y-16239254D02*
X18823068Y-16248778D01*
X18823068Y-16248778D02*
X18842115Y-16258302D01*
X18842115Y-16258302D02*
X18880211Y-16258302D01*
X18880211Y-16258302D02*
X18899258Y-16248778D01*
X18899258Y-16248778D02*
X18908782Y-16239254D01*
X18908782Y-16239254D02*
X18918306Y-16220207D01*
X18918306Y-16220207D02*
X18918306Y-16172588D01*
X18918306Y-16172588D02*
X18908782Y-16153540D01*
X18908782Y-16153540D02*
X18899258Y-16144016D01*
X18899258Y-16144016D02*
X18880211Y-16134492D01*
X18880211Y-16134492D02*
X18842115Y-16134492D01*
X18842115Y-16134492D02*
X18823068Y-16144016D01*
X18823068Y-16144016D02*
X18813544Y-16153540D01*
X18813544Y-16153540D02*
X18804020Y-16172588D01*
X18994496Y-16058302D02*
X18994496Y-16096397D01*
X19070687Y-16058302D02*
X19070687Y-16096397D01*
X19365925Y-16334492D02*
X19356401Y-16324969D01*
X19356401Y-16324969D02*
X19337354Y-16296397D01*
X19337354Y-16296397D02*
X19327830Y-16277350D01*
X19327830Y-16277350D02*
X19318306Y-16248778D01*
X19318306Y-16248778D02*
X19308782Y-16201159D01*
X19308782Y-16201159D02*
X19308782Y-16163064D01*
X19308782Y-16163064D02*
X19318306Y-16115445D01*
X19318306Y-16115445D02*
X19327830Y-16086873D01*
X19327830Y-16086873D02*
X19337354Y-16067826D01*
X19337354Y-16067826D02*
X19356401Y-16039254D01*
X19356401Y-16039254D02*
X19365925Y-16029731D01*
X19480211Y-16058302D02*
X19499258Y-16058302D01*
X19499258Y-16058302D02*
X19518306Y-16067826D01*
X19518306Y-16067826D02*
X19527830Y-16077350D01*
X19527830Y-16077350D02*
X19537354Y-16096397D01*
X19537354Y-16096397D02*
X19546877Y-16134492D01*
X19546877Y-16134492D02*
X19546877Y-16182112D01*
X19546877Y-16182112D02*
X19537354Y-16220207D01*
X19537354Y-16220207D02*
X19527830Y-16239254D01*
X19527830Y-16239254D02*
X19518306Y-16248778D01*
X19518306Y-16248778D02*
X19499258Y-16258302D01*
X19499258Y-16258302D02*
X19480211Y-16258302D01*
X19480211Y-16258302D02*
X19461163Y-16248778D01*
X19461163Y-16248778D02*
X19451639Y-16239254D01*
X19451639Y-16239254D02*
X19442115Y-16220207D01*
X19442115Y-16220207D02*
X19432592Y-16182112D01*
X19432592Y-16182112D02*
X19432592Y-16134492D01*
X19432592Y-16134492D02*
X19442115Y-16096397D01*
X19442115Y-16096397D02*
X19451639Y-16077350D01*
X19451639Y-16077350D02*
X19461163Y-16067826D01*
X19461163Y-16067826D02*
X19480211Y-16058302D01*
X19784973Y-16258302D02*
X19784973Y-16058302D01*
X19870687Y-16258302D02*
X19870687Y-16153540D01*
X19870687Y-16153540D02*
X19861163Y-16134492D01*
X19861163Y-16134492D02*
X19842116Y-16124969D01*
X19842116Y-16124969D02*
X19813544Y-16124969D01*
X19813544Y-16124969D02*
X19794496Y-16134492D01*
X19794496Y-16134492D02*
X19784973Y-16144016D01*
X19994496Y-16258302D02*
X19975449Y-16248778D01*
X19975449Y-16248778D02*
X19965925Y-16239254D01*
X19965925Y-16239254D02*
X19956401Y-16220207D01*
X19956401Y-16220207D02*
X19956401Y-16163064D01*
X19956401Y-16163064D02*
X19965925Y-16144016D01*
X19965925Y-16144016D02*
X19975449Y-16134492D01*
X19975449Y-16134492D02*
X19994496Y-16124969D01*
X19994496Y-16124969D02*
X20023068Y-16124969D01*
X20023068Y-16124969D02*
X20042116Y-16134492D01*
X20042116Y-16134492D02*
X20051639Y-16144016D01*
X20051639Y-16144016D02*
X20061163Y-16163064D01*
X20061163Y-16163064D02*
X20061163Y-16220207D01*
X20061163Y-16220207D02*
X20051639Y-16239254D01*
X20051639Y-16239254D02*
X20042116Y-16248778D01*
X20042116Y-16248778D02*
X20023068Y-16258302D01*
X20023068Y-16258302D02*
X19994496Y-16258302D01*
X20175449Y-16258302D02*
X20156401Y-16248778D01*
X20156401Y-16248778D02*
X20146877Y-16229731D01*
X20146877Y-16229731D02*
X20146877Y-16058302D01*
X20327830Y-16248778D02*
X20308782Y-16258302D01*
X20308782Y-16258302D02*
X20270687Y-16258302D01*
X20270687Y-16258302D02*
X20251639Y-16248778D01*
X20251639Y-16248778D02*
X20242116Y-16229731D01*
X20242116Y-16229731D02*
X20242116Y-16153540D01*
X20242116Y-16153540D02*
X20251639Y-16134492D01*
X20251639Y-16134492D02*
X20270687Y-16124969D01*
X20270687Y-16124969D02*
X20308782Y-16124969D01*
X20308782Y-16124969D02*
X20327830Y-16134492D01*
X20327830Y-16134492D02*
X20337354Y-16153540D01*
X20337354Y-16153540D02*
X20337354Y-16172588D01*
X20337354Y-16172588D02*
X20242116Y-16191635D01*
X20413544Y-16248778D02*
X20432592Y-16258302D01*
X20432592Y-16258302D02*
X20470687Y-16258302D01*
X20470687Y-16258302D02*
X20489735Y-16248778D01*
X20489735Y-16248778D02*
X20499258Y-16229731D01*
X20499258Y-16229731D02*
X20499258Y-16220207D01*
X20499258Y-16220207D02*
X20489735Y-16201159D01*
X20489735Y-16201159D02*
X20470687Y-16191635D01*
X20470687Y-16191635D02*
X20442116Y-16191635D01*
X20442116Y-16191635D02*
X20423068Y-16182112D01*
X20423068Y-16182112D02*
X20413544Y-16163064D01*
X20413544Y-16163064D02*
X20413544Y-16153540D01*
X20413544Y-16153540D02*
X20423068Y-16134492D01*
X20423068Y-16134492D02*
X20442116Y-16124969D01*
X20442116Y-16124969D02*
X20470687Y-16124969D01*
X20470687Y-16124969D02*
X20489735Y-16134492D01*
X20737354Y-16182112D02*
X20889735Y-16182112D01*
X20813544Y-16258302D02*
X20813544Y-16105921D01*
X21223068Y-16124969D02*
X21223068Y-16258302D01*
X21175449Y-16048778D02*
X21127830Y-16191635D01*
X21127830Y-16191635D02*
X21251639Y-16191635D01*
X21356401Y-16144016D02*
X21337354Y-16134492D01*
X21337354Y-16134492D02*
X21327830Y-16124969D01*
X21327830Y-16124969D02*
X21318306Y-16105921D01*
X21318306Y-16105921D02*
X21318306Y-16096397D01*
X21318306Y-16096397D02*
X21327830Y-16077350D01*
X21327830Y-16077350D02*
X21337354Y-16067826D01*
X21337354Y-16067826D02*
X21356401Y-16058302D01*
X21356401Y-16058302D02*
X21394497Y-16058302D01*
X21394497Y-16058302D02*
X21413544Y-16067826D01*
X21413544Y-16067826D02*
X21423068Y-16077350D01*
X21423068Y-16077350D02*
X21432592Y-16096397D01*
X21432592Y-16096397D02*
X21432592Y-16105921D01*
X21432592Y-16105921D02*
X21423068Y-16124969D01*
X21423068Y-16124969D02*
X21413544Y-16134492D01*
X21413544Y-16134492D02*
X21394497Y-16144016D01*
X21394497Y-16144016D02*
X21356401Y-16144016D01*
X21356401Y-16144016D02*
X21337354Y-16153540D01*
X21337354Y-16153540D02*
X21327830Y-16163064D01*
X21327830Y-16163064D02*
X21318306Y-16182112D01*
X21318306Y-16182112D02*
X21318306Y-16220207D01*
X21318306Y-16220207D02*
X21327830Y-16239254D01*
X21327830Y-16239254D02*
X21337354Y-16248778D01*
X21337354Y-16248778D02*
X21356401Y-16258302D01*
X21356401Y-16258302D02*
X21394497Y-16258302D01*
X21394497Y-16258302D02*
X21413544Y-16248778D01*
X21413544Y-16248778D02*
X21423068Y-16239254D01*
X21423068Y-16239254D02*
X21432592Y-16220207D01*
X21432592Y-16220207D02*
X21432592Y-16182112D01*
X21432592Y-16182112D02*
X21423068Y-16163064D01*
X21423068Y-16163064D02*
X21413544Y-16153540D01*
X21413544Y-16153540D02*
X21394497Y-16144016D01*
X21661163Y-16248778D02*
X21680211Y-16258302D01*
X21680211Y-16258302D02*
X21718306Y-16258302D01*
X21718306Y-16258302D02*
X21737354Y-16248778D01*
X21737354Y-16248778D02*
X21746878Y-16229731D01*
X21746878Y-16229731D02*
X21746878Y-16220207D01*
X21746878Y-16220207D02*
X21737354Y-16201159D01*
X21737354Y-16201159D02*
X21718306Y-16191635D01*
X21718306Y-16191635D02*
X21689735Y-16191635D01*
X21689735Y-16191635D02*
X21670687Y-16182112D01*
X21670687Y-16182112D02*
X21661163Y-16163064D01*
X21661163Y-16163064D02*
X21661163Y-16153540D01*
X21661163Y-16153540D02*
X21670687Y-16134492D01*
X21670687Y-16134492D02*
X21689735Y-16124969D01*
X21689735Y-16124969D02*
X21718306Y-16124969D01*
X21718306Y-16124969D02*
X21737354Y-16134492D01*
X21861163Y-16258302D02*
X21842116Y-16248778D01*
X21842116Y-16248778D02*
X21832592Y-16229731D01*
X21832592Y-16229731D02*
X21832592Y-16058302D01*
X21965925Y-16258302D02*
X21946878Y-16248778D01*
X21946878Y-16248778D02*
X21937354Y-16239254D01*
X21937354Y-16239254D02*
X21927830Y-16220207D01*
X21927830Y-16220207D02*
X21927830Y-16163064D01*
X21927830Y-16163064D02*
X21937354Y-16144016D01*
X21937354Y-16144016D02*
X21946878Y-16134492D01*
X21946878Y-16134492D02*
X21965925Y-16124969D01*
X21965925Y-16124969D02*
X21994497Y-16124969D01*
X21994497Y-16124969D02*
X22013544Y-16134492D01*
X22013544Y-16134492D02*
X22023068Y-16144016D01*
X22023068Y-16144016D02*
X22032592Y-16163064D01*
X22032592Y-16163064D02*
X22032592Y-16220207D01*
X22032592Y-16220207D02*
X22023068Y-16239254D01*
X22023068Y-16239254D02*
X22013544Y-16248778D01*
X22013544Y-16248778D02*
X21994497Y-16258302D01*
X21994497Y-16258302D02*
X21965925Y-16258302D01*
X22089735Y-16124969D02*
X22165925Y-16124969D01*
X22118306Y-16058302D02*
X22118306Y-16229731D01*
X22118306Y-16229731D02*
X22127830Y-16248778D01*
X22127830Y-16248778D02*
X22146878Y-16258302D01*
X22146878Y-16258302D02*
X22165925Y-16258302D01*
X22223068Y-16248778D02*
X22242116Y-16258302D01*
X22242116Y-16258302D02*
X22280211Y-16258302D01*
X22280211Y-16258302D02*
X22299259Y-16248778D01*
X22299259Y-16248778D02*
X22308782Y-16229731D01*
X22308782Y-16229731D02*
X22308782Y-16220207D01*
X22308782Y-16220207D02*
X22299259Y-16201159D01*
X22299259Y-16201159D02*
X22280211Y-16191635D01*
X22280211Y-16191635D02*
X22251640Y-16191635D01*
X22251640Y-16191635D02*
X22232592Y-16182112D01*
X22232592Y-16182112D02*
X22223068Y-16163064D01*
X22223068Y-16163064D02*
X22223068Y-16153540D01*
X22223068Y-16153540D02*
X22232592Y-16134492D01*
X22232592Y-16134492D02*
X22251640Y-16124969D01*
X22251640Y-16124969D02*
X22280211Y-16124969D01*
X22280211Y-16124969D02*
X22299259Y-16134492D01*
X22375449Y-16334492D02*
X22384973Y-16324969D01*
X22384973Y-16324969D02*
X22404020Y-16296397D01*
X22404020Y-16296397D02*
X22413544Y-16277350D01*
X22413544Y-16277350D02*
X22423068Y-16248778D01*
X22423068Y-16248778D02*
X22432592Y-16201159D01*
X22432592Y-16201159D02*
X22432592Y-16163064D01*
X22432592Y-16163064D02*
X22423068Y-16115445D01*
X22423068Y-16115445D02*
X22413544Y-16086873D01*
X22413544Y-16086873D02*
X22404020Y-16067826D01*
X22404020Y-16067826D02*
X22384973Y-16039254D01*
X22384973Y-16039254D02*
X22375449Y-16029731D01*
D12*
X15743362Y-16383318D02*
X15743362Y-16478318D01*
X15695862Y-16430818D02*
X15790862Y-16430818D01*
D11*
X16089734Y-16322302D02*
X16108782Y-16322302D01*
X16108782Y-16322302D02*
X16127829Y-16331826D01*
X16127829Y-16331826D02*
X16137353Y-16341350D01*
X16137353Y-16341350D02*
X16146877Y-16360397D01*
X16146877Y-16360397D02*
X16156401Y-16398492D01*
X16156401Y-16398492D02*
X16156401Y-16446112D01*
X16156401Y-16446112D02*
X16146877Y-16484207D01*
X16146877Y-16484207D02*
X16137353Y-16503254D01*
X16137353Y-16503254D02*
X16127829Y-16512778D01*
X16127829Y-16512778D02*
X16108782Y-16522302D01*
X16108782Y-16522302D02*
X16089734Y-16522302D01*
X16089734Y-16522302D02*
X16070686Y-16512778D01*
X16070686Y-16512778D02*
X16061163Y-16503254D01*
X16061163Y-16503254D02*
X16051639Y-16484207D01*
X16051639Y-16484207D02*
X16042115Y-16446112D01*
X16042115Y-16446112D02*
X16042115Y-16398492D01*
X16042115Y-16398492D02*
X16051639Y-16360397D01*
X16051639Y-16360397D02*
X16061163Y-16341350D01*
X16061163Y-16341350D02*
X16070686Y-16331826D01*
X16070686Y-16331826D02*
X16089734Y-16322302D01*
X16242115Y-16503254D02*
X16251639Y-16512778D01*
X16251639Y-16512778D02*
X16242115Y-16522302D01*
X16242115Y-16522302D02*
X16232591Y-16512778D01*
X16232591Y-16512778D02*
X16242115Y-16503254D01*
X16242115Y-16503254D02*
X16242115Y-16522302D01*
X16346877Y-16522302D02*
X16384972Y-16522302D01*
X16384972Y-16522302D02*
X16404020Y-16512778D01*
X16404020Y-16512778D02*
X16413544Y-16503254D01*
X16413544Y-16503254D02*
X16432591Y-16474683D01*
X16432591Y-16474683D02*
X16442115Y-16436588D01*
X16442115Y-16436588D02*
X16442115Y-16360397D01*
X16442115Y-16360397D02*
X16432591Y-16341350D01*
X16432591Y-16341350D02*
X16423067Y-16331826D01*
X16423067Y-16331826D02*
X16404020Y-16322302D01*
X16404020Y-16322302D02*
X16365925Y-16322302D01*
X16365925Y-16322302D02*
X16346877Y-16331826D01*
X16346877Y-16331826D02*
X16337353Y-16341350D01*
X16337353Y-16341350D02*
X16327829Y-16360397D01*
X16327829Y-16360397D02*
X16327829Y-16408016D01*
X16327829Y-16408016D02*
X16337353Y-16427064D01*
X16337353Y-16427064D02*
X16346877Y-16436588D01*
X16346877Y-16436588D02*
X16365925Y-16446112D01*
X16365925Y-16446112D02*
X16404020Y-16446112D01*
X16404020Y-16446112D02*
X16423067Y-16436588D01*
X16423067Y-16436588D02*
X16432591Y-16427064D01*
X16432591Y-16427064D02*
X16442115Y-16408016D01*
X16623067Y-16322302D02*
X16527829Y-16322302D01*
X16527829Y-16322302D02*
X16518306Y-16417540D01*
X16518306Y-16417540D02*
X16527829Y-16408016D01*
X16527829Y-16408016D02*
X16546877Y-16398492D01*
X16546877Y-16398492D02*
X16594496Y-16398492D01*
X16594496Y-16398492D02*
X16613544Y-16408016D01*
X16613544Y-16408016D02*
X16623067Y-16417540D01*
X16623067Y-16417540D02*
X16632591Y-16436588D01*
X16632591Y-16436588D02*
X16632591Y-16484207D01*
X16632591Y-16484207D02*
X16623067Y-16503254D01*
X16623067Y-16503254D02*
X16613544Y-16512778D01*
X16613544Y-16512778D02*
X16594496Y-16522302D01*
X16594496Y-16522302D02*
X16546877Y-16522302D01*
X16546877Y-16522302D02*
X16527829Y-16512778D01*
X16527829Y-16512778D02*
X16518306Y-16503254D01*
X16756401Y-16322302D02*
X16775448Y-16322302D01*
X16775448Y-16322302D02*
X16794496Y-16331826D01*
X16794496Y-16331826D02*
X16804020Y-16341350D01*
X16804020Y-16341350D02*
X16813544Y-16360397D01*
X16813544Y-16360397D02*
X16823068Y-16398492D01*
X16823068Y-16398492D02*
X16823068Y-16446112D01*
X16823068Y-16446112D02*
X16813544Y-16484207D01*
X16813544Y-16484207D02*
X16804020Y-16503254D01*
X16804020Y-16503254D02*
X16794496Y-16512778D01*
X16794496Y-16512778D02*
X16775448Y-16522302D01*
X16775448Y-16522302D02*
X16756401Y-16522302D01*
X16756401Y-16522302D02*
X16737353Y-16512778D01*
X16737353Y-16512778D02*
X16727829Y-16503254D01*
X16727829Y-16503254D02*
X16718306Y-16484207D01*
X16718306Y-16484207D02*
X16708782Y-16446112D01*
X16708782Y-16446112D02*
X16708782Y-16398492D01*
X16708782Y-16398492D02*
X16718306Y-16360397D01*
X16718306Y-16360397D02*
X16727829Y-16341350D01*
X16727829Y-16341350D02*
X16737353Y-16331826D01*
X16737353Y-16331826D02*
X16756401Y-16322302D01*
X16908782Y-16522302D02*
X16908782Y-16388969D01*
X16908782Y-16408016D02*
X16918306Y-16398492D01*
X16918306Y-16398492D02*
X16937353Y-16388969D01*
X16937353Y-16388969D02*
X16965925Y-16388969D01*
X16965925Y-16388969D02*
X16984972Y-16398492D01*
X16984972Y-16398492D02*
X16994496Y-16417540D01*
X16994496Y-16417540D02*
X16994496Y-16522302D01*
X16994496Y-16417540D02*
X17004020Y-16398492D01*
X17004020Y-16398492D02*
X17023068Y-16388969D01*
X17023068Y-16388969D02*
X17051639Y-16388969D01*
X17051639Y-16388969D02*
X17070687Y-16398492D01*
X17070687Y-16398492D02*
X17080210Y-16417540D01*
X17080210Y-16417540D02*
X17080210Y-16522302D01*
X17175449Y-16522302D02*
X17175449Y-16388969D01*
X17175449Y-16408016D02*
X17184972Y-16398492D01*
X17184972Y-16398492D02*
X17204020Y-16388969D01*
X17204020Y-16388969D02*
X17232591Y-16388969D01*
X17232591Y-16388969D02*
X17251639Y-16398492D01*
X17251639Y-16398492D02*
X17261163Y-16417540D01*
X17261163Y-16417540D02*
X17261163Y-16522302D01*
X17261163Y-16417540D02*
X17270687Y-16398492D01*
X17270687Y-16398492D02*
X17289734Y-16388969D01*
X17289734Y-16388969D02*
X17318306Y-16388969D01*
X17318306Y-16388969D02*
X17337353Y-16398492D01*
X17337353Y-16398492D02*
X17346877Y-16417540D01*
X17346877Y-16417540D02*
X17346877Y-16522302D01*
X17737353Y-16312778D02*
X17565925Y-16569921D01*
X17994496Y-16322302D02*
X18013544Y-16322302D01*
X18013544Y-16322302D02*
X18032592Y-16331826D01*
X18032592Y-16331826D02*
X18042115Y-16341350D01*
X18042115Y-16341350D02*
X18051639Y-16360397D01*
X18051639Y-16360397D02*
X18061163Y-16398492D01*
X18061163Y-16398492D02*
X18061163Y-16446112D01*
X18061163Y-16446112D02*
X18051639Y-16484207D01*
X18051639Y-16484207D02*
X18042115Y-16503254D01*
X18042115Y-16503254D02*
X18032592Y-16512778D01*
X18032592Y-16512778D02*
X18013544Y-16522302D01*
X18013544Y-16522302D02*
X17994496Y-16522302D01*
X17994496Y-16522302D02*
X17975449Y-16512778D01*
X17975449Y-16512778D02*
X17965925Y-16503254D01*
X17965925Y-16503254D02*
X17956401Y-16484207D01*
X17956401Y-16484207D02*
X17946877Y-16446112D01*
X17946877Y-16446112D02*
X17946877Y-16398492D01*
X17946877Y-16398492D02*
X17956401Y-16360397D01*
X17956401Y-16360397D02*
X17965925Y-16341350D01*
X17965925Y-16341350D02*
X17975449Y-16331826D01*
X17975449Y-16331826D02*
X17994496Y-16322302D01*
X18146877Y-16503254D02*
X18156401Y-16512778D01*
X18156401Y-16512778D02*
X18146877Y-16522302D01*
X18146877Y-16522302D02*
X18137353Y-16512778D01*
X18137353Y-16512778D02*
X18146877Y-16503254D01*
X18146877Y-16503254D02*
X18146877Y-16522302D01*
X18280211Y-16322302D02*
X18299258Y-16322302D01*
X18299258Y-16322302D02*
X18318306Y-16331826D01*
X18318306Y-16331826D02*
X18327830Y-16341350D01*
X18327830Y-16341350D02*
X18337353Y-16360397D01*
X18337353Y-16360397D02*
X18346877Y-16398492D01*
X18346877Y-16398492D02*
X18346877Y-16446112D01*
X18346877Y-16446112D02*
X18337353Y-16484207D01*
X18337353Y-16484207D02*
X18327830Y-16503254D01*
X18327830Y-16503254D02*
X18318306Y-16512778D01*
X18318306Y-16512778D02*
X18299258Y-16522302D01*
X18299258Y-16522302D02*
X18280211Y-16522302D01*
X18280211Y-16522302D02*
X18261163Y-16512778D01*
X18261163Y-16512778D02*
X18251639Y-16503254D01*
X18251639Y-16503254D02*
X18242115Y-16484207D01*
X18242115Y-16484207D02*
X18232592Y-16446112D01*
X18232592Y-16446112D02*
X18232592Y-16398492D01*
X18232592Y-16398492D02*
X18242115Y-16360397D01*
X18242115Y-16360397D02*
X18251639Y-16341350D01*
X18251639Y-16341350D02*
X18261163Y-16331826D01*
X18261163Y-16331826D02*
X18280211Y-16322302D01*
X18413544Y-16322302D02*
X18537353Y-16322302D01*
X18537353Y-16322302D02*
X18470687Y-16398492D01*
X18470687Y-16398492D02*
X18499258Y-16398492D01*
X18499258Y-16398492D02*
X18518306Y-16408016D01*
X18518306Y-16408016D02*
X18527830Y-16417540D01*
X18527830Y-16417540D02*
X18537353Y-16436588D01*
X18537353Y-16436588D02*
X18537353Y-16484207D01*
X18537353Y-16484207D02*
X18527830Y-16503254D01*
X18527830Y-16503254D02*
X18518306Y-16512778D01*
X18518306Y-16512778D02*
X18499258Y-16522302D01*
X18499258Y-16522302D02*
X18442115Y-16522302D01*
X18442115Y-16522302D02*
X18423068Y-16512778D01*
X18423068Y-16512778D02*
X18413544Y-16503254D01*
X18604020Y-16322302D02*
X18737353Y-16322302D01*
X18737353Y-16322302D02*
X18651639Y-16522302D01*
X18899258Y-16388969D02*
X18899258Y-16522302D01*
X18851639Y-16312778D02*
X18804020Y-16455635D01*
X18804020Y-16455635D02*
X18927830Y-16455635D01*
X18994496Y-16322302D02*
X18994496Y-16360397D01*
X19070687Y-16322302D02*
X19070687Y-16360397D01*
X19365925Y-16598492D02*
X19356401Y-16588969D01*
X19356401Y-16588969D02*
X19337354Y-16560397D01*
X19337354Y-16560397D02*
X19327830Y-16541350D01*
X19327830Y-16541350D02*
X19318306Y-16512778D01*
X19318306Y-16512778D02*
X19308782Y-16465159D01*
X19308782Y-16465159D02*
X19308782Y-16427064D01*
X19308782Y-16427064D02*
X19318306Y-16379445D01*
X19318306Y-16379445D02*
X19327830Y-16350873D01*
X19327830Y-16350873D02*
X19337354Y-16331826D01*
X19337354Y-16331826D02*
X19356401Y-16303254D01*
X19356401Y-16303254D02*
X19365925Y-16293731D01*
X19423068Y-16322302D02*
X19556401Y-16322302D01*
X19556401Y-16322302D02*
X19470687Y-16522302D01*
X19670687Y-16322302D02*
X19689735Y-16322302D01*
X19689735Y-16322302D02*
X19708782Y-16331826D01*
X19708782Y-16331826D02*
X19718306Y-16341350D01*
X19718306Y-16341350D02*
X19727830Y-16360397D01*
X19727830Y-16360397D02*
X19737354Y-16398492D01*
X19737354Y-16398492D02*
X19737354Y-16446112D01*
X19737354Y-16446112D02*
X19727830Y-16484207D01*
X19727830Y-16484207D02*
X19718306Y-16503254D01*
X19718306Y-16503254D02*
X19708782Y-16512778D01*
X19708782Y-16512778D02*
X19689735Y-16522302D01*
X19689735Y-16522302D02*
X19670687Y-16522302D01*
X19670687Y-16522302D02*
X19651639Y-16512778D01*
X19651639Y-16512778D02*
X19642115Y-16503254D01*
X19642115Y-16503254D02*
X19632592Y-16484207D01*
X19632592Y-16484207D02*
X19623068Y-16446112D01*
X19623068Y-16446112D02*
X19623068Y-16398492D01*
X19623068Y-16398492D02*
X19632592Y-16360397D01*
X19632592Y-16360397D02*
X19642115Y-16341350D01*
X19642115Y-16341350D02*
X19651639Y-16331826D01*
X19651639Y-16331826D02*
X19670687Y-16322302D01*
X19975449Y-16522302D02*
X19975449Y-16322302D01*
X20061163Y-16522302D02*
X20061163Y-16417540D01*
X20061163Y-16417540D02*
X20051639Y-16398492D01*
X20051639Y-16398492D02*
X20032592Y-16388969D01*
X20032592Y-16388969D02*
X20004020Y-16388969D01*
X20004020Y-16388969D02*
X19984973Y-16398492D01*
X19984973Y-16398492D02*
X19975449Y-16408016D01*
X20184973Y-16522302D02*
X20165925Y-16512778D01*
X20165925Y-16512778D02*
X20156401Y-16503254D01*
X20156401Y-16503254D02*
X20146877Y-16484207D01*
X20146877Y-16484207D02*
X20146877Y-16427064D01*
X20146877Y-16427064D02*
X20156401Y-16408016D01*
X20156401Y-16408016D02*
X20165925Y-16398492D01*
X20165925Y-16398492D02*
X20184973Y-16388969D01*
X20184973Y-16388969D02*
X20213544Y-16388969D01*
X20213544Y-16388969D02*
X20232592Y-16398492D01*
X20232592Y-16398492D02*
X20242116Y-16408016D01*
X20242116Y-16408016D02*
X20251639Y-16427064D01*
X20251639Y-16427064D02*
X20251639Y-16484207D01*
X20251639Y-16484207D02*
X20242116Y-16503254D01*
X20242116Y-16503254D02*
X20232592Y-16512778D01*
X20232592Y-16512778D02*
X20213544Y-16522302D01*
X20213544Y-16522302D02*
X20184973Y-16522302D01*
X20365925Y-16522302D02*
X20346877Y-16512778D01*
X20346877Y-16512778D02*
X20337354Y-16493731D01*
X20337354Y-16493731D02*
X20337354Y-16322302D01*
X20518306Y-16512778D02*
X20499258Y-16522302D01*
X20499258Y-16522302D02*
X20461163Y-16522302D01*
X20461163Y-16522302D02*
X20442116Y-16512778D01*
X20442116Y-16512778D02*
X20432592Y-16493731D01*
X20432592Y-16493731D02*
X20432592Y-16417540D01*
X20432592Y-16417540D02*
X20442116Y-16398492D01*
X20442116Y-16398492D02*
X20461163Y-16388969D01*
X20461163Y-16388969D02*
X20499258Y-16388969D01*
X20499258Y-16388969D02*
X20518306Y-16398492D01*
X20518306Y-16398492D02*
X20527830Y-16417540D01*
X20527830Y-16417540D02*
X20527830Y-16436588D01*
X20527830Y-16436588D02*
X20432592Y-16455635D01*
X20604020Y-16512778D02*
X20623068Y-16522302D01*
X20623068Y-16522302D02*
X20661163Y-16522302D01*
X20661163Y-16522302D02*
X20680211Y-16512778D01*
X20680211Y-16512778D02*
X20689735Y-16493731D01*
X20689735Y-16493731D02*
X20689735Y-16484207D01*
X20689735Y-16484207D02*
X20680211Y-16465159D01*
X20680211Y-16465159D02*
X20661163Y-16455635D01*
X20661163Y-16455635D02*
X20632592Y-16455635D01*
X20632592Y-16455635D02*
X20613544Y-16446112D01*
X20613544Y-16446112D02*
X20604020Y-16427064D01*
X20604020Y-16427064D02*
X20604020Y-16417540D01*
X20604020Y-16417540D02*
X20613544Y-16398492D01*
X20613544Y-16398492D02*
X20632592Y-16388969D01*
X20632592Y-16388969D02*
X20661163Y-16388969D01*
X20661163Y-16388969D02*
X20680211Y-16398492D01*
X20756401Y-16598492D02*
X20765925Y-16588969D01*
X20765925Y-16588969D02*
X20784973Y-16560397D01*
X20784973Y-16560397D02*
X20794497Y-16541350D01*
X20794497Y-16541350D02*
X20804020Y-16512778D01*
X20804020Y-16512778D02*
X20813544Y-16465159D01*
X20813544Y-16465159D02*
X20813544Y-16427064D01*
X20813544Y-16427064D02*
X20804020Y-16379445D01*
X20804020Y-16379445D02*
X20794497Y-16350873D01*
X20794497Y-16350873D02*
X20784973Y-16331826D01*
X20784973Y-16331826D02*
X20765925Y-16303254D01*
X20765925Y-16303254D02*
X20756401Y-16293731D01*
D12*
X15776218Y-16730174D02*
X15776218Y-16659463D01*
X15705506Y-16659463D01*
X15705506Y-16730174D01*
X15776218Y-16730174D01*
D11*
X16156401Y-16786302D02*
X16042115Y-16786302D01*
X16099258Y-16786302D02*
X16099258Y-16586302D01*
X16099258Y-16586302D02*
X16080210Y-16614873D01*
X16080210Y-16614873D02*
X16061163Y-16633921D01*
X16061163Y-16633921D02*
X16042115Y-16643445D01*
X16242115Y-16767254D02*
X16251639Y-16776778D01*
X16251639Y-16776778D02*
X16242115Y-16786302D01*
X16242115Y-16786302D02*
X16232591Y-16776778D01*
X16232591Y-16776778D02*
X16242115Y-16767254D01*
X16242115Y-16767254D02*
X16242115Y-16786302D01*
X16375448Y-16586302D02*
X16394496Y-16586302D01*
X16394496Y-16586302D02*
X16413544Y-16595826D01*
X16413544Y-16595826D02*
X16423067Y-16605350D01*
X16423067Y-16605350D02*
X16432591Y-16624397D01*
X16432591Y-16624397D02*
X16442115Y-16662492D01*
X16442115Y-16662492D02*
X16442115Y-16710112D01*
X16442115Y-16710112D02*
X16432591Y-16748207D01*
X16432591Y-16748207D02*
X16423067Y-16767254D01*
X16423067Y-16767254D02*
X16413544Y-16776778D01*
X16413544Y-16776778D02*
X16394496Y-16786302D01*
X16394496Y-16786302D02*
X16375448Y-16786302D01*
X16375448Y-16786302D02*
X16356401Y-16776778D01*
X16356401Y-16776778D02*
X16346877Y-16767254D01*
X16346877Y-16767254D02*
X16337353Y-16748207D01*
X16337353Y-16748207D02*
X16327829Y-16710112D01*
X16327829Y-16710112D02*
X16327829Y-16662492D01*
X16327829Y-16662492D02*
X16337353Y-16624397D01*
X16337353Y-16624397D02*
X16346877Y-16605350D01*
X16346877Y-16605350D02*
X16356401Y-16595826D01*
X16356401Y-16595826D02*
X16375448Y-16586302D01*
X16565925Y-16586302D02*
X16584972Y-16586302D01*
X16584972Y-16586302D02*
X16604020Y-16595826D01*
X16604020Y-16595826D02*
X16613544Y-16605350D01*
X16613544Y-16605350D02*
X16623067Y-16624397D01*
X16623067Y-16624397D02*
X16632591Y-16662492D01*
X16632591Y-16662492D02*
X16632591Y-16710112D01*
X16632591Y-16710112D02*
X16623067Y-16748207D01*
X16623067Y-16748207D02*
X16613544Y-16767254D01*
X16613544Y-16767254D02*
X16604020Y-16776778D01*
X16604020Y-16776778D02*
X16584972Y-16786302D01*
X16584972Y-16786302D02*
X16565925Y-16786302D01*
X16565925Y-16786302D02*
X16546877Y-16776778D01*
X16546877Y-16776778D02*
X16537353Y-16767254D01*
X16537353Y-16767254D02*
X16527829Y-16748207D01*
X16527829Y-16748207D02*
X16518306Y-16710112D01*
X16518306Y-16710112D02*
X16518306Y-16662492D01*
X16518306Y-16662492D02*
X16527829Y-16624397D01*
X16527829Y-16624397D02*
X16537353Y-16605350D01*
X16537353Y-16605350D02*
X16546877Y-16595826D01*
X16546877Y-16595826D02*
X16565925Y-16586302D01*
X16756401Y-16586302D02*
X16775448Y-16586302D01*
X16775448Y-16586302D02*
X16794496Y-16595826D01*
X16794496Y-16595826D02*
X16804020Y-16605350D01*
X16804020Y-16605350D02*
X16813544Y-16624397D01*
X16813544Y-16624397D02*
X16823068Y-16662492D01*
X16823068Y-16662492D02*
X16823068Y-16710112D01*
X16823068Y-16710112D02*
X16813544Y-16748207D01*
X16813544Y-16748207D02*
X16804020Y-16767254D01*
X16804020Y-16767254D02*
X16794496Y-16776778D01*
X16794496Y-16776778D02*
X16775448Y-16786302D01*
X16775448Y-16786302D02*
X16756401Y-16786302D01*
X16756401Y-16786302D02*
X16737353Y-16776778D01*
X16737353Y-16776778D02*
X16727829Y-16767254D01*
X16727829Y-16767254D02*
X16718306Y-16748207D01*
X16718306Y-16748207D02*
X16708782Y-16710112D01*
X16708782Y-16710112D02*
X16708782Y-16662492D01*
X16708782Y-16662492D02*
X16718306Y-16624397D01*
X16718306Y-16624397D02*
X16727829Y-16605350D01*
X16727829Y-16605350D02*
X16737353Y-16595826D01*
X16737353Y-16595826D02*
X16756401Y-16586302D01*
X16908782Y-16786302D02*
X16908782Y-16652969D01*
X16908782Y-16672016D02*
X16918306Y-16662492D01*
X16918306Y-16662492D02*
X16937353Y-16652969D01*
X16937353Y-16652969D02*
X16965925Y-16652969D01*
X16965925Y-16652969D02*
X16984972Y-16662492D01*
X16984972Y-16662492D02*
X16994496Y-16681540D01*
X16994496Y-16681540D02*
X16994496Y-16786302D01*
X16994496Y-16681540D02*
X17004020Y-16662492D01*
X17004020Y-16662492D02*
X17023068Y-16652969D01*
X17023068Y-16652969D02*
X17051639Y-16652969D01*
X17051639Y-16652969D02*
X17070687Y-16662492D01*
X17070687Y-16662492D02*
X17080210Y-16681540D01*
X17080210Y-16681540D02*
X17080210Y-16786302D01*
X17175449Y-16786302D02*
X17175449Y-16652969D01*
X17175449Y-16672016D02*
X17184972Y-16662492D01*
X17184972Y-16662492D02*
X17204020Y-16652969D01*
X17204020Y-16652969D02*
X17232591Y-16652969D01*
X17232591Y-16652969D02*
X17251639Y-16662492D01*
X17251639Y-16662492D02*
X17261163Y-16681540D01*
X17261163Y-16681540D02*
X17261163Y-16786302D01*
X17261163Y-16681540D02*
X17270687Y-16662492D01*
X17270687Y-16662492D02*
X17289734Y-16652969D01*
X17289734Y-16652969D02*
X17318306Y-16652969D01*
X17318306Y-16652969D02*
X17337353Y-16662492D01*
X17337353Y-16662492D02*
X17346877Y-16681540D01*
X17346877Y-16681540D02*
X17346877Y-16786302D01*
X17737353Y-16576778D02*
X17565925Y-16833921D01*
X17994496Y-16586302D02*
X18013544Y-16586302D01*
X18013544Y-16586302D02*
X18032592Y-16595826D01*
X18032592Y-16595826D02*
X18042115Y-16605350D01*
X18042115Y-16605350D02*
X18051639Y-16624397D01*
X18051639Y-16624397D02*
X18061163Y-16662492D01*
X18061163Y-16662492D02*
X18061163Y-16710112D01*
X18061163Y-16710112D02*
X18051639Y-16748207D01*
X18051639Y-16748207D02*
X18042115Y-16767254D01*
X18042115Y-16767254D02*
X18032592Y-16776778D01*
X18032592Y-16776778D02*
X18013544Y-16786302D01*
X18013544Y-16786302D02*
X17994496Y-16786302D01*
X17994496Y-16786302D02*
X17975449Y-16776778D01*
X17975449Y-16776778D02*
X17965925Y-16767254D01*
X17965925Y-16767254D02*
X17956401Y-16748207D01*
X17956401Y-16748207D02*
X17946877Y-16710112D01*
X17946877Y-16710112D02*
X17946877Y-16662492D01*
X17946877Y-16662492D02*
X17956401Y-16624397D01*
X17956401Y-16624397D02*
X17965925Y-16605350D01*
X17965925Y-16605350D02*
X17975449Y-16595826D01*
X17975449Y-16595826D02*
X17994496Y-16586302D01*
X18146877Y-16767254D02*
X18156401Y-16776778D01*
X18156401Y-16776778D02*
X18146877Y-16786302D01*
X18146877Y-16786302D02*
X18137353Y-16776778D01*
X18137353Y-16776778D02*
X18146877Y-16767254D01*
X18146877Y-16767254D02*
X18146877Y-16786302D01*
X18280211Y-16586302D02*
X18299258Y-16586302D01*
X18299258Y-16586302D02*
X18318306Y-16595826D01*
X18318306Y-16595826D02*
X18327830Y-16605350D01*
X18327830Y-16605350D02*
X18337353Y-16624397D01*
X18337353Y-16624397D02*
X18346877Y-16662492D01*
X18346877Y-16662492D02*
X18346877Y-16710112D01*
X18346877Y-16710112D02*
X18337353Y-16748207D01*
X18337353Y-16748207D02*
X18327830Y-16767254D01*
X18327830Y-16767254D02*
X18318306Y-16776778D01*
X18318306Y-16776778D02*
X18299258Y-16786302D01*
X18299258Y-16786302D02*
X18280211Y-16786302D01*
X18280211Y-16786302D02*
X18261163Y-16776778D01*
X18261163Y-16776778D02*
X18251639Y-16767254D01*
X18251639Y-16767254D02*
X18242115Y-16748207D01*
X18242115Y-16748207D02*
X18232592Y-16710112D01*
X18232592Y-16710112D02*
X18232592Y-16662492D01*
X18232592Y-16662492D02*
X18242115Y-16624397D01*
X18242115Y-16624397D02*
X18251639Y-16605350D01*
X18251639Y-16605350D02*
X18261163Y-16595826D01*
X18261163Y-16595826D02*
X18280211Y-16586302D01*
X18413544Y-16586302D02*
X18537353Y-16586302D01*
X18537353Y-16586302D02*
X18470687Y-16662492D01*
X18470687Y-16662492D02*
X18499258Y-16662492D01*
X18499258Y-16662492D02*
X18518306Y-16672016D01*
X18518306Y-16672016D02*
X18527830Y-16681540D01*
X18527830Y-16681540D02*
X18537353Y-16700588D01*
X18537353Y-16700588D02*
X18537353Y-16748207D01*
X18537353Y-16748207D02*
X18527830Y-16767254D01*
X18527830Y-16767254D02*
X18518306Y-16776778D01*
X18518306Y-16776778D02*
X18499258Y-16786302D01*
X18499258Y-16786302D02*
X18442115Y-16786302D01*
X18442115Y-16786302D02*
X18423068Y-16776778D01*
X18423068Y-16776778D02*
X18413544Y-16767254D01*
X18632592Y-16786302D02*
X18670687Y-16786302D01*
X18670687Y-16786302D02*
X18689734Y-16776778D01*
X18689734Y-16776778D02*
X18699258Y-16767254D01*
X18699258Y-16767254D02*
X18718306Y-16738683D01*
X18718306Y-16738683D02*
X18727830Y-16700588D01*
X18727830Y-16700588D02*
X18727830Y-16624397D01*
X18727830Y-16624397D02*
X18718306Y-16605350D01*
X18718306Y-16605350D02*
X18708782Y-16595826D01*
X18708782Y-16595826D02*
X18689734Y-16586302D01*
X18689734Y-16586302D02*
X18651639Y-16586302D01*
X18651639Y-16586302D02*
X18632592Y-16595826D01*
X18632592Y-16595826D02*
X18623068Y-16605350D01*
X18623068Y-16605350D02*
X18613544Y-16624397D01*
X18613544Y-16624397D02*
X18613544Y-16672016D01*
X18613544Y-16672016D02*
X18623068Y-16691064D01*
X18623068Y-16691064D02*
X18632592Y-16700588D01*
X18632592Y-16700588D02*
X18651639Y-16710112D01*
X18651639Y-16710112D02*
X18689734Y-16710112D01*
X18689734Y-16710112D02*
X18708782Y-16700588D01*
X18708782Y-16700588D02*
X18718306Y-16691064D01*
X18718306Y-16691064D02*
X18727830Y-16672016D01*
X18899258Y-16652969D02*
X18899258Y-16786302D01*
X18851639Y-16576778D02*
X18804020Y-16719635D01*
X18804020Y-16719635D02*
X18927830Y-16719635D01*
X18994496Y-16586302D02*
X18994496Y-16624397D01*
X19070687Y-16586302D02*
X19070687Y-16624397D01*
X19365925Y-16862493D02*
X19356401Y-16852969D01*
X19356401Y-16852969D02*
X19337354Y-16824397D01*
X19337354Y-16824397D02*
X19327830Y-16805350D01*
X19327830Y-16805350D02*
X19318306Y-16776778D01*
X19318306Y-16776778D02*
X19308782Y-16729159D01*
X19308782Y-16729159D02*
X19308782Y-16691064D01*
X19308782Y-16691064D02*
X19318306Y-16643445D01*
X19318306Y-16643445D02*
X19327830Y-16614873D01*
X19327830Y-16614873D02*
X19337354Y-16595826D01*
X19337354Y-16595826D02*
X19356401Y-16567254D01*
X19356401Y-16567254D02*
X19365925Y-16557731D01*
X19546877Y-16786302D02*
X19432592Y-16786302D01*
X19489734Y-16786302D02*
X19489734Y-16586302D01*
X19489734Y-16586302D02*
X19470687Y-16614873D01*
X19470687Y-16614873D02*
X19451639Y-16633921D01*
X19451639Y-16633921D02*
X19432592Y-16643445D01*
X19718306Y-16586302D02*
X19680211Y-16586302D01*
X19680211Y-16586302D02*
X19661163Y-16595826D01*
X19661163Y-16595826D02*
X19651639Y-16605350D01*
X19651639Y-16605350D02*
X19632592Y-16633921D01*
X19632592Y-16633921D02*
X19623068Y-16672016D01*
X19623068Y-16672016D02*
X19623068Y-16748207D01*
X19623068Y-16748207D02*
X19632592Y-16767254D01*
X19632592Y-16767254D02*
X19642115Y-16776778D01*
X19642115Y-16776778D02*
X19661163Y-16786302D01*
X19661163Y-16786302D02*
X19699258Y-16786302D01*
X19699258Y-16786302D02*
X19718306Y-16776778D01*
X19718306Y-16776778D02*
X19727830Y-16767254D01*
X19727830Y-16767254D02*
X19737354Y-16748207D01*
X19737354Y-16748207D02*
X19737354Y-16700588D01*
X19737354Y-16700588D02*
X19727830Y-16681540D01*
X19727830Y-16681540D02*
X19718306Y-16672016D01*
X19718306Y-16672016D02*
X19699258Y-16662492D01*
X19699258Y-16662492D02*
X19661163Y-16662492D01*
X19661163Y-16662492D02*
X19642115Y-16672016D01*
X19642115Y-16672016D02*
X19632592Y-16681540D01*
X19632592Y-16681540D02*
X19623068Y-16700588D01*
X19975449Y-16786302D02*
X19975449Y-16586302D01*
X20061163Y-16786302D02*
X20061163Y-16681540D01*
X20061163Y-16681540D02*
X20051639Y-16662492D01*
X20051639Y-16662492D02*
X20032592Y-16652969D01*
X20032592Y-16652969D02*
X20004020Y-16652969D01*
X20004020Y-16652969D02*
X19984973Y-16662492D01*
X19984973Y-16662492D02*
X19975449Y-16672016D01*
X20184973Y-16786302D02*
X20165925Y-16776778D01*
X20165925Y-16776778D02*
X20156401Y-16767254D01*
X20156401Y-16767254D02*
X20146877Y-16748207D01*
X20146877Y-16748207D02*
X20146877Y-16691064D01*
X20146877Y-16691064D02*
X20156401Y-16672016D01*
X20156401Y-16672016D02*
X20165925Y-16662492D01*
X20165925Y-16662492D02*
X20184973Y-16652969D01*
X20184973Y-16652969D02*
X20213544Y-16652969D01*
X20213544Y-16652969D02*
X20232592Y-16662492D01*
X20232592Y-16662492D02*
X20242116Y-16672016D01*
X20242116Y-16672016D02*
X20251639Y-16691064D01*
X20251639Y-16691064D02*
X20251639Y-16748207D01*
X20251639Y-16748207D02*
X20242116Y-16767254D01*
X20242116Y-16767254D02*
X20232592Y-16776778D01*
X20232592Y-16776778D02*
X20213544Y-16786302D01*
X20213544Y-16786302D02*
X20184973Y-16786302D01*
X20365925Y-16786302D02*
X20346877Y-16776778D01*
X20346877Y-16776778D02*
X20337354Y-16757731D01*
X20337354Y-16757731D02*
X20337354Y-16586302D01*
X20518306Y-16776778D02*
X20499258Y-16786302D01*
X20499258Y-16786302D02*
X20461163Y-16786302D01*
X20461163Y-16786302D02*
X20442116Y-16776778D01*
X20442116Y-16776778D02*
X20432592Y-16757731D01*
X20432592Y-16757731D02*
X20432592Y-16681540D01*
X20432592Y-16681540D02*
X20442116Y-16662492D01*
X20442116Y-16662492D02*
X20461163Y-16652969D01*
X20461163Y-16652969D02*
X20499258Y-16652969D01*
X20499258Y-16652969D02*
X20518306Y-16662492D01*
X20518306Y-16662492D02*
X20527830Y-16681540D01*
X20527830Y-16681540D02*
X20527830Y-16700588D01*
X20527830Y-16700588D02*
X20432592Y-16719635D01*
X20604020Y-16776778D02*
X20623068Y-16786302D01*
X20623068Y-16786302D02*
X20661163Y-16786302D01*
X20661163Y-16786302D02*
X20680211Y-16776778D01*
X20680211Y-16776778D02*
X20689735Y-16757731D01*
X20689735Y-16757731D02*
X20689735Y-16748207D01*
X20689735Y-16748207D02*
X20680211Y-16729159D01*
X20680211Y-16729159D02*
X20661163Y-16719635D01*
X20661163Y-16719635D02*
X20632592Y-16719635D01*
X20632592Y-16719635D02*
X20613544Y-16710112D01*
X20613544Y-16710112D02*
X20604020Y-16691064D01*
X20604020Y-16691064D02*
X20604020Y-16681540D01*
X20604020Y-16681540D02*
X20613544Y-16662492D01*
X20613544Y-16662492D02*
X20632592Y-16652969D01*
X20632592Y-16652969D02*
X20661163Y-16652969D01*
X20661163Y-16652969D02*
X20680211Y-16662492D01*
X20927830Y-16710112D02*
X21080211Y-16710112D01*
X21004020Y-16786302D02*
X21004020Y-16633921D01*
X21413544Y-16652969D02*
X21413544Y-16786302D01*
X21365925Y-16576778D02*
X21318306Y-16719635D01*
X21318306Y-16719635D02*
X21442116Y-16719635D01*
X21661163Y-16776778D02*
X21680211Y-16786302D01*
X21680211Y-16786302D02*
X21718306Y-16786302D01*
X21718306Y-16786302D02*
X21737354Y-16776778D01*
X21737354Y-16776778D02*
X21746878Y-16757731D01*
X21746878Y-16757731D02*
X21746878Y-16748207D01*
X21746878Y-16748207D02*
X21737354Y-16729159D01*
X21737354Y-16729159D02*
X21718306Y-16719635D01*
X21718306Y-16719635D02*
X21689735Y-16719635D01*
X21689735Y-16719635D02*
X21670687Y-16710112D01*
X21670687Y-16710112D02*
X21661163Y-16691064D01*
X21661163Y-16691064D02*
X21661163Y-16681540D01*
X21661163Y-16681540D02*
X21670687Y-16662492D01*
X21670687Y-16662492D02*
X21689735Y-16652969D01*
X21689735Y-16652969D02*
X21718306Y-16652969D01*
X21718306Y-16652969D02*
X21737354Y-16662492D01*
X21861163Y-16786302D02*
X21842116Y-16776778D01*
X21842116Y-16776778D02*
X21832592Y-16757731D01*
X21832592Y-16757731D02*
X21832592Y-16586302D01*
X21965925Y-16786302D02*
X21946878Y-16776778D01*
X21946878Y-16776778D02*
X21937354Y-16767254D01*
X21937354Y-16767254D02*
X21927830Y-16748207D01*
X21927830Y-16748207D02*
X21927830Y-16691064D01*
X21927830Y-16691064D02*
X21937354Y-16672016D01*
X21937354Y-16672016D02*
X21946878Y-16662492D01*
X21946878Y-16662492D02*
X21965925Y-16652969D01*
X21965925Y-16652969D02*
X21994497Y-16652969D01*
X21994497Y-16652969D02*
X22013544Y-16662492D01*
X22013544Y-16662492D02*
X22023068Y-16672016D01*
X22023068Y-16672016D02*
X22032592Y-16691064D01*
X22032592Y-16691064D02*
X22032592Y-16748207D01*
X22032592Y-16748207D02*
X22023068Y-16767254D01*
X22023068Y-16767254D02*
X22013544Y-16776778D01*
X22013544Y-16776778D02*
X21994497Y-16786302D01*
X21994497Y-16786302D02*
X21965925Y-16786302D01*
X22089735Y-16652969D02*
X22165925Y-16652969D01*
X22118306Y-16586302D02*
X22118306Y-16757731D01*
X22118306Y-16757731D02*
X22127830Y-16776778D01*
X22127830Y-16776778D02*
X22146878Y-16786302D01*
X22146878Y-16786302D02*
X22165925Y-16786302D01*
X22223068Y-16776778D02*
X22242116Y-16786302D01*
X22242116Y-16786302D02*
X22280211Y-16786302D01*
X22280211Y-16786302D02*
X22299259Y-16776778D01*
X22299259Y-16776778D02*
X22308782Y-16757731D01*
X22308782Y-16757731D02*
X22308782Y-16748207D01*
X22308782Y-16748207D02*
X22299259Y-16729159D01*
X22299259Y-16729159D02*
X22280211Y-16719635D01*
X22280211Y-16719635D02*
X22251640Y-16719635D01*
X22251640Y-16719635D02*
X22232592Y-16710112D01*
X22232592Y-16710112D02*
X22223068Y-16691064D01*
X22223068Y-16691064D02*
X22223068Y-16681540D01*
X22223068Y-16681540D02*
X22232592Y-16662492D01*
X22232592Y-16662492D02*
X22251640Y-16652969D01*
X22251640Y-16652969D02*
X22280211Y-16652969D01*
X22280211Y-16652969D02*
X22299259Y-16662492D01*
X22375449Y-16862493D02*
X22384973Y-16852969D01*
X22384973Y-16852969D02*
X22404020Y-16824397D01*
X22404020Y-16824397D02*
X22413544Y-16805350D01*
X22413544Y-16805350D02*
X22423068Y-16776778D01*
X22423068Y-16776778D02*
X22432592Y-16729159D01*
X22432592Y-16729159D02*
X22432592Y-16691064D01*
X22432592Y-16691064D02*
X22423068Y-16643445D01*
X22423068Y-16643445D02*
X22413544Y-16614873D01*
X22413544Y-16614873D02*
X22404020Y-16595826D01*
X22404020Y-16595826D02*
X22384973Y-16567254D01*
X22384973Y-16567254D02*
X22375449Y-16557731D01*
M02*
