%TF.GenerationSoftware,KiCad,Pcbnew,8.0.5*%
%TF.CreationDate,2024-12-18T14:45:34+08:00*%
%TF.ProjectId,hardware,68617264-7761-4726-952e-6b696361645f,rev?*%
%TF.SameCoordinates,Original*%
%TF.FileFunction,Paste,Top*%
%TF.FilePolarity,Positive*%
%FSLAX46Y46*%
G04 Gerber Fmt 4.6, Leading zero omitted, Abs format (unit mm)*
G04 Created by KiCad (PCBNEW 8.0.5) date 2024-12-18 14:45:34*
%MOMM*%
%LPD*%
G01*
G04 APERTURE LIST*
G04 Aperture macros list*
%AMRoundRect*
0 Rectangle with rounded corners*
0 $1 Rounding radius*
0 $2 $3 $4 $5 $6 $7 $8 $9 X,Y pos of 4 corners*
0 Add a 4 corners polygon primitive as box body*
4,1,4,$2,$3,$4,$5,$6,$7,$8,$9,$2,$3,0*
0 Add four circle primitives for the rounded corners*
1,1,$1+$1,$2,$3*
1,1,$1+$1,$4,$5*
1,1,$1+$1,$6,$7*
1,1,$1+$1,$8,$9*
0 Add four rect primitives between the rounded corners*
20,1,$1+$1,$2,$3,$4,$5,0*
20,1,$1+$1,$4,$5,$6,$7,0*
20,1,$1+$1,$6,$7,$8,$9,0*
20,1,$1+$1,$8,$9,$2,$3,0*%
G04 Aperture macros list end*
%ADD10RoundRect,0.140000X0.140000X0.170000X-0.140000X0.170000X-0.140000X-0.170000X0.140000X-0.170000X0*%
%ADD11RoundRect,0.140000X-0.140000X-0.170000X0.140000X-0.170000X0.140000X0.170000X-0.140000X0.170000X0*%
%ADD12RoundRect,0.150000X0.150000X-0.825000X0.150000X0.825000X-0.150000X0.825000X-0.150000X-0.825000X0*%
%ADD13RoundRect,0.150000X-0.150000X0.825000X-0.150000X-0.825000X0.150000X-0.825000X0.150000X0.825000X0*%
%ADD14RoundRect,0.250000X-0.262500X-0.450000X0.262500X-0.450000X0.262500X0.450000X-0.262500X0.450000X0*%
%ADD15RoundRect,0.250000X0.262500X0.450000X-0.262500X0.450000X-0.262500X-0.450000X0.262500X-0.450000X0*%
%ADD16RoundRect,0.250000X-0.450000X0.262500X-0.450000X-0.262500X0.450000X-0.262500X0.450000X0.262500X0*%
G04 APERTURE END LIST*
D10*
%TO.C,C14*%
X248700000Y-116500000D03*
X247740000Y-116500000D03*
%TD*%
%TO.C,C13*%
X248700000Y-107800000D03*
X247740000Y-107800000D03*
%TD*%
%TO.C,C12*%
X248700000Y-99100000D03*
X247740000Y-99100000D03*
%TD*%
%TO.C,C11*%
X247740000Y-90300000D03*
X248700000Y-90300000D03*
%TD*%
%TO.C,C10*%
X248700000Y-81700000D03*
X247740000Y-81700000D03*
%TD*%
%TO.C,C9*%
X248700000Y-73000000D03*
X247740000Y-73000000D03*
%TD*%
%TO.C,C8*%
X248780000Y-67100000D03*
X247820000Y-67100000D03*
%TD*%
D11*
%TO.C,C7*%
X188320000Y-116600000D03*
X189280000Y-116600000D03*
%TD*%
%TO.C,C6*%
X188320000Y-107900000D03*
X189280000Y-107900000D03*
%TD*%
%TO.C,C5*%
X188320000Y-99300000D03*
X189280000Y-99300000D03*
%TD*%
%TO.C,C4*%
X188320000Y-90500000D03*
X189280000Y-90500000D03*
%TD*%
%TO.C,C3*%
X188320000Y-81800000D03*
X189280000Y-81800000D03*
%TD*%
%TO.C,C2*%
X188320000Y-73100000D03*
X189280000Y-73100000D03*
%TD*%
%TO.C,C1*%
X188320000Y-63800000D03*
X189280000Y-63800000D03*
%TD*%
D12*
%TO.C,U8*%
X177755000Y-105733332D03*
X179025000Y-105733332D03*
X180295000Y-105733332D03*
X181565000Y-105733332D03*
X182835000Y-105733332D03*
X184105000Y-105733332D03*
X185375000Y-105733332D03*
X186645000Y-105733332D03*
X186645000Y-100783332D03*
X185375000Y-100783332D03*
X184105000Y-100783332D03*
X182835000Y-100783332D03*
X181565000Y-100783332D03*
X180295000Y-100783332D03*
X179025000Y-100783332D03*
X177755000Y-100783332D03*
%TD*%
D13*
%TO.C,U14*%
X259200000Y-92224999D03*
X257930000Y-92224999D03*
X256660000Y-92224999D03*
X255390000Y-92224999D03*
X254120000Y-92224999D03*
X252850000Y-92224999D03*
X251580000Y-92224999D03*
X250310000Y-92224999D03*
X250310000Y-97174999D03*
X251580000Y-97174999D03*
X252850000Y-97174999D03*
X254120000Y-97174999D03*
X255390000Y-97174999D03*
X256660000Y-97174999D03*
X257930000Y-97174999D03*
X259200000Y-97174999D03*
%TD*%
D14*
%TO.C,R12*%
X224287500Y-130700000D03*
X226112500Y-130700000D03*
%TD*%
%TO.C,R13*%
X230337500Y-130700000D03*
X232162500Y-130700000D03*
%TD*%
D13*
%TO.C,U17*%
X259200000Y-118350000D03*
X257930000Y-118350000D03*
X256660000Y-118350000D03*
X255390000Y-118350000D03*
X254120000Y-118350000D03*
X252850000Y-118350000D03*
X251580000Y-118350000D03*
X250310000Y-118350000D03*
X250310000Y-123300000D03*
X251580000Y-123300000D03*
X252850000Y-123300000D03*
X254120000Y-123300000D03*
X255390000Y-123300000D03*
X256660000Y-123300000D03*
X257930000Y-123300000D03*
X259200000Y-123300000D03*
%TD*%
D14*
%TO.C,R5*%
X179875000Y-130700000D03*
X181700000Y-130700000D03*
%TD*%
%TO.C,R19*%
X268187500Y-130700000D03*
X270012500Y-130700000D03*
%TD*%
%TO.C,R7*%
X192575000Y-130700000D03*
X194400000Y-130700000D03*
%TD*%
D12*
%TO.C,U7*%
X177755000Y-97049999D03*
X179025000Y-97049999D03*
X180295000Y-97049999D03*
X181565000Y-97049999D03*
X182835000Y-97049999D03*
X184105000Y-97049999D03*
X185375000Y-97049999D03*
X186645000Y-97049999D03*
X186645000Y-92099999D03*
X185375000Y-92099999D03*
X184105000Y-92099999D03*
X182835000Y-92099999D03*
X181565000Y-92099999D03*
X180295000Y-92099999D03*
X179025000Y-92099999D03*
X177755000Y-92099999D03*
%TD*%
%TO.C,U5*%
X177755000Y-79683333D03*
X179025000Y-79683333D03*
X180295000Y-79683333D03*
X181565000Y-79683333D03*
X182835000Y-79683333D03*
X184105000Y-79683333D03*
X185375000Y-79683333D03*
X186645000Y-79683333D03*
X186645000Y-74733333D03*
X185375000Y-74733333D03*
X184105000Y-74733333D03*
X182835000Y-74733333D03*
X181565000Y-74733333D03*
X180295000Y-74733333D03*
X179025000Y-74733333D03*
X177755000Y-74733333D03*
%TD*%
%TO.C,U9*%
X177755000Y-114416665D03*
X179025000Y-114416665D03*
X180295000Y-114416665D03*
X181565000Y-114416665D03*
X182835000Y-114416665D03*
X184105000Y-114416665D03*
X185375000Y-114416665D03*
X186645000Y-114416665D03*
X186645000Y-109466665D03*
X185375000Y-109466665D03*
X184105000Y-109466665D03*
X182835000Y-109466665D03*
X181565000Y-109466665D03*
X180295000Y-109466665D03*
X179025000Y-109466665D03*
X177755000Y-109466665D03*
%TD*%
%TO.C,U3*%
X224255000Y-119275000D03*
X225525000Y-119275000D03*
X226795000Y-119275000D03*
X228065000Y-119275000D03*
X229335000Y-119275000D03*
X230605000Y-119275000D03*
X231875000Y-119275000D03*
X233145000Y-119275000D03*
X233145000Y-114325000D03*
X231875000Y-114325000D03*
X230605000Y-114325000D03*
X229335000Y-114325000D03*
X228065000Y-114325000D03*
X226795000Y-114325000D03*
X225525000Y-114325000D03*
X224255000Y-114325000D03*
%TD*%
D14*
%TO.C,R14*%
X236387500Y-130700000D03*
X238212500Y-130700000D03*
%TD*%
%TO.C,R16*%
X248887500Y-130700000D03*
X250712500Y-130700000D03*
%TD*%
%TO.C,R10*%
X211437500Y-130700000D03*
X213262500Y-130700000D03*
%TD*%
%TO.C,R9*%
X205087500Y-130700000D03*
X206912500Y-130700000D03*
%TD*%
D15*
%TO.C,R1*%
X234415000Y-65700000D03*
X232590000Y-65700000D03*
%TD*%
D13*
%TO.C,U16*%
X259200000Y-109641665D03*
X257930000Y-109641665D03*
X256660000Y-109641665D03*
X255390000Y-109641665D03*
X254120000Y-109641665D03*
X252850000Y-109641665D03*
X251580000Y-109641665D03*
X250310000Y-109641665D03*
X250310000Y-114591665D03*
X251580000Y-114591665D03*
X252850000Y-114591665D03*
X254120000Y-114591665D03*
X255390000Y-114591665D03*
X256660000Y-114591665D03*
X257930000Y-114591665D03*
X259200000Y-114591665D03*
%TD*%
D12*
%TO.C,U6*%
X177755000Y-88366666D03*
X179025000Y-88366666D03*
X180295000Y-88366666D03*
X181565000Y-88366666D03*
X182835000Y-88366666D03*
X184105000Y-88366666D03*
X185375000Y-88366666D03*
X186645000Y-88366666D03*
X186645000Y-83416666D03*
X185375000Y-83416666D03*
X184105000Y-83416666D03*
X182835000Y-83416666D03*
X181565000Y-83416666D03*
X180295000Y-83416666D03*
X179025000Y-83416666D03*
X177755000Y-83416666D03*
%TD*%
D14*
%TO.C,R15*%
X242737500Y-130700000D03*
X244562500Y-130700000D03*
%TD*%
D13*
%TO.C,U15*%
X259200000Y-100933332D03*
X257930000Y-100933332D03*
X256660000Y-100933332D03*
X255390000Y-100933332D03*
X254120000Y-100933332D03*
X252850000Y-100933332D03*
X251580000Y-100933332D03*
X250310000Y-100933332D03*
X250310000Y-105883332D03*
X251580000Y-105883332D03*
X252850000Y-105883332D03*
X254120000Y-105883332D03*
X255390000Y-105883332D03*
X256660000Y-105883332D03*
X257930000Y-105883332D03*
X259200000Y-105883332D03*
%TD*%
D14*
%TO.C,R18*%
X261637500Y-130700000D03*
X263462500Y-130700000D03*
%TD*%
%TO.C,R17*%
X255087500Y-130700000D03*
X256912500Y-130700000D03*
%TD*%
D12*
%TO.C,U4*%
X177755000Y-71000000D03*
X179025000Y-71000000D03*
X180295000Y-71000000D03*
X181565000Y-71000000D03*
X182835000Y-71000000D03*
X184105000Y-71000000D03*
X185375000Y-71000000D03*
X186645000Y-71000000D03*
X186645000Y-66050000D03*
X185375000Y-66050000D03*
X184105000Y-66050000D03*
X182835000Y-66050000D03*
X181565000Y-66050000D03*
X180295000Y-66050000D03*
X179025000Y-66050000D03*
X177755000Y-66050000D03*
%TD*%
%TO.C,U2*%
X202200000Y-119275000D03*
X203470000Y-119275000D03*
X204740000Y-119275000D03*
X206010000Y-119275000D03*
X207280000Y-119275000D03*
X208550000Y-119275000D03*
X209820000Y-119275000D03*
X211090000Y-119275000D03*
X211090000Y-114325000D03*
X209820000Y-114325000D03*
X208550000Y-114325000D03*
X207280000Y-114325000D03*
X206010000Y-114325000D03*
X204740000Y-114325000D03*
X203470000Y-114325000D03*
X202200000Y-114325000D03*
%TD*%
D14*
%TO.C,R11*%
X217937500Y-130700000D03*
X219762500Y-130700000D03*
%TD*%
%TO.C,R6*%
X186425000Y-130700000D03*
X188250000Y-130700000D03*
%TD*%
D13*
%TO.C,U13*%
X259200000Y-83516666D03*
X257930000Y-83516666D03*
X256660000Y-83516666D03*
X255390000Y-83516666D03*
X254120000Y-83516666D03*
X252850000Y-83516666D03*
X251580000Y-83516666D03*
X250310000Y-83516666D03*
X250310000Y-88466666D03*
X251580000Y-88466666D03*
X252850000Y-88466666D03*
X254120000Y-88466666D03*
X255390000Y-88466666D03*
X256660000Y-88466666D03*
X257930000Y-88466666D03*
X259200000Y-88466666D03*
%TD*%
D12*
%TO.C,U10*%
X177755000Y-123100000D03*
X179025000Y-123100000D03*
X180295000Y-123100000D03*
X181565000Y-123100000D03*
X182835000Y-123100000D03*
X184105000Y-123100000D03*
X185375000Y-123100000D03*
X186645000Y-123100000D03*
X186645000Y-118150000D03*
X185375000Y-118150000D03*
X184105000Y-118150000D03*
X182835000Y-118150000D03*
X181565000Y-118150000D03*
X180295000Y-118150000D03*
X179025000Y-118150000D03*
X177755000Y-118150000D03*
%TD*%
D16*
%TO.C,R3*%
X201300000Y-57187500D03*
X201300000Y-59012500D03*
%TD*%
D14*
%TO.C,R8*%
X198875000Y-130700000D03*
X200700000Y-130700000D03*
%TD*%
D13*
%TO.C,U12*%
X259200000Y-74808333D03*
X257930000Y-74808333D03*
X256660000Y-74808333D03*
X255390000Y-74808333D03*
X254120000Y-74808333D03*
X252850000Y-74808333D03*
X251580000Y-74808333D03*
X250310000Y-74808333D03*
X250310000Y-79758333D03*
X251580000Y-79758333D03*
X252850000Y-79758333D03*
X254120000Y-79758333D03*
X255390000Y-79758333D03*
X256660000Y-79758333D03*
X257930000Y-79758333D03*
X259200000Y-79758333D03*
%TD*%
D15*
%TO.C,R2*%
X234370000Y-55500000D03*
X232545000Y-55500000D03*
%TD*%
D13*
%TO.C,U11*%
X259200000Y-66100000D03*
X257930000Y-66100000D03*
X256660000Y-66100000D03*
X255390000Y-66100000D03*
X254120000Y-66100000D03*
X252850000Y-66100000D03*
X251580000Y-66100000D03*
X250310000Y-66100000D03*
X250310000Y-71050000D03*
X251580000Y-71050000D03*
X252850000Y-71050000D03*
X254120000Y-71050000D03*
X255390000Y-71050000D03*
X256660000Y-71050000D03*
X257930000Y-71050000D03*
X259200000Y-71050000D03*
%TD*%
D14*
%TO.C,R4*%
X173687500Y-130700000D03*
X175512500Y-130700000D03*
%TD*%
M02*
